<svg xmlns="http://www.w3.org/2000/svg" viewBox="0 0 479.55 639.26">
    <rect fill="currentColor" x="112.39" y="371.09" width="254.91" height="252.22" />
    <polygon fill="currentColor"
        points="105.23 309.37 186.62 208.3 239.85 110.81 294.85 213.39 385.18 309.37 105.23 309.37" />
    <path
        d="M95.81,639.26c-.09-2.16-.26-4.32-.26-6.48q0-134.73,0-269.44c0-2.45.21-4.91.34-7.84H379.47a48.34,48.34,0,0,1,.58,5.34q0,137.46,0,274.94c0,1.16-.16,2.32-.25,3.48Zm255.11-28.67V384.1H124.61V610.59Z" />
    <path
        d="M0,326.19C148.23,302.87,225.1,134.43,240.36,0c12.27,136.86,92.19,300.29,239.19,326.89H.08ZM352.65,297.7c-52.1-46.89-87.07-104-112.84-168.63C214.06,194,179,250.87,127.06,297.7Z" />
</svg>