<svg width="222" height="228" viewBox="0 0 222 228" fill="none" xmlns="http://www.w3.org/2000/svg">
<path d="M27.4849 71.8215C33.1244 74.9401 35.9701 81.9822 32.1978 88.7976C32.0475 89.0372 31.9196 89.3743 31.7694 89.614C30.4172 91.7707 28.5633 93.5295 26.2606 94.673C23.1031 96.1151 19.4681 95.9226 16.3975 94.1643C15.2217 93.5105 14.0763 92.542 13.006 91.4537C10.7984 88.9846 9.54312 86.1945 9.68289 82.7768C9.56687 80.0334 10.1778 77.3284 11.4326 75.1941C12.8904 72.6027 15.0366 70.7769 17.6013 69.8811C18.0886 69.7694 18.5009 69.7775 18.8603 70.0029C18.9802 70.078 19.1974 70.1308 19.3396 70.3034C21.0537 71.9623 22.8429 73.5013 24.5042 75.3775C24.1894 75.3471 23.8746 75.3167 23.5375 75.1888C21.0499 74.6306 18.5541 74.4846 16.0646 75.2606C13.6725 76.0142 11.9994 77.2186 10.8948 79.1133C10.3162 80.1694 9.95485 81.2782 9.85549 82.6347C10.3167 85.0938 11.6713 86.5273 13.5437 87.5344C14.4799 88.0379 15.5136 88.519 16.6 88.7829C21.612 90.5065 26.8469 88.2803 29.2365 83.9364C29.6649 83.12 30.071 82.2062 30.3572 81.2172C31.3072 77.306 29.469 73.3159 25.9415 71.3546C25.7019 71.2043 25.4622 71.0541 25.1251 70.9262C24.5707 70.7455 24.0914 70.445 23.6345 70.242C24.9606 70.6561 26.309 71.1677 27.4849 71.8215Z" fill="black"/>
<path d="M54.3258 61.3585L54.4679 61.5311L50.2872 65.6701C49.7917 66.194 49.2293 66.4256 48.8028 65.9078C48.2037 65.5322 47.702 65.1342 47.103 64.7586C45.5453 63.782 44.01 62.9029 42.3245 62.2634C42.1072 62.2106 41.7701 62.0827 41.5528 62.0299C40.9009 61.8716 40.2267 61.6158 39.5748 61.4574C38.6082 61.2687 35.3104 61.204 34.3661 61.1128C33.7366 61.0519 32.5669 61.3201 32.5669 61.3201L31.7039 62.0309L32.2503 62.6238L40.6927 71.2554C42.025 72.5915 42.5347 72.5772 44.0129 71.4176C44.1855 71.2754 44.4556 71.1109 44.7256 70.9464L37.7753 77.7722C38.7966 76.4095 38.0634 75.4491 37.1353 74.5333L23.8126 61.1727C22.6225 60.0093 22.4052 59.9565 20.8376 60.7263L25.7087 56.0186L31.4643 61.8807C31.7871 61.4989 32.1323 61.2145 32.4775 60.9302C33.3933 60.0021 34.1892 58.9988 34.6033 57.6727C35.0255 55.9344 34.6233 54.18 33.4332 53.0165C33.1712 52.7688 32.7894 52.4459 32.4299 52.2206C31.7334 51.8673 30.7891 51.776 30.0398 51.64L31.721 50.0234L33.4774 48.287C33.65 48.1448 34.0622 48.1529 34.377 48.1833C35.2238 48.297 35.8229 48.6726 36.3468 49.168C37.013 49.8361 37.3116 50.691 37.3401 51.7104C37.4419 53.9441 36.4348 55.8165 35.308 57.6138C34.8572 58.3327 34.3841 58.9541 34.0309 59.6507L34.1283 59.6283C34.3009 59.4862 34.7436 59.1795 35.036 59.1125C35.501 58.9033 36.0107 58.889 36.4006 58.7996C37.9601 58.442 39.6618 58.2571 41.3108 58.2894C42.8622 58.3441 44.3609 58.616 45.8068 59.1053C47.8294 59.8727 49.4014 61.359 51.4768 61.9091C52.0088 61.9923 52.5632 62.173 53.1704 62.1364C53.6354 61.9272 54.0029 61.7403 54.3258 61.3585Z" fill="black"/>
<path d="M53.4803 33.9543C57.3283 31.9435 62.0354 31.8902 65.9894 34.3693C67.9065 35.5713 69.3059 37.1997 70.3376 39.0151C72.3484 42.863 72.3042 47.5925 69.8251 51.5465C68.6232 53.4636 66.9947 54.8629 65.1793 55.8947C61.3314 57.9055 56.6019 57.8613 52.6479 55.3822C50.8283 54.1579 49.3315 52.5518 48.3972 50.7141C46.3864 46.8661 46.4083 42.0392 48.8122 38.205C50.0365 36.3853 51.665 34.986 53.4803 33.9543ZM69.2336 45.8342C68.015 43.6514 65.7546 41.3996 62.7591 39.5215C58.3035 36.6444 53.7404 35.5361 50.9951 36.9863C50.3575 37.3377 49.7646 37.884 49.3138 38.6029C48.2621 40.2804 48.3719 42.1019 49.4261 44.0147C50.6447 46.1976 52.9051 48.4494 55.9006 50.3275C60.3562 53.2045 64.9193 54.3128 67.6646 52.8626C68.3022 52.5112 68.8951 51.9649 69.3459 51.246C70.4199 49.666 70.2877 47.747 69.2336 45.8342Z" fill="black"/>
<path d="M91.1589 28.7017C92.2762 33.5752 89.6978 38.8857 84.7857 40.7301C84.4933 40.7971 84.1258 40.984 83.8334 41.051C82.8587 41.2745 81.8393 41.303 80.5721 41.5936L81.8459 47.1494C82.1669 48.1018 82.3842 48.1545 83.958 48.3067L80.1566 49.1782L79.7667 49.2676L75.9654 50.1392C77.2182 49.339 77.4883 49.1744 77.3623 48.1774L75.8873 41.7443C75.8873 41.7443 73.7786 32.9943 72.7953 28.7055C72.3931 26.9511 72.2732 26.8759 70.602 26.7461L77.23 25.2265L78.7496 31.8545L78.8471 31.8322C78.9607 30.9854 78.9545 30.0635 79.1656 29.1943C79.4985 27.0661 80.3633 25.0211 82.3513 23.8472C82.9889 23.4958 83.5513 23.2642 84.1362 23.1301C86.6704 22.5491 89.217 23.8119 90.5474 26.4822C90.7038 27.1645 90.9801 27.9219 91.1589 28.7017ZM86.3952 31.6405C86.2164 30.8608 85.9625 30.2008 85.6639 29.3459C85.2678 28.5134 84.7519 27.6057 84.0858 26.9377C83.4197 26.2697 82.5505 26.0586 81.7707 26.2373C81.1859 26.3714 80.6458 26.7005 80.2701 27.2995C79.7219 28.0408 79.4134 28.9323 79.2023 29.8015C78.8024 31.6373 79.0321 33.5339 79.3896 35.0934C79.5014 35.5808 79.5907 35.9707 79.6801 36.3606L80.1718 38.5049L80.3729 39.3822C80.44 39.6746 80.7243 40.0198 80.9639 40.17C81.6828 40.6207 82.6271 40.712 83.3094 40.5556C83.9917 40.3992 84.5318 40.0701 85.0273 39.5462C85.6506 38.6851 86.2516 37.7265 86.418 36.6624C86.8402 34.9241 86.7751 33.2976 86.3952 31.6405Z" fill="black"/>
<path d="M108.214 21.2004C112.554 21.334 116.605 23.7907 118.78 27.9087C119.857 29.919 120.251 32.0857 120.211 34.1469C120.077 38.4865 117.62 42.5379 113.48 44.6158C111.567 45.6699 109.4 46.0641 107.242 46.046C102.902 45.9124 98.8508 43.4557 96.6755 39.3377C95.7188 37.4025 95.2272 35.2581 95.3651 33.1746C95.4987 28.835 97.933 24.6861 102.073 22.6083C103.986 21.5542 106.153 21.16 108.214 21.2004ZM115.788 39.4698C115.934 36.974 115.002 33.8022 113.365 30.6893C110.958 26.0088 107.627 22.6686 104.427 22.5816C103.7 22.5431 102.92 22.7219 102.185 23.0956C100.445 24.0076 99.6105 25.7378 99.5701 27.799C99.4241 30.2947 100.357 33.4666 101.994 36.5794C104.4 41.26 107.731 44.6001 110.931 44.6871C111.658 44.7256 112.438 44.5468 113.173 44.1731C114.936 43.3586 115.77 41.6284 115.788 39.4698Z" fill="black"/>
<path d="M151.784 32.2422C155.626 34.2339 158.364 38.1204 158.59 42.6853C158.691 44.9191 158.261 47.0696 157.254 48.942C155.36 52.762 151.376 55.5221 146.811 55.7479C144.577 55.8497 142.427 55.4194 140.576 54.5098C136.757 52.6156 133.996 48.6317 133.771 44.0667C133.669 41.8329 134.121 39.7799 135.031 37.9298C137.023 34.0875 140.909 31.3498 145.572 31.1016C147.761 30.8049 149.934 31.3326 151.784 32.2422ZM151.178 51.9765C152.313 49.767 152.79 46.4772 152.615 43.0291C152.33 37.7595 150.718 33.4099 147.812 31.9217C147.115 31.5685 146.366 31.4325 145.541 31.4163C143.622 31.5485 142.144 32.7082 141.159 34.6781C140.024 36.8876 139.547 40.1773 139.722 43.6254C140.007 48.895 141.642 53.3421 144.526 54.7328C145.223 55.0861 145.972 55.2221 146.797 55.2382C148.716 55.106 150.194 53.9464 151.178 51.9765Z" fill="black"/>
<path d="M183.815 56.498L179.776 60.8096C180.625 59.589 183.004 56.9915 181.193 55.355L177.809 52.2321C177.428 51.9093 176.918 51.9236 176.573 52.2079L162.467 67.6507C162.069 68.1523 162.203 68.7371 162.554 69.3747C162.719 69.6448 162.884 69.9149 163.07 70.2824L156.042 63.789C157.869 64.6011 158.162 64.534 159.475 63.1043L172.537 48.9267C172.785 48.6647 172.935 48.4251 172.891 48.2301C172.921 47.9154 172.854 47.623 172.614 47.4727L169.373 44.5224C167.464 42.9082 165.159 45.3859 163.951 46.3811L167.99 42.0695L183.815 56.498Z" fill="black"/>
<path d="M180.411 94.0072L180.238 94.1494L177.135 89.1156C176.784 88.478 176.649 87.8932 177.19 87.5642C177.707 87.1377 178.203 86.6137 178.721 86.1872C179.959 84.8773 181.198 83.5674 182.197 82.1072C182.347 81.8676 182.497 81.6279 182.647 81.3883C182.926 80.8115 183.399 80.1901 183.557 79.5382C183.963 78.6244 184.777 75.4625 185.063 74.4735C185.222 73.8217 185.268 72.6824 185.268 72.6824L184.775 71.8723L184.062 72.3434L173.822 78.6924C172.299 79.6572 172.118 80.2116 172.91 81.8766C173.052 82.0492 173.12 82.3416 173.187 82.6341L167.989 74.2844C169.104 75.5677 170.109 75.0294 171.287 74.349L187.371 64.4031C188.819 63.5582 188.849 63.2434 188.469 61.5864L192.044 67.3329L185.045 71.7077C185.351 72.1504 185.538 72.5179 185.747 72.9829C186.428 74.1607 187.259 75.0988 188.434 75.7525C189.947 76.5342 191.791 76.5218 193.239 75.6769C193.606 75.4901 193.952 75.2057 194.177 74.8463C194.65 74.2248 194.959 73.3333 195.312 72.6368L196.583 74.6023L197.877 76.6654C198.019 76.838 197.914 77.2726 197.764 77.5122C197.433 78.3062 196.937 78.8302 196.322 79.279C195.512 79.7726 194.612 79.8762 193.645 79.6875C191.397 79.2795 189.848 77.8907 188.276 76.4044C187.73 75.8115 187.183 75.2186 186.637 74.6257L186.659 74.7232C186.824 74.9932 186.936 75.4806 186.98 75.6755C187.092 76.1629 187.009 76.6949 187.001 77.1072C187.066 78.7337 186.719 80.3522 186.372 81.9707C186.002 83.4917 185.393 84.8625 184.567 86.1805C183.44 87.9778 181.55 89.1294 180.662 91.0769C180.362 91.5562 180.181 92.1106 180.098 92.6426C180.015 93.1747 180.127 93.662 180.411 94.0072Z" fill="black"/>
<path d="M202.532 107.711C197.748 109.218 192.31 106.977 190.098 102.251C189.933 101.981 189.866 101.689 189.777 101.299C189.456 100.347 189.307 99.2521 189.039 98.0825L183.573 99.7462C182.62 100.067 182.59 100.382 182.535 101.933L181.371 98.199L181.282 97.8091L180.118 94.0748C181.016 95.3053 181.18 95.5754 182.133 95.2544L188.454 93.2921C188.454 93.2921 196.972 90.6209 201.292 89.3229C203.024 88.8231 203.099 88.7033 203.109 86.9569L205.093 93.3757L198.675 95.3604L198.697 95.4578C199.619 95.4516 200.443 95.4678 201.388 95.5591C203.591 95.7721 205.591 96.442 206.96 98.3853C207.387 98.903 207.641 99.563 207.775 100.148C208.551 102.637 207.505 105.237 204.88 106.762C203.95 107.18 203.215 107.554 202.532 107.711ZM199.151 103.254C199.908 102.977 200.568 102.723 201.303 102.35C202.136 101.954 202.923 101.363 203.569 100.599C204.215 99.8355 204.328 98.9886 204.15 98.2089C204.016 97.624 203.589 97.1063 202.99 96.7307C202.271 96.2799 201.282 95.9937 200.413 95.7826C198.502 95.5025 196.748 95.9048 195.113 96.3822C194.626 96.4939 194.258 96.6808 193.868 96.7702L191.769 97.4567L190.914 97.7553C190.644 97.9198 190.276 98.1067 190.223 98.324C189.892 99.118 189.779 99.9649 190.055 100.722C190.211 101.405 190.638 101.922 191.237 102.298C192.098 102.921 193.207 103.283 194.173 103.471C195.987 103.774 197.613 103.709 199.151 103.254Z" fill="black"/>
<path d="M210.924 131.332L211.016 140.237C210.419 138.527 210.397 138.43 208.943 138.353L188.487 138.631C187.371 138.682 187.34 138.997 186.873 140.54L186.812 136.245L186.82 135.833L186.759 131.538C187.311 133.053 187.378 133.345 188.42 133.414L208.875 133.136C210.329 133.213 210.382 132.996 210.924 131.332ZM191.675 131.95C191.48 131.994 191.36 131.919 191.165 131.964C191.045 131.889 190.85 131.934 190.731 131.858C188.97 131.339 187.961 129.621 187.386 128.009C186.744 126.104 186.664 123.968 186.727 122.004L186.751 120.767L186.68 118.219L186.611 114.336L186.598 112.492C186.696 112.47 186.718 112.567 186.718 112.567C187.039 113.52 187.788 113.656 188.613 113.672L204.773 113.455L207.322 113.384L208.851 113.341C209.578 113.379 210.552 113.156 210.719 112.092L210.837 118.425L209.915 118.432L208.071 118.444C206.228 118.456 199.384 118.589 197.638 118.579L196.011 118.644C194.774 118.62 193.44 118.618 192.226 118.691C191.304 118.697 190.382 118.704 189.46 118.71C188.853 118.746 188.073 118.925 187.675 119.427C187.3 120.026 187.186 120.873 187.245 121.577C187.273 122.597 187.399 123.594 188.013 124.479C188.649 125.462 189.824 126.116 191.061 126.14C191.473 126.148 191.961 126.036 192.328 125.849C192.696 125.663 193.019 125.281 193.341 124.899C193.567 124.54 193.65 124.008 193.636 123.498C193.554 122.696 193.158 121.863 192.687 121.15C192.216 120.438 191.67 119.845 191.048 119.372C190.689 119.146 190.307 118.823 189.992 118.793C191.416 119.185 192.734 120.011 193.707 121.122C194.679 122.233 195.307 123.628 195.545 125.112C195.679 125.697 195.715 126.304 195.752 126.911C195.744 127.323 195.758 127.833 195.653 128.268C195.494 128.92 195.314 129.474 195.036 130.051C194.067 131.196 192.912 131.974 191.675 131.95Z" fill="black"/>
<path d="M203.759 167.652L198.042 165.988C199.541 166.26 202.845 167.246 203.621 164.811L204.946 160.301C205.052 159.866 204.82 159.304 204.386 159.198L184.269 153.346C183.639 153.285 183.099 153.614 182.821 154.191C182.671 154.43 182.521 154.67 182.318 155.127L185.022 145.889C185.079 147.928 185.341 148.176 187.101 148.695L205.577 154.103C205.914 154.231 206.109 154.186 206.402 154.119C206.694 154.052 206.844 153.813 206.994 153.573L208.29 149.378C208.968 146.965 205.566 146.001 204.195 145.392L209.912 147.056L203.759 167.652Z" fill="black"/>
<path d="M187.546 184.194L186.37 183.54L184.236 182.285L183.756 181.985L183.277 181.684L174.545 176.71L172.313 175.478L175.228 170.295C174.619 171.666 172.959 174.714 174.995 175.991L183.63 180.988L183.87 181.138L184.349 181.439L186.461 182.596L187.158 182.949L179.634 160.872C179.634 160.872 180.233 161.248 180.473 161.398L184.36 163.585L185.536 164.238L192.972 168.484L193.452 168.784L193.931 169.085L198.896 171.948L201.128 173.18L198.213 178.363C198.822 176.992 200.482 173.944 198.348 172.689L193.046 169.698L185.751 165.625L193.013 187.455L192.316 187.101L187.546 184.194Z" fill="black"/>
<path d="M182.656 191.06L178.381 187.629L174.454 192.427L171.422 189.942C171.422 189.942 174.462 192.015 175.506 190.75L178.141 187.478L177.999 187.306L177.497 186.908L170.288 180.969L170.168 180.894L169.165 180.098L166.529 183.369C165.486 184.635 167.986 187.037 167.986 187.037L164.834 184.476L168.761 179.677L172.042 175.642C171.388 176.818 172.032 177.388 172.915 178.109L184.28 187.405C185.283 188.201 185.501 188.253 186.559 187.498L183.18 191.555L179.253 196.354L176.101 193.794C176.101 193.794 178.902 195.717 179.945 194.452L182.656 191.06Z" fill="black"/>
</svg>
