<svg width="22" height="14" viewBox="0 0 22 14" fill="none" xmlns="http://www.w3.org/2000/svg">
<path d="M6.45932 7.75995C8.32603 7.75995 9.8393 6.24668 9.8393 4.37997C9.8393 2.51327 8.32603 1 6.45932 1C4.59261 1 3.07935 2.51327 3.07935 4.37997C3.07935 6.24668 4.59261 7.75995 6.45932 7.75995Z" stroke="#968A71" stroke-miterlimit="10"/>
<path d="M1 14C1 11.5301 2.94999 9.58008 5.41997 9.58008H7.62995C10.0999 9.58008 12.0499 11.5301 12.0499 14" stroke="#968A71" stroke-miterlimit="10"/>
<path d="M15.4591 7.75995C17.3258 7.75995 18.8391 6.24668 18.8391 4.37997C18.8391 2.51327 17.3258 1 15.4591 1C13.5924 1 12.0791 2.51327 12.0791 4.37997C12.0791 6.24668 13.5924 7.75995 15.4591 7.75995Z" stroke="#968A71" stroke-miterlimit="10"/>
<path d="M21.0497 14C21.0497 11.5301 19.0997 9.58008 16.6298 9.58008H14.4198C13.6339 9.58008 12.9007 9.77748 12.2661 10.1262" stroke="#968A71" stroke-miterlimit="10"/>
</svg>
