<svg xmlns="http://www.w3.org/2000/svg" viewBox="0 0 21 20">
    <path fill="currentColor" d="M10.58,5.66A2.66,2.66,0,1,1,13.24,3,2.66,2.66,0,0,1,10.58,5.66Z" />
    <path d="M10.58,6a3,3,0,1,1,3-3A3,3,0,0,1,10.58,6Zm0-5a2,2,0,1,0,2,2A2,2,0,0,0,10.58,1Z" />
    <path
        d="M.5,20a17.93,17.93,0,0,0,1.9-.55A9.44,9.44,0,0,0,5.82,17a18.38,18.38,0,0,0,4.45-8.71c.15-.65.22-1.31.32-2,0,.27.07.54.11.81a18.69,18.69,0,0,0,3.2,8.09,12.91,12.91,0,0,0,3.56,3.58A7.56,7.56,0,0,0,20.58,20l.08,0Zm4.69-1H16a18.53,18.53,0,0,1-5.4-8A18.45,18.45,0,0,1,5.19,19Z" />
    <path fill="currentColor" d="M16.5,19.34H4.67a20.29,20.29,0,0,0,5.92-8.79A20.33,20.33,0,0,0,16.5,19.34Z" />
</svg>