<svg xmlns="http://www.w3.org/2000/svg" width="26" height="29" viewBox="0 0 26 29">
    <path
        d="M17.6777 12.9292C13.2582 12.9292 9.72266 16.4648 9.72266 20.8842C9.72266 25.3037 13.2582 28.8393 17.6777 28.8393C22.0972 28.8393 25.6327 25.3037 25.6327 20.8842C25.6327 16.4648 22.0972 12.9292 17.6777 12.9292ZM22.8548 26.0613C21.4658 27.4503 19.698 28.2079 17.6777 28.2079C15.6574 28.2079 13.7633 27.324 12.5006 26.0613C11.1116 24.6724 10.354 22.9046 10.354 20.8842C10.354 18.8639 11.2379 16.9699 12.5006 15.7072C13.8896 14.3182 15.6574 13.5606 17.6777 13.5606C19.698 13.5606 21.5921 14.4444 22.8548 15.7072C24.2438 17.0961 25.0014 18.8639 25.0014 20.8842C25.0014 22.9046 24.1175 24.7986 22.8548 26.0613Z" />
    <path
        d="M20.4549 20.6315H17.677V16.212C17.677 16.0857 17.5507 15.9595 17.4244 15.9595C17.2981 15.9595 17.1719 16.0857 17.1719 16.212V20.884L17.2981 21.1366L17.5507 21.2628H20.7075C20.8337 21.2628 20.96 21.1366 20.96 21.0103C20.8337 20.7578 20.7075 20.6315 20.4549 20.6315Z" />
    <path
        d="M3.66192 12.045C4.08034 12.045 4.41954 11.7058 4.41954 11.2874C4.41954 10.869 4.08034 10.5298 3.66192 10.5298C3.2435 10.5298 2.9043 10.869 2.9043 11.2874C2.9043 11.7058 3.2435 12.045 3.66192 12.045Z" />
    <path
        d="M3.66192 17.3487C4.08034 17.3487 4.41954 17.0095 4.41954 16.5911C4.41954 16.1727 4.08034 15.8335 3.66192 15.8335C3.2435 15.8335 2.9043 16.1727 2.9043 16.5911C2.9043 17.0095 3.2435 17.3487 3.66192 17.3487Z" />
    <path
        d="M8.96563 12.045C9.38406 12.045 9.72326 11.7058 9.72326 11.2874C9.72326 10.869 9.38406 10.5298 8.96563 10.5298C8.54721 10.5298 8.20801 10.869 8.20801 11.2874C8.20801 11.7058 8.54721 12.045 8.96563 12.045Z" />
    <path
        d="M14.2684 12.045C14.6868 12.045 15.026 11.7058 15.026 11.2874C15.026 10.869 14.6868 10.5298 14.2684 10.5298C13.8499 10.5298 13.5107 10.869 13.5107 11.2874C13.5107 11.7058 13.8499 12.045 14.2684 12.045Z" />
    <path
        d="M0.631353 19.2427V8.13085H17.2991V11.7927H17.9304V5.22663C17.9304 4.21647 17.0465 3.33257 16.0364 3.33257H15.7838V0.302078C15.7838 0.175807 15.6576 0.0495366 15.5313 0.0495366C15.405 0.0495366 15.2787 0.175807 15.2787 0.302078V3.2063H3.15676V0.302078C3.15676 0.175807 3.03049 0.0495366 2.90422 0.0495366C2.65168 -0.076734 2.52541 0.0495366 2.52541 0.302078V3.2063H1.89406C0.883894 3.2063 0 4.0902 0 5.22663V7.62577V8.25712V19.2427C0 20.2528 0.883894 21.1367 1.89406 21.1367H8.5864V20.5054H1.89406C1.13644 20.6316 0.631353 20.0003 0.631353 19.2427ZM0.631353 5.22663C0.631353 4.46901 1.26271 3.96392 1.89406 3.96392H16.0364C16.794 3.96392 17.2991 4.59528 17.2991 5.22663V7.62577H0.631353V5.22663Z" />
</svg>