<svg xmlns="http://www.w3.org/2000/svg" viewBox="0 0 29 29">

    <path stroke-linecap="round" stroke-linejoin="round" fill="none" vector-effect="non-scaling-stroke"
        d="M9.76,20.87H6.47L3,26.27H26.39l-2.94-5.4H19.81" />
    <path stroke-linecap="round" stroke-linejoin="round" fill="none" vector-effect="non-scaling-stroke"
        d="M12.88,2.21a8.54,8.54,0,0,0-6.58,7,8.35,8.35,0,0,0,2.42,7.49l5.37,5.41a.65.65,0,0,0,1,0l5.38-5.41a8.44,8.44,0,0,0,2.77-6.27A8.61,8.61,0,0,0,12.88,2.21Zm1.73,11.68a3.3,3.3,0,0,1-3.29-3.31,3.19,3.19,0,0,1,3.29-3.31,3.3,3.3,0,0,1,3.3,3.31A3.2,3.2,0,0,1,14.61,13.89Z" />
</svg>