<svg xmlns="http://www.w3.org/2000/svg" viewBox="0 0 30 31">

    <path stroke-linecap="round" stroke-linejoin="round" fill="none"
        d="M23.13,7.42l-3.3,4.36c-.34.35-.17.87,0,1.22l2.26,2.79a18.81,18.81,0,0,1-3.3,4.36,16.22,16.22,0,0,1-4.15,3.14L11.86,21a.83.83,0,0,0-1.21,0L6.32,24.33A.85.85,0,0,0,6,25.38l1.39,4a1.67,1.67,0,0,0,2.42,1,33.1,33.1,0,0,0,11.79-7.84,36.22,36.22,0,0,0,7.8-11.86,2,2,0,0,0-1-2.44l-4-1.39H24A.94.94,0,0,0,23.13,7.42Z"
        vector-effect="non-scaling-stroke" />
    <path stroke-linecap="round" stroke-linejoin="round" fill="none" d="M5.79,16.49v-1a9,9,0,0,1,9-9.06"
        vector-effect="non-scaling-stroke" />
    <path stroke-linecap="round" stroke-linejoin="round" fill="none" d="M.6,17.36V15.79A14.76,14.76,0,0,1,15.33,1"
        vector-effect="non-scaling-stroke" />
</svg>