<svg xmlns="http://www.w3.org/2000/svg" width="141" height="141" viewBox="0 0 141 141" fill="none"
    vector-effect="non-scaling-stroke">
    <path
        d="M90.6089 107.83H19.8295C18.4608 107.832 17.1051 107.563 15.8401 107.041C14.5751 106.518 13.4255 105.751 12.457 104.784C11.4886 103.817 10.7203 102.668 10.1961 101.404C9.67196 100.139 9.40216 98.7839 9.40216 97.4152V43.5722C9.40551 40.8144 10.5025 38.1706 12.4525 36.2206C14.4026 34.2705 17.0464 33.1735 19.8042 33.1702H121.183C123.943 33.1702 126.59 34.2657 128.543 36.2161C130.496 38.1665 131.594 40.8123 131.598 43.5722V97.4152C131.598 100.177 130.501 102.826 128.547 104.779C126.594 106.733 123.945 107.83 121.183 107.83H90.6089Z"
        stroke-linecap="round" stroke-linejoin="round" vector-effect="non-scaling-stroke" />
    <path d="M94.9189 33.1702V107.83" stroke-linecap="round" stroke-linejoin="round"
        vector-effect="non-scaling-stroke" />
    <path d="M9.40216 82.8042H131.598" stroke-linecap="round" stroke-linejoin="round"
        vector-effect="non-scaling-stroke" />
    <path
        d="M77.717 65.2484C79.9771 65.2484 82.215 65.6938 84.3028 66.559C86.3907 67.4243 88.2876 68.6925 89.8851 70.2912C91.4826 71.8899 92.7494 73.7877 93.6131 75.8762C94.4769 77.9647 94.9206 80.2029 94.9189 82.463V82.8169H77.717C75.3906 82.8169 73.1595 81.8927 71.5145 80.2477C69.8695 78.6028 68.9454 76.3717 68.9454 74.0453C68.9586 71.7207 69.8862 69.4946 71.5276 67.8485C73.169 66.2023 75.3924 65.2683 77.717 65.2484Z"
        stroke-linecap="round" stroke-linejoin="round" vector-effect="non-scaling-stroke" />
    <path
        d="M112.108 65.2484C109.849 65.2484 107.611 65.6939 105.524 66.5593C103.437 67.4247 101.541 68.6931 99.9446 70.292C98.3481 71.8908 97.0825 73.7887 96.2201 75.8772C95.3578 77.9656 94.9156 80.2035 94.9189 82.463V82.8169H112.108C114.431 82.8004 116.653 81.8713 118.297 80.2303C119.94 78.5892 120.873 76.3677 120.892 74.0453C120.879 71.7185 119.95 69.4906 118.306 67.844C116.662 66.1975 114.435 65.265 112.108 65.2484Z"
        stroke-linecap="round" stroke-linejoin="round" vector-effect="non-scaling-stroke" />
</svg>