<svg id="Layer_1" data-name="Layer 1" xmlns="http://www.w3.org/2000/svg" viewBox="0 0 13 15"><defs><style>.cls-1{fill-rule:evenodd;}</style></defs><path class="cls-1" d="M5.11.16A6.5,6.5,0,0,1,13,6.27h0A6.28,6.28,0,0,1,10.9,11L7.14,14.68a1,1,0,0,1-.71.32,1.05,1.05,0,0,1-.72-.32L1.94,11A6.22,6.22,0,0,1,.1,5.36,6.42,6.42,0,0,1,5.11.16ZM12,6.29A5.51,5.51,0,0,0,5.32,1.14h0A5.42,5.42,0,0,0,1.09,5.52h0a5.16,5.16,0,0,0,1.56,4.72L6.41,14l0,0v0l3.76-3.71h0A5.28,5.28,0,0,0,12,6.29ZM6.43,5a1.42,1.42,0,1,0,0,2.83A1.42,1.42,0,1,0,6.43,5ZM4,6.4A2.4,2.4,0,0,1,6.43,4a2.42,2.42,0,1,1,0,4.83A2.4,2.4,0,0,1,4,6.4Z"/></svg>