<svg width="1766" height="989" viewBox="0 0 1766 989" xmlns="http://www.w3.org/2000/svg">
<path d="M709.296 207.349C709.355 166.326 723.699 126.605 749.864 95.0096C776.029 63.4143 812.381 41.9182 852.674 34.2148L853.278 30.1035C811.799 37.7141 774.295 59.608 747.275 91.9851C720.255 124.362 705.424 165.178 705.357 207.349V250.474C706.696 250.173 708.012 249.779 709.296 249.296V207.349Z"/>
<path d="M997.72 71.4711L1003.15 70.9824C977.26 48.5507 945.484 34.0045 911.584 29.0645C911.095 30.2432 910.606 31.5082 910.06 32.8307C942.3 37.3261 972.652 50.7054 997.72 71.4711Z"/>
<path d="M1062.12 171.819C1060.97 172.627 1059.75 173.357 1058.5 174.004C1060.53 184.753 1061.82 196.35 1061.83 207.29V392.787C1061.83 439.536 1043.26 484.37 1010.21 517.427C977.148 550.484 932.313 569.055 885.564 569.055C838.815 569.055 793.981 550.484 760.924 517.427C727.867 484.37 709.296 439.536 709.296 392.787V385.657C709.05 385.954 708.829 386.271 708.635 386.605C707.818 388.012 706.698 389.22 705.357 390.142V392.787C705.356 438.283 722.564 482.097 753.526 515.433C784.489 548.768 826.915 569.159 872.289 572.51C917.662 575.862 962.624 561.927 998.149 533.503C1033.67 505.079 1057.13 464.269 1063.82 419.266C1065.11 410.498 1065.76 401.649 1065.77 392.787V207.347C1065.77 195.65 1064.38 183.296 1062.12 171.819Z"/>
<path d="M910.175 32.8328C910.721 31.5103 911.21 30.2453 911.698 29.0665C914.717 21.649 916.845 16.6464 916.845 16.6464L900.198 26.5653V7.73383L884.644 21.2177L882.086 0L869.292 23.9777C869.292 23.9777 866.532 17.2502 859.89 2.27127C856.773 11.3088 854.548 20.6301 853.249 30.1016L852.674 34.2128C850.854 48.0411 849.78 61.9571 849.454 75.9008C863.426 80.2874 877.793 83.3013 892.35 84.8996C893.873 74.377 903.39 49.4792 910.175 32.8328ZM873.087 65.2919C873.044 65.4519 872.951 65.594 872.822 65.6974C872.693 65.8009 872.534 65.8603 872.368 65.8669C872.187 65.8255 872.029 65.7156 871.927 65.5601C871.825 65.4046 871.787 65.2158 871.822 65.0331C871.822 64.7456 877.572 36.8004 877.773 30.9353C877.788 30.7472 877.873 30.5715 878.011 30.4435C878.15 30.3156 878.332 30.2447 878.521 30.2453C878.615 30.249 878.708 30.2713 878.794 30.3109C878.879 30.3504 878.957 30.4066 879.021 30.476C879.085 30.5454 879.134 30.6268 879.167 30.7155C879.2 30.8042 879.215 30.8984 879.211 30.9928C878.866 36.9441 873.317 64.1131 873.087 65.2919ZM891.171 42.2917C888.284 51.5221 885.884 60.898 883.983 70.3807C883.956 70.5431 883.871 70.6904 883.745 70.7958C883.618 70.9013 883.458 70.958 883.293 70.9557H883.149C882.963 70.9208 882.798 70.8135 882.69 70.6573C882.582 70.5011 882.541 70.3087 882.574 70.1219C884.482 60.5381 886.911 51.0653 889.848 41.7454C889.924 41.5767 890.062 41.4437 890.233 41.3741C890.405 41.3045 890.596 41.3036 890.768 41.3717C890.911 41.4388 891.028 41.5512 891.101 41.6915C891.174 41.8319 891.198 41.9923 891.171 42.1479V42.2917Z"/>
<path d="M1105.25 13.7129C1098.32 43.0957 1079.11 66.3834 1039.92 69.2297C1027.59 70.1497 1014.85 70.1209 1003.15 70.9835L997.719 71.4722C974.891 73.916 957.296 81.1898 957.037 108.445C956.606 151.312 967.244 188.486 919.058 199.497C919.058 199.497 919.058 195.875 919.058 193.747C921.757 192.597 924.395 191.311 926.964 189.895C931.85 186.685 935.443 181.85 937.106 176.246C938.768 170.642 938.394 164.63 936.05 159.276C936.596 166.521 931.421 172.932 925.699 177.388C923.371 179.2 920.927 180.838 918.512 182.535C918.512 180.637 918.282 178.768 918.138 176.785C918.886 176.411 919.633 176.066 920.323 175.634C925.227 172.447 928.842 167.625 930.526 162.024C932.211 156.424 931.855 150.408 929.523 145.044C930.098 152.376 919.144 164.451 916.787 163.991C912.676 133.659 902.239 106.663 876.536 94.0124C841.691 76.7623 824.47 108.071 821.48 117.013C821.345 117.4 821.114 117.747 820.806 118.019C820.499 118.291 820.127 118.479 819.726 118.565C811.733 120.405 793.218 126.098 787.583 135.815C787.332 136.278 787.235 136.808 787.305 137.329C787.376 137.851 787.612 138.336 787.977 138.714C788.343 139.092 788.819 139.344 789.338 139.433C789.857 139.522 790.39 139.443 790.861 139.208C799.946 134.723 819.611 127.248 835.309 137.08L813.66 163.876L843.387 144.354C844.687 145.902 845.869 147.546 846.924 149.27C866.531 182.765 802.016 226.896 803.626 293.022C805.236 359.148 873.058 372.229 956.75 367.773C973.166 366.881 1001.03 365.99 1018.97 365.473C1023.63 365.34 1028.15 367.044 1031.57 370.217C1034.98 373.39 1037.01 377.778 1037.22 382.435V382.838C1037.41 386.384 1036.53 389.904 1034.68 392.937C1032.83 395.969 1030.11 398.372 1026.87 399.829C1001 411.186 983.085 430.678 970.607 453.017C961.35 454.426 941.857 458.307 929.638 466.961C938.126 468.425 946.776 468.705 955.341 467.795C935.417 473.545 909.341 481.193 889.963 487.92C898.243 490.508 909.341 490.536 921.013 489.271C895.138 497.896 863.225 505.256 837.35 501.318C849.367 514.14 879.383 512.645 908.018 507.413C904.74 508.85 901.463 510.288 898.214 511.553L898.473 511.294C898.473 511.294 866.301 522.162 839.592 511.294C846.675 517.968 854.718 523.54 863.455 527.825C810.928 516.699 805.034 480.905 804.603 477.886C805.302 486.719 807.849 495.307 812.078 503.092C816.308 510.878 822.126 517.688 829.156 523.082C786.548 501.634 775.192 449.74 775.192 449.74C773.955 470.929 778.527 487.403 786.088 500.283C757.942 469.204 758.919 424.152 758.919 424.152C755.306 435.463 753.814 447.345 754.52 459.199C749.374 450.717 741.985 440.425 733.561 434.301C735.231 444.776 738.56 454.918 743.423 464.345L739.714 462.62C732.67 453.017 724.419 438.642 722.924 422.628C720.25 432.067 719.028 441.859 719.301 451.666C720.077 453.822 720.882 455.978 721.745 458.106L722.607 460.176C723.211 461.585 723.786 463.051 724.419 464.402L725.54 466.846L727.323 470.612L728.645 473.171C729.249 474.321 729.824 475.5 730.456 476.65L731.923 479.266C732.555 480.359 733.159 481.48 733.82 482.573C734.481 483.665 734.884 484.298 735.43 485.16C735.976 486.023 736.724 487.288 737.385 488.323C738.046 489.358 738.535 490.048 739.139 490.91C739.743 491.773 740.49 492.951 741.18 493.929L743.02 496.488L745.176 499.363C745.809 500.196 746.47 501.001 747.131 501.835L749.374 504.71L751.444 507.125L753.773 510L755.929 512.329L758.344 514.945L760.615 517.245L763.117 519.718C763.893 520.465 764.669 521.213 765.474 521.932L768.062 524.318C768.867 525.037 769.672 525.755 770.505 526.445C771.339 527.135 772.288 527.998 773.208 528.745C774.128 529.493 774.875 530.097 775.709 530.758L778.584 532.943C779.447 533.604 780.309 534.266 781.201 534.898L784.076 536.968L786.749 538.808L789.624 540.763L792.499 542.517L795.374 544.357L798.249 546.024L801.326 547.749L804.201 549.302L807.335 550.883L810.21 552.321L813.43 553.816L816.305 555.138L819.611 556.518L822.658 557.726L826.022 558.962L829.156 560.055L832.577 561.147L835.74 562.125L839.219 563.102L842.439 563.965L845.975 564.798L849.252 565.517C850.431 565.776 851.639 566.006 852.846 566.207C854.054 566.408 855.031 566.638 856.153 566.811L859.804 567.386L863.139 567.846L866.848 568.248L870.211 568.593L873.978 568.852L877.37 569.053H881.223H884.615C885.449 569.053 886.34 569.053 887.203 569.053C889.158 569.053 891.142 569.053 892.953 568.91C893.959 568.91 895.137 569.175 896 569.002C936.681 566.461 975.629 550.235 1005.5 522.502C1035.37 494.769 1054.95 457.383 1060.5 417.002C1061.59 408.054 1062 398.516 1062 389.502L1062.5 346.502C1054.74 312.29 1021.9 281.522 962.241 256.567C961.982 256.164 1004.27 260.563 1005.11 218.156C1005.11 217.754 1044.29 224.711 1041.45 178.165C1048.71 178.605 1055.9 176.579 1061.86 172.414C1070.49 166.233 1077.44 153.727 1071.26 128.714C1071.67 128.714 1104.73 118.105 1092.48 81.7648C1093.4 81.4773 1120.77 69.2297 1105.25 13.7129ZM782.667 519.718C782.467 519.915 782.2 520.029 781.919 520.034C781.629 520.033 781.351 519.92 781.143 519.718C780.482 519.028 765.072 503.244 766.135 493.699C766.149 493.554 766.192 493.413 766.261 493.284C766.33 493.156 766.424 493.043 766.538 492.951C766.65 492.863 766.78 492.799 766.919 492.764C767.057 492.729 767.202 492.724 767.343 492.75C767.482 492.761 767.617 492.8 767.74 492.864C767.864 492.928 767.973 493.016 768.062 493.124C768.237 493.354 768.319 493.641 768.292 493.929C767.343 502.554 782.667 518.05 782.667 518.194C782.869 518.402 782.982 518.68 782.983 518.97C782.996 519.124 782.974 519.279 782.919 519.423C782.865 519.567 782.778 519.698 782.667 519.804V519.718ZM791.809 508.448C791.851 508.192 791.983 507.96 792.18 507.792C792.378 507.624 792.628 507.532 792.888 507.532C793.147 507.532 793.397 507.624 793.595 507.792C793.792 507.96 793.924 508.192 793.966 508.448C794.713 520.379 811.015 527.567 811.216 527.653C811.345 527.709 811.461 527.79 811.558 527.892C811.655 527.993 811.732 528.113 811.783 528.244C811.833 528.374 811.858 528.514 811.854 528.655C811.851 528.795 811.819 528.933 811.762 529.062C811.675 529.249 811.538 529.407 811.365 529.519C811.192 529.631 810.991 529.692 810.785 529.694C810.642 529.721 810.496 529.721 810.353 529.694C809.548 529.234 792.643 521.759 791.809 508.534V508.448ZM834.59 549.216C834.509 549.425 834.367 549.606 834.183 549.734C833.998 549.862 833.779 549.932 833.555 549.934H833.21C832.347 549.618 812.452 542.574 809.031 537.629C808.947 537.515 808.888 537.384 808.858 537.245C808.829 537.107 808.829 536.963 808.858 536.824C808.916 536.55 809.068 536.306 809.29 536.134C809.527 535.979 809.814 535.918 810.095 535.962C810.382 536.023 810.638 536.186 810.813 536.422C812.998 539.584 826.166 545.047 833.814 547.922C833.946 547.967 834.068 548.039 834.171 548.133C834.275 548.227 834.359 548.341 834.417 548.468C834.577 548.715 834.638 549.012 834.59 549.302V549.216ZM870.614 550.682C869.423 550.844 868.222 550.921 867.02 550.912C859.121 550.854 851.416 548.452 844.882 544.012C844.764 543.934 844.662 543.833 844.584 543.715C844.505 543.597 844.451 543.464 844.424 543.325C844.397 543.186 844.398 543.042 844.428 542.904C844.457 542.765 844.514 542.633 844.595 542.517C844.76 542.283 845.006 542.119 845.285 542.057C845.565 542.01 845.853 542.072 846.09 542.229C853.177 547.091 861.738 549.328 870.298 548.554C870.437 548.534 870.58 548.541 870.717 548.575C870.854 548.609 870.983 548.67 871.096 548.754C871.21 548.838 871.305 548.944 871.378 549.065C871.451 549.186 871.499 549.32 871.52 549.46C871.54 549.6 871.533 549.742 871.499 549.879C871.465 550.016 871.404 550.145 871.32 550.259C871.236 550.372 871.13 550.468 871.009 550.54C870.888 550.613 870.754 550.661 870.614 550.682ZM979.175 85.6461C984.12 80.5573 991.308 78.6023 1000.59 79.896C1000.88 79.9388 1001.13 80.0875 1001.31 80.3119C1001.48 80.5362 1001.57 80.8193 1001.54 81.1036C1001.51 81.3887 1001.36 81.6483 1001.13 81.8259C1000.91 82.0035 1000.62 82.0848 1000.34 82.0523C991.71 80.9311 985.155 82.6848 980.727 87.2561C971.47 96.7725 974.374 115.374 974.402 115.546C974.444 115.828 974.374 116.115 974.208 116.346C974.042 116.576 973.791 116.733 973.511 116.783H973.425C973.168 116.779 972.92 116.685 972.725 116.517C972.531 116.348 972.402 116.117 972.361 115.863C972.131 115 969.227 95.8525 979.175 85.6461ZM1036.04 118.996C1036.19 118.961 1036.35 118.958 1036.5 118.987C1036.65 119.017 1036.79 119.077 1036.92 119.165C1037.04 119.253 1037.15 119.367 1037.23 119.499C1037.31 119.631 1037.36 119.778 1037.38 119.93C1037.4 120.083 1037.38 120.237 1037.34 120.384C1037.29 120.531 1037.21 120.666 1037.11 120.782C1037.01 120.897 1036.89 120.99 1036.75 121.054C1036.61 121.118 1036.46 121.151 1036.3 121.153C1033.9 121.446 1031.48 121.591 1029.06 121.584C1017.99 121.344 1007.05 119.114 996.77 115C996.513 114.875 996.313 114.657 996.212 114.39C996.11 114.123 996.115 113.827 996.224 113.563C996.28 113.434 996.361 113.317 996.462 113.22C996.564 113.123 996.683 113.047 996.814 112.996C996.945 112.945 997.085 112.921 997.226 112.924C997.366 112.928 997.504 112.959 997.633 113.016C998.438 113.246 1017.64 121.354 1036.01 118.996H1036.04ZM972.39 161.777C972.548 161.539 972.793 161.373 973.073 161.314C973.352 161.255 973.644 161.307 973.885 161.461C974.009 161.536 974.117 161.636 974.201 161.755C974.285 161.874 974.344 162.008 974.374 162.151C974.402 162.289 974.401 162.433 974.371 162.571C974.341 162.709 974.283 162.84 974.201 162.956C974.201 162.956 968.164 172.587 970.32 180.493C970.852 182.288 971.771 183.945 973.013 185.346C974.255 186.746 975.789 187.858 977.507 188.601C977.759 188.73 977.951 188.953 978.042 189.221C978.134 189.489 978.117 189.782 977.996 190.038C977.903 190.218 977.763 190.369 977.591 190.475C977.419 190.581 977.221 190.639 977.019 190.642C976.857 190.672 976.692 190.672 976.53 190.642C974.538 189.758 972.763 188.448 971.333 186.804C969.902 185.16 968.85 183.221 968.25 181.126C965.806 172.156 972.131 162.208 972.39 161.777ZM967.675 206.627C967.786 206.542 967.913 206.479 968.049 206.443C968.184 206.407 968.325 206.398 968.464 206.417C968.603 206.436 968.737 206.482 968.858 206.552C968.979 206.623 969.085 206.717 969.17 206.829C969.17 206.829 976.501 216.316 993.061 216.92C993.201 216.918 993.34 216.945 993.468 216.999C993.597 217.054 993.713 217.134 993.809 217.236C993.909 217.338 993.987 217.46 994.036 217.593C994.086 217.727 994.106 217.87 994.096 218.012C994.096 218.295 993.984 218.565 993.785 218.765C993.585 218.964 993.315 219.076 993.033 219.076C975.38 218.444 967.761 208.554 967.445 208.122C967.361 208.009 967.3 207.881 967.267 207.744C967.233 207.608 967.226 207.466 967.248 207.327C967.269 207.188 967.318 207.054 967.391 206.934C967.465 206.814 967.561 206.71 967.675 206.627ZM988.433 166.089C988.511 165.971 988.612 165.869 988.73 165.791C988.848 165.712 988.98 165.658 989.12 165.631C989.259 165.604 989.402 165.605 989.541 165.635C989.68 165.664 989.811 165.721 989.928 165.802C995.626 169.43 1001.99 171.892 1008.64 173.047C1008.93 173.098 1009.18 173.251 1009.36 173.478C1009.45 173.593 1009.51 173.724 1009.54 173.862C1009.57 174.001 1009.57 174.144 1009.54 174.283C1009.49 174.535 1009.36 174.763 1009.17 174.926C1008.97 175.09 1008.73 175.178 1008.47 175.174H1008.3C1001.33 173.98 994.673 171.399 988.72 167.584C988.606 167.502 988.51 167.398 988.436 167.277C988.363 167.157 988.314 167.024 988.293 166.885C988.272 166.746 988.278 166.604 988.312 166.467C988.346 166.331 988.406 166.202 988.49 166.089H988.433ZM926.792 206.139C926.996 205.94 927.269 205.829 927.554 205.829C927.838 205.829 928.112 205.94 928.316 206.139C935.789 212.091 945.2 215.071 954.737 214.505C955.02 214.504 955.293 214.61 955.501 214.802C955.709 214.994 955.837 215.258 955.858 215.54C955.859 215.823 955.753 216.096 955.561 216.304C955.369 216.512 955.106 216.639 954.823 216.661H953.098C943.56 216.894 934.251 213.713 926.849 207.691C926.743 207.593 926.657 207.475 926.596 207.344C926.536 207.213 926.502 207.071 926.497 206.927C926.491 206.782 926.515 206.638 926.565 206.503C926.616 206.368 926.693 206.244 926.792 206.139ZM901.894 275.599C902.024 275.347 902.246 275.156 902.514 275.064C902.782 274.973 903.075 274.99 903.332 275.11C903.332 275.11 916.154 281.091 926.159 279.337C926.298 279.307 926.442 279.307 926.58 279.337C926.719 279.367 926.85 279.425 926.964 279.509C927.082 279.592 927.182 279.699 927.256 279.823C927.33 279.947 927.378 280.085 927.396 280.228C927.424 280.367 927.423 280.51 927.393 280.648C927.363 280.787 927.305 280.918 927.223 281.033C927.057 281.26 926.81 281.415 926.533 281.464C925.07 281.71 923.589 281.835 922.106 281.838C915.291 281.536 908.601 279.905 902.412 277.037C902.282 276.978 902.165 276.894 902.068 276.789C901.972 276.685 901.897 276.562 901.849 276.428C901.8 276.293 901.779 276.151 901.787 276.009C901.795 275.866 901.832 275.727 901.894 275.599ZM890.912 250.788C890.813 250.686 890.739 250.563 890.694 250.429C890.649 250.295 890.635 250.152 890.653 250.011C890.665 249.87 890.708 249.733 890.777 249.609C890.847 249.485 890.941 249.377 891.055 249.293C891.165 249.197 891.293 249.124 891.431 249.08C891.57 249.035 891.716 249.02 891.86 249.034C892.141 249.075 892.397 249.218 892.579 249.436C892.982 249.954 903.102 262.029 918.454 262.029C918.596 262.025 918.738 262.05 918.87 262.102C919.003 262.153 919.123 262.231 919.225 262.33C919.327 262.429 919.408 262.548 919.463 262.679C919.518 262.81 919.547 262.951 919.547 263.093C919.547 263.383 919.432 263.661 919.227 263.865C919.022 264.07 918.744 264.185 918.454 264.185C901.894 264.185 890.998 250.932 890.912 250.788ZM913.193 300.669C913.406 300.47 913.679 300.349 913.969 300.324C914.228 300.324 939.442 299.634 948.47 287.186C948.648 286.959 948.904 286.805 949.188 286.754C949.329 286.729 949.474 286.733 949.613 286.768C949.751 286.803 949.881 286.867 949.993 286.956C950.217 287.127 950.366 287.378 950.409 287.657C950.452 287.935 950.385 288.22 950.223 288.451C940.765 301.704 915.234 302.452 914.142 302.481C914.002 302.485 913.863 302.461 913.732 302.411C913.602 302.361 913.483 302.286 913.381 302.19C913.28 302.094 913.198 301.978 913.141 301.851C913.084 301.723 913.053 301.585 913.049 301.446C913.011 301.178 913.062 300.906 913.193 300.669ZM943.036 248.545C939.758 250.586 935.94 251.588 932.082 251.42C927.711 251.336 923.374 250.63 919.202 249.321C918.931 249.223 918.706 249.028 918.569 248.775C918.468 248.507 918.468 248.21 918.569 247.941C918.667 247.672 918.866 247.453 919.124 247.329C919.382 247.205 919.679 247.188 919.949 247.28C920.093 247.28 934.325 251.966 941.857 246.791C942.032 246.663 942.242 246.591 942.459 246.585C942.675 246.579 942.889 246.64 943.07 246.759C943.252 246.878 943.392 247.049 943.474 247.25C943.555 247.451 943.573 247.672 943.525 247.884C943.446 248.156 943.273 248.391 943.036 248.545ZM922.422 232.445H923.198C923.327 232.434 923.457 232.448 923.581 232.488C923.704 232.527 923.818 232.591 923.917 232.675C924.044 232.769 924.149 232.89 924.223 233.029C924.298 233.168 924.341 233.322 924.348 233.48C924.344 233.764 924.243 234.038 924.061 234.256C923.965 234.361 923.85 234.445 923.722 234.504C923.593 234.563 923.454 234.596 923.313 234.601H922.307C908.794 234.601 899.882 222.296 899.508 221.779C899.424 221.664 899.365 221.533 899.336 221.395C899.306 221.256 899.306 221.112 899.335 220.974C899.355 220.831 899.403 220.694 899.477 220.57C899.551 220.447 899.65 220.339 899.767 220.255C900.003 220.097 900.291 220.036 900.572 220.082C900.71 220.102 900.843 220.151 900.962 220.225C901.081 220.299 901.183 220.398 901.262 220.514C901.262 220.514 909.973 232.445 922.422 232.445ZM907.759 191.562C908.042 191.561 908.315 191.668 908.523 191.859C908.731 192.051 908.859 192.315 908.881 192.597C908.881 196.622 910.404 208.582 914.631 210.854C914.754 210.922 914.863 211.015 914.951 211.126C915.038 211.238 915.103 211.366 915.14 211.502C915.178 211.639 915.187 211.781 915.169 211.922C915.151 212.062 915.104 212.198 915.033 212.32C914.945 212.489 914.814 212.632 914.652 212.733C914.49 212.835 914.304 212.89 914.113 212.895C913.934 212.938 913.746 212.938 913.567 212.895C907.529 209.531 906.868 193.517 906.839 192.77C906.806 192.488 906.884 192.205 907.055 191.98C907.227 191.755 907.479 191.605 907.759 191.562ZM902.872 177.963C902.587 177.963 902.313 177.852 902.109 177.654C901.905 177.455 901.787 177.184 901.779 176.899C901.779 162.869 893.384 148.552 893.154 148.408C893.006 148.16 892.962 147.863 893.033 147.583C893.103 147.303 893.281 147.062 893.528 146.913C893.786 146.81 894.074 146.81 894.333 146.913C894.607 146.986 894.844 147.161 894.994 147.402C895.339 148.005 903.792 162.381 903.792 177.014C903.763 177.251 903.658 177.472 903.491 177.644C903.325 177.815 903.108 177.927 902.872 177.963ZM887.72 117.875C887.924 117.677 888.198 117.566 888.482 117.566C888.767 117.566 889.04 117.677 889.244 117.875C889.704 118.335 900.37 128.887 901.003 137.195C901.02 137.336 901.006 137.478 900.962 137.613C900.917 137.747 900.843 137.87 900.744 137.972C900.658 138.082 900.549 138.172 900.425 138.236C900.301 138.301 900.165 138.338 900.025 138.345C899.755 138.347 899.493 138.248 899.291 138.067C899.089 137.886 898.961 137.637 898.933 137.368C898.358 129.893 887.922 119.514 887.835 119.428C887.636 119.215 887.515 118.942 887.49 118.651C887.475 118.513 887.487 118.373 887.526 118.24C887.566 118.107 887.632 117.982 887.72 117.875ZM883.868 174.657C883.873 174.513 883.909 174.372 883.973 174.243C884.038 174.114 884.129 174 884.242 173.909C884.347 173.816 884.47 173.745 884.603 173.7C884.736 173.656 884.878 173.639 885.018 173.651C885.307 173.671 885.576 173.806 885.765 174.024C885.939 174.245 886.031 174.52 886.024 174.801C884.845 193.086 895.972 201.596 896.087 201.682C896.201 201.762 896.299 201.865 896.373 201.983C896.447 202.102 896.496 202.234 896.518 202.372C896.553 202.656 896.482 202.943 896.317 203.177C896.215 203.31 896.085 203.418 895.936 203.493C895.786 203.568 895.621 203.607 895.454 203.609C895.218 203.613 894.987 203.542 894.793 203.407C894.304 203.034 882.603 194.178 883.868 174.657ZM887.893 288.709C888.02 288.768 888.134 288.851 888.228 288.955C888.322 289.059 888.394 289.181 888.439 289.313C888.541 289.582 888.541 289.878 888.439 290.147C888.348 290.328 888.209 290.481 888.036 290.588C887.863 290.694 887.664 290.751 887.462 290.751C887.311 290.79 887.152 290.79 887.002 290.751C860.523 277.525 873.345 242.191 873.489 241.875C873.537 241.742 873.611 241.62 873.707 241.516C873.802 241.412 873.918 241.328 874.046 241.269C874.175 241.211 874.314 241.178 874.455 241.173C874.596 241.169 874.737 241.192 874.869 241.243C875.133 241.346 875.346 241.547 875.464 241.805C875.582 242.062 875.595 242.356 875.501 242.623C875.329 242.795 862.938 276.232 887.893 288.709ZM876.393 210.624C876.393 210.624 865.985 224.079 863.599 233.106C863.526 233.331 863.384 233.528 863.193 233.667C863.002 233.806 862.772 233.882 862.535 233.883H862.276C862.139 233.851 862.009 233.791 861.895 233.707C861.781 233.623 861.686 233.516 861.615 233.394C861.516 233.125 861.516 232.829 861.615 232.56C864.174 223.187 874.38 209.876 874.811 209.301C874.99 209.074 875.246 208.921 875.53 208.87C875.745 208.841 875.964 208.877 876.158 208.973C876.352 209.069 876.514 209.221 876.622 209.409C876.73 209.597 876.779 209.813 876.764 210.029C876.749 210.246 876.67 210.452 876.536 210.624H876.393ZM860.35 144.728C860.475 144.663 860.611 144.624 860.75 144.612C860.89 144.6 861.031 144.616 861.165 144.659C861.298 144.702 861.422 144.77 861.529 144.861C861.636 144.952 861.724 145.063 861.788 145.188C862.104 145.792 869.378 159.966 864.95 172.012C864.87 172.214 864.732 172.388 864.552 172.511C864.373 172.633 864.161 172.7 863.944 172.702C863.821 172.732 863.693 172.732 863.57 172.702C863.435 172.661 863.311 172.591 863.207 172.497C863.102 172.402 863.02 172.286 862.966 172.156C862.91 172.024 862.881 171.882 862.881 171.739C862.881 171.596 862.91 171.454 862.966 171.322C867.106 160.138 860.091 146.367 860.091 146.252C860.004 146.136 859.942 146.004 859.908 145.863C859.874 145.723 859.868 145.577 859.893 145.434C859.917 145.291 859.97 145.155 860.049 145.034C860.127 144.912 860.23 144.808 860.35 144.728ZM844.049 204.299C844.14 204.188 844.254 204.097 844.383 204.033C844.512 203.968 844.652 203.932 844.796 203.925C845.009 203.908 845.222 203.957 845.408 204.063C845.593 204.17 845.742 204.33 845.835 204.522C845.928 204.714 845.961 204.93 845.929 205.142C845.898 205.353 845.804 205.55 845.659 205.707C845.659 205.88 832.29 221.002 831.082 229.254C831.053 229.513 830.928 229.752 830.731 229.922C830.533 230.093 830.279 230.183 830.018 230.174H829.673C829.394 230.131 829.141 229.981 828.97 229.756C828.798 229.531 828.72 229.248 828.753 228.966C830.133 220.054 843.387 204.931 844.049 204.299ZM844.336 311.106C844.528 311.313 844.635 311.585 844.635 311.868C844.635 312.15 844.528 312.422 844.336 312.63C844.231 312.747 844.103 312.841 843.959 312.905C843.815 312.97 843.66 313.003 843.502 313.003C843.248 313.005 843.003 312.913 842.812 312.745C833.785 305.011 837.35 290.636 837.522 290.003C837.556 289.868 837.616 289.74 837.7 289.628C837.783 289.517 837.889 289.423 838.01 289.353C838.131 289.284 838.264 289.239 838.403 289.222C838.542 289.205 838.682 289.217 838.816 289.256C838.955 289.286 839.086 289.344 839.202 289.426C839.318 289.508 839.416 289.612 839.491 289.733C839.566 289.853 839.617 289.988 839.639 290.128C839.661 290.268 839.655 290.411 839.621 290.549C839.621 290.549 836.2 304.206 844.25 311.106H844.336ZM837.81 253.979C837.769 254.233 837.64 254.465 837.446 254.633C837.251 254.801 837.003 254.895 836.746 254.899H836.574C836.297 254.849 836.049 254.695 835.884 254.468C835.795 254.356 835.731 254.226 835.696 254.087C835.661 253.948 835.657 253.804 835.682 253.663C836.722 246.301 839.599 239.321 844.049 233.365C844.243 233.187 844.496 233.085 844.759 233.078C845.023 233.071 845.28 233.16 845.484 233.328C845.687 233.497 845.823 233.733 845.865 233.993C845.908 234.254 845.855 234.521 845.716 234.745C841.512 240.394 838.794 247.007 837.81 253.979ZM822.371 296.127C822.219 296.154 822.063 296.154 821.911 296.127C821.707 296.13 821.507 296.075 821.334 295.968C821.16 295.861 821.021 295.707 820.933 295.523C815.873 284.771 820.071 270.05 820.243 269.418C820.333 269.151 820.517 268.926 820.761 268.785C820.893 268.729 821.035 268.7 821.178 268.7C821.321 268.7 821.463 268.729 821.595 268.785C821.731 268.821 821.858 268.885 821.969 268.972C822.08 269.059 822.172 269.168 822.239 269.292C822.306 269.416 822.348 269.552 822.361 269.692C822.373 269.833 822.357 269.974 822.313 270.108C822.313 270.108 818.202 284.742 822.888 294.689C823 294.95 823.008 295.243 822.912 295.51C822.816 295.777 822.623 295.997 822.371 296.127ZM851.351 339.252C851.289 339.473 851.158 339.667 850.977 339.807C850.795 339.947 850.574 340.025 850.345 340.029H850C838.04 336.234 827 323.555 826.655 323.008C826.553 322.909 826.472 322.791 826.417 322.66C826.362 322.529 826.333 322.389 826.333 322.247C826.333 322.105 826.362 321.964 826.417 321.833C826.472 321.702 826.553 321.584 826.655 321.485C826.859 321.286 827.132 321.175 827.417 321.175C827.701 321.175 827.975 321.286 828.178 321.485C828.638 322.002 839.42 334.336 850.546 337.844C850.817 337.942 851.042 338.137 851.179 338.39C851.29 338.535 851.363 338.706 851.394 338.886C851.424 339.066 851.409 339.251 851.351 339.425V339.252ZM851.926 251.018C849.23 258.143 847.396 265.566 846.464 273.127C846.424 273.384 846.296 273.619 846.102 273.792C845.908 273.965 845.66 274.065 845.4 274.075C845.258 274.063 845.121 274.021 844.997 273.951C844.874 273.882 844.766 273.787 844.681 273.673C844.506 273.443 844.424 273.156 844.451 272.868C845.471 265.154 847.401 257.588 850.201 250.328C850.258 250.196 850.341 250.077 850.444 249.979C850.548 249.88 850.671 249.803 850.805 249.753C850.936 249.695 851.078 249.665 851.222 249.665C851.365 249.665 851.507 249.695 851.639 249.753C851.766 249.811 851.88 249.895 851.974 249.999C852.068 250.102 852.139 250.224 852.185 250.356C852.205 250.506 852.192 250.658 852.148 250.802C852.103 250.946 852.027 251.079 851.926 251.19V251.018ZM848.419 121.354C846.894 121.354 845.431 120.748 844.353 119.67C843.274 118.591 842.669 117.129 842.669 115.604C842.625 115.26 842.625 114.912 842.669 114.569C842.88 113.505 843.388 112.523 844.134 111.736C844.88 110.949 845.834 110.389 846.885 110.12C847.935 109.852 849.041 109.886 850.073 110.219C851.105 110.551 852.022 111.169 852.718 112.001C853.414 112.833 853.86 113.844 854.006 114.919C854.152 115.994 853.99 117.088 853.541 118.075C853.091 119.062 852.372 119.901 851.466 120.497C850.559 121.092 849.503 121.419 848.419 121.44V121.354ZM857.504 211.486C857.41 211.666 857.27 211.816 857.098 211.923C856.926 212.029 856.728 212.087 856.526 212.09C856.374 212.12 856.218 212.12 856.066 212.09C855.809 211.965 855.611 211.745 855.514 211.477C855.418 211.208 855.43 210.912 855.549 210.652C861.402 199.781 867.822 189.225 874.783 179.027C874.859 178.908 874.96 178.808 875.079 178.734C875.198 178.659 875.333 178.612 875.473 178.596C875.732 178.496 876.019 178.496 876.278 178.596C876.512 178.761 876.676 179.007 876.738 179.286C876.767 179.425 876.767 179.568 876.738 179.707C876.708 179.845 876.649 179.976 876.565 180.091C869.659 190.211 863.297 200.691 857.504 211.486ZM859.861 300.842C860.12 300.742 860.407 300.742 860.666 300.842C860.925 300.966 861.13 301.181 861.241 301.446C861.471 302.107 867.566 317.833 879.814 323.095C880.071 323.208 880.276 323.413 880.389 323.67C880.491 323.938 880.491 324.235 880.389 324.503C880.31 324.698 880.174 324.864 880 324.982C879.826 325.1 879.622 325.163 879.411 325.165C879.269 325.192 879.123 325.192 878.98 325.165C865.698 319.415 859.488 302.998 859.229 302.164C859.195 301.93 859.239 301.691 859.353 301.484C859.467 301.277 859.646 301.112 859.861 301.014V300.842ZM891.745 344.974C879.181 343.737 865.266 334.681 864.691 334.307C864.458 334.143 864.294 333.897 864.231 333.617C864.132 333.358 864.132 333.071 864.231 332.812C864.308 332.692 864.41 332.589 864.528 332.51C864.647 332.431 864.781 332.377 864.921 332.352C865.18 332.253 865.467 332.253 865.726 332.352C866.301 332.726 880.102 341.524 891.832 342.702C891.972 342.717 892.107 342.759 892.231 342.826C892.355 342.893 892.464 342.984 892.552 343.094C892.64 343.203 892.706 343.329 892.745 343.465C892.784 343.6 892.796 343.741 892.78 343.881C892.805 344.034 892.797 344.19 892.757 344.339C892.716 344.488 892.645 344.627 892.547 344.746C892.449 344.866 892.327 344.963 892.189 345.032C892.051 345.101 891.9 345.14 891.745 345.146V344.974ZM889.704 308.145C889.579 308.047 889.477 307.924 889.404 307.783C889.332 307.643 889.29 307.488 889.284 307.33C889.277 307.171 889.304 307.013 889.365 306.867C889.425 306.721 889.516 306.589 889.632 306.481C889.748 306.374 889.886 306.292 890.037 306.243C890.188 306.194 890.347 306.179 890.504 306.197C890.662 306.216 890.813 306.269 890.948 306.352C891.083 306.435 891.198 306.546 891.285 306.678C891.487 306.908 910.979 327.781 944.646 320.593C944.786 320.551 944.935 320.542 945.08 320.567C945.224 320.592 945.361 320.65 945.48 320.737C945.712 320.891 945.876 321.127 945.94 321.398C946.039 321.668 946.039 321.963 945.94 322.232C945.775 322.466 945.529 322.63 945.25 322.692C940.526 323.714 935.707 324.235 930.874 324.245C921.701 324.27 912.641 322.226 904.367 318.265C898.931 315.84 893.967 312.472 889.704 308.317V308.145ZM948.24 356.848C948.163 356.968 948.061 357.071 947.943 357.15C947.824 357.229 947.69 357.283 947.55 357.308C944.943 357.703 942.308 357.886 939.672 357.854C930.602 357.633 921.555 356.826 912.589 355.439C912.448 355.426 912.311 355.384 912.187 355.314C912.063 355.245 911.955 355.15 911.871 355.036C911.787 354.922 911.728 354.791 911.698 354.652C911.668 354.513 911.668 354.37 911.698 354.231C911.812 353.984 912.011 353.786 912.26 353.675C912.509 353.564 912.789 353.547 913.049 353.628C913.308 353.628 937.113 357.308 947.32 355.496C947.587 355.446 947.864 355.497 948.096 355.64C948.332 355.816 948.495 356.071 948.556 356.359C948.537 356.611 948.424 356.847 948.24 357.02V356.848ZM971.24 340.575C958.36 340.575 939.615 335.026 939.413 334.825C939.138 334.734 938.911 334.537 938.781 334.279C938.724 334.152 938.694 334.015 938.694 333.876C938.694 333.737 938.724 333.6 938.781 333.474C938.869 333.198 939.052 332.964 939.298 332.812C939.567 332.711 939.863 332.711 940.132 332.812C940.908 333.042 958.935 338.332 971.326 338.332C971.467 338.328 971.607 338.353 971.738 338.405C971.869 338.457 971.988 338.536 972.087 338.635C972.187 338.735 972.265 338.854 972.317 338.984C972.369 339.115 972.394 339.255 972.39 339.396C972.442 339.57 972.448 339.755 972.409 339.932C972.369 340.109 972.285 340.274 972.164 340.409C972.043 340.545 971.889 340.647 971.717 340.706C971.545 340.765 971.361 340.78 971.182 340.747L971.24 340.575ZM952.15 305.615C952.753 304.982 966.985 290.348 981.101 295.466C981.234 295.514 981.356 295.588 981.46 295.683C981.564 295.779 981.648 295.895 981.707 296.023C981.766 296.151 981.799 296.29 981.803 296.432C981.808 296.573 981.784 296.714 981.734 296.846C981.634 297.108 981.439 297.324 981.187 297.449C980.919 297.551 980.622 297.551 980.354 297.449C967.617 292.821 953.846 306.937 953.702 307.081C953.494 307.283 953.216 307.396 952.926 307.397C952.788 307.403 952.651 307.38 952.522 307.331C952.394 307.281 952.277 307.206 952.178 307.11C951.978 306.914 951.862 306.648 951.857 306.368C951.852 306.088 951.957 305.817 952.15 305.615ZM1008.79 354.231C1008.71 354.348 1008.61 354.448 1008.49 354.524C1008.37 354.599 1008.23 354.649 1008.09 354.671C1007.95 354.692 1007.81 354.685 1007.67 354.649C1007.53 354.613 1007.4 354.549 1007.29 354.461C994.528 345.175 978.974 354.461 978.83 354.461C978.641 354.503 978.444 354.503 978.255 354.461C978.069 354.465 977.886 354.42 977.724 354.329C977.562 354.238 977.428 354.105 977.335 353.944C977.235 353.685 977.235 353.398 977.335 353.139C977.411 352.866 977.585 352.63 977.824 352.477C977.996 352.477 994.758 342.386 1008.7 352.477C1008.84 352.572 1008.96 352.699 1009.05 352.847C1009.13 352.996 1009.18 353.162 1009.19 353.333C1009.2 353.503 1009.16 353.673 1009.09 353.829C1009.03 353.985 1008.92 354.123 1008.79 354.231ZM1029.37 333.129C1029.11 333.131 1028.86 333.039 1028.67 332.869C1028.47 332.7 1028.34 332.465 1028.31 332.209C1026.73 321.801 1016.38 317.546 1016.29 317.517C1016.03 317.409 1015.81 317.2 1015.7 316.936C1015.59 316.673 1015.58 316.375 1015.69 316.108C1015.74 315.978 1015.82 315.859 1015.91 315.758C1016.01 315.657 1016.12 315.576 1016.25 315.52C1016.38 315.464 1016.52 315.434 1016.66 315.431C1016.8 315.429 1016.94 315.453 1017.07 315.505C1017.56 315.706 1028.57 320.277 1030.44 331.892C1030.46 332.032 1030.45 332.175 1030.41 332.311C1030.38 332.448 1030.32 332.577 1030.23 332.689C1030.14 332.801 1030.04 332.896 1029.92 332.966C1029.79 333.037 1029.66 333.082 1029.52 333.1L1029.37 333.129ZM962.356 474.005C962.41 473.875 962.492 473.758 962.596 473.664C962.701 473.569 962.825 473.499 962.96 473.459C974.827 468.638 986.353 463.019 997.46 456.64C997.713 456.502 998.01 456.467 998.288 456.542C998.567 456.616 998.806 456.796 998.955 457.042C999.027 457.165 999.073 457.3 999.091 457.44C999.11 457.581 999.1 457.723 999.062 457.86C999.025 457.997 998.96 458.124 998.873 458.236C998.785 458.347 998.676 458.44 998.553 458.509C987.305 464.963 975.623 470.63 963.592 475.471C963.47 475.502 963.341 475.502 963.219 475.471C962.999 475.478 962.784 475.414 962.603 475.29C962.422 475.166 962.285 474.988 962.212 474.781C962.178 474.64 962.173 474.493 962.198 474.349C962.222 474.206 962.276 474.069 962.356 473.947V474.005ZM927.424 492.261C940.238 491.388 952.976 489.63 965.547 487C965.824 486.945 966.112 486.996 966.352 487.144C966.479 487.216 966.588 487.316 966.673 487.435C966.757 487.554 966.815 487.69 966.841 487.834C966.941 488.093 966.941 488.38 966.841 488.639C966.676 488.873 966.43 489.037 966.151 489.099C953.448 491.779 940.576 493.585 927.626 494.504C927.346 494.504 927.076 494.397 926.873 494.204C926.67 494.012 926.548 493.749 926.533 493.469C926.499 493.192 926.573 492.912 926.739 492.688C926.904 492.463 927.15 492.311 927.424 492.261ZM906.926 516.469C906.998 516.351 907.094 516.249 907.208 516.17C907.322 516.091 907.451 516.036 907.587 516.009C920.048 512.912 932.286 508.973 944.215 504.221C944.346 504.165 944.488 504.136 944.632 504.136C944.775 504.136 944.917 504.165 945.048 504.221C945.178 504.274 945.296 504.351 945.395 504.45C945.494 504.549 945.571 504.667 945.623 504.796C945.68 504.927 945.71 505.067 945.711 505.208C945.713 505.35 945.686 505.491 945.632 505.622C945.579 505.753 945.5 505.872 945.399 505.973C945.299 506.073 945.18 506.152 945.048 506.205C932.999 511.008 920.636 514.984 908.047 518.108H907.817C907.571 518.106 907.334 518.019 907.145 517.861C906.957 517.704 906.828 517.486 906.782 517.245C906.762 517.105 906.775 516.962 906.82 516.827C906.865 516.692 906.94 516.57 907.041 516.469H906.926ZM884.817 529.407C884.853 529.27 884.916 529.142 885.003 529.03C885.09 528.918 885.198 528.825 885.321 528.755C885.444 528.686 885.58 528.641 885.72 528.625C885.861 528.608 886.003 528.62 886.139 528.659C894.408 530.995 903.233 530.374 911.094 526.905C911.221 526.85 911.358 526.821 911.497 526.821C911.635 526.821 911.772 526.85 911.899 526.905C912.183 526.993 912.421 527.189 912.561 527.452C912.662 527.72 912.662 528.017 912.561 528.285C912.521 528.417 912.455 528.538 912.366 528.642C912.277 528.746 912.167 528.83 912.043 528.889C907.095 531.196 901.69 532.356 896.23 532.282C892.606 532.278 888.999 531.785 885.507 530.815C885.246 530.702 885.041 530.491 884.933 530.228C884.826 529.965 884.825 529.67 884.932 529.407H884.817ZM883.322 544.731C881.913 544.731 880.676 544.731 879.641 544.731C879.5 544.726 879.361 544.693 879.233 544.633C879.105 544.574 878.989 544.49 878.894 544.386C878.728 544.161 878.637 543.889 878.635 543.609C878.641 543.454 878.68 543.302 878.75 543.163C878.819 543.025 878.917 542.902 879.038 542.804C879.144 542.714 879.268 542.65 879.403 542.615C879.537 542.58 879.678 542.576 879.814 542.603C886.321 542.716 892.829 542.457 899.307 541.827C899.594 541.8 899.882 541.882 900.112 542.057C900.228 542.146 900.324 542.259 900.393 542.387C900.462 542.516 900.504 542.658 900.514 542.804C900.526 542.944 900.51 543.085 900.467 543.218C900.424 543.352 900.356 543.476 900.265 543.583C900.174 543.69 900.063 543.777 899.938 543.841C899.813 543.905 899.677 543.943 899.537 543.954C899.278 543.897 890.365 544.731 883.437 544.731H883.322ZM919.892 549.129C914.42 551.815 908.392 553.175 902.297 553.097C900.014 553.102 897.735 552.919 895.483 552.551C895.342 552.53 895.207 552.481 895.086 552.407C894.965 552.333 894.86 552.236 894.776 552.121C894.693 552.005 894.634 551.875 894.603 551.736C894.571 551.598 894.567 551.454 894.592 551.314C894.641 551.034 894.798 550.784 895.029 550.618C895.26 550.451 895.546 550.381 895.828 550.423C903.638 551.731 911.661 550.628 918.828 547.261C919.076 547.123 919.368 547.09 919.64 547.168C919.913 547.247 920.143 547.43 920.28 547.678C920.417 547.925 920.45 548.218 920.372 548.49C920.294 548.762 920.111 548.992 919.863 549.129H919.892ZM925.642 531.592C925.547 531.751 925.412 531.882 925.251 531.973C925.089 532.063 924.907 532.111 924.722 532.109C924.544 532.165 924.354 532.165 924.176 532.109C924.051 532.041 923.942 531.948 923.855 531.836C923.768 531.724 923.705 531.595 923.67 531.457C923.635 531.32 923.629 531.177 923.651 531.036C923.674 530.896 923.725 530.762 923.802 530.643C927.424 524.433 945.623 519.689 946.4 519.488C946.661 519.463 946.922 519.533 947.136 519.684C947.349 519.836 947.502 520.059 947.564 520.314C947.627 520.568 947.596 520.837 947.477 521.071C947.359 521.304 947.16 521.487 946.917 521.587C946.17 521.702 928.747 526.273 925.613 531.649L925.642 531.592ZM953.07 535.272C946.173 537.827 939.005 539.583 931.708 540.504C931.435 540.499 931.173 540.393 930.971 540.208C930.77 540.023 930.644 539.77 930.616 539.498C930.608 539.355 930.629 539.211 930.676 539.075C930.724 538.94 930.798 538.815 930.895 538.708C930.991 538.601 931.107 538.515 931.237 538.453C931.367 538.391 931.507 538.355 931.651 538.348C938.719 537.398 945.661 535.672 952.351 533.202C952.477 533.145 952.615 533.115 952.753 533.115C952.892 533.115 953.029 533.145 953.156 533.202C953.356 533.279 953.528 533.416 953.649 533.593C953.77 533.77 953.835 533.979 953.835 534.194C953.835 534.408 953.77 534.618 953.649 534.795C953.528 534.972 953.356 535.108 953.156 535.186L953.07 535.272ZM965.346 511.352C965.499 511.113 965.734 510.939 966.007 510.863C966.007 510.863 980.727 507.096 984.264 498.759C984.317 498.628 984.396 498.508 984.496 498.408C984.597 498.308 984.716 498.228 984.847 498.175C984.978 498.121 985.119 498.095 985.261 498.096C985.402 498.098 985.543 498.127 985.673 498.184C985.804 498.237 985.923 498.316 986.023 498.417C986.124 498.517 986.203 498.636 986.257 498.767C986.31 498.899 986.337 499.039 986.335 499.181C986.334 499.323 986.304 499.463 986.248 499.593C982.28 508.965 967.157 512.818 966.525 512.962H966.266C966.025 512.964 965.79 512.886 965.597 512.74C965.405 512.595 965.266 512.389 965.202 512.157C965.16 511.901 965.2 511.639 965.317 511.409L965.346 511.352ZM993.78 517.964C993.148 518.453 978.025 530.499 968.451 530.499C967.765 530.508 967.081 530.44 966.41 530.298C966.274 530.271 966.145 530.216 966.031 530.137C965.917 530.058 965.821 529.956 965.749 529.838C965.665 529.718 965.607 529.582 965.578 529.439C965.548 529.295 965.548 529.148 965.576 529.004C965.603 528.864 965.66 528.732 965.745 528.618C965.83 528.503 965.939 528.409 966.065 528.343C966.191 528.286 966.329 528.256 966.467 528.256C966.606 528.256 966.743 528.286 966.87 528.343C975.179 530.097 992.285 516.555 992.429 516.412C992.656 516.272 992.927 516.221 993.189 516.267C993.452 516.313 993.689 516.453 993.855 516.662C994.021 516.871 994.105 517.133 994.091 517.399C994.078 517.665 993.967 517.918 993.78 518.108V517.964ZM995.908 477.024C995.86 477.156 995.784 477.276 995.685 477.376C995.585 477.475 995.465 477.551 995.333 477.599C985.903 481.652 977.479 491.974 977.134 492.29C977.034 492.416 976.907 492.517 976.763 492.587C976.619 492.657 976.46 492.693 976.3 492.693C976.051 492.691 975.81 492.61 975.61 492.463C975.402 492.264 975.27 492 975.236 491.715C975.211 491.577 975.218 491.434 975.258 491.299C975.298 491.164 975.369 491.041 975.466 490.939C975.811 490.479 984.465 479.899 994.499 475.615C994.631 475.559 994.772 475.53 994.916 475.53C995.059 475.53 995.201 475.559 995.333 475.615C995.59 475.728 995.795 475.933 995.908 476.19C995.968 476.332 995.996 476.485 995.991 476.639C995.986 476.793 995.948 476.944 995.879 477.081L995.908 477.024ZM1021.78 473.89C1019.57 480.359 1000.19 498.558 999.358 499.334C999.154 499.532 998.88 499.643 998.596 499.643C998.311 499.643 998.038 499.532 997.834 499.334C997.643 499.121 997.54 498.844 997.546 498.558C997.551 498.416 997.584 498.278 997.644 498.149C997.703 498.021 997.787 497.906 997.891 497.81C998.093 497.609 1017.73 479.18 1019.71 473.257C1019.81 472.988 1020.01 472.768 1020.27 472.645C1020.53 472.521 1020.82 472.504 1021.09 472.596C1021.23 472.639 1021.35 472.707 1021.46 472.798C1021.57 472.89 1021.66 473.001 1021.72 473.127C1021.79 473.253 1021.82 473.39 1021.84 473.531C1021.85 473.672 1021.83 473.813 1021.78 473.947V473.89ZM1012.38 466.731C1012.19 466.904 1011.95 466.997 1011.69 466.99C1011.48 466.98 1011.27 466.907 1011.09 466.779C1010.92 466.652 1010.79 466.475 1010.71 466.272C1010.64 466.069 1010.63 465.848 1010.68 465.638C1010.73 465.428 1010.84 465.238 1011 465.092C1019.2 458.049 1022.33 437.521 1022.5 437.32C1022.53 437.175 1022.58 437.037 1022.66 436.913C1022.74 436.79 1022.84 436.684 1022.96 436.601C1023.07 436.516 1023.2 436.456 1023.33 436.426C1023.47 436.396 1023.6 436.397 1023.74 436.428C1023.88 436.441 1024.02 436.483 1024.14 436.553C1024.26 436.622 1024.37 436.717 1024.46 436.831C1024.62 437.065 1024.69 437.352 1024.66 437.636C1024.37 438.556 1021.29 459.17 1012.38 466.789V466.731ZM1009.51 441.977C1009.42 442.148 1009.28 442.289 1009.11 442.386C1008.94 442.483 1008.75 442.53 1008.56 442.523C1008.39 442.564 1008.21 442.564 1008.04 442.523C1007.79 442.384 1007.61 442.152 1007.53 441.878C1007.45 441.604 1007.48 441.309 1007.61 441.057C1008.07 440.195 1019.11 419.983 1030.84 416.533C1031.11 416.462 1031.41 416.5 1031.65 416.639C1031.9 416.779 1032.08 417.009 1032.16 417.281C1032.2 417.415 1032.21 417.555 1032.2 417.694C1032.19 417.833 1032.14 417.968 1032.08 418.091C1032.01 418.214 1031.92 418.322 1031.81 418.41C1031.7 418.498 1031.58 418.564 1031.44 418.603C1020.35 421.766 1009.54 441.833 1009.42 442.035L1009.51 441.977ZM1047.95 406.701C1047.86 406.894 1047.72 407.058 1047.54 407.17C1047.36 407.283 1047.15 407.34 1046.94 407.333C1046.8 407.36 1046.65 407.36 1046.51 407.333C1046.24 407.216 1046.04 406.999 1045.93 406.729C1045.83 406.47 1045.83 406.183 1045.93 405.924C1050.68 395.229 1047.14 380.049 1047.11 380.049C1047.08 379.911 1047.07 379.768 1047.09 379.628C1047.12 379.487 1047.17 379.353 1047.24 379.232C1047.32 379.112 1047.42 379.007 1047.53 378.925C1047.65 378.844 1047.78 378.786 1047.92 378.755C1048.18 378.658 1048.46 378.658 1048.72 378.755C1048.96 378.926 1049.13 379.168 1049.21 379.445C1049.3 380.135 1052.89 395.402 1047.86 406.758L1047.95 406.701ZM1045.07 338.534C1045.28 338.34 1045.56 338.232 1045.85 338.232C1046.13 338.232 1046.41 338.34 1046.62 338.534C1050.25 342.185 1053.32 356.186 1051.4 364.409C1051.34 364.647 1051.2 364.859 1051.01 365.01C1050.82 365.161 1050.58 365.243 1050.33 365.243H1050.1C1049.96 365.213 1049.83 365.154 1049.71 365.07C1049.59 364.986 1049.49 364.878 1049.41 364.754C1049.32 364.494 1049.32 364.208 1049.41 363.949C1051.19 356.388 1048.41 343.249 1045.19 340.029C1045.09 339.93 1045.01 339.813 1044.96 339.685C1044.92 339.556 1044.89 339.419 1044.9 339.281C1044.8 339.065 1044.78 338.821 1044.84 338.591L1045.07 338.534ZM1043.95 427.659C1044.24 427.659 1044.52 427.775 1044.72 427.979C1044.93 428.184 1045.04 428.462 1045.04 428.752C1045.04 429.011 1044.9 454.426 1033.74 470.325C1033.65 470.461 1033.52 470.572 1033.37 470.647C1033.22 470.722 1033.05 470.76 1032.88 470.756C1032.66 470.757 1032.44 470.697 1032.25 470.584C1032.02 470.42 1031.86 470.172 1031.82 469.894C1031.79 469.75 1031.79 469.602 1031.82 469.459C1031.85 469.316 1031.91 469.18 1031.99 469.06C1042.74 453.707 1042.89 428.953 1042.89 428.809C1042.84 428.536 1042.9 428.256 1043.06 428.027C1043.21 427.798 1043.45 427.635 1043.72 427.573L1043.95 427.659ZM1042.43 360.039C1042.41 360.308 1042.29 360.561 1042.09 360.744C1041.89 360.926 1041.63 361.024 1041.36 361.016C1041.09 360.987 1040.83 360.85 1040.65 360.635C1040.48 360.42 1040.39 360.144 1040.41 359.866C1041.16 351.557 1030.81 344.054 1030.38 343.737C1030.26 343.653 1030.16 343.546 1030.09 343.422C1030.02 343.299 1029.97 343.161 1029.95 343.019C1029.92 342.884 1029.92 342.746 1029.95 342.612C1029.98 342.478 1030.04 342.352 1030.12 342.242C1030.2 342.119 1030.31 342.014 1030.43 341.935C1030.55 341.856 1030.69 341.804 1030.84 341.782C1031.11 341.746 1031.39 341.818 1031.62 341.984C1031.93 342.3 1043.26 350.35 1042.43 360.039ZM1014.25 295.408C1014.41 295.175 1014.66 295.015 1014.94 294.961C1015.22 294.907 1015.51 294.965 1015.75 295.121C1016.46 295.609 1033.69 307.512 1037.19 322.347C1037.29 322.607 1037.29 322.893 1037.19 323.152C1037.03 323.395 1036.79 323.569 1036.5 323.641H1036.27C1036.03 323.641 1035.79 323.56 1035.6 323.408C1035.4 323.257 1035.27 323.045 1035.21 322.807C1031.93 308.921 1014.83 296.932 1014.65 296.932C1014.52 296.869 1014.4 296.778 1014.3 296.664C1014.2 296.551 1014.12 296.418 1014.08 296.274C1014.04 296.13 1014.02 295.978 1014.04 295.829C1014.06 295.68 1014.11 295.536 1014.19 295.408H1014.25ZM1010.28 333.502C1010.57 333.478 1010.85 333.567 1011.07 333.75C1011.29 333.933 1011.43 334.195 1011.46 334.48C1011.48 334.622 1011.46 334.766 1011.42 334.903C1011.38 335.04 1011.31 335.167 1011.22 335.277C1011.13 335.387 1011.02 335.477 1010.89 335.543C1010.77 335.609 1010.63 335.648 1010.48 335.659H1009.65C1002.12 335.659 983.574 327.838 982.769 327.522C982.506 327.403 982.3 327.186 982.193 326.919C982.086 326.651 982.086 326.352 982.194 326.085C982.313 325.822 982.53 325.616 982.797 325.509C983.065 325.402 983.364 325.402 983.631 325.51C983.804 325.51 1002.61 333.502 1009.51 333.502H1010.28ZM997.69 309.496C997.753 309.621 997.786 309.758 997.786 309.898C997.786 310.038 997.753 310.176 997.69 310.301C997.628 310.58 997.464 310.826 997.23 310.991C996.972 311.093 996.684 311.093 996.425 310.991C977.479 306.88 959.826 321.743 959.654 321.887C959.463 322.055 959.217 322.147 958.964 322.146C958.806 322.146 958.65 322.112 958.507 322.048C958.363 321.983 958.235 321.89 958.13 321.772C957.956 321.551 957.864 321.277 957.871 320.996C957.905 320.711 958.037 320.447 958.245 320.248C958.446 320.105 976.846 304.493 996.885 308.748C997.08 308.774 997.263 308.86 997.407 308.994C997.551 309.128 997.65 309.303 997.69 309.496ZM995.821 290.291C995.722 290.435 995.589 290.552 995.433 290.632C995.278 290.713 995.105 290.753 994.93 290.751C994.712 290.755 994.498 290.684 994.326 290.549C985.632 285.022 975.913 281.306 965.749 279.624C965.466 279.575 965.214 279.419 965.043 279.189C964.871 278.959 964.795 278.673 964.829 278.388C964.879 278.104 965.033 277.848 965.26 277.669C965.494 277.504 965.781 277.433 966.065 277.468C976.549 279.258 986.575 283.108 995.563 288.796C995.692 288.876 995.802 288.982 995.886 289.109C995.97 289.235 996.027 289.378 996.051 289.527C996.076 289.677 996.068 289.831 996.028 289.977C995.989 290.124 995.918 290.26 995.821 290.377V290.291ZM976.472 269.677C976.585 269.767 976.676 269.881 976.741 270.01C976.805 270.139 976.841 270.28 976.846 270.424C976.862 270.562 976.85 270.702 976.81 270.836C976.771 270.969 976.705 271.093 976.616 271.2C976.517 271.326 976.39 271.427 976.245 271.497C976.101 271.567 975.943 271.603 975.782 271.603C975.531 271.591 975.29 271.5 975.092 271.344C967.387 264.818 944.991 262.345 944.761 262.317C944.481 262.281 944.226 262.138 944.049 261.918C943.873 261.698 943.788 261.419 943.812 261.138C943.823 260.995 943.862 260.856 943.928 260.729C943.993 260.602 944.084 260.49 944.194 260.399C944.304 260.307 944.431 260.239 944.568 260.198C944.705 260.157 944.849 260.144 944.991 260.16C947.377 260.419 968.48 262.92 976.472 269.677ZM995.189 230.778C990.788 231.809 986.283 232.33 981.763 232.33C975.13 232.436 968.539 231.254 962.356 228.851C962.167 228.764 962.006 228.624 961.894 228.448C961.781 228.272 961.722 228.068 961.722 227.859C961.722 227.651 961.781 227.446 961.894 227.271C962.006 227.095 962.167 226.955 962.356 226.868C962.487 226.81 962.629 226.78 962.773 226.78C962.916 226.78 963.058 226.81 963.19 226.868C973.255 230.615 984.218 231.237 994.643 228.65C994.781 228.616 994.924 228.61 995.064 228.632C995.204 228.654 995.339 228.705 995.459 228.78C995.58 228.855 995.684 228.953 995.766 229.069C995.848 229.185 995.906 229.316 995.936 229.455C996.008 229.729 995.97 230.021 995.83 230.267C995.691 230.514 995.461 230.697 995.189 230.778ZM1031.59 188.773C1029.69 189.108 1027.76 189.272 1025.84 189.262C1010.11 189.262 992.659 178.998 991.911 178.567C991.787 178.499 991.678 178.406 991.591 178.294C991.504 178.181 991.441 178.053 991.406 177.915C991.371 177.778 991.364 177.634 991.387 177.494C991.41 177.354 991.461 177.22 991.538 177.101C991.604 176.975 991.698 176.866 991.813 176.781C991.927 176.696 992.059 176.639 992.199 176.612C992.326 176.557 992.463 176.528 992.601 176.528C992.74 176.528 992.877 176.557 993.004 176.612C993.234 176.612 1015.08 189.492 1031.13 186.531C1031.27 186.502 1031.41 186.502 1031.55 186.53C1031.68 186.558 1031.82 186.614 1031.93 186.695C1032.05 186.776 1032.15 186.879 1032.22 187C1032.29 187.12 1032.34 187.254 1032.36 187.393C1032.41 187.535 1032.43 187.685 1032.42 187.833C1032.4 187.982 1032.36 188.126 1032.28 188.257C1032.21 188.387 1032.11 188.5 1031.99 188.589C1031.87 188.678 1031.73 188.741 1031.59 188.773ZM1035.96 150.047C1035.87 150.161 1035.76 150.256 1035.64 150.325C1035.52 150.394 1035.38 150.437 1035.24 150.449C1016.22 152.685 996.966 148.958 980.152 139.783C980.03 139.712 979.924 139.617 979.84 139.504C979.756 139.391 979.696 139.262 979.664 139.124C979.631 138.987 979.627 138.844 979.652 138.706C979.677 138.567 979.73 138.434 979.807 138.317C979.961 138.074 980.204 137.902 980.484 137.838C980.764 137.773 981.058 137.821 981.302 137.972C997.647 147.019 1016.44 150.643 1034.98 148.322C1035.26 148.28 1035.55 148.353 1035.78 148.523C1036.01 148.703 1036.15 148.964 1036.18 149.25C1036.22 149.535 1036.13 149.821 1035.96 150.047ZM1048.41 140.645C1048.34 140.771 1048.24 140.881 1048.13 140.97C1048.01 141.059 1047.88 141.125 1047.74 141.163C1041.22 142.273 1034.61 142.735 1027.99 142.543C1023.94 142.543 1020.83 142.543 1020.26 142.543C1019.97 142.535 1019.7 142.417 1019.51 142.213C1019.31 142.009 1019.2 141.735 1019.2 141.45C1019.2 141.166 1019.32 140.895 1019.53 140.696C1019.73 140.498 1020 140.387 1020.29 140.387C1021.15 140.387 1040.73 140.962 1047.2 139.208C1047.47 139.137 1047.76 139.175 1048.01 139.314C1048.26 139.454 1048.44 139.684 1048.52 139.955C1048.56 140.192 1048.52 140.434 1048.41 140.645ZM1057.75 104.046C1051.98 105.713 1045.98 106.451 1039.98 106.231C1035.99 106.231 1032.82 106.03 1031.96 105.973C1031.68 105.95 1031.41 105.818 1031.22 105.603C1031.04 105.388 1030.94 105.108 1030.95 104.823C1030.96 104.68 1031 104.541 1031.06 104.412C1031.12 104.284 1031.21 104.17 1031.32 104.076C1031.42 103.982 1031.55 103.911 1031.68 103.866C1031.82 103.821 1031.96 103.805 1032.1 103.816C1032.28 103.816 1049.35 105.024 1056.97 102.034C1057.1 101.977 1057.24 101.947 1057.38 101.947C1057.52 101.947 1057.65 101.977 1057.78 102.034C1057.92 102.082 1058.04 102.162 1058.14 102.267C1058.24 102.372 1058.31 102.499 1058.35 102.638C1058.41 102.769 1058.44 102.911 1058.44 103.054C1058.44 103.197 1058.41 103.339 1058.35 103.47C1058.3 103.602 1058.21 103.721 1058.11 103.82C1058.01 103.919 1057.88 103.996 1057.75 104.046ZM1082.16 74.7497C1064.91 89.6424 1026.38 92.2012 1024.66 92.3162C1024.39 92.3166 1024.12 92.2124 1023.93 92.0252C1023.73 91.838 1023.61 91.5819 1023.59 91.3099C1023.58 91.1694 1023.59 91.0268 1023.64 90.8924C1023.68 90.7581 1023.76 90.6355 1023.85 90.5336C1024.04 90.3149 1024.31 90.1805 1024.6 90.1599C1024.97 90.1599 1064.08 87.4861 1080.81 73.111C1081.02 72.919 1081.29 72.8124 1081.57 72.8124C1081.85 72.8124 1082.12 72.919 1082.33 73.111C1082.44 73.223 1082.53 73.3583 1082.58 73.5071C1082.63 73.6559 1082.65 73.8144 1082.63 73.9713C1082.62 74.1281 1082.57 74.2794 1082.48 74.414C1082.4 74.5486 1082.29 74.6633 1082.16 74.7497Z"/>
<path d="M877.974 447.153C886.932 441.483 896.404 436.67 906.265 432.778C913.445 429.744 919.562 424.645 923.841 418.129C928.12 411.614 930.368 403.974 930.3 396.179L930.127 375.249L903.418 373.754L903.591 395.575C903.744 405.341 900.234 414.81 893.752 422.117C887.271 429.423 878.288 434.037 868.573 435.05C863.024 435.498 857.447 435.498 851.898 435.05C805.179 431.484 805.179 461.615 805.179 461.615C808.936 455.145 814.565 449.966 821.324 446.758C828.083 443.55 835.655 442.465 843.043 443.646C820.675 452.76 817.168 470.901 823.263 485.219C825.706 466.014 831.485 457.187 848.965 454.973C839.852 468.486 839.104 487.433 845.515 494.821C842.813 469.492 869.378 452.99 869.378 452.99C869.378 452.99 880.562 462.305 875.962 481.165C887.175 474.38 884.875 455.261 877.974 447.153ZM921.1 382.235C921.1 382.045 921.176 381.862 921.31 381.727C921.445 381.592 921.628 381.516 921.819 381.516C922.009 381.516 922.192 381.592 922.327 381.727C922.462 381.862 922.537 382.045 922.537 382.235V406.328C922.537 406.519 922.462 406.701 922.327 406.836C922.192 406.971 922.009 407.047 921.819 407.047C921.628 407.047 921.445 406.971 921.31 406.836C921.176 406.701 921.1 406.519 921.1 406.328V382.235Z"/>
<path d="M734.942 421.106C734.942 398.825 758.259 409.606 766.74 427.115C776.17 446.694 814.494 443.503 810.354 418.26C798.25 436.287 788.446 428.467 788.446 417.455C788.446 406.444 771.8 394.829 762.974 410.296C755.843 394.972 774.474 388.044 774.474 388.044C746.212 372.461 778.959 358.747 761.019 359.84C758.426 359.791 755.877 359.158 753.562 357.988C751.248 356.818 749.227 355.142 747.65 353.083C743.797 348.282 745.263 341.152 747.65 335.517C751.1 327.668 756.045 320.509 759.15 312.517C762.255 304.524 763.434 295.094 759.15 287.619C756.591 283.076 752.336 279.713 749.403 275.342C746.229 270.254 744.976 264.198 745.872 258.268C746.769 252.337 749.754 246.922 754.291 242.998C757.412 240.316 761.388 238.837 765.504 238.83C767.542 238.869 769.527 239.488 771.227 240.613C772.927 241.738 774.273 243.323 775.106 245.183C775.754 247.321 775.756 249.602 775.112 251.74C774.467 253.878 773.205 255.778 771.484 257.201C767.973 259.996 763.686 261.642 759.207 261.916C761.795 266.545 768.551 267.436 773.237 264.964C777.763 262.12 781.142 257.774 782.783 252.687C786.228 243.962 787.415 234.508 786.233 225.202C784.968 215.571 781.201 206.313 781 196.624C781.208 185.777 784.751 175.257 791.149 166.494C797.49 157.796 804.705 149.771 812.683 142.545C798.812 147.19 787.03 156.59 779.419 169.081C776.314 174.343 773.669 180.323 768.81 183.802C764.514 186.286 759.655 187.632 754.693 187.712C749.781 187.768 744.916 188.682 740.318 190.414C735.833 192.484 731.348 196.337 731.693 201.253C733.32 200.042 735.212 199.238 737.213 198.908C739.214 198.578 741.264 198.731 743.193 199.355C745.113 200.089 746.683 201.524 747.585 203.371C748.487 205.218 748.654 207.338 748.052 209.303C746.356 213.414 741.181 214.708 736.753 214.794C732.326 214.881 727.467 214.449 723.844 217.008C715.219 222.959 721.516 238.025 714.558 245.758C713.063 247.337 711.209 248.53 709.153 249.237C707.869 249.721 706.553 250.115 705.214 250.416C703.69 250.79 702.138 251.106 700.614 251.422C695.612 252.515 690.063 254.729 688.51 259.616C689.89 255.62 696.445 255.706 698.659 259.3C699.562 261.22 699.769 263.395 699.245 265.451C698.72 267.507 697.497 269.317 695.784 270.57C694.166 271.991 692.258 273.043 690.193 273.653C688.128 274.264 685.955 274.418 683.824 274.106C660.824 268.874 657 291.701 657 291.701C659.915 291.742 662.739 292.724 665.05 294.501C667.361 296.279 669.035 298.756 669.823 301.563C671.001 307.313 666.2 313.782 660.393 313.322C659.444 318.353 665.74 322.177 670.743 321.17C675.765 319.875 680.239 317.003 683.508 312.977C685.808 310.36 689.258 309.498 694.318 310.907C700.93 312.775 702.943 321.975 699.378 327.927C697.423 331.377 691.673 333.504 684.715 333.504C677.758 333.504 667.235 331.779 667.091 346.499C667.091 346.499 674.365 335.891 684.054 342.302C689.804 346.039 676.953 355.211 683.048 361.967C693.053 345.551 708.923 370.793 696.072 379.217C691.644 382.092 686.239 383.415 678.247 375.595C675.371 386.434 683.249 391.235 689.459 392.644C692.137 393.317 694.922 393.451 697.652 393.036C700.381 392.621 703.001 391.667 705.358 390.229C706.699 389.307 707.818 388.099 708.636 386.692C708.829 386.358 709.051 386.041 709.297 385.744C710.667 383.867 712.62 382.496 714.852 381.846C717.083 381.196 719.467 381.303 721.631 382.15C713.753 385.054 709.239 421.48 734.942 421.106Z"/>
<path d="M738.478 181.272C739.574 178.627 741.474 176.393 743.909 174.887C746.344 173.38 749.191 172.677 752.048 172.877C754.933 173.159 757.72 174.079 760.207 175.571C762.693 177.062 764.816 179.089 766.423 181.502C762.045 179.494 757.291 178.435 752.475 178.396C747.658 178.356 742.888 179.336 738.478 181.272Z"/>
<path d="M763.778 336.522C766.137 333.432 767.327 329.607 767.137 325.724C766.948 321.842 765.391 318.151 762.743 315.305C764.698 319.703 762.887 324.879 760.271 328.961C757.277 332.743 754.721 336.852 752.652 341.209C751.071 345.751 751.962 351.76 756.274 353.916C755.619 352.252 755.361 350.457 755.52 348.676C755.68 346.894 756.253 345.174 757.194 343.652C759.236 341.139 761.435 338.758 763.778 336.522Z"/>
<path d="M233 944H180.257C166.19 944 164.044 921.655 157.248 900.142C143.216 854.945 145.943 810.255 120.498 810.255V920.57C120.498 942.264 149.578 942.264 162.664 944H70.4449C83.676 942.373 112.611 942.373 112.611 920.57V810.255C87.1654 810.255 89.928 855.198 75.8613 900.142C69.0643 921.836 66.92 944 52.852 944H0V942.373H1.09111C14.8671 942.373 28.6797 911.423 28.6797 911.423L62.7389 841.206C74.6614 811.882 83.5672 810.255 85.4573 810.255H85.7482C18.6474 797.094 4.03567 775.002 4.03567 758.876C4.33151 751.093 7.19269 743.622 12.1779 737.616C13.0958 736.5 14.2488 735.599 15.5548 734.974C16.8608 734.349 18.2883 734.017 19.7384 734H60.8488C60.8488 734 47.327 747.993 47.327 764.155C47.2562 767.163 47.7113 770.16 48.6722 773.013C60.3039 805.844 90.3287 807.724 107.922 807.724H112.683V758.081C112.683 736.386 83.6039 735.736 70.5183 734.109H162.736C149.505 735.736 120.571 736.278 120.571 758.081V807.833H125.15C142.745 807.833 172.768 805.953 184.4 773.122C185.361 770.269 185.816 767.271 185.745 764.263C185.745 748.101 172.223 734.109 172.223 734.109H213.335C214.784 734.125 216.211 734.458 217.517 735.083C218.825 735.707 219.976 736.609 220.896 737.724C225.845 743.706 228.691 751.135 229.001 758.876C229.001 775.002 214.461 797.094 147.287 810.255H147.578C149.468 810.255 158.484 811.882 170.296 841.206L204.356 911.423C204.356 911.423 217.878 942.373 231.691 942.373H232.781L233 944Z"/>
<path d="M356.402 848.542C356.607 851.326 356.376 854.123 355.716 856.834C350.16 870.17 323.711 893.673 305.67 894.466C297.227 894.827 289.325 892.339 285.176 886.391C281.22 880.219 279.513 872.875 280.34 865.593C282.434 835.422 306.536 797.105 321.15 772.665L314.907 747C315.108 748.742 315.446 750.466 315.918 752.155C317.681 756.775 318.728 761.637 319.02 766.573C318.921 769.101 317.981 771.523 316.351 773.458C313.246 777.232 309.946 780.842 306.464 784.272C301.653 789.319 297.323 794.125 293.474 798.691C284.887 808.303 278.621 815.404 274.675 819.994C270.707 824.644 265.8 831.132 259.917 839.532C254.282 847.444 249.448 855.896 245.484 864.764C242.037 872.233 240.169 880.332 240 888.554C240.061 896.973 241.5 905.326 244.258 913.283C247.057 921.646 252.039 929.111 258.691 934.91C266.214 941.185 275.818 944.414 285.609 943.957C316.062 943.957 344.964 904.883 359 860.114L356.402 848.542Z"/>
<path d="M439 941.868C436.59 941.868 434.69 940.53 433.338 936.517C431.439 930.373 372.222 784.702 354.358 742.518C353.299 740.097 349.244 735 347.345 735H284.475L284 737.928H284.292C300.256 739.518 310.814 748.772 316.731 763.23C316.914 763.23 325.865 786.545 333.463 806.317L358.633 869.067C366.633 887.973 375.985 910.347 379.638 919.384C381.328 922.917 382.343 926.728 382.634 930.625C382.634 931.167 382.341 931.963 382.341 932.758C381.829 936.372 377.227 940.53 371.819 942.12L373.062 944H438.818V941.868H439Z"/>
<path d="M615.662 771.922C609.51 746.364 590.77 731 568.288 731C562.639 731.002 557.027 731.917 551.669 733.711C532.676 739.604 521.956 754.679 514.726 772.465C511.839 779.552 509.341 786.793 507.244 794.155C507.096 794.173 506.947 794.159 506.804 794.116C506.662 794.072 506.53 793.999 506.417 793.902V735.338H448C462.208 739.604 463 740.978 463 756.305C463 795.059 463.791 872.783 463.791 872.783V930.298C463.252 939.155 460.842 939.986 448.539 944H519.763C507.424 939.986 505.014 939.155 504.475 930.298V880.592C515.266 880.844 524.294 882.218 532.856 882.218C535.805 882.218 538.755 881.928 541.417 881.676C586.129 875.747 618 835.945 618 792.348C617.989 785.473 617.204 778.621 615.662 771.922ZM562.316 850.767C558.128 859.169 552.192 866.567 544.906 872.458C540.334 876.085 534.687 878.071 528.862 878.097C521.692 877.999 514.817 875.215 509.582 870.289C507.677 868.229 506.534 865.575 506.345 862.769V835.945C506.345 832.33 506.093 828.715 506.093 824.63C505.493 809.109 508.421 793.655 514.654 779.442C517.925 772.187 522.667 765.698 528.575 760.39C532.69 756.511 538.078 754.286 543.719 754.136C547.458 754.216 551.117 755.255 554.346 757.152C557.575 759.05 560.269 761.745 562.172 764.982C566.469 772.074 569.375 779.928 570.734 788.118C572.031 794.86 572.671 801.713 572.639 808.579C572.583 823.267 569.043 837.728 562.316 850.767Z"/>
<path d="M638 854.375C670.671 842.287 707.42 867.125 741 848C728.801 860.959 705.816 879.352 687.555 879.98C664.786 880.781 656.362 857.719 638 854.375Z"/>
<path d="M954 944H875.221C888.839 939.609 891.548 938.738 892.097 929.266L890.816 752.181C890.787 749.534 889.706 747.004 887.808 745.143C885.909 743.281 883.346 742.237 880.676 742.237H822.287C819.613 742.247 817.052 743.299 815.153 745.167C813.256 747.033 812.176 749.567 812.147 752.217L811.012 929.266C811.561 938.738 814.234 939.609 827.888 944H749.109C762.727 939.609 765.437 938.738 765.949 929.266V751.672C765.73 739.407 763.936 738.827 749 734H954C939.064 738.827 937.27 739.407 937.05 751.672L937.234 929.266C937.673 938.738 940.382 939.791 954 944Z"/>
<path d="M1139.68 734H976V785.603C977.56 772.585 977.705 742.486 999.294 741.869H1040.62C1042.19 743.056 1043.45 744.585 1044.33 746.339C1045.2 748.094 1045.66 750.026 1045.67 751.988V919.523C1045.67 936.204 1044.07 938.633 1027.53 944H1091.02V943.71H1110.69C1107.83 942.579 1104.85 941.776 1101.8 941.317C1096.14 939.685 1091.82 936.747 1090.92 931.09V921.59C1090.66 907.882 1090.66 758.405 1090.66 758.405V749.34C1090.61 746.748 1091.38 744.207 1092.88 742.088H1138.74C1160.33 742.703 1160.51 772.802 1162 785.821V734H1139.68Z"/>
<path d="M1324 740.553V833.047V919.93C1324 919.93 1324 920.147 1324 920.256V942.592H1272.58C1285.52 941.036 1315.54 940.891 1316.15 919.35V798.113L1183 949V940.746V806.62V756.626C1183 756.626 1183 756.445 1183 756.336V734H1234.46C1221.48 735.52 1191.46 735.665 1190.85 757.205V809.95V882.354L1323.96 734.108V740.553H1324Z"/>
<path d="M1549.9 943.552V989C1549.9 989 1539.01 946.596 1507.44 943.552H1349C1363.52 938.805 1365.4 938.225 1365.62 926.084V748.497C1365.08 739.147 1362.46 738.277 1349.11 734H1426.33C1412.97 738.349 1410.32 739.219 1409.78 748.497L1411.05 926.084C1411.07 928.701 1412.13 931.205 1414 933.046C1415.86 934.887 1418.38 935.916 1421 935.905H1478.23C1480.84 935.916 1483.37 934.887 1485.22 933.046C1487.09 931.205 1488.15 928.701 1488.16 926.084L1489.3 748.497C1488.74 739.147 1486.13 738.277 1472.75 734H1550C1536.62 738.349 1534.01 739.219 1533.45 748.497V926.084C1533.49 938.225 1535.27 938.805 1549.9 943.552Z"/>
<path d="M1682.39 848.016C1682.61 850.808 1682.38 853.62 1681.7 856.337C1676.16 869.712 1649.71 893.372 1631.72 894.135C1623.26 894.498 1615.37 891.99 1611.24 886.03C1607.27 879.836 1605.56 872.452 1606.39 865.133C1608.46 834.823 1632.56 796.445 1647.14 771.767L1640.96 746C1641.15 747.756 1641.47 749.493 1641.93 751.198C1643.7 755.854 1644.76 760.757 1645.04 765.735C1644.93 768.271 1643.99 770.699 1642.37 772.639C1639.26 776.446 1635.96 780.085 1632.49 783.544C1627.56 788.631 1623.26 793.392 1619.5 797.862C1610.9 807.554 1604.64 814.689 1600.72 819.268C1596.78 823.848 1591.87 830.389 1585.98 838.893C1580.31 846.862 1575.47 855.386 1571.5 864.333C1568.05 871.839 1566.18 879.981 1566 888.247C1566.08 896.699 1567.52 905.082 1570.28 913.07C1573.07 921.505 1578.07 929.035 1584.76 934.875C1592.27 941.16 1601.86 944.4 1611.64 943.96C1642.12 943.96 1670.95 904.674 1685 859.718L1682.39 848.016Z"/>
<path d="M1765.86 941.895C1763.42 941.895 1761.57 940.554 1760.21 936.526C1758.33 930.396 1699.55 784.81 1681.82 742.509C1680.72 740.114 1676.72 735 1674.83 735H1612.48L1612 737.902H1612.25C1628.09 739.534 1638.57 748.786 1644.47 763.079C1644.47 763.079 1653.58 786.406 1661.07 806.178L1686.19 869.049C1694.11 887.95 1703.43 910.334 1707.04 919.367C1708.71 922.902 1709.71 926.715 1709.99 930.613C1709.99 931.157 1709.74 931.956 1709.74 932.753C1708.9 935.055 1707.5 937.113 1705.67 938.746C1703.84 940.38 1701.64 941.536 1699.25 942.114L1700.48 944H1766V941.86L1765.86 941.895Z"/>
</svg>
