<svg xmlns="http://www.w3.org/2000/svg" viewBox="0 0 21 22">
   
    <path fill="currentColor" d="M10,5.66A2.66,2.66,0,1,1,12.66,3,2.66,2.66,0,0,1,10,5.66Z" />
    <path d="M10,6a3,3,0,1,1,3-3A3,3,0,0,1,10,6Zm0-5a2,2,0,1,0,2,2A2,2,0,0,0,10,1Z" />
    <path
        d="M20.5,8a17.27,17.27,0,0,0-1.9.55A9.56,9.56,0,0,0,15.17,11a18.46,18.46,0,0,0-4.44,8.71c-.15.65-.22,1.31-.33,2,0-.27-.06-.54-.1-.81a18.69,18.69,0,0,0-3.2-8.09A12.91,12.91,0,0,0,3.54,9.24,7.55,7.55,0,0,0,.41,8L.33,8ZM15.81,9H5a18.6,18.6,0,0,1,5.39,8A18.56,18.56,0,0,1,15.81,9Z" />
    <path fill="currentColor" d="M4.5,8.66H16.33a20.29,20.29,0,0,0-5.92,8.79A20.41,20.41,0,0,0,4.5,8.66Z" />
</svg>