<?xml version="1.0" encoding="UTF-8"?>
<svg id="Layer_1" data-name="Layer 1" xmlns="http://www.w3.org/2000/svg" viewBox="0 0 13.5 13.4">
  <defs>
    <style>
      .cls-1 {
        fill-rule: evenodd;
      }
    </style>
  </defs>
  <path class="cls-1" d="M13.35,12.54L7.46,6.7,13.25,.95c.2-.19,.2-.51,0-.71-.19-.2-.51-.2-.71,0L6.75,6,.85,.15c-.2-.19-.51-.19-.71,0s-.19,.51,0,.71L6.04,6.7,.25,12.44c-.2,.19-.2,.51,0,.71,.19,.2,.51,.2,.71,0L6.75,7.4l5.9,5.85c.2,.19,.51,.19,.71,0,.19-.2,.19-.51,0-.71Z"/>
</svg>