<svg id="Layer_1" data-name="Layer 1" xmlns="http://www.w3.org/2000/svg" viewBox="0 0 26 29"><path d="M17.68,12.93a8,8,0,1,0,8,8A7.92,7.92,0,0,0,17.68,12.93Zm5.17,13.13a7.12,7.12,0,0,1-5.17,2.15,7.47,7.47,0,0,1-5.18-2.15,7.16,7.16,0,0,1-2.15-5.18,7.45,7.45,0,0,1,2.15-5.17,7.16,7.16,0,0,1,5.18-2.15,7.41,7.41,0,0,1,5.17,2.15A7.14,7.14,0,0,1,25,20.88,7.43,7.43,0,0,1,22.85,26.06Z"/><path d="M20.45,20.63H17.68V16.21a.26.26,0,0,0-.51,0v4.67l.13.26.25.12h3.16A.27.27,0,0,0,21,21C20.83,20.76,20.71,20.63,20.45,20.63Z"/><path d="M3.66,10.53a.76.76,0,0,0-.76.76.76.76,0,0,0,1.52,0A.76.76,0,0,0,3.66,10.53Z"/><path d="M3.66,15.83a.76.76,0,1,0,.76.76A.76.76,0,0,0,3.66,15.83Z"/><path d="M9,10.53a.76.76,0,0,0-.76.76A.76.76,0,1,0,9,10.53Z"/><path d="M13.51,11.29a.76.76,0,0,0,1.52,0,.76.76,0,0,0-1.52,0Z"/><path d="M.63,19.24V8.13H17.3v3.66h.63V5.23A1.94,1.94,0,0,0,16,3.33h-.26V.3a.27.27,0,0,0-.25-.25.28.28,0,0,0-.25.25V3.21H3.16V.3A.28.28,0,0,0,2.9.05c-.25-.13-.37,0-.37.25V3.21H1.89A2,2,0,0,0,0,5.23v14a1.94,1.94,0,0,0,1.89,1.9h6.7v-.63H1.89C1.14,20.63.63,20,.63,19.24Zm0-14A1.27,1.27,0,0,1,1.89,4H16A1.28,1.28,0,0,1,17.3,5.23v2.4H.63Z"/></svg>