<svg id="Layer_1" data-name="Layer 1" xmlns="http://www.w3.org/2000/svg" viewBox="0 0 14.71 14"><defs><style>.cls-1{fill-rule:evenodd;}</style></defs><path d="M5.6,10.46V3.25H8c1.82,0,2.72.7,2.72,2.09A1.82,1.82,0,0,1,9.9,7a3.64,3.64,0,0,1-2,.51h-1v3ZM6.89,6.4h.89c1.07,0,1.6-.35,1.6-1.06A.79.79,0,0,0,9,4.55a2.39,2.39,0,0,0-1.13-.22H6.89Z"/><path class="cls-1" d="M3.64,1A2.66,2.66,0,0,0,1,3.64v6.72A2.66,2.66,0,0,0,3.64,13h7.43a2.66,2.66,0,0,0,2.64-2.64V3.64A2.66,2.66,0,0,0,11.07,1ZM0,3.64A3.67,3.67,0,0,1,3.64,0h7.43a3.67,3.67,0,0,1,3.64,3.64v6.72A3.67,3.67,0,0,1,11.07,14H3.64A3.67,3.67,0,0,1,0,10.36Z"/></svg>