<svg id="Layer_1" data-name="Layer 1" xmlns="http://www.w3.org/2000/svg" viewBox="0 0 19.7 22.5">
    <defs>
        <style>
            .cls-1 {
                fill-rule: evenodd;
            }
        </style>
    </defs>
    <path class="cls-1"
        d="M9.74,1A5.22,5.22,0,1,0,15,6.22,5.22,5.22,0,0,0,9.74,1ZM3.52,6.22a6.22,6.22,0,1,1,6.22,6.22A6.21,6.21,0,0,1,3.52,6.22Z" />
    <path class="cls-1"
        d="M8,15.52a6.92,6.92,0,0,0-7,7H0a7.91,7.91,0,0,1,8-8h3.74a7.91,7.91,0,0,1,8,8h-1a6.92,6.92,0,0,0-7-7Z" />
</svg>