<svg width="293" height="295" viewBox="0 0 293 295" fill="none" xmlns="http://www.w3.org/2000/svg">
<path d="M81.3468 271.008C80.9723 270.915 80.5979 270.728 80.4107 270.542L74.8876 266.994C76.1046 266.527 77.4151 266.061 78.4448 265.22C78.9129 264.847 79.2873 264.38 79.5682 263.913C80.317 262.793 80.6915 261.393 80.6915 260.086C80.5979 257.099 78.7257 254.578 76.3854 252.991C76.2918 252.898 75.5429 252.337 74.8876 251.964C74.4196 251.591 73.9515 251.404 73.9515 251.497L67.118 261.86L58.5059 256.165C61.0333 256.818 61.4078 256.725 62.8119 254.578L73.6707 238.241L78.5384 230.866L78.7257 230.493C79.7554 228.905 80.317 227.318 78.6321 225.731L91.0822 233.947C89.5845 233.2 86.4953 232.546 84.9976 234.787L75.1685 249.63L74.4196 250.75C74.4196 250.75 74.6068 250.844 74.9813 251.03C75.8237 251.591 77.3215 252.711 77.6023 252.898C78.9129 253.738 80.0362 254.765 81.0659 255.885C81.9084 256.725 82.6573 257.659 83.219 258.686C84.0615 259.993 84.7167 261.299 85.1848 262.793C85.5592 263.913 85.84 265.22 85.6528 266.434C85.5592 267.368 85.2784 268.301 84.7167 269.141C84.1551 269.981 83.4062 270.542 82.5637 270.915C82.4701 270.915 82.3765 271.008 82.3765 271.008C82.002 271.008 81.6276 271.008 81.3468 271.008Z" fill="#3A241F"/>
<path d="M32.7634 227.879C33.1378 228.065 33.5123 228.252 33.8867 228.439C35.4781 229.186 37.0695 228.812 38.7544 228.532C39.1289 228.439 39.5033 228.439 39.7842 228.345C40.4394 228.159 40.4394 228.252 41.8436 227.972C42.6861 227.785 45.0263 227.412 45.8688 227.225C46.8049 227.038 47.741 226.852 48.6771 226.758C49.7068 226.572 50.6429 226.385 51.6727 226.198C52.7024 226.011 53.7321 225.825 54.7618 225.638C55.7915 225.451 56.8212 225.265 57.7573 225.078C58.6934 224.891 59.6295 224.798 60.5656 224.518C61.4081 224.331 62.3442 224.238 63.0931 224.051C63.842 223.864 66.7439 223.398 67.3992 223.304C68.0544 223.211 69.4586 223.024 70.0203 222.931C70.6755 222.744 71.3308 222.651 71.9861 222.557C73.4838 222.277 75.0752 222.184 76.4794 222.837C76.6666 222.931 76.8538 223.118 76.9474 223.211C78.258 224.611 77.6027 228.159 77.6027 228.159C77.2282 227.599 76.8538 227.132 76.3858 226.665L76.1049 226.385C75.4497 225.638 74.7008 224.985 73.8583 224.424C73.4838 224.238 73.0158 224.051 72.6413 223.864C72.1733 223.678 71.6116 223.584 71.1436 223.584C70.3947 223.584 68.8969 223.864 68.1481 223.958C67.1183 224.144 63.9356 224.705 62.9059 224.891L61.3145 225.171C59.1615 232.733 54.2001 251.777 54.1065 253.178L43.5286 241.415C43.5286 241.322 43.5286 241.322 43.6222 241.228C44.0902 241.508 44.6519 241.882 45.1199 242.255C46.4305 243.095 47.3666 243.189 48.1155 242.535C48.4899 242.162 48.7707 241.695 49.0516 240.948C50.6429 236.28 53.8257 226.665 53.8257 226.665C53.7321 226.665 53.7321 226.665 53.6385 226.665L52.0471 226.945C51.111 227.132 50.1749 227.318 49.2388 227.412C48.2091 227.599 47.0858 227.785 45.9624 227.972C45.0263 228.159 42.4989 228.532 41.4691 228.719C41.0947 228.812 40.7203 228.812 40.4394 228.905C39.9714 228.999 39.4097 229.092 39.0353 229.372C38.9417 229.466 38.8481 229.466 38.7544 229.559C38.1928 230.026 38.0056 230.773 38.0992 231.426C38.0992 233.106 38.9417 234.413 39.8778 236L36.7886 232.546L35.01 230.492L34.0739 229.466L33.6059 228.905L32.5762 227.692C32.6698 227.879 32.7634 227.879 32.7634 227.879Z" fill="#3A241F"/>
<path d="M47.5547 179.147L47.6483 179.241L57.8519 174.293C57.7583 174.573 57.6646 174.666 57.571 174.853C53.0777 178.401 51.58 183.348 53.3586 188.389C53.3586 188.576 53.4522 188.67 53.5458 188.856C53.733 189.136 53.9202 189.416 54.0138 189.696L57.2902 196.418C57.6646 197.071 58.0391 197.818 58.5071 198.378C61.409 202.393 65.9959 204.166 71.3317 202.766C71.5189 202.766 71.7062 202.673 71.8934 202.859L62.7196 207.34L61.7835 207.807L61.2218 206.78C60.2857 205.193 58.2263 204.633 55.3244 204.913C51.6736 205.38 48.21 206.874 44.9336 208.554L44.5592 208.741L30.7985 215.462L28.1774 216.769C26.8669 217.423 27.1477 218.543 27.4285 220.783L26.2116 218.263L25.8372 217.609L14.8848 195.391C16.8506 197.352 17.225 197.538 19.4717 196.511L46.6186 183.162C48.0228 182.321 48.3036 181.481 47.5547 179.147ZM22.8416 203.42C21.4375 204.166 20.5014 204.54 21.063 205.753L26.3052 216.396C27.7094 215.742 28.6455 215.182 30.0496 214.529H30.1432L43.9975 207.807L44.372 207.621C47.742 205.94 51.2991 204.353 55.1372 203.886C57.103 203.606 58.6944 203.793 59.9113 204.353L55.2308 194.831L52.6097 189.51L52.3289 188.95L38.0065 196.045L22.8416 203.42Z" fill="#3A241F"/>
<path d="M8.61222 171.212C7.58251 164.771 9.82916 157.956 15.2585 153.568C17.8796 151.421 20.8752 150.114 24.0579 149.647C30.517 148.621 37.3506 150.954 41.6566 156.369C43.8097 158.983 45.1202 161.97 45.5883 165.051C46.618 171.492 44.2777 178.307 38.8483 182.695C36.2272 184.749 33.2317 186.056 30.1426 186.616C23.6835 187.643 16.8499 185.402 12.4502 179.894C10.4844 177.374 9.17388 174.293 8.61222 171.212ZM33.2317 154.409C29.4873 155.062 25.1812 157.303 21.0624 160.663C14.8841 165.704 11.0461 171.586 11.795 176.253C11.9822 177.374 12.4502 178.494 13.1991 179.428C15.0713 181.668 17.786 182.415 21.0624 181.855C24.8068 181.201 29.1129 178.961 33.2317 175.6C39.5036 170.559 43.3416 164.584 42.5927 159.916C42.4055 158.796 41.9375 157.676 41.1886 156.742C39.3164 154.595 36.5081 153.848 33.2317 154.409Z" fill="#3A241F"/>
<path d="M56.9145 94.4751L54.5742 100.45L54.387 101.01L52.0468 106.985C52.234 104.557 52.234 103.997 50.7362 103.344L21.8107 92.4213C20.8745 92.0479 19.9384 92.5146 19.564 93.4482L15.9132 102.784C15.5388 103.717 16.0068 104.651 16.8493 105.024L45.494 116.413C47.0854 116.88 47.3662 116.507 48.9576 114.64L46.6174 120.614L46.4301 121.174L44.0899 127.149C44.2771 124.722 44.2771 124.162 42.7793 123.508L14.041 112.306C12.0752 111.559 11.7944 111.839 10.1094 113.893L22.8404 81.2188C22.6531 83.926 22.6531 84.2061 24.619 85.0463L53.3573 96.2488C54.9487 96.7156 55.3231 96.3422 56.9145 94.4751Z" fill="#3A241F"/>
<path d="M79.0066 68.1486L79.1002 67.9619L79.381 68.2419L72.0794 76.5505L71.5178 77.204L71.3305 76.9239C71.705 75.9904 71.705 74.9635 71.3305 74.4967C71.2369 74.4033 71.1433 74.31 71.0497 74.2166C70.488 73.7499 69.8328 73.5631 69.2711 73.2831C66.65 72.3495 57.6634 69.3622 55.3232 68.7087L54.8551 68.522C59.1612 72.2562 62.6248 76.6438 63.28 81.4983C63.6545 84.2056 63.0928 86.6328 61.7823 88.2198L57.1018 93.6343C56.9146 93.3543 51.9532 81.3116 50.1746 77.2973C49.7066 76.1771 49.4257 74.6834 49.7066 73.4698C49.8938 72.8163 51.1107 71.3226 52.1404 70.109C53.0765 69.0821 53.8254 68.2419 53.919 68.2419C53.5446 68.0552 41.5625 63.6676 41.5625 63.6676C38.9414 62.8274 36.6011 63.1074 34.5417 64.9745C34.4481 65.1612 33.6992 65.1612 33.6992 65.1612L41.3753 56.3859C41.5625 56.1059 42.6858 56.1992 43.1539 56.2926C50.7363 58.8131 76.6663 67.7752 77.696 68.2419C78.2577 68.522 78.7257 68.4286 79.0066 68.1486ZM56.0721 70.3891C55.8848 70.2024 55.7912 70.109 55.604 69.9223C55.0424 69.4555 54.5743 69.1755 54.0126 68.8021C53.5446 71.6961 58.2251 83.7388 61.2206 87.5663L61.3142 87.6597C62.4376 86.3527 62.812 84.1122 62.5312 81.5916C62.0631 77.3907 60.0037 74.4033 56.0721 70.3891Z" fill="#3A241F"/>
<path d="M91.9253 29.8736C95.8569 36.3151 94.64 45.0904 88.4617 50.0382C88.0873 50.3183 87.7128 50.5983 87.2448 50.8784C85.9342 51.6252 84.4365 52.2787 82.8451 53.2122L87.3384 60.5872C88.1809 61.8942 88.6489 61.8008 90.8956 61.2407L85.8406 64.3214L85.3726 64.6015L80.3176 67.6822C81.8154 66.0018 82.0962 65.6284 81.3473 64.2281L76.1988 55.6395C76.1988 55.6395 69.0844 44.1569 65.6208 38.3689C64.2167 36.1284 64.0294 35.9417 61.502 36.5952L70.2077 31.3673L75.4499 40.0493C75.5435 40.0493 75.5435 40.0493 75.6371 40.0493C75.3563 38.7423 74.9818 37.4353 74.7946 36.1284C74.3266 32.861 74.5138 29.5936 76.854 27.073C77.5093 26.3262 78.2582 25.6727 79.1007 25.2059C82.4706 23.1521 86.6831 23.8056 89.8659 27.073C90.6147 27.9132 91.3636 28.8467 91.9253 29.8736ZM86.5895 36.3151C86.0278 35.2882 85.279 34.3546 84.4365 33.4211C83.5004 32.3008 82.377 31.3673 81.0665 30.7138C79.7559 30.0603 78.4454 30.1537 77.3221 30.8072C76.5732 31.2739 75.9179 32.0208 75.6371 33.0477C75.1691 34.3546 75.0754 35.8483 75.2627 37.1553C75.5435 40.0493 76.7604 42.5698 78.071 44.6236C78.4454 45.1838 78.8198 45.7439 79.1007 46.304L80.7857 49.1046L81.5345 50.3183C81.8154 50.6917 82.2834 51.0651 82.6579 51.1584C83.9684 51.4385 85.279 51.1584 86.2151 50.5983C87.0575 50.1315 87.7128 49.2914 88.0873 48.3578C88.6489 46.8641 88.9298 45.1838 88.7425 43.5967C88.6489 40.7961 87.9 38.4622 86.5895 36.3151Z" fill="#3A241F"/>
<path d="M153.802 35.3816V36.1284C153.896 36.9686 153.896 37.8088 153.709 38.649C153.147 40.8895 151.462 42.6632 149.403 43.5968C147.624 44.4369 145.845 44.717 143.973 44.9037L124.315 46.1173C125.813 45.5572 127.123 44.2502 127.03 42.9433L125.532 18.8578L125.157 13.2566C124.97 10.736 124.783 10.4559 122.068 9.80245L132.365 9.14897L149.122 8.12207L149.59 15.9638C149.59 15.9638 148.56 9.33568 145.377 9.52239L132.459 10.2692C133.021 18.8578 133.395 23.899 133.582 27.4464C134.425 27.3531 145.096 26.793 145.845 26.793C147.25 26.6996 148.654 26.793 149.964 27.4464C151.93 28.4733 153.521 30.5271 153.615 32.6743L153.802 35.3816ZM145.752 32.9543C145.752 32.3009 145.471 31.6474 145.096 30.9939C143.599 28.38 140.79 28.0066 138.076 28.1933L134.799 28.38L133.77 28.4733C134.05 33.5145 134.519 37.9021 134.612 40.1426C134.706 41.0762 135.08 42.0097 135.829 42.5699C136.204 42.8499 136.672 42.9433 137.046 43.13C137.795 43.3167 138.544 43.41 139.386 43.3167C142.382 43.13 145.377 41.3562 145.939 38.2755C146.033 37.7154 145.752 33.6078 145.752 32.9543Z" fill="#3A241F"/>
<path d="M187.969 51.9052L188.156 51.9986L188.062 52.372L177.297 49.5714L176.454 49.3846L176.642 49.1046C177.578 49.1046 178.607 48.5445 178.795 47.9843C178.795 47.891 178.888 47.7043 178.888 47.6109C179.076 46.9574 178.982 46.2106 178.888 45.5571C178.514 42.8498 177.203 33.421 176.829 30.9938L176.735 30.527C175.331 36.035 172.897 41.0761 168.778 43.7834C166.532 45.2771 164.098 45.9305 162.132 45.4638L155.111 43.69C155.299 43.41 163.911 33.6077 166.719 30.3403C167.468 29.4068 168.778 28.4733 169.995 28.1932C170.744 28.0998 172.616 28.4732 174.114 28.8467C175.518 29.2201 176.548 29.5002 176.548 29.5935C176.548 29.1267 175.144 16.5239 175.144 16.5239C174.769 13.8166 173.459 11.8562 170.838 10.8293C170.651 10.7359 170.276 10.1758 170.276 10.1758L181.509 13.0698C181.79 13.1631 182.258 14.19 182.352 14.6568C183.475 22.5919 186.939 49.7581 187.032 50.8783C187.313 51.5318 187.5 51.8119 187.969 51.9052ZM175.799 32.4875C175.893 32.3008 175.986 32.1141 175.986 31.834C176.174 31.1805 176.174 30.6204 176.267 29.8736C173.459 30.8071 164.753 40.3293 162.6 44.6236V44.7169C164.285 45.1837 166.532 44.4369 168.591 43.1299C172.055 40.9827 173.927 37.7153 175.799 32.4875Z" fill="#3A241F"/>
<path d="M210.437 63.7611L223.355 44.8101L211.934 37.0617L199.016 56.106C198.174 57.5063 198.454 57.8797 199.952 59.7468L194.804 56.2927L188.906 52.2785C191.247 52.932 191.715 53.1187 192.651 51.8117L209.969 26.2326C211.092 24.4589 210.905 24.1788 209.313 22.125L220.359 29.5934C217.832 28.8465 217.457 28.7532 216.24 30.5269L212.59 35.9415L224.01 43.6899L227.754 38.2753C228.878 36.5016 228.691 36.2215 227.099 34.1677L238.145 41.6361C235.618 40.8892 235.243 40.7959 234.026 42.5696L216.708 68.1487C215.866 69.549 216.147 69.9225 217.645 71.7896L206.599 64.3212C209.032 64.9747 209.5 65.068 210.437 63.7611Z" fill="#3A241F"/>
<path d="M261.173 69.6423L254.433 75.0569L252.842 76.3638L249.94 78.6977L249.285 79.2578L248.629 79.7246L236.834 89.2467L233.839 91.674L228.222 84.6724C229.814 86.2594 233.184 90.2736 236.179 88.0331L247.88 78.6043L248.255 78.3243L248.91 77.7641L251.719 75.5236L252.655 74.7768L217.551 73.2831C217.551 73.2831 218.393 72.6297 218.674 72.3496L223.916 68.1486L225.508 66.8417L235.524 58.7198L236.179 58.1597L236.741 57.6929L243.481 52.185L246.476 49.7578L252.093 56.7594C250.502 55.1724 247.132 51.1581 244.136 53.3986L237.022 59.1866L227.38 67.2151L262.109 68.9888L261.173 69.6423Z" fill="#3A241F"/>
<path d="M249.097 131.07V130.977L238.331 134.338C238.425 134.058 238.519 133.964 238.706 133.871C243.667 131.07 245.914 126.403 244.884 121.175C244.884 120.988 244.791 120.895 244.791 120.708C244.697 120.428 244.51 120.054 244.416 119.774L242.169 112.679C241.982 111.933 241.701 111.186 241.327 110.532C239.08 106.145 234.774 103.717 229.345 104.278C229.158 104.278 228.97 104.278 228.783 104.091L238.519 101.01L239.548 100.73L239.923 101.85C240.672 103.531 242.544 104.464 245.446 104.558C249.097 104.651 252.747 103.717 256.305 102.597L256.679 102.504L271.282 97.9294L274.091 97.0892C275.495 96.6225 275.401 95.5022 275.401 93.2617L276.244 95.969L276.431 96.7158L283.92 120.334C282.328 118.094 281.86 117.814 279.52 118.561L250.594 127.616C249.097 127.896 248.722 128.736 249.097 131.07ZM277.273 110.812C278.771 110.346 279.707 110.066 279.333 108.759L275.776 97.4627C274.278 97.9294 273.248 98.3029 271.75 98.7696H271.657L256.96 103.344L256.585 103.437C252.935 104.558 249.19 105.678 245.352 105.491C243.386 105.398 241.795 105.024 240.672 104.278L243.854 114.266L245.633 119.961L245.82 120.521L261.079 115.76L277.273 110.812Z" fill="#3A241F"/>
<path d="M249.098 164.677L249.191 158.329V157.675L249.285 151.327C250.034 153.661 250.127 154.221 251.812 154.221L282.048 154.688C283.64 154.688 284.576 154.595 284.576 153.381L284.763 143.486C283.265 143.486 283.078 143.486 281.674 143.486C279.427 143.486 268.007 143.299 265.76 143.299H265.386C261.829 143.205 258.084 143.019 254.621 141.805C254.527 141.712 254.433 141.712 254.246 141.618C253.965 141.525 253.685 141.338 253.404 141.245C253.123 141.152 252.842 140.965 252.561 140.778C252.374 140.592 252.093 140.498 251.906 140.311C251.719 140.125 251.532 139.938 251.344 139.751C251.251 139.565 251.063 139.378 250.876 139.191L250.502 138.631C250.502 138.631 250.502 138.444 250.408 138.444C250.315 138.071 250.034 137.698 250.034 137.324C250.034 137.137 250.034 137.044 250.034 136.857C250.034 136.484 250.127 136.111 250.221 135.737L250.502 135.084C250.689 134.804 250.876 134.43 251.157 134.15C251.344 133.963 251.532 133.777 251.719 133.59C251.906 133.403 252.093 133.217 252.187 133.03L252.655 132.563C252.748 132.47 252.936 132.376 253.029 132.283C253.123 132.19 253.217 132.003 253.31 132.003C253.404 132.003 253.404 132.003 253.497 132.003C253.404 132.096 253.404 132.096 253.404 132.19C253.31 132.376 253.31 132.563 253.31 132.843C253.217 133.123 253.216 133.403 253.216 133.777V134.99C253.216 135.457 253.216 135.924 253.216 136.391C253.216 136.857 253.31 137.324 253.404 137.791C253.497 138.258 253.591 138.724 253.778 139.191C253.965 139.658 254.153 140.031 254.433 140.405C254.433 140.498 254.433 140.498 254.527 140.498C254.808 141.058 255.182 141.432 255.744 141.618C256.025 141.805 256.399 141.899 256.68 141.992C257.429 142.179 258.178 142.365 258.927 142.459C259.676 142.552 260.424 142.739 261.173 142.739C261.922 142.739 262.671 142.925 263.42 142.925H265.667H266.041L281.955 143.205H284.014C285.138 143.112 285.886 142.272 286.355 140.405L286.074 160.476L285.98 165.237C285.512 162.997 284.857 162.343 282.236 162.25L252 161.783C250.034 161.783 249.847 162.436 249.098 164.677Z" fill="#3A241F"/>
<path d="M262.389 192.217L263.513 192.591C263.513 192.591 263.981 191.004 263.045 189.417C262.483 188.483 261.547 187.55 260.704 186.803C258.364 184.656 249.284 177.841 246.85 175.787C246.101 175.133 245.914 174.667 246.288 173.64L249.097 165.611L249.377 165.705C249.19 166.358 249.19 166.918 249.471 167.665C249.846 168.412 250.314 169.065 250.782 169.626C252.467 171.679 260.892 178.308 262.577 180.361C264.449 182.602 265.853 184.936 265.478 188.11L264.168 192.871L270.346 195.018C270.159 194.925 270.065 194.831 269.878 194.738C268.474 193.618 267.444 192.311 266.789 190.817C265.666 188.296 265.853 186.243 265.946 186.149L268.006 179.895C268.287 180.081 274.091 185.869 276.899 188.577C277.741 189.323 278.49 190.537 278.677 191.657C278.771 192.311 278.303 193.991 277.741 195.391C277.367 196.325 277.086 197.165 276.899 197.445L273.81 206.407C273.903 203.98 273.716 203.607 271.376 202.86L252.467 196.325L244.042 193.431C242.17 192.777 240.391 192.404 239.268 194.551L243.854 181.295C243.948 181.668 243.854 182.042 243.761 182.415C243.199 185.029 243.667 185.776 246.195 186.616L262.389 192.217ZM272.967 195.858L276.337 197.072C275.869 194.645 270.159 188.577 266.321 186.336C266.321 186.896 266.321 188.577 267.163 190.444C268.287 192.684 270.159 194.551 272.967 195.858Z" fill="#3A241F"/>
<path d="M223.916 234.786C222.886 233.853 221.856 232.919 220.827 231.986L219.703 231.052L219.142 230.585C218.486 229.932 218.018 228.998 217.738 228.158C217.176 226.478 217.363 224.704 217.925 223.117C218.58 221.343 219.703 219.756 220.92 218.356C221.669 217.516 233.558 204.166 234.026 203.699C233.37 205.1 233.37 206.967 234.307 207.807L238.145 211.261L245.821 218.076L250.033 221.81C251.999 223.49 259.301 229.745 261.734 228.251L254.901 236L253.965 235.16L246.382 228.438L246.663 228.905C247.225 229.745 247.693 230.585 247.974 231.519C247.974 231.706 248.067 231.892 248.161 232.079C248.629 233.853 248.723 235.72 248.348 237.494C247.974 239.454 247.131 241.321 245.821 242.815C245.259 243.468 244.51 244.122 243.668 244.588C242.17 245.429 240.204 245.615 238.706 244.682C238.332 244.495 238.051 244.308 237.864 244.122C236.366 242.815 235.898 240.574 236.085 238.614C236.366 236.467 237.208 234.506 238.145 232.639C238.425 231.892 238.893 231.145 239.268 230.492C237.396 232.639 235.43 234.693 235.243 234.973C234.213 236 233.183 236.933 231.779 237.307C229.532 238.054 227.005 237.494 225.226 236L223.916 234.786ZM231.311 230.679C232.622 231.519 234.213 231.706 235.617 231.239C237.208 230.679 238.519 229.465 239.642 228.345C239.83 228.158 241.234 226.664 241.983 225.824L242.544 225.171C238.706 221.81 232.622 216.489 230.937 214.995C230.281 214.342 229.252 213.968 228.316 214.155C227.847 214.248 227.473 214.435 227.099 214.622C226.443 214.995 225.882 215.555 225.32 216.115C224.852 216.675 224.477 217.236 224.197 217.796C223.167 219.663 222.793 222.09 223.916 223.957C224.197 224.424 224.665 224.797 225.133 225.264L225.975 226.011C226.631 226.571 227.192 227.131 227.847 227.691L228.971 228.718L229.532 229.278C229.626 229.372 229.813 229.558 230 229.745C230.469 230.119 230.843 230.399 231.311 230.679ZM243.387 225.824L241.421 228.065C240.953 228.718 240.578 229.372 240.11 230.119C240.017 230.212 239.923 230.399 239.923 230.492C239.174 232.266 239.174 234.226 240.204 235.813C240.485 236.187 240.766 236.56 241.047 236.84C241.702 237.4 242.544 237.774 243.48 237.774C244.51 237.774 245.54 237.307 246.195 236.56C246.289 236.467 246.382 236.28 246.476 236.187C246.757 235.813 246.944 235.533 247.038 235.066C247.225 234.319 247.318 233.573 247.225 232.732C247.225 231.612 246.944 230.305 246.476 229.278C246.382 228.998 246.289 228.718 246.101 228.438C246.008 228.345 245.914 228.158 245.914 227.971L243.387 225.824Z" fill="#3A241F"/>
<path d="M190.122 261.58C185.348 253.084 187.22 241.882 197.423 236.094C197.798 235.907 198.266 235.627 198.64 235.44C202.104 233.667 205.848 232.826 209.686 233.293C214.929 233.853 219.422 236.934 222.043 241.695C223.073 243.469 223.822 245.616 224.29 247.763C225.226 252.711 224.57 257.285 221.762 261.58C219.796 265.314 216.801 268.114 213.524 269.982C209.686 272.129 205.38 272.876 201.449 271.849C200.7 271.662 200.232 271.289 199.857 270.728C199.764 270.448 199.576 270.262 199.483 269.982C198.64 266.527 197.517 263.073 196.862 259.432C197.236 259.806 197.611 260.086 197.891 260.366C200.7 263.073 203.789 265.127 207.627 266.061C211.278 266.994 214.461 266.714 217.269 265.127C218.767 264.287 220.171 262.98 221.481 261.393C222.792 257.845 222.137 254.858 220.639 252.151C219.796 250.751 218.767 249.35 217.737 248.043C212.588 241.882 204.257 240.668 197.611 244.309C196.3 245.056 195.177 245.896 194.053 247.016C189.747 251.217 188.905 257.845 191.9 263.073C192.088 263.447 192.368 263.82 192.649 264.194C193.117 264.847 193.679 265.594 194.053 266.341C192.462 265.034 191.152 263.353 190.122 261.58Z" fill="#3A241F"/>
<path d="M177.391 281.838L175.145 271.475L163.443 273.996L161.852 266.434C161.852 266.434 163.911 273.249 167.001 272.595L175.051 270.822L174.957 270.448L174.677 269.141L170.839 251.404L170.745 251.124L170.183 248.697L162.133 250.47C159.044 251.124 159.886 257.659 159.886 257.659L158.201 250.004L169.902 247.483H169.996L179.919 245.336C177.578 246.269 177.766 248.043 178.14 250.097L184.131 278.01C184.693 280.437 184.974 280.717 187.595 280.997L177.578 283.144L165.877 285.665L164.192 278.01C164.192 278.01 166.158 284.358 169.247 283.611L177.391 281.838Z" fill="#3A241F"/>
<path d="M119.26 248.043L128.434 248.883C127.404 248.79 122.911 248.51 122.817 249.723C122.817 249.91 122.911 250.19 123.191 250.47L135.267 264.66L153.24 252.057L152.398 261.953C149.028 264.287 144.535 267.367 139.76 270.728L151.368 284.358L151.836 284.825L154.27 287.719L145.096 286.878C146.126 286.972 150.713 287.252 150.806 286.038C150.806 285.851 150.713 285.571 150.432 285.291L138.543 271.475C131.897 276.049 124.97 280.81 120.289 283.984L121.132 274.369L134.05 265.314L122.162 251.31L121.787 250.844L119.26 248.043Z" fill="#3A241F"/>
</svg>
