<svg width="384" height="262" viewBox="0 0 384 262" fill="none" xmlns="http://www.w3.org/2000/svg">
<g clip-path="url(#clip0_2950_22790)">
<rect width="384" height="262" fill="#060301"/>
<path d="M152.719 37.9561C153.292 34.9978 153.152 31.9454 152.311 29.0518C151.47 26.1582 149.952 23.5065 147.882 21.3163C147.354 24.275 147.515 27.3158 148.354 30.2019C149.193 33.088 150.687 35.7417 152.719 37.9561Z" fill="#4C4B50"/>
<path d="M227.378 31.074C227.666 36.5529 226.448 42.0319 226.753 47.5109C227.057 52.9899 229.374 58.9254 234.413 61.0392C230.811 58.4858 229.34 53.7677 229.34 49.3541C229.34 44.9405 230.591 40.6283 231.335 36.2655C232.079 31.9026 232.316 27.2522 230.422 23.2613C228.528 19.2705 223.979 16.2604 219.718 17.4103C224.791 19.5918 227.091 25.5443 227.395 30.9387" fill="#4C4B50"/>
<path d="M191.732 117.283C193.466 119.137 195.839 120.263 198.372 120.436C200.905 120.609 203.408 119.814 205.378 118.213C203.309 117.073 201.015 116.4 198.658 116.239C196.301 116.078 193.937 116.435 191.732 117.283Z" fill="#4C4B50"/>
<path d="M165.451 87.96C167.016 89.4199 168.905 90.4876 170.963 91.0756C173.021 91.6635 175.189 91.7549 177.289 91.3421C175.699 89.9212 173.808 88.8788 171.758 88.2931C169.708 87.7073 167.552 87.5935 165.451 87.96Z" fill="#4C4B50"/>
<path d="M278.06 24.3259C278.218 22.0507 277.591 19.7901 276.283 17.9218C274.975 16.0535 273.065 14.6908 270.873 14.0612C272.363 17.0769 272.983 20.4482 272.664 23.7968C272.344 27.1454 271.097 30.3385 269.063 33.0178C271.331 32.818 273.462 31.8458 275.1 30.2638C276.737 28.6817 277.782 26.5857 278.06 24.3259Z" fill="#4C4B50"/>
<path d="M349.153 -18.7615C350.773 -18.8774 352.299 -19.5621 353.463 -20.6947C354.626 -21.8273 355.352 -23.3348 355.511 -24.9508C353.562 -23.6764 351.305 -22.9506 348.978 -22.8494C346.652 -22.7483 344.34 -23.2755 342.288 -24.3758C342.586 -22.7808 343.439 -21.3427 344.696 -20.3154C345.952 -19.2881 347.531 -18.7378 349.153 -18.7615Z" fill="#4C4B50"/>
<path d="M249.342 6.06317C252.808 11.1363 254.804 18.1541 251.354 23.2272C255.293 18.9131 257.602 13.3592 257.883 7.52421C258.164 1.68919 256.399 -4.06085 252.893 -8.73345C249.849 -12.5552 245.621 -15.4976 243.321 -19.8267C242.047 -22.3181 241.475 -25.11 241.669 -27.902C241.862 -30.694 242.814 -33.3803 244.421 -35.6718C240.612 -32.4296 237.965 -28.0333 236.882 -23.1502C235.798 -18.2671 236.337 -13.1639 238.417 -8.61508C241.089 -3.10228 245.875 1.05768 249.342 6.1139" fill="#4C4B50"/>
<path d="M301.839 23.7346C303.598 23.8798 305.363 23.5385 306.94 22.7481C308.518 21.9578 309.848 20.7488 310.785 19.2533C309.038 19.7442 307.2 19.8197 305.419 19.4737C303.638 19.1277 301.962 18.3698 300.526 17.2607C299.09 16.1516 297.933 14.7219 297.148 13.0859C296.363 11.45 295.972 9.65305 296.005 7.8388C294.775 9.10918 293.929 10.7005 293.563 12.4301C293.197 14.1597 293.325 15.9575 293.935 17.6172C294.544 19.2769 295.608 20.7313 297.007 21.8133C298.405 22.8953 300.08 23.5612 301.839 23.7346Z" fill="#4C4B50"/>
<path d="M218.904 127.683C218.073 129.838 217.891 132.19 218.38 134.447C218.905 136.711 218.905 139.066 218.38 141.33C217.619 143.511 215.319 145.371 213.104 144.712C214.793 145.219 216.576 145.33 218.315 145.037C220.054 144.744 221.702 144.054 223.132 143.021C224.406 141.938 225.396 140.56 226.015 139.006C226.634 137.453 226.863 135.772 226.683 134.109C226.463 132.249 225.736 130.49 225.482 128.647C225.229 126.804 225.77 123.574 227.292 122.407C224.062 123.371 220.528 124.605 218.972 127.615" fill="#4C4B50"/>
<path d="M390.259 6.11421C388.348 4.71065 385.997 3.91586 384.255 2.27555C383.303 1.37018 382.575 0.255371 382.129 -0.980415C381.683 -2.2162 381.531 -3.53896 381.685 -4.84374C379.03 -2.49319 379.52 1.92043 381.499 4.87975C383.477 7.83908 386.572 9.74996 389.21 12.1343C391.848 14.5187 394.08 17.867 393.522 21.3674C394.861 18.8532 395.267 15.9467 394.67 13.1616C394.073 10.3766 392.51 7.89233 390.259 6.14803" fill="#4C4B50"/>
<path d="M396.225 67.5658C395.353 65.6534 394.07 63.9562 392.469 62.5944C390.867 61.2326 388.986 60.2395 386.958 59.6855C389.352 62.2629 391.18 65.3125 392.324 68.6384C393.469 71.9643 393.905 75.4928 393.604 78.9973C395.188 77.6095 396.293 75.7579 396.764 73.7056C397.235 71.6532 397.046 69.5048 396.225 67.5658Z" fill="#4C4B50"/>
<path d="M196.586 159.762C200.019 160.759 203.617 161.056 207.167 160.634C210.717 160.213 214.146 159.083 217.25 157.31C213.929 155.713 210.221 155.096 206.561 155.53C202.902 155.964 199.441 157.432 196.586 159.762Z" fill="#4C4B50"/>
<path d="M234.448 126.803C233.354 129.292 233.012 132.047 233.466 134.727C233.92 137.408 235.149 139.897 237.001 141.887C237.842 139.356 238.049 136.657 237.604 134.027C237.159 131.397 236.075 128.916 234.448 126.803Z" fill="#4C4B50"/>
<path d="M213.279 167.845C211.406 169.218 209.986 171.12 209.203 173.307C208.41 175.492 207.133 177.47 205.466 179.09C203.657 180.545 200.731 180.9 199.175 179.09C200.336 180.422 201.788 181.467 203.419 182.144C205.05 182.822 206.815 183.114 208.578 182.997C210.233 182.758 211.806 182.118 213.158 181.134C214.511 180.15 215.603 178.85 216.34 177.349C217.134 175.658 217.456 173.797 218.234 172.106C219.011 170.415 221.227 167.896 223.087 167.777C219.84 166.864 216.17 166.086 213.279 167.777" fill="#4C4B50"/>
<path d="M226.802 175.354C224.569 176.885 222.833 179.036 221.808 181.542C220.784 184.049 220.515 186.8 221.036 189.457C223.074 187.755 224.665 185.58 225.67 183.121C226.675 180.663 227.064 177.996 226.802 175.354Z" fill="#4C4B50"/>
<path d="M393.642 123.066C394.616 124.144 395.887 124.91 397.295 125.268C398.703 125.626 400.186 125.56 401.556 125.079C402.894 124.527 403.981 123.5 404.605 122.194C405.23 120.889 405.349 119.398 404.938 118.01C403.805 121.037 400.829 121.697 397.616 121.24C396.017 121.042 394.528 120.322 393.381 119.19C392.234 118.058 391.494 116.579 391.275 114.983C391.063 116.419 391.162 117.884 391.564 119.278C391.967 120.672 392.664 121.964 393.608 123.066" fill="#4C4B50"/>
<path d="M355.511 150.445C356.424 150.31 357.348 150.276 358.268 150.343C357.833 150.142 357.356 150.046 356.877 150.064C356.398 150.081 355.93 150.212 355.511 150.445Z" fill="#4C4B50"/>
<path d="M435.491 188.002C433.734 188.826 431.807 189.223 429.868 189.161C427.928 189.099 426.031 188.581 424.33 187.647C420.95 185.744 417.966 183.213 415.536 180.19C413.12 177.165 410.419 174.379 407.47 171.87C403.02 168.585 397.61 166.86 392.08 166.961C386.55 167.062 381.207 168.983 376.879 172.428C372.144 176.368 369.083 181.932 364.687 186.227C361.112 189.958 356.305 192.265 351.158 192.72C348.594 192.896 346.033 192.323 343.788 191.071C341.542 189.82 339.709 187.943 338.509 185.669C336.362 181.001 338.425 174.592 343.21 172.8C347.692 171.109 352.663 173.527 357.432 173.172C360.687 172.801 363.673 171.186 365.766 168.665C367.858 166.144 368.896 162.911 368.661 159.644C368.368 157.09 367.154 154.73 365.245 153.009C363.337 151.287 360.865 150.321 358.295 150.292C359.061 150.616 359.725 151.143 360.214 151.817C360.702 152.49 360.998 153.285 361.068 154.114C360.983 155.449 360.554 156.74 359.822 157.86C359.09 158.981 358.08 159.892 356.891 160.506C351.7 163.651 343.65 162.197 341.333 156.667C340.715 154.96 340.566 153.118 340.902 151.333C341.238 149.548 342.047 147.887 343.244 146.521C345.688 143.801 348.965 141.969 352.562 141.313C358.751 140.011 365.177 141.313 371.163 143.004C377.15 144.695 383.187 147.028 389.444 147.891C395.7 148.753 402.482 147.992 407.538 144.187C412.594 140.383 415.401 134.498 412.425 128.968C411.229 131.264 409.466 133.218 407.305 134.643C405.143 136.068 402.653 136.918 400.072 137.113C397.49 137.308 394.901 136.84 392.55 135.756C390.199 134.671 388.164 133.004 386.636 130.913C384.151 127.531 383.254 123.151 381.056 119.481C379.277 116.525 376.777 114.068 373.79 112.341C370.803 110.614 367.426 109.672 363.977 109.606C359.106 109.606 354.422 111.297 349.873 112.988C345.324 114.679 340.64 116.37 335.77 116.37C330.9 116.37 325.725 114.171 323.527 109.842C322.801 108.255 322.409 106.535 322.374 104.79C322.339 103.045 322.662 101.311 323.324 99.6961C324.695 96.5361 326.671 93.6752 329.141 91.2747C332.692 87.4868 337.934 83.9525 342.771 85.8803C345.443 86.9626 347.286 89.4991 349.941 90.649C351.123 91.0718 352.386 91.2159 353.633 91.07C354.88 90.9242 356.076 90.4923 357.128 89.8082C358.181 89.124 359.061 88.206 359.7 87.1258C360.34 86.0456 360.721 84.8323 360.814 83.5805C360.208 84.1732 359.482 84.6295 358.685 84.9189C357.888 85.2082 357.038 85.3239 356.193 85.2583C355.347 85.1927 354.526 84.9472 353.783 84.5382C353.04 84.1293 352.393 83.5664 351.886 82.8872C348.503 77.814 356.062 71.3543 360.425 70.1536C362.916 69.5768 365.527 69.816 367.871 70.836C370.216 71.8561 372.17 73.6029 373.446 75.8186C374.621 78.1018 375.126 80.6703 374.905 83.2282C374.684 85.7862 373.744 88.2296 372.195 90.277C378.452 88.7382 382.73 82.346 383.102 75.9201C383.474 69.4941 380.532 63.2203 376.338 58.2994C373.362 54.7313 369.675 51.6367 367.731 47.4091C366.682 45.2624 366.232 42.8725 366.429 40.4915C366.625 38.1105 367.46 35.8266 368.847 33.8808C370.312 32.0094 372.387 30.7118 374.711 30.2142C377.036 29.7167 379.46 30.0507 381.563 31.1582C385.605 33.6271 386.721 40.07 383.254 43.3675C388.074 42.6404 390.78 36.8908 389.917 32.1052C389.055 27.3195 385.774 23.5147 382.324 20.1326C378.875 16.7505 375.104 13.3684 373.142 8.92097C371.087 3.57047 371.087 -2.35148 373.142 -7.70198C375.221 -13.0096 377.803 -18.106 380.853 -22.9214C396.072 -49.3185 405.627 -77.9141 414.674 -107C411.14 -98.5448 386.62 -54.5777 368.475 -26.4726C363.469 -18.613 355.716 -12.8982 346.728 -10.4415C341.842 -9.45358 336.88 -8.88781 331.897 -8.75043C326.888 -8.64041 321.982 -7.30503 317.608 -4.86103C313.397 -2.17227 310.286 2.73175 311.03 7.65269C311.774 12.5736 318.234 17.7989 322.867 15.9557C321.863 15.7887 320.925 15.3461 320.158 14.6773C319.39 14.0085 318.824 13.1397 318.521 12.1678C316.966 6.92554 323.307 2.68102 327.923 3.81402C329.222 4.17165 330.432 4.79525 331.478 5.64526C332.523 6.49528 333.38 7.55316 333.994 8.75185C337.106 14.6029 334.333 22.2802 329.209 26.4233C324.085 30.5663 317.236 31.9699 310.607 32.4265C303.978 32.883 297.316 32.6125 290.856 34.1175C284.396 35.6225 277.987 39.1906 275.163 45.0924C273.472 48.4745 273.269 52.3469 272.457 56.0334C271.646 59.7199 270.09 63.5416 266.877 65.5033C265.887 66.1048 264.785 66.4999 263.638 66.6646C262.491 66.8294 261.323 66.7604 260.203 66.4619C259.084 66.1634 258.036 65.6416 257.124 64.9277C256.211 64.2139 255.452 63.3228 254.893 62.3082C254.334 61.2935 253.986 60.1761 253.869 59.0233C253.753 57.8706 253.871 56.7062 254.217 55.6003C254.562 54.4944 255.128 53.4697 255.879 52.5881C256.631 51.7064 257.553 50.9859 258.591 50.4699C256.15 49.2078 253.329 48.8948 250.671 49.5912C248.013 50.2877 245.708 51.9442 244.2 54.2409C241.342 58.9251 243.439 65.8415 248.022 68.8515C245.916 70.2816 243.517 71.2229 241.001 71.6066C238.484 71.9903 235.914 71.8066 233.478 71.0691C231.041 70.3316 228.801 69.0588 226.919 67.3439C225.038 65.6289 223.564 63.5152 222.605 61.1573C221.405 58.2487 221.033 55.0864 220.086 52.0933C219.719 50.5638 219.036 49.1281 218.081 47.8786C217.125 46.6291 215.919 45.5936 214.539 44.8387C212.086 44.0648 209.485 43.8794 206.946 44.2976C204.394 44.709 201.778 44.1931 199.573 42.8433C197.544 41.2706 197.02 37.6687 199.184 36.299C197.952 36.9474 196.92 37.9203 196.2 39.1124C195.481 40.3045 195.1 41.6706 195.1 43.0631C195.1 44.4557 195.481 45.8218 196.2 47.0139C196.92 48.206 197.952 49.1788 199.184 49.8273C202.566 51.6705 207.538 50.8757 210.058 53.8858C212.577 56.8958 210.633 61.8506 207.098 63.3895C203.564 64.9283 199.37 63.7277 196.259 61.4447C189.292 56.3716 186.823 46.9018 187.635 38.3282C188.446 29.7546 191.997 21.7222 194.974 13.639C197.95 5.55579 200.385 -3.08543 198.931 -11.5745C198.299 -15.2754 196.938 -18.8138 194.926 -21.9839C192.915 -25.1541 190.293 -27.8927 187.214 -30.0406C184.134 -32.1884 180.659 -33.7026 176.989 -34.4952C173.319 -35.2878 169.528 -35.3428 165.837 -34.6572C173.328 -32.9662 177.421 -24.3757 176.863 -16.7321C176.305 -9.08864 172.398 -2.17227 169.135 4.74409C161.948 19.9635 157.517 37.1107 160.273 53.7843C163.03 70.458 174.072 86.2693 190.087 91.4777C194.855 93.0334 201.45 94.5046 203.412 99.1043C201.033 98.8386 198.626 99.2035 196.432 100.162C194.239 101.121 192.336 102.64 190.915 104.566C192.778 103.382 195.003 102.902 197.188 103.212C199.374 103.522 201.377 104.602 202.837 106.257C204.765 108.608 205.441 111.855 207.555 114.036C209.682 115.923 212.392 117.022 215.232 117.148C222.436 117.922 229.677 116.073 235.626 111.939C235.356 111.55 235.914 111.128 236.32 110.688C234.629 115.761 236.235 121.612 238.89 126.381C241.697 131.454 245.654 135.715 248.546 140.67C251.438 145.625 253.399 151.628 251.674 157.124C250.71 160.168 248.292 163.076 245.045 163.195C243.791 163.16 242.598 162.64 241.718 161.745C240.839 160.849 240.34 159.647 240.327 158.392C239.776 160.464 239.875 162.656 240.61 164.67C241.345 166.684 242.681 168.424 244.437 169.655C250.913 173.899 261.11 170.162 266.302 175.911C271.206 181.323 267.333 190.607 271.037 196.914C273.218 200.651 276.55 203.983 280.862 203.543C287.322 202.9 289.452 197.81 290.061 194.208C290.94 189 297.265 186.091 302.389 187.343C307.513 188.594 311.402 192.822 314.141 197.32C316.881 201.818 318.826 206.824 321.886 211.119C324.577 214.887 328.066 218.016 332.104 220.282C336.143 222.548 340.631 223.895 345.25 224.228C349.868 224.56 354.503 223.87 358.825 222.206C363.146 220.543 367.047 217.946 370.25 214.602C377.386 207.162 381.36 195.883 391.016 192.247C396.174 190.302 401.957 191.063 407.284 192.484C412.611 193.904 417.802 195.95 423.264 196.593C428.727 197.235 434.764 196.204 438.636 192.281C442.509 188.358 443.472 181.661 439.177 178.211C440.868 181.593 438.89 186.21 435.491 188.053M322.884 145.371C322.022 149.058 319.739 152.254 318.521 155.839C317.304 159.424 317.507 164.04 320.601 166.205C322.681 167.659 325.387 167.575 327.873 167.896C330.359 168.217 333.166 169.587 333.588 172.039C328.211 172.039 324.812 178.634 326.029 183.876C327.247 189.118 331.407 193.092 335.381 196.728C329.293 197.033 323.544 193.194 319.992 188.273C316.441 183.352 314.463 177.45 312.45 171.701C311.165 168.031 309.626 164.125 306.38 161.994C301.476 158.764 294.542 161.115 290.67 165.579C286.797 170.044 285.428 176.013 284.125 181.729C279.221 176.52 279.526 167.93 283.128 161.74C285.176 158.541 287.576 155.581 290.281 152.913C292.97 150.229 295.249 147.164 297.045 143.815C297.945 142.136 298.497 140.293 298.669 138.396C298.84 136.498 298.627 134.586 298.043 132.773C297.404 130.978 296.204 129.438 294.619 128.381C293.035 127.323 291.151 126.806 289.249 126.905C285.461 127.362 282.485 131.691 283.939 135.191C281.014 136.882 277.327 133.737 276.922 130.422C276.516 127.108 278.105 123.929 279.323 120.817C280.54 117.706 281.284 113.952 279.323 111.195C276.786 107.492 270.546 108.117 267.722 111.601C264.898 115.085 264.932 120.192 266.353 124.453C267.773 128.714 270.377 132.469 272.407 136.476C274.436 140.484 275.924 145.084 274.842 149.447C273.759 153.809 269.312 157.547 264.949 156.481C267.413 153.565 268.62 149.79 268.303 145.985C267.985 142.18 266.171 138.657 263.258 136.189C259.758 133.483 255.09 132.519 251.776 129.577C249.836 127.775 248.518 125.405 248.011 122.807C247.503 120.209 247.833 117.517 248.952 115.118C250.389 112.21 252.926 110.045 254.617 107.238C256.308 104.431 256.967 100.474 254.701 98.2418C254.532 103.721 247.599 107.729 242.763 105.124C239.482 103.433 237.689 99.5947 234.426 97.8698C231.635 96.3986 228.304 96.6861 225.21 97.1427C222.149 97.8848 218.965 97.954 215.875 97.3456C212.865 96.4493 209.889 92.729 210.599 89.6683C211.478 92.0526 215.435 92.0188 216.653 89.7866C216.894 89.2087 217.014 88.5879 217.008 87.9619C217.001 87.3359 216.867 86.7178 216.614 86.1452C216.361 85.5726 215.994 85.0574 215.535 84.6311C215.077 84.2047 214.537 83.876 213.947 83.665C212.721 83.3223 211.423 83.3325 210.203 83.6944C208.982 84.0564 207.889 84.7555 207.048 85.7112C208.353 83.3933 210.19 81.4193 212.409 79.9524C214.628 78.4855 217.165 77.5679 219.808 77.2754C222.452 76.9829 225.128 77.324 227.614 78.2704C230.1 79.2168 232.324 80.7414 234.104 82.7181C236.303 85.1701 237.977 88.4338 241.072 89.5668C244.859 90.9704 248.952 88.5691 251.928 85.8465C256.071 82.0755 259.47 77.5266 263.765 73.9077C268.061 70.2889 273.641 67.6001 279.137 68.6317C282.519 69.2574 285.478 71.2021 288.776 72.0138C292.583 72.9523 296.6 72.5003 300.104 70.7393C303.607 68.9783 306.366 66.024 307.885 62.4086C308.904 59.9252 308.994 57.1574 308.138 54.6129C307.688 53.3572 306.888 52.256 305.834 51.4383C304.78 50.6207 303.514 50.1205 302.186 49.9964C300.727 50.0363 299.312 50.5094 298.123 51.3556C296.933 52.2018 296.022 53.3828 295.506 54.7482C294.51 57.5076 294.386 60.5065 295.151 63.3387C291.769 62.6961 289.774 58.7053 290.332 55.2894C291.147 51.9014 293.129 48.9083 295.929 46.8341C300.612 42.8819 306.22 40.1822 312.231 38.9877C318.454 37.7363 324.981 38.1422 331.018 36.2313C337.698 33.8641 343.485 29.4943 347.59 23.7176C351.645 17.972 355.096 11.8235 357.889 5.36977C357.901 14.9342 354.542 24.1969 348.402 31.5302C345.798 34.5403 342.619 37.3305 341.519 41.1691C340.874 44.3464 341.055 47.636 342.044 50.7235C343.043 53.7889 343.501 57.0048 343.396 60.2272C343.041 63.4402 341.604 66.9913 338.476 67.8031C338.886 66.5226 338.985 65.1627 338.764 63.8363C338.544 62.5099 338.01 61.2553 337.207 60.1765C336.351 59.1438 335.134 58.475 333.802 58.3055C332.471 58.1359 331.126 58.4783 330.037 59.2633C327.856 61.1573 328.126 64.6408 329.006 67.3972C329.885 70.1536 331.136 73.0791 330.325 75.8524C328.414 82.3629 317.794 81.6865 314.463 87.6052C312.772 90.5138 313.499 94.0988 313.871 97.4132C314.243 100.728 314.023 104.651 311.334 106.629C313.516 104.938 312.095 100.897 309.407 100.288C308.031 100.118 306.639 100.436 305.474 101.187C304.309 101.938 303.445 103.074 303.031 104.397C302.269 107.072 302.376 109.92 303.336 112.531C305.027 118.534 309.204 124.673 315.41 125.485C321.616 126.296 327.721 121.494 333.825 122.948C336.149 123.589 338.15 125.075 339.436 127.114C340.722 129.154 341.199 131.6 340.775 133.974C336.852 130.964 331.492 127.869 327.349 130.591C322.918 133.432 324.068 140.197 322.884 145.371Z" fill="#4C4B50"/>
<path d="M240.335 158.342C240.496 157.757 240.717 157.19 240.995 156.651C240.601 157.13 240.37 157.723 240.335 158.342Z" fill="#4C4B50"/>
<path d="M166.078 156.312C162.307 161.148 156.202 165.19 150.334 163.431C155.637 165.881 161.629 166.4 167.273 164.9C172.918 163.399 177.861 159.972 181.247 155.213C183.969 151.154 185.491 146.233 188.907 142.733C190.9 140.758 193.394 139.363 196.12 138.698C198.846 138.034 201.702 138.125 204.38 138.962C200.136 136.32 195.147 135.132 190.168 135.578C185.189 136.023 180.49 138.078 176.782 141.431C172.352 145.658 169.832 151.577 166.078 156.312Z" fill="#4C4B50"/>
<path d="M276.943 88.5865C277.924 91.512 274.829 94.0823 272.123 95.5874C269.418 97.0924 266.255 99.4768 267.05 102.47C267.843 101.317 268.858 100.334 270.037 99.5795C271.215 98.8254 272.533 98.3152 273.913 98.0792C275.292 97.8432 276.704 97.8861 278.067 98.2054C279.429 98.5247 280.714 99.1139 281.844 99.9382C282.975 100.763 283.929 101.805 284.65 103.005C285.371 104.204 285.844 105.536 286.041 106.921C286.239 108.306 286.156 109.717 285.799 111.07C285.441 112.423 284.816 113.69 283.961 114.798C288.138 113.411 290.048 108.575 290.725 104.212C291.401 99.8488 291.418 95.1477 293.904 91.5119C296.035 88.4004 299.603 86.6418 302.596 84.3419C305.589 82.0421 308.278 78.4402 307.399 74.7706C306.282 78.7108 302.106 81.129 298.047 81.5348C293.989 81.9407 289.93 80.8584 285.939 79.8438C281.948 78.8291 277.755 78.1527 273.814 79.2519C269.874 80.3511 266.34 83.9192 266.577 87.9946C268.239 86.8481 270.132 86.0804 272.123 85.7455C273.121 85.6063 274.137 85.7948 275.018 86.2828C275.9 86.7707 276.599 87.5317 277.01 88.4512" fill="#4C4B50"/>
<path d="M212.886 231.801C213.478 237.364 218.737 240.966 224.335 241.152C221.088 240.442 219.025 237.229 217.942 234.1C216.86 230.972 216.353 227.539 214.56 224.749C213.512 223.058 211.584 221.671 209.775 222.348C210.565 222.779 211.239 223.395 211.739 224.142C212.24 224.89 212.552 225.748 212.649 226.643C212.92 228.334 212.649 230.025 212.903 231.716" fill="#4C4B50"/>
<path d="M373.5 242.877C375.18 241.283 376.356 239.231 376.882 236.975C377.419 234.717 378.466 232.611 379.943 230.82C380.705 229.947 381.76 229.383 382.909 229.233C384.058 229.084 385.222 229.359 386.182 230.008C384.875 228.821 383.312 227.95 381.614 227.463C379.916 226.977 378.129 226.887 376.391 227.201C374.773 227.624 373.282 228.437 372.05 229.569C370.818 230.701 369.881 232.118 369.323 233.695C368.714 235.386 368.613 237.347 368.021 239.123C367.429 240.899 365.535 243.638 363.692 243.959C367.074 244.5 370.777 244.94 373.449 242.877" fill="#4C4B50"/>
<path d="M359.193 236.958C361.242 235.184 362.727 232.849 363.466 230.241C364.206 227.633 364.166 224.866 363.353 222.28C361.516 224.203 360.177 226.545 359.452 229.103C358.727 231.661 358.638 234.358 359.193 236.958Z" fill="#4C4B50"/>
<path d="M208.066 210.528C209.999 210.358 211.943 210.648 213.742 211.374C215.541 212.1 217.142 213.241 218.415 214.704C220.95 217.644 222.886 221.05 224.114 224.732C225.349 228.402 226.928 231.947 228.832 235.318C231.884 239.93 236.37 243.408 241.597 245.215C246.824 247.021 252.501 247.056 257.749 245.312C263.533 243.249 268.335 239.072 273.949 236.553C278.597 234.269 283.918 233.758 288.915 235.115C291.383 235.835 293.59 237.254 295.268 239.202C296.946 241.15 298.023 243.543 298.368 246.09C298.774 251.163 294.648 256.507 289.524 256.558C284.738 256.558 280.9 252.618 276.3 251.315C273.121 250.535 269.763 251.012 266.928 252.647C264.092 254.283 261.997 256.95 261.08 260.092C260.48 262.592 260.809 265.225 262.007 267.499C263.205 269.774 265.19 271.535 267.591 272.454C266.983 271.884 266.544 271.159 266.32 270.357C266.097 269.554 266.098 268.706 266.323 267.905C266.857 266.68 267.701 265.615 268.771 264.815C269.842 264.014 271.101 263.506 272.427 263.339C278.38 262.189 285.482 266.23 285.719 272.301C285.703 274.117 285.204 275.897 284.274 277.457C283.344 279.016 282.016 280.301 280.426 281.179C277.194 282.9 273.481 283.495 269.874 282.87C263.634 281.957 258.037 278.592 252.963 274.872C247.89 271.151 243.071 266.941 237.474 263.998C231.876 261.056 225.264 259.416 219.227 261.242C213.19 263.068 208.506 267.634 209.385 273.891C211.297 272.152 213.62 270.928 216.135 270.335C218.65 269.743 221.275 269.8 223.762 270.502C226.249 271.204 228.516 272.528 230.35 274.349C232.184 276.169 233.524 278.427 234.244 280.909C235.41 285.001 234.819 289.364 235.563 293.575C236.197 296.98 237.692 300.167 239.906 302.831C242.12 305.495 244.98 307.548 248.212 308.794C252.777 310.485 257.766 310.485 262.636 310.485C267.506 310.485 272.495 310.401 277.061 312.092C281.627 313.783 285.736 317.604 286.311 322.441C286.449 324.175 286.227 325.918 285.659 327.562C285.092 329.206 284.191 330.715 283.013 331.995C280.625 334.56 277.751 336.623 274.558 338.066C269.908 340.4 263.786 341.922 259.914 338.438C257.766 336.527 256.904 333.5 254.841 331.505C253.876 330.7 252.739 330.128 251.518 329.835C250.296 329.542 249.024 329.535 247.799 329.815C246.575 330.095 245.431 330.654 244.459 331.449C243.486 332.243 242.71 333.252 242.192 334.396C242.964 334.048 243.802 333.868 244.649 333.87C245.496 333.872 246.333 334.055 247.104 334.408C247.875 334.76 248.561 335.274 249.116 335.913C249.672 336.553 250.084 337.304 250.325 338.117C251.729 343.985 242.445 347.519 237.93 347.13C235.391 346.826 233.019 345.707 231.169 343.942C229.318 342.177 228.089 339.861 227.665 337.339C227.336 334.792 227.738 332.204 228.825 329.877C229.912 327.55 231.639 325.581 233.804 324.199C227.395 323.489 221.172 328.021 218.585 333.923C215.997 339.825 216.623 346.724 218.821 352.778C220.411 357.158 222.795 361.335 223.167 365.968C223.403 368.335 222.998 370.721 221.996 372.878C220.993 375.035 219.43 376.883 217.469 378.228C215.451 379.48 213.058 379.985 210.706 379.654C208.355 379.324 206.194 378.179 204.6 376.419C201.657 372.715 202.824 366.273 207.153 364.362C202.401 363.381 197.869 367.845 197.007 372.631C196.144 377.417 198.038 382.253 200.101 386.65C202.165 391.046 204.566 395.494 204.87 400.347C204.935 406.08 202.875 411.634 199.087 415.938C195.318 420.183 191.15 424.057 186.641 427.505C163.338 447.087 144.466 470.61 126 494.826C132.24 488.061 170.407 455.204 197.024 435.115C204.421 429.452 213.665 426.751 222.947 427.539C227.876 428.322 232.73 429.521 237.457 431.124C242.196 432.739 247.259 433.169 252.203 432.375C257.073 431.31 261.672 427.776 262.687 422.889C263.702 418.002 259.423 410.848 254.452 411.051C255.334 411.562 256.06 412.305 256.549 413.199C257.038 414.094 257.272 415.106 257.225 416.125C256.87 421.57 249.446 423.379 245.506 420.741C244.405 419.955 243.482 418.946 242.795 417.781C242.107 416.616 241.671 415.32 241.515 413.977C240.602 407.433 245.844 401.21 252.084 399.045C258.324 396.88 265.24 397.963 271.599 399.789C277.957 401.615 284.129 404.203 290.691 405.065C297.252 405.927 304.49 404.794 309.191 400.161C311.879 397.506 313.486 393.989 315.515 390.81C317.544 387.63 320.318 384.587 323.97 383.842C325.129 383.554 326.335 383.511 327.512 383.714C328.688 383.918 329.809 384.365 330.803 385.027C331.797 385.688 332.643 386.549 333.285 387.556C333.928 388.562 334.353 389.691 334.535 390.871C334.717 392.051 334.651 393.256 334.341 394.409C334.031 395.562 333.484 396.638 332.734 397.568C331.985 398.498 331.051 399.261 329.99 399.81C328.93 400.358 327.766 400.679 326.575 400.753C328.431 402.78 330.972 404.047 333.708 404.31C336.444 404.572 339.181 403.811 341.388 402.173C345.683 398.791 346.089 391.537 342.809 387.14C345.279 386.499 347.861 386.419 350.366 386.907C352.871 387.395 355.235 388.438 357.283 389.96C359.332 391.482 361.014 393.443 362.205 395.7C363.396 397.957 364.066 400.452 364.166 403.002C364.285 406.147 363.541 409.242 363.405 412.387C363.281 413.934 363.479 415.49 363.985 416.957C364.491 418.423 365.296 419.769 366.348 420.91C368.38 422.485 370.756 423.557 373.281 424.039C375.822 424.529 378.102 425.915 379.707 427.945C381.077 430.109 380.333 433.677 377.83 434.219C379.199 434.018 380.488 433.449 381.559 432.573C382.63 431.697 383.444 430.547 383.913 429.245C384.381 427.943 384.488 426.538 384.221 425.181C383.953 423.823 383.323 422.563 382.396 421.536C379.775 418.61 374.921 417.68 373.586 413.977C372.25 410.273 375.784 406.316 379.623 406.063C383.461 405.809 387.012 408.43 389.143 411.626C393.929 418.779 392.999 428.537 389.278 436.315C385.558 444.094 379.487 450.402 373.907 456.963C368.326 463.524 363.067 470.813 361.511 479.268C360.839 482.959 360.906 486.747 361.708 490.412C362.51 494.077 364.033 497.546 366.186 500.618C368.34 503.69 371.082 506.304 374.253 508.309C377.425 510.313 380.963 511.668 384.662 512.294C378.185 508.202 377.323 498.647 380.468 491.663C383.613 484.679 389.667 479.539 395.129 474.161C407.119 462.324 417.113 447.764 420.292 431.209C423.471 414.653 418.601 395.95 405.259 385.55C401.336 382.473 395.637 378.786 395.383 373.815C397.514 374.868 399.884 375.346 402.258 375.201C404.631 375.056 406.925 374.292 408.911 372.986C406.757 373.457 404.506 373.141 402.564 372.096C400.622 371.05 399.119 369.345 398.326 367.287C397.311 364.429 397.801 361.149 396.55 358.375C395.213 355.866 393.051 353.895 390.428 352.795C383.926 349.594 376.487 348.843 369.476 350.681C369.595 351.121 368.935 351.358 368.411 351.611C371.793 347.367 372.233 341.38 371.37 336.003C370.474 330.321 368.293 324.91 367.244 319.262C366.196 313.614 366.449 307.306 369.95 302.74C371.911 300.204 375.243 298.326 378.27 299.358C379.431 299.82 380.369 300.714 380.886 301.852C381.403 302.99 381.459 304.284 381.043 305.463C382.272 303.708 382.931 301.618 382.931 299.476C382.931 297.334 382.272 295.244 381.043 293.49C376.427 287.284 365.57 287.284 362.661 280.097C359.922 273.333 366.754 265.943 365.452 258.756C364.674 254.495 361.224 251.282 357.791 248.61C354.358 245.938 350.638 243.3 348.896 239.343C347.155 235.386 348.152 228.419 352.278 227.235C348.761 226.271 345.311 229.772 344.77 233.374C344.229 236.975 345.633 240.577 346.681 244.078C347.73 247.578 348.372 251.569 346.681 254.748C344.06 259.331 337.127 259.821 332.747 256.947C328.367 254.072 326.169 248.711 325.137 243.537C324.106 238.362 324.004 233.001 322.601 227.911C321.368 223.453 319.167 219.32 316.155 215.809C313.143 212.298 309.394 209.493 305.175 207.596C300.956 205.699 296.37 204.755 291.745 204.832C287.119 204.909 282.567 206.005 278.414 208.042C269.147 212.574 261.503 221.79 251.222 221.891C245.709 221.891 240.551 219.236 236.002 216.074C231.453 212.912 227.31 209.192 222.389 206.706C217.468 204.22 211.465 203.121 206.477 205.471C201.488 207.822 198.292 213.774 201.15 218.492C200.727 214.654 204.16 211.086 207.914 210.528M298.977 289.296C301.057 286.134 304.304 283.902 306.671 280.959C309.038 278.017 310.459 273.603 308.362 270.509C306.908 268.446 304.337 267.583 302.139 266.366C299.941 265.148 297.742 262.984 298.199 260.515C303.272 262.392 308.7 257.353 309.36 252.06C310.019 246.767 307.483 241.558 305.014 236.84C310.831 238.65 314.839 244.213 316.547 250.064C318.255 255.915 318.018 262.121 317.933 268.209C317.933 272.098 317.933 276.292 320.284 279.421C323.784 284.139 331.157 284.342 336.264 281.45C341.371 278.558 344.719 273.468 347.983 268.53C350.79 275.108 347.544 283.073 342.048 287.639C339.019 289.949 335.74 291.912 332.273 293.49C328.813 295.074 325.605 297.16 322.753 299.679C321.331 300.948 320.18 302.489 319.366 304.212C318.553 305.935 318.094 307.804 318.018 309.707C318.004 311.612 318.604 313.47 319.727 315.008C320.851 316.545 322.439 317.681 324.258 318.247C327.961 319.109 332.29 316.082 332.104 312.278C335.402 311.753 337.803 315.93 337.042 319.177C336.281 322.424 333.66 324.859 331.495 327.379C329.331 329.898 327.285 333.145 328.113 336.375C329.23 340.738 335.3 342.294 339.156 339.977C343.011 337.66 344.736 332.891 344.872 328.393C345.007 323.895 343.84 319.481 343.316 315.017C342.792 310.553 342.978 305.733 345.497 302.013C348.017 298.293 353.479 296.297 357.199 298.817C353.914 300.715 351.51 303.834 350.513 307.495C349.515 311.156 350.004 315.063 351.873 318.365C354.223 322.119 358.282 324.622 360.328 328.512C361.531 330.873 361.953 333.555 361.533 336.172C361.114 338.788 359.875 341.204 357.994 343.071C355.644 345.287 352.515 346.454 349.979 348.517C347.442 350.58 345.464 353.979 346.799 356.972C348.846 351.899 356.726 350.495 360.328 354.604C362.78 357.361 363.152 361.555 365.638 364.294C367.751 366.628 370.981 367.507 374.093 368.133C377.219 368.495 380.23 369.527 382.92 371.16C385.423 373.037 386.945 377.552 385.237 380.173C385.237 377.636 381.5 376.3 379.589 377.991C379.149 378.452 378.81 378.998 378.592 379.596C378.374 380.194 378.282 380.831 378.322 381.466C378.361 382.101 378.532 382.721 378.823 383.287C379.114 383.854 379.518 384.353 380.012 384.756C381.045 385.501 382.268 385.939 383.539 386.02C384.811 386.101 386.079 385.821 387.198 385.212C385.173 386.942 382.765 388.165 380.174 388.779C377.583 389.394 374.882 389.383 372.296 388.746C369.71 388.11 367.312 386.867 365.301 385.121C363.291 383.374 361.725 381.174 360.734 378.702C359.516 375.641 359.043 371.938 356.54 369.858C353.479 367.253 348.812 368.167 345.075 369.621C339.883 371.735 335.131 374.846 329.855 376.774C324.579 378.702 318.407 379.294 313.604 376.436C310.662 374.745 308.531 371.836 305.741 369.858C302.466 367.702 298.53 366.785 294.64 367.272C290.75 367.758 287.161 369.617 284.518 372.513C282.715 374.5 281.683 377.068 281.61 379.75C281.598 381.087 281.969 382.4 282.679 383.532C283.389 384.665 284.409 385.571 285.618 386.142C287.043 386.6 288.574 386.612 290.006 386.177C291.438 385.742 292.703 384.88 293.633 383.707C295.52 381.46 296.666 378.684 296.914 375.759C299.907 377.45 300.38 381.949 298.689 384.975C296.757 387.889 293.858 390.026 290.505 391.013C284.749 393.121 278.553 393.738 272.495 392.805C266.221 391.824 260.235 389.203 253.894 388.916C246.81 388.837 239.875 390.951 234.041 394.97C228.248 398.963 222.882 403.542 218.027 408.633C221.297 399.651 227.633 392.111 235.918 387.343C239.418 385.415 243.358 383.876 245.709 380.579C247.41 377.826 248.371 374.681 248.499 371.447C248.622 368.22 249.303 365.039 250.511 362.045C251.932 359.153 254.519 356.295 257.732 356.634C256.899 357.69 256.333 358.932 256.083 360.254C255.833 361.576 255.905 362.939 256.295 364.226C256.729 365.502 257.635 366.563 258.827 367.192C260.019 367.821 261.406 367.97 262.704 367.608C265.426 366.594 266.357 363.229 266.492 360.337C266.627 357.445 266.492 354.266 268.183 351.882C272.224 346.42 281.965 350.698 287.123 346.301C289.659 344.137 290.268 340.535 291.063 337.288C291.857 334.041 293.396 330.524 296.609 329.509C293.971 330.355 293.921 334.582 296.237 336.121C297.475 336.75 298.893 336.925 300.247 336.616C301.6 336.307 302.802 335.534 303.644 334.43C305.277 332.177 306.158 329.468 306.164 326.685C306.586 320.445 304.811 313.275 299.281 310.367C293.751 307.458 286.328 309.876 281.119 306.41C279.156 305.012 277.786 302.931 277.279 300.574C276.772 298.218 277.165 295.758 278.38 293.676C281.018 297.853 284.992 302.588 289.811 301.489C295.003 300.305 296.187 293.608 299.112 289.161" fill="#4C4B50"/>
</g>
<defs>
<clipPath id="clip0_2950_22790">
<rect width="384" height="262" fill="white"/>
</clipPath>
</defs>
</svg>
