<svg width="30" height="30" viewBox="0 0 30 30" fill="none" xmlns="http://www.w3.org/2000/svg">
<path d="M22.2366 6.16634H21.9104V3H21.235V6.16634H8.44731V3H7.77182V6.16634H7.07304C5.9317 6.16634 5 7.09763 5 8.23844V23.3717C5 24.5125 5.9317 25.4438 7.07304 25.4438H22.2133C23.3546 25.4438 24.2863 24.5125 24.2863 23.3717V8.23844C24.3096 7.09763 23.3779 6.16634 22.2366 6.16634ZM7.09634 6.84153H22.2366C23.0052 6.84153 23.6341 7.47014 23.6341 8.23844V10.7762H5.69878V8.23844C5.69878 7.47014 6.30439 6.84153 7.09634 6.84153ZM22.2366 24.7686H7.09634C6.32768 24.7686 5.69878 24.14 5.69878 23.3717V11.4514H23.6341V23.3717C23.6341 24.14 23.0052 24.7686 22.2366 24.7686Z" fill="#1C1C1C"/>
<path d="M8.95992 15.5256C9.39731 15.5256 9.75187 15.1711 9.75187 14.734C9.75187 14.2968 9.39731 13.9424 8.95992 13.9424C8.52254 13.9424 8.16797 14.2968 8.16797 14.734C8.16797 15.1711 8.52254 15.5256 8.95992 15.5256Z" fill="#1C1C1C"/>
<path d="M8.95992 21.3224C9.39731 21.3224 9.75187 20.968 9.75187 20.5308C9.75187 20.0937 9.39731 19.7393 8.95992 19.7393C8.52254 19.7393 8.16797 20.0937 8.16797 20.5308C8.16797 20.968 8.52254 21.3224 8.95992 21.3224Z" fill="#1C1C1C"/>
<path d="M14.6435 21.3234C15.0809 21.3234 15.4355 20.969 15.4355 20.5318C15.4355 20.0946 15.0809 19.7402 14.6435 19.7402C14.2061 19.7402 13.8516 20.0946 13.8516 20.5318C13.8516 20.969 14.2061 21.3234 14.6435 21.3234Z" fill="#1C1C1C"/>
<path d="M14.667 15.5256C15.1043 15.5256 15.4589 15.1711 15.4589 14.734C15.4589 14.2968 15.1043 13.9424 14.667 13.9424C14.2296 13.9424 13.875 14.2968 13.875 14.734C13.875 15.1711 14.2296 15.5256 14.667 15.5256Z" fill="#1C1C1C"/>
<path d="M20.3486 15.5256C20.786 15.5256 21.1405 15.1711 21.1405 14.734C21.1405 14.2968 20.786 13.9424 20.3486 13.9424C19.9112 13.9424 19.5566 14.2968 19.5566 14.734C19.5566 15.1711 19.9112 15.5256 20.3486 15.5256Z" fill="#1C1C1C"/>
<path d="M20.3486 21.3234C20.786 21.3234 21.1405 20.969 21.1405 20.5318C21.1405 20.0946 20.786 19.7402 20.3486 19.7402C19.9112 19.7402 19.5566 20.0946 19.5566 20.5318C19.5566 20.969 19.9112 21.3234 20.3486 21.3234Z" fill="#1C1C1C"/>
</svg>
