<svg width="263" height="448" viewBox="0 0 263 448" fill="none" xmlns="http://www.w3.org/2000/svg">
<g clip-path="url(#clip0_1352_10727)">
<path opacity="0.36" d="M150.049 79.7542C143.76 78.2579 138.369 73.7689 135.823 67.9332C133.726 73.7689 135.374 80.8016 139.716 85.2906C144.059 89.7796 151.097 91.2759 157.087 89.3307C162.928 87.2358 167.42 81.6994 168.169 75.4149C163.227 79.4549 156.339 81.1009 150.049 79.7542Z" fill="#CEC1A3"/>
<path opacity="0.36" d="M46.1236 266.795C50.3166 262.605 52.2634 256.021 51.0654 250.186C50.3166 246.894 48.6694 243.901 48.0704 240.609C47.3216 237.317 47.7709 231.332 50.1669 229.088C44.4764 231.332 38.3366 234.175 36.0904 239.861C34.5929 243.752 35.3416 248.091 36.2401 252.131C37.1386 256.171 38.1869 260.361 37.2884 264.55C36.3899 268.591 32.4964 272.331 28.4531 271.583C34.2934 272.93 41.9306 271.134 46.1236 266.795Z" fill="#CEC1A3"/>
<path opacity="0.36" d="M339.933 260.061C337.088 259.164 333.943 258.864 331.248 260.061C328.552 261.259 326.606 264.55 327.804 267.244C329.601 265.448 331.697 263.952 334.093 263.503C336.489 263.054 339.334 263.952 340.532 266.047C341.73 267.992 341.281 270.536 340.083 272.331C338.735 274.127 336.639 275.324 334.393 275.773C327.953 277.269 320.765 273.08 318.669 266.795C317.77 264.102 317.77 261.109 316.722 258.416C314.925 254.076 310.433 251.383 305.79 250.036C300.399 248.39 294.709 248.39 289.318 246.445C287.97 245.996 286.772 245.248 285.724 244.2C282.28 240.46 284.676 236.868 285.724 233.128C286.922 228.788 285.874 224 283.028 220.409C280.183 216.967 275.541 215.022 271.048 215.321C273.145 215.621 275.241 217.117 275.691 219.212C275.84 219.81 275.84 220.409 275.691 221.157C273.444 218.015 269.551 215.92 265.657 215.92C267.904 210.832 272.396 206.643 277.787 205.146C283.178 203.65 289.168 204.697 293.81 207.84C296.656 209.785 298.902 212.628 301.448 214.723C304.143 216.967 307.438 218.763 310.882 218.164C313.727 217.715 315.973 215.92 318.22 214.274C320.466 212.628 323.161 210.982 326.007 211.281C328.852 211.581 331.398 214.573 330.2 217.117C331.697 214.424 331.547 210.982 329.9 208.438C328.253 205.894 325.108 204.398 322.113 204.548C317.77 204.847 313.727 208.438 309.534 207.241C305.491 205.894 304.293 200.208 306.689 196.617C309.085 193.176 313.727 191.679 317.92 191.979C327.354 192.577 323.91 155.768 305.94 160.406C300.549 161.753 293.511 164.297 289.018 161.154C293.81 158.91 297.105 153.972 297.404 148.735C295.458 153.224 289.917 155.618 285.275 154.122C282.13 153.074 279.584 150.53 276.29 149.633C273.295 148.884 270.15 149.932 267.305 151.279C263.711 153.074 260.266 155.618 257.571 158.611C257.571 157.563 257.421 156.366 257.421 155.319C257.271 151.877 257.271 148.136 259.068 145.293C261.315 141.852 265.657 140.355 267.904 136.914C271.198 131.826 267.604 123.896 261.464 123.148C264.31 120.903 268.503 121.951 271.348 124.195C274.193 126.29 276.439 129.283 279.434 131.228C284.376 134.22 291.414 133.622 295.607 129.582C299.201 126.29 300.699 121.202 303.993 117.611C304.892 116.713 305.79 115.965 306.839 115.367L300.998 109.381C297.854 110.878 294.709 112.224 291.265 112.973C285.574 114.319 278.686 113.422 275.541 107.885C273.594 104.593 274.193 100.254 277.338 98.0094C280.632 95.4656 285.125 96.8123 288.719 98.6079C289.767 99.2064 290.965 99.8049 292.163 100.254C264.01 73.9185 262.213 108.633 262.213 108.633C252.779 108.633 249.784 103.995 249.784 99.6553C249.784 95.316 257.571 74.6667 242.296 56.4115C227.022 38.0067 213.844 48.1817 213.844 48.1817C214.593 32.171 204.709 20.9486 204.709 20.9486C200.816 18.4048 199.318 16.7589 191.831 18.2552C184.193 19.6019 177.005 32.7695 177.005 32.7695C173.561 43.0942 173.112 54.9152 154.992 54.7655C172.962 70.477 187.188 36.5104 184.643 64.7909C198.719 64.1924 201.415 48.3313 188.985 34.7148C199.468 36.66 201.564 47.2839 202.313 54.3166C203.062 61.0501 205.458 67.4843 209.351 73.0207C211.598 76.163 214.443 79.006 218.037 80.0534C221.781 80.9512 226.273 79.3053 227.321 75.5645C224.177 76.0134 220.732 75.8637 217.887 74.3674C215.042 72.8711 212.945 69.7288 213.395 66.5865C213.844 63.7435 216.24 61.3494 219.085 60.4516C221.93 59.7034 224.925 60.3019 227.621 61.499C235.408 65.2398 239.451 75.2652 236.456 83.3454C235.108 86.9365 232.712 89.9292 231.664 93.5204C230.017 99.5057 232.413 105.79 235.857 110.878C239.9 116.713 245.591 121.352 249.484 127.337C250.682 129.283 251.581 131.377 251.581 133.622C251.731 139.607 246.489 141.403 242.596 144.246C239.152 146.79 236.756 150.68 235.707 154.87C231.365 152.925 226.872 151.428 222.529 149.333C216.839 146.49 211.598 142.001 209.95 135.866C209.052 132.425 209.651 128.235 212.496 126.29C214.742 124.644 218.486 125.691 219.684 127.936C218.336 123.447 213.994 120.005 209.202 119.856C200.666 119.706 193.328 129.283 185.092 126.888C177.305 124.794 175.508 113.87 168.32 110.13C164.127 107.885 158.886 108.783 154.243 109.98C149.601 111.177 144.809 112.673 140.167 111.476C135.525 110.279 130.134 104.743 131.931 100.403C128.636 102.798 129.385 108.184 132.23 111.027C135.075 113.87 139.119 115.067 142.862 116.564C146.606 118.06 150.5 120.005 152.147 123.746C154.393 129.133 150.2 135.567 144.659 137.363C139.119 139.158 132.979 137.512 127.887 134.969C122.646 132.425 117.854 128.834 112.463 126.739C103.029 122.848 91.9473 123.447 82.9623 128.385C73.9773 133.173 67.3883 142.151 65.2918 152.027C63.0455 163.1 66.0405 175.968 59.152 185.096C55.558 189.884 49.7177 192.577 43.8775 194.522C38.0372 196.318 32.0472 197.515 26.5065 200.059C20.9657 202.752 16.024 207.241 14.6762 213.077C13.3285 219.062 16.4732 225.796 22.4632 226.544C18.8692 224.299 17.9707 218.913 20.0672 215.172C22.1637 211.431 26.3567 209.336 30.6995 208.887C34.8925 208.438 39.2352 209.486 43.2785 210.683C47.3217 211.88 51.5147 213.226 55.7077 213.675C67.8375 214.872 80.117 206.643 83.8608 195.121C85.9573 188.687 85.508 181.654 87.0055 175.07C88.3533 169.534 91.1985 164.297 95.8408 161.005C100.483 157.713 107.072 157.114 111.714 160.107C116.506 163.249 118.303 170.282 114.859 174.921C111.714 179.11 105.575 179.858 101.382 183.001C95.5413 187.34 94.3433 196.468 98.8358 202.154C102.729 206.942 108.869 207.54 113.961 204.697C112.164 204.997 110.217 204.249 109.169 202.752C107.521 200.358 107.971 196.917 109.318 194.373C112.313 188.387 120.55 184.946 126.09 188.836C129.385 191.081 130.882 195.42 130.283 199.46C129.834 203.351 127.588 206.942 124.743 209.785C119.801 214.573 113.062 217.267 106.323 219.212C99.5845 221.157 92.696 222.504 86.4065 225.496C80.117 228.339 74.127 233.128 71.731 239.562C69.335 245.996 70.0838 253.178 76.2235 256.62C75.7743 250.934 78.32 245.098 82.9623 241.806C87.4548 238.365 93.894 237.617 99.1353 239.711C103.478 241.507 106.922 244.949 111.115 247.043C117.854 250.485 126.39 250.186 132.829 246.146C137.322 243.303 140.766 238.963 143.911 234.624C147.205 230.285 150.5 225.945 154.992 223.102C159.485 220.259 165.624 219.212 170.267 221.905C173.561 223.85 175.658 227.442 176.406 231.182C177.155 234.923 176.856 238.814 176.107 242.554C175.059 248.241 172.213 254.525 166.523 255.573C163.378 256.171 160.233 254.824 157.089 255.423C151.548 256.321 148.104 263.653 151.099 268.441C151.698 264.7 156.34 262.306 159.784 263.802C165.924 266.496 162.779 276.97 159.335 280.711C155.591 284.901 148.852 285.798 143.911 283.105C138.969 280.411 136.124 274.576 136.573 268.89C131.631 273.977 131.481 282.506 134.926 288.641C138.37 294.776 144.809 298.966 151.548 301.061C156.49 302.557 161.731 303.305 165.924 306.148C170.267 308.991 173.262 314.228 172.812 319.316C172.363 324.553 167.871 329.192 162.629 329.341C157.388 329.491 152.596 324.104 153.794 319.017C149.751 322.458 150.649 329.491 154.243 333.381C157.837 337.272 163.378 338.918 168.619 340.115C173.861 341.312 179.401 342.21 183.744 345.202C188.985 348.644 191.98 354.629 193.478 360.764C194.975 366.899 206.656 377.523 208.902 375.428C202.313 361.213 212.796 355.078 219.684 347.746C223.428 343.706 228.22 340.713 232.563 337.571C236.905 334.279 241.248 330.538 243.494 325.451C245.89 320.513 245.89 314.079 242.296 309.889L242.147 309.74C256.073 309.889 269.401 317.67 263.711 329.491C263.112 330.838 262.812 332.184 262.962 333.681C263.711 339.816 271.048 332.184 269.85 339.666C275.092 338.918 270.449 325.301 277.787 333.531C285.424 342.06 293.211 319.017 299.8 334.429C300.25 334.279 300.549 333.98 300.849 333.83L301.597 333.082C303.694 330.538 303.844 325.451 302.795 322.309C300.998 317.371 294.709 315.276 292.463 310.488C290.216 305.699 292.612 300.013 296.057 295.973C297.554 294.178 299.351 292.532 301.747 291.933C303.993 291.335 306.839 292.382 307.587 294.477C308.336 296.721 303.245 302.108 301.597 300.911C305.191 306.298 309.534 298.218 311.78 296.422C314.027 294.627 316.123 292.532 318.968 292.232C323.91 291.933 327.654 296.871 332.296 297.619C344.126 299.415 347.72 289.838 349.368 287.145C355.657 271.134 345.624 261.707 339.933 260.061ZM207.704 294.926C202.762 300.911 200.366 308.542 199.618 316.323C199.019 324.104 199.917 331.736 200.816 339.516C195.275 330.838 192.729 319.765 194.227 309.59C194.826 305.251 196.173 300.762 194.975 296.572C193.927 293.13 191.381 290.437 188.836 288.043C186.29 285.649 183.594 283.105 181.947 279.963C180.45 276.82 179.551 272.631 182.097 270.087C182.995 272.93 184.942 275.623 187.787 276.371C190.633 277.269 194.227 275.773 194.975 272.93C195.874 269.937 193.628 266.795 191.082 264.7C188.686 262.605 185.691 260.66 184.792 257.667C182.696 250.485 193.029 244.799 192.579 237.317C192.43 233.577 189.584 230.733 187.338 227.89C185.092 225.047 182.995 221.307 184.193 217.865C183.145 220.708 186.889 223.701 189.734 222.653C192.579 221.606 193.927 218.015 193.178 215.022C192.579 212.029 190.333 209.635 188.087 207.69C182.846 203.201 175.508 199.909 169.218 202.752C162.929 205.595 160.084 213.675 153.495 215.92C148.553 217.566 142.413 214.723 140.466 209.785C145.857 210.234 152.746 209.935 154.992 204.997C157.388 199.61 152.446 194.074 150.5 188.537C149.152 184.647 149.302 180.307 148.403 176.267C147.355 172.227 144.51 168.037 140.317 167.888C137.471 167.738 135.075 169.384 132.53 170.581C129.984 171.778 126.689 172.077 124.743 170.132C129.834 166.99 129.085 158.91 124.743 154.72C120.55 150.53 114.26 149.333 108.42 148.286C113.961 144.395 121.448 144.695 127.738 147.089C134.027 149.483 139.268 153.822 144.51 158.012C147.804 160.705 151.548 163.399 155.891 163.399C162.33 163.548 167.421 157.264 168.47 150.83C169.368 144.395 167.272 137.961 165.025 131.976C172.663 133.921 177.455 142.151 177.754 149.932C177.904 154.122 177.005 158.311 176.257 162.351C175.508 166.541 174.759 170.731 175.208 174.771C175.658 178.961 177.455 183.15 180.749 185.694C184.044 188.238 189.135 188.687 192.43 185.993C195.724 183.3 195.874 177.464 192.43 175.22C194.227 171.928 199.468 172.676 201.714 175.519C203.96 178.362 204.41 182.253 205.158 185.844C205.907 189.435 207.405 193.325 210.699 194.822C215.192 196.767 220.732 192.577 221.331 187.639C221.93 182.701 218.935 178.063 215.042 174.921C211.148 171.778 206.506 169.833 202.313 167.289C198.12 164.746 193.927 161.304 192.43 156.665C190.932 152.027 192.729 145.892 197.521 144.246C196.024 152.476 202.762 161.154 210.999 162.052C215.791 162.501 220.732 160.705 225.524 161.454C231.215 162.351 236.007 167.439 236.756 173.275C237.205 176.866 236.157 180.307 236.157 183.898C236.157 187.49 237.954 191.53 241.398 192.278C238.253 187.041 242.446 179.26 248.436 178.811C252.479 178.512 256.373 181.055 260.416 180.607C263.86 180.307 266.855 178.063 269.401 175.818C271.947 173.574 274.642 171.03 277.937 170.132C281.231 169.234 286.173 170.88 287.371 174.172C285.125 172.526 281.531 174.771 281.681 177.614C281.83 180.457 285.125 182.402 287.82 181.654C290.516 181.055 292.463 178.512 293.062 175.669C293.361 181.504 290.666 187.34 286.173 191.081C281.681 194.672 275.241 196.019 269.701 194.373C266.256 193.325 262.662 191.38 259.218 192.128C254.875 193.026 252.479 197.665 251.281 202.004C249.634 207.989 249.185 214.124 247.388 220.11C245.591 225.945 241.847 231.781 236.157 234.025C232.712 235.372 228.669 235.372 225.075 236.42C216.839 238.963 211.298 248.241 213.095 256.77C213.694 259.613 215.042 262.456 217.438 264.102C219.834 265.897 223.128 266.346 225.674 264.85C228.519 263.204 229.568 259.613 229.118 256.47C228.519 253.328 226.573 250.485 224.326 248.24C227.92 246.894 232.113 249.438 233.611 252.879C235.108 256.321 234.509 260.51 233.461 264.102C231.514 270.536 227.771 276.371 222.979 281.01C218.486 286.098 212.197 289.539 207.704 294.926ZM286.922 277.568C286.173 280.711 282.879 282.057 279.884 282.656C277.188 283.255 274.193 283.554 271.947 285.349C269.85 287.145 269.251 291.185 271.797 292.532C273.594 289.838 278.087 289.988 280.183 292.382C282.28 294.776 281.98 298.667 280.033 301.36C278.087 303.904 274.942 305.4 271.797 305.849C268.652 306.298 265.358 305.699 262.213 305.251C264.909 290.437 246.19 307.196 246.639 295.225C240.649 295.524 217.288 303.305 224.177 315.126C227.022 312.882 230.466 311.385 234.21 310.488C237.954 314.528 234.659 321.71 229.867 323.206C227.022 324.104 223.877 323.655 221.331 322.159C215.042 318.568 213.095 309.74 215.341 302.856C217.588 295.973 223.278 290.587 229.118 286.247C234.959 281.908 241.398 278.317 246.489 273.08C251.581 267.992 255.474 260.81 254.576 253.627C254.127 249.438 252.03 245.697 250.682 241.806C249.335 237.916 248.436 233.427 250.233 229.686C252.479 225.047 258.769 223.102 263.261 225.496C267.754 227.89 269.401 234.325 266.706 238.814C269.251 238.664 271.647 237.617 273.594 235.971C274.343 237.168 274.942 238.514 275.092 240.011C275.391 243.153 273.594 246.146 273.744 249.288C274.193 253.927 280.183 256.919 284.226 254.525C283.627 257.218 280.483 258.565 277.787 258.565C275.092 258.715 272.246 257.817 269.551 258.266C265.058 258.864 261.315 262.605 260.566 266.945C259.967 270.685 261.464 274.426 261.165 278.167C260.566 284.601 253.977 289.689 247.687 288.791C248.885 292.382 253.677 293.729 257.271 292.532C260.865 291.335 263.411 288.043 265.358 284.751C267.305 281.459 268.652 277.868 271.048 274.875C273.744 271.434 278.236 268.74 282.729 270.386C285.724 271.583 287.671 274.725 286.922 277.568Z" fill="#CEC1A3"/>
<path opacity="0.36" d="M253.828 389.194C259.818 395.928 269.851 397.873 278.687 396.526C287.672 395.18 295.908 390.99 303.994 387.249C309.086 384.855 314.926 382.311 320.467 383.508C328.853 385.304 333.795 395.18 333.046 403.709C332.297 412.387 327.505 420.019 322.863 427.351C333.345 427.052 342.181 417.924 344.876 407.599C346.374 402.212 346.523 396.526 346.823 390.84C346.973 385.304 347.422 379.618 349.219 374.231C351.016 368.844 354.76 363.907 359.851 361.662C365.092 359.418 371.831 360.315 375.275 364.804C378.72 369.293 377.222 376.925 372.131 379.019C373.478 383.808 380.517 384.406 384.41 381.414C388.304 378.421 389.951 373.483 392.047 368.994C394.144 364.505 397.289 359.866 402.081 358.969C408.52 357.921 414.36 364.954 413.611 371.687C412.863 378.271 407.472 383.658 401.482 386.501C395.492 389.494 388.903 390.541 382.463 392.636C376.174 394.731 369.735 397.873 366.29 403.559C362.696 409.245 363.445 417.774 369.136 421.216C369.735 409.993 381.116 400.567 392.197 402.063C398.786 402.811 404.626 406.851 411.066 407.15C418.853 407.749 426.64 402.512 429.335 395.03C430.982 390.392 430.683 385.603 431.731 380.815C432.929 376.176 436.373 371.538 441.165 371.388C435.475 377.224 438.62 388.746 446.257 391.14C451.498 392.786 457.488 390.691 462.58 392.337C467.072 393.683 470.217 397.574 472.912 401.315C475.608 405.056 478.453 409.096 482.347 411.34C486.39 413.585 493.278 412.836 495.824 408.946C492.53 410.442 488.337 406.253 489.385 402.661C490.433 399.07 495.225 397.424 498.669 399.07C501.964 400.716 503.761 404.756 503.611 408.347C505.857 400.716 504.06 392.187 499.268 386.052C494.476 379.917 486.54 376.326 478.753 376.625C473.811 376.925 468.719 378.571 464.227 376.476C458.836 373.932 457.039 367.049 456.889 361.213C456.59 352.834 457.937 344.604 457.189 336.374C456.59 327.995 453.595 319.466 446.706 314.677C442.363 311.834 437.272 310.637 432.929 308.094C422.896 302.258 418.703 288.342 423.495 277.868C425.142 274.277 427.838 270.985 431.432 269.488C435.026 267.992 439.518 268.291 442.363 270.985C445.358 273.977 445.957 278.915 444.31 282.955C442.663 286.846 439.219 289.988 435.625 292.233C439.818 295.225 446.107 293.13 449.102 288.941C452.097 284.751 452.696 279.364 452.247 274.127C451.498 265.149 448.653 256.321 443.561 248.839C438.47 240.909 431.282 234.474 426.939 226.095C422.147 216.818 421.398 205.894 422.896 195.57C424.244 185.395 427.838 175.519 431.432 165.643C421.548 175.369 414.66 189.136 413.761 202.752C413.462 208.588 413.761 214.872 410.766 220.11C408.37 224.299 404.327 226.993 400.134 229.387C395.941 231.781 391.598 234.175 388.603 237.916C385.608 241.657 383.362 246.894 385.758 250.934C387.705 247.492 391.149 244.649 395.042 244.35C399.086 244.051 403.129 247.043 403.428 251.084C403.728 255.423 399.685 258.715 395.941 260.66C392.047 262.605 387.705 264.251 385.608 267.992C380.666 276.82 392.497 287.295 389.651 296.871C388.304 301.51 383.811 304.652 379.918 307.645C376.024 310.637 372.131 314.977 372.879 319.915C372.43 316.024 378.121 313.181 381.565 315.426C385.009 317.67 385.608 322.758 383.811 326.498C382.164 330.239 378.57 332.633 374.826 334.579C366.59 338.918 355.958 341.013 348.62 335.327C341.282 329.641 339.934 318.269 332.147 313.331C326.157 309.59 317.172 311.535 313.279 317.52C320.467 318.418 329.302 320.962 330.8 327.995C332.447 335.776 324.061 341.462 319.868 348.045C317.023 352.684 315.974 358.52 313.429 363.458C311.033 368.396 305.941 373.034 300.4 372.136C296.657 371.538 294.111 368.545 290.966 366.301C287.971 364.056 283.628 362.41 280.633 364.505C286.324 370.041 282.88 380.516 275.991 384.705C269.851 389.943 261.465 389.643 253.828 389.194ZM397.438 340.115C401.332 334.878 406.274 329.94 407.472 323.506C408.67 317.969 406.723 312.433 405.974 306.897C405.375 301.36 406.274 294.926 411.066 291.933C408.071 297.17 409.868 304.053 413.611 308.842C417.355 313.63 422.746 316.772 427.838 319.915C432.929 323.206 438.17 326.798 441.016 332.035C444.011 337.422 443.861 344.754 439.368 348.794C438.62 345.951 437.871 342.958 435.924 340.713C433.977 338.469 430.533 336.973 427.987 338.319C423.794 340.265 424.393 346.4 425.591 350.739C426.789 355.078 427.688 360.914 423.645 363.308C425.142 355.228 419.002 346.4 410.916 345.202C402.829 343.856 394.294 350.29 393.096 358.37C390.4 352.385 393.545 345.352 397.438 340.115ZM343.978 339.217C346.523 343.856 351.465 347.148 356.706 347.896C361.948 348.644 367.638 346.699 371.232 342.958C371.082 348.195 367.938 353.133 363.146 355.228C358.503 357.472 352.513 356.575 348.47 353.283C344.427 349.841 342.63 344.155 343.978 339.217Z" fill="#CEC1A3"/>
<path opacity="0.36" d="M263.112 352.684C263.861 355.976 260.866 359.418 257.571 360.315C254.127 361.363 250.533 360.615 247.238 360.016C243.944 359.418 240.2 358.969 237.055 360.315C232.263 362.261 230.167 367.647 228.52 372.436C230.317 370.191 235.408 369.742 238.104 370.191C240.799 370.79 243.495 371.987 246.19 372.436C251.132 373.333 256.523 371.388 259.817 367.797C263.112 364.056 264.31 357.622 263.112 352.684Z" fill="#CEC1A3"/>
<path opacity="0.36" d="M276.588 62.9953C278.534 57.6085 277.636 51.1743 274.341 46.5357C272.395 43.992 269.699 42.0467 267.902 39.3534C265.955 36.8096 264.009 31.4228 265.207 28.4302C261.163 32.6199 256.821 37.5578 257.12 43.3934C257.42 47.4335 259.816 50.8751 262.212 54.0173C264.608 57.1596 267.153 60.4516 268.052 64.4916C268.95 68.3821 267.004 73.1703 263.11 74.2178C268.651 73.0207 274.641 68.5317 276.588 62.9953Z" fill="#CEC1A3"/>
</g>
<defs>
<clipPath id="clip0_1352_10727">
<rect width="689" height="448" fill="white"/>
</clipPath>
</defs>
</svg>
