<svg width="30" height="30" viewBox="0 0 30 30" fill="none" xmlns="http://www.w3.org/2000/svg">
<path d="M26.723 14.5215H26.3703C26.3703 17.5175 25.1581 20.2272 23.1966 22.1878C21.2351 24.1484 18.5242 25.3601 15.5488 25.3601C12.5514 25.3601 9.84053 24.1484 7.87899 22.1878C5.91746 20.2272 4.70527 17.5175 4.70527 14.5435C4.70527 11.5475 5.91746 8.83785 7.87899 6.87721C9.84053 4.91658 12.5514 3.70495 15.5268 3.70495C18.5242 3.70495 21.2351 4.91658 23.1966 6.87721C25.1581 8.83785 26.3703 11.5475 26.3703 14.5215H26.723H27.0756C27.0756 8.15493 21.8963 3 15.5268 3C9.1573 3 4 8.17696 4 14.5435C4 20.9101 9.17933 26.065 15.5488 26.065C21.9183 26.065 27.0756 20.8881 27.0756 14.5215H26.723Z" fill="#1C1C1C"/>
<path d="M14.8672 7.7138V14.8734H19.738C19.9363 14.8734 20.0906 14.7192 20.0906 14.521C20.0906 14.3227 19.9363 14.1685 19.738 14.1685H15.5725V7.7138C15.5725 7.51553 15.4182 7.36133 15.2198 7.36133C15.0215 7.36133 14.8672 7.51553 14.8672 7.7138Z" fill="#1C1C1C"/>
</svg>
