<svg width="2032" height="579" viewBox="0 0 2032 579" fill="none" xmlns="http://www.w3.org/2000/svg">
<path d="M497.082 469.483C492.643 461.319 481.104 458.124 473.115 462.561C479.506 468.241 488.56 470.903 497.082 469.483Z" fill="#CEC1A3"/>
<path d="M499.922 358.37C495.484 351.802 487.85 347.72 480.039 347.72C484.477 354.11 492.111 358.192 499.922 358.37Z" fill="#CEC1A3"/>
<path d="M490.691 442.681C482.88 443.924 475.956 449.249 472.583 456.349C480.394 454.929 487.318 449.604 490.691 442.681Z" fill="#CEC1A3"/>
<path d="M456.25 547.583H490.691C490.158 547.228 489.626 546.873 489.093 546.518C476.133 539.418 465.837 542.436 456.25 547.583Z" fill="#CEC1A3"/>
<path d="M299.669 297.488C292.923 289.855 293.811 276.72 301.622 270.153C293.633 271.04 288.307 279.028 285.467 286.483C282.626 293.938 280.674 302.458 274.815 307.96C269.844 312.752 262.743 314.527 256.53 317.367C250.316 320.385 244.103 325.71 244.28 332.632C247.831 326.065 256.175 323.225 263.631 324.112C271.087 324.822 277.833 328.372 284.579 331.567C291.325 334.762 298.604 337.78 306.06 337.247C313.516 336.715 321.15 331.745 322.393 324.467C318.842 325.71 315.292 326.775 311.564 326.42C307.836 325.887 304.285 323.402 303.93 319.675C303.22 313.995 309.788 310.622 315.292 309.025C320.618 307.428 327.364 304.41 327.009 298.73C319.552 305.653 306.415 305.12 299.669 297.488Z" fill="#CEC1A3"/>
<path d="M302.864 387.479C300.379 395.467 304.285 404.874 311.741 408.601C308.545 396.709 312.806 383.219 322.215 375.409C314.049 374.167 305.35 379.492 302.864 387.479Z" fill="#CEC1A3"/>
<path d="M270.909 257.551C276.235 254.001 279.253 247.256 278.365 240.866C277.478 234.476 272.684 228.796 266.648 226.843C260.612 224.891 253.334 226.666 248.896 231.458C255.464 231.103 262.21 233.943 266.471 238.913C270.732 244.061 272.329 251.161 270.909 257.551Z" fill="#CEC1A3"/>
<path d="M484.832 525.573C426.602 493.268 455.185 426.706 498.857 426.706C500.277 395.999 486.785 363.34 460.155 347.897C452.167 343.282 440.982 338.135 439.384 329.082C447.551 331.922 457.315 329.97 463.706 324.112C456.25 327.13 446.841 323.58 443.113 316.48C440.627 311.51 440.627 305.475 437.609 300.86C434.946 296.423 429.975 293.938 425.182 292.34C418.791 290.21 412.045 289.323 405.121 289.678C406.364 288.258 407.607 286.838 408.849 285.595C412.578 281.335 417.016 276.898 422.519 275.655C429.088 274.235 436.189 277.43 442.757 276.01C452.522 273.88 457.492 260.213 451.279 252.225C457.137 252.758 460.866 258.97 461.753 264.828C462.641 270.685 461.753 276.72 463.173 282.4C465.481 291.808 474.535 299.085 484.122 299.263C492.288 299.44 499.922 295.18 507.911 295.003C510.041 295.003 511.994 295.18 513.947 295.713C525.309 298.375 534.54 309.38 534.008 321.272C541.286 317.545 543.062 307.072 539.511 299.795C535.783 292.518 528.327 287.725 520.87 284.53C518.562 283.643 516.255 282.755 513.947 281.868C508.621 279.915 503.117 277.963 498.324 274.945C489.98 269.798 482.879 260.745 485.72 250.628C487.317 244.593 492.998 240.156 499.389 240.866C506.313 241.753 510.041 248.498 512.171 254.71C512.882 256.663 513.414 258.615 514.124 260.568V260.745C515.545 264.65 517.142 268.2 520.16 271.04C524.599 275.123 533.475 275.123 535.605 269.443C529.392 266.248 528.504 256.663 533.297 251.693C538.091 246.546 546.435 246.191 552.471 249.563C558.507 252.935 562.412 259.325 564.188 266.07C565.963 272.815 565.785 279.915 565.43 286.838C565.075 293.76 564.72 300.86 565.963 307.605C568.271 320.385 574.662 346.477 587.621 347.897C570.934 319.32 576.615 273.703 605.374 286.66C601.291 268.555 620.997 260.213 644.786 276.01C637.862 263.408 647.271 256.84 641.945 250.805C636.975 245.126 628.808 243.883 621.352 244.061C596.853 244.593 602.356 201.283 613.363 200.751C609.28 192.941 598.451 189.569 590.639 193.651C580.343 198.798 577.502 212.821 567.916 218.856C558.329 225.068 545.369 221.341 535.783 215.128C531.522 212.288 527.439 208.916 525.841 204.123C524.066 199.331 525.486 193.296 529.924 190.811C534.363 188.504 541.109 192.408 540.044 197.378C541.464 191.521 537.203 185.664 532.765 181.581C528.327 177.321 523.178 173.239 521.936 167.204C519.273 153.181 540.576 139.869 526.196 126.734C524.598 125.314 522.823 124.249 520.87 123.184C518.74 122.119 516.432 120.522 514.302 118.569C511.284 115.729 509.331 112.002 510.574 107.919C511.106 106.144 512.527 104.547 514.302 103.304C515.367 102.594 516.61 102.062 517.675 101.884C524.066 100.997 529.392 105.612 531.877 110.937C535.25 106.144 533.12 99.3993 529.747 94.6068C526.374 89.8144 521.403 86.4419 516.61 82.8919C515.722 82.3594 514.834 81.6494 514.124 80.9395C510.219 77.922 506.668 74.5495 504.715 70.1121C503.65 67.8046 503.117 66.3846 502.94 65.1421C501.342 57.6872 501.342 54.6697 490.868 46.8598C480.394 39.0498 456.427 46.8598 456.427 46.8598C440.272 55.2022 426.247 68.5146 404.944 47.3923C407.962 86.7969 464.061 63.1896 428.378 93.7193C445.776 109.339 467.257 93.7193 468.499 63.1896C478.618 77.7445 468.854 92.8319 461.576 101.884C454.652 110.582 450.036 121.054 448.083 132.059C447.018 138.271 447.018 145.016 450.214 150.519C453.409 156.021 460.866 159.216 466.369 156.021C462.108 152.826 458.38 148.744 456.782 143.596C455.185 138.449 456.25 132.414 460.51 129.042C464.416 126.024 469.919 126.202 474.18 128.509C478.441 130.817 481.459 135.076 483.057 139.691C487.85 153.181 481.104 169.689 468.144 175.724C462.463 178.386 456.072 179.096 450.569 182.291C441.692 187.439 437.077 197.733 435.301 207.851C433.348 219.566 434.591 231.636 432.106 243.173C431.396 246.901 429.798 250.273 427.312 252.935C420.389 260.213 412.222 256.13 404.411 255.065C397.31 254.178 390.031 255.775 383.995 259.503C380.977 252.225 377.427 245.126 374.941 237.671C371.568 227.731 370.503 216.193 375.651 207.141C378.492 201.993 384.173 197.911 389.854 198.798C394.47 199.686 397.665 205.011 396.422 209.093C399.973 202.171 398.908 192.941 393.404 187.439C383.463 177.321 363.757 180.161 356.833 167.914C350.087 156.376 360.739 141.289 356.478 128.509C353.993 121.054 346.892 116.084 339.968 112.179C333.044 108.274 325.766 104.369 321.505 97.6243C317.244 90.8794 317.422 78.0995 324.701 74.9045C318.132 74.017 312.806 81.2945 312.629 87.8619C312.629 94.6068 316.002 100.642 318.842 106.677C321.683 112.712 323.813 119.812 321.327 126.024C317.777 134.899 305.35 137.739 296.651 133.479C287.952 129.219 282.626 120.167 279.431 111.114C276.235 102.062 274.637 92.2994 270.909 83.4244C264.163 67.9821 250.493 55.7347 234.161 51.1197C218.005 46.3273 199.72 49.1672 185.873 58.7521C170.25 69.2246 158.888 87.8619 140.07 90.7019C130.128 92.2994 120.009 88.7494 111.133 84.1344C102.079 79.5195 93.735 73.8395 84.1484 70.6445C74.5618 67.4496 63.3775 66.9171 55.0336 72.4195C46.6897 77.922 42.2515 89.4594 48.6425 97.2693C46.8672 90.3469 52.1931 83.0694 58.9392 81.117C65.6853 79.1645 73.1416 81.6495 78.8225 86.0869C84.3259 90.5244 88.2315 96.5593 91.6046 102.772C94.9777 108.984 98.1732 115.374 102.789 120.699C115.749 136.141 139.893 140.756 157.646 131.527C167.587 126.379 175.221 117.504 184.807 111.647C192.796 106.677 202.205 103.659 211.437 105.257C220.668 106.854 229.367 113.599 231.32 122.652C233.273 131.704 227.237 142.531 218.005 143.774C209.307 145.016 201.495 138.804 192.796 137.561C181.079 135.964 168.83 145.371 167.587 157.264C166.522 167.381 173.091 175.369 182.5 178.031C183.92 179.096 185.695 179.451 187.47 178.919C185.695 178.741 184.097 178.564 182.5 178.031C180.014 176.434 178.416 173.061 178.949 170.044C179.837 165.251 184.275 161.879 188.891 160.281C199.365 156.731 213.212 162.234 215.165 173.061C216.408 179.629 213.035 186.374 207.886 190.456C202.738 194.538 195.814 196.136 189.246 196.136C177.706 196.136 166.699 191.344 156.58 186.019C146.461 180.516 136.697 174.126 125.868 170.221C115.038 166.316 102.611 165.074 92.1372 169.866C81.663 174.659 74.3843 184.066 77.5798 195.248C83.6158 187.971 93.3799 184.066 102.789 185.486C112.198 186.729 120.542 193.118 124.448 201.816C127.643 208.916 127.643 217.081 130.128 224.358C134.034 236.251 144.508 245.836 156.758 248.498C165.457 250.45 174.511 249.031 183.21 247.788C192.086 246.546 200.963 245.126 209.662 247.078C218.361 249.03 226.704 254.888 229.012 263.408C230.61 269.62 228.835 276.188 225.462 281.513C222.089 286.838 217.118 291.098 211.792 294.648C203.981 299.973 193.329 304.41 185.34 299.085C180.902 296.068 178.594 290.92 174.333 287.725C166.699 282.223 154.272 287.015 152.142 296.245C157.29 292.518 165.457 295.003 167.765 300.86C171.848 311.155 155.87 319.852 147.704 320.385C138.472 320.917 129.418 314.172 126.578 305.298C123.915 296.423 127.288 286.128 134.389 279.915C122.672 280.27 112.553 290.033 109.358 301.393C106.162 312.752 109.002 325 114.506 335.472C118.412 342.927 123.915 349.85 125.69 358.192C127.643 366.712 125.158 376.297 118.412 381.799C111.843 387.302 101.014 387.834 94.6226 381.799C88.4091 375.764 88.7641 363.872 96.2204 359.257C87.3439 358.725 80.2427 367.954 80.0652 376.829C79.7101 385.704 84.3259 394.047 89.2967 401.324C94.09 408.779 99.5934 416.234 101.369 424.931C103.499 435.049 100.126 445.699 94.8001 454.574C89.4743 463.449 90.8945 489.718 96.0428 489.718C104.742 465.401 124.27 470.016 141.135 469.484C150.189 469.129 159.243 471.081 168.297 472.324C177.351 473.566 186.76 474.099 195.282 470.904C203.803 467.709 211.259 460.254 211.792 451.024C211.792 450.846 211.792 450.669 211.792 450.491C228.125 466.999 234.871 491.493 214.277 498.948C211.969 499.836 210.017 501.078 208.596 502.853C202.383 510.841 219.958 510.486 209.839 518.118C216.94 523.443 227.059 501.966 226.349 519.893C225.462 538.708 261.5 520.603 251.203 546.695C251.914 547.05 252.624 547.05 253.334 547.228H254.932C260.435 546.695 266.471 540.66 268.779 535.868C272.507 527.881 267.536 518.118 270.377 509.776C273.217 501.433 282.804 497.528 291.503 496.641C295.408 496.286 299.491 496.463 302.864 498.416C306.238 500.368 308.368 504.806 306.77 508.356C305.172 511.906 292.745 512.438 292.213 508.888C290.26 519.538 304.817 514.923 309.433 515.278C314.049 515.633 319.197 515.811 322.748 518.828C328.961 524.153 327.719 534.448 332.334 540.66C323.103 541.548 316.179 543.855 311.386 547.228H365C364.112 546.695 363.224 545.985 362.159 545.453C385.06 539.418 388.789 512.971 383.995 504.451C381.687 500.191 378.492 496.108 373.876 494.333C369.26 492.558 363.224 494.333 361.449 498.771C365.532 498.771 369.793 499.303 373.166 501.611C376.539 503.918 378.847 508.178 377.959 512.083C377.072 515.633 373.699 518.296 369.97 519.006C366.242 519.716 362.514 518.473 359.319 516.521C349.91 510.663 346.182 497.528 351.152 487.588C353.283 483.328 356.833 479.778 358.609 475.341C361.627 468.064 359.319 459.544 355.591 452.799C351.152 444.634 344.406 437.889 340.323 429.546C339.258 427.416 338.725 425.109 338.725 422.801C338.903 414.282 346.182 412.862 351.507 409.667C357.899 405.939 362.337 398.839 362.869 391.562C363.579 384.107 360.384 376.474 354.703 371.682C356.833 374.522 357.366 378.604 355.591 381.799C355.058 382.687 354.348 383.397 353.283 383.929C354.17 377.539 352.04 370.617 347.602 366.179C356.123 362.63 366.42 363.162 374.586 367.599C382.753 372.037 388.611 380.379 390.386 389.432C391.452 395.112 390.919 400.792 391.452 406.649C391.984 412.329 393.937 418.364 398.553 421.737C402.281 424.399 407.252 424.931 411.867 425.641C416.483 426.351 421.454 427.416 424.472 431.144C427.49 434.694 427.135 441.439 422.697 443.036C427.49 441.616 431.396 437.356 432.461 432.564C433.526 427.594 431.573 422.269 427.845 419.074C422.342 414.459 413.288 413.927 409.915 407.714C406.542 401.502 412.045 393.337 418.791 391.917C425.715 390.497 432.816 394.402 437.432 399.549C447.906 411.264 448.616 429.191 444 444.101C439.207 459.011 424.294 463.981 423.584 485.636C422.519 520.248 382.753 512.793 395.357 544.21C432.283 508.356 450.746 547.583 484.832 525.573ZM333.577 399.549C333.044 402.034 332.334 404.164 330.737 406.117C327.541 410.199 321.683 411.619 318.487 415.524C313.516 421.559 317.244 432.031 324.701 433.806C320.972 436.291 315.647 434.339 312.273 431.144C308.9 428.126 306.593 424.044 303.042 421.204C297.183 416.767 288.307 416.589 282.271 421.027C277.3 424.754 274.637 430.966 270.022 435.049C262.033 441.971 248.008 440.374 241.794 431.854C239.131 437.534 243.037 444.634 248.718 447.474C254.399 450.136 261.145 449.426 267.181 447.651C273.217 445.876 279.076 443.391 285.467 442.681C292.745 441.794 301.089 443.746 304.462 450.846C306.593 455.284 305.35 461.141 301.089 463.626C296.473 466.289 291.148 464.159 286.887 461.496C282.981 459.011 279.076 455.816 274.282 455.639C269.666 455.284 264.341 459.544 265.761 463.981C270.909 462.916 276.058 468.241 275.702 473.566C275.347 478.891 270.554 483.151 265.228 484.038C259.902 484.926 254.576 482.796 250.316 479.601C246.055 476.406 242.86 471.969 239.664 467.709C260.08 453.331 218.538 451.379 232.918 437.711C225.462 431.144 188.891 413.217 183.21 435.226C189.068 435.936 194.927 438.066 200.43 441.439C200.075 450.491 187.825 455.106 180.369 451.556C175.931 449.426 172.735 445.166 171.493 440.374C168.12 428.836 176.109 416.234 186.938 410.732C197.767 405.229 210.372 405.407 222.444 407.182C234.338 408.957 246.233 411.974 258.305 411.974C270.377 411.974 283.159 408.069 290.615 398.484C294.876 392.982 296.828 386.237 299.669 380.024C302.509 373.812 306.77 367.599 313.339 365.292C321.327 362.452 331.092 367.422 333.577 375.587C336.062 383.752 330.559 393.337 322.393 395.289C325.233 397.774 329.316 399.372 333.577 399.549ZM401.571 361.565C391.984 360.5 382.93 354.642 378.137 346.3C375.119 340.975 373.344 334.585 368.373 331.39C362.159 327.485 353.993 330.147 347.602 333.875C338.725 339.022 330.914 345.767 321.86 350.737C312.806 355.53 301.799 358.192 292.39 354.287C286.709 351.802 282.094 347.187 276.59 344.347C263.808 337.78 246.588 342.395 238.954 354.465C236.291 358.547 234.693 363.517 235.581 368.309C236.291 373.102 239.664 377.717 244.457 378.782C249.606 380.024 255.109 377.184 258.305 372.924C261.323 368.487 262.21 362.985 262.21 357.66C268.069 360.145 270.022 367.954 267.714 373.812C265.406 379.669 260.08 383.752 254.399 386.769C244.635 392.094 233.45 394.757 222.266 394.579C210.727 394.402 199.187 391.207 187.648 392.272C174.866 393.514 162.971 399.904 153.207 408.247C143.443 416.589 135.454 426.884 127.643 437.001C131.194 420.317 141.135 404.164 154.627 393.869C160.486 389.432 167.232 385.704 170.605 379.314C173.446 374.167 173.446 367.954 173.268 362.097C173.091 356.24 172.735 350.205 174.511 344.525C176.286 339.022 180.369 333.165 186.228 332.987C183.92 337.247 183.21 342.75 185.518 347.01C187.825 351.27 193.684 353.755 197.945 351.447C202.56 348.962 203.448 342.572 202.915 337.247C202.383 331.922 201.318 326.242 203.803 321.627C209.662 310.8 228.48 315.947 236.646 306.718C240.729 302.103 240.907 295.535 241.439 289.323C241.972 283.288 243.925 276.365 249.428 273.88C244.812 276.01 245.878 283.82 250.493 285.95C255.109 288.08 260.79 285.418 263.453 280.98C266.116 276.72 266.471 271.395 266.116 266.248C265.228 254.888 260.257 242.286 249.606 238.558C238.776 234.653 225.994 240.866 215.698 236.073C207.709 232.346 203.981 221.696 207.531 213.708C213.39 220.631 221.734 228.086 230.255 224.891C239.309 221.341 239.842 209.093 243.925 200.218C246.943 194.006 252.269 189.214 255.819 183.179C259.37 177.321 260.79 168.979 256.174 163.831C252.979 160.459 248.185 159.571 243.925 157.974C239.664 156.376 235.048 153.004 235.226 148.389C244.812 150.519 253.511 140.046 253.334 130.107C253.156 120.344 247.298 111.647 241.617 103.482C252.624 105.257 261.323 114.309 265.761 124.427C270.377 134.544 271.442 145.904 272.862 156.909C273.75 164.009 274.992 171.464 279.963 176.611C287.419 184.244 300.912 182.824 309.433 176.256C317.954 169.689 322.748 159.571 327.363 149.986C334.11 161.169 330.204 176.434 321.505 186.019C316.889 191.166 311.031 195.071 305.35 198.976C299.669 202.881 293.988 207.141 289.727 212.643C285.467 218.146 282.626 225.068 283.691 231.991C284.756 238.913 290.26 245.303 297.183 245.836C304.107 246.546 311.208 239.978 309.788 233.056C315.647 231.281 320.972 238.203 320.44 244.238C319.907 250.273 315.824 255.42 312.451 260.39C309.078 265.538 306.237 271.928 308.545 277.608C311.741 285.24 323.103 286.483 329.494 281.335C335.885 276.188 337.838 267.135 336.95 258.97C336.062 250.805 332.867 243.173 330.737 235.186C328.606 227.198 327.719 218.501 331.447 211.046C334.997 203.591 344.406 198.621 351.863 202.348C340.501 210.336 338.193 228.441 347.247 239.091C352.395 245.303 360.384 248.853 365.177 255.243C370.858 263.053 370.681 274.59 364.645 282.223C360.916 286.838 355.591 289.855 351.507 294.115C347.424 298.375 344.761 305.12 347.957 310.09C350.442 300.328 364.29 295.89 371.923 302.458C377.072 306.895 378.847 314.35 383.995 318.61C388.434 322.337 394.47 323.047 400.15 323.402C405.831 323.757 411.867 323.935 416.838 326.597C421.809 329.26 425.715 337.07 423.407 342.395C422.697 337.78 415.596 336.36 412.578 339.91C409.56 343.46 411.157 349.495 415.063 351.98C418.969 354.465 424.294 353.577 428.2 350.915C421.099 358.725 411.157 362.63 401.571 361.565Z" fill="#CEC1A3"/>
<path d="M406.009 468.063C404.233 453.508 390.209 443.214 385.415 429.369C383.463 438.066 388.966 446.409 391.984 454.751C396.777 467.708 395.179 482.796 388.078 494.511C399.263 491.493 407.251 479.601 406.009 468.063Z" fill="#CEC1A3"/>
<path d="M443.113 294.293C449.504 299.972 458.558 302.635 467.08 301.215C462.819 293.05 451.28 289.855 443.113 294.293Z" fill="#CEC1A3"/>
<path d="M31.0674 110.937C34.4404 106.144 32.3101 99.3993 28.937 94.6068C25.564 89.8144 20.5932 86.4419 15.7999 82.8919C14.9122 82.1819 14.0246 81.6494 13.3145 80.9395V103.127C14.3796 102.417 15.6223 101.884 16.865 101.707C23.2561 100.819 28.582 105.434 31.0674 110.937Z" fill="#CEC1A3"/>
<path d="M94.8 59.8172C104.032 63.7221 112.02 70.1121 121.252 73.8395C130.483 77.7445 142.2 78.632 149.657 72.0646C142.555 75.9695 133.679 74.727 126.4 71.1771C119.121 67.6271 113.086 62.1247 106.517 57.5097C99.9483 52.8947 92.4921 48.8123 84.3258 48.6348C76.3369 48.6348 67.638 53.6047 66.2178 61.5922C73.8515 55.0247 85.5685 55.9122 94.8 59.8172Z" fill="#CEC1A3"/>
<path d="M184.808 272.815C194.572 275.655 204.336 269.443 208.597 260.035C205.047 265.005 198.3 266.248 192.264 265.893C186.228 265.538 180.192 263.94 174.156 265.005C170.606 265.715 166.878 267.845 166.7 271.395C169.008 269.088 172.914 268.733 175.932 269.62C178.95 270.33 181.79 271.928 184.808 272.815Z" fill="#CEC1A3"/>
<path d="M291.68 75.082C289.372 87.8619 292.39 101.707 300.024 112.179C304.817 99.5768 301.267 84.312 291.68 75.082Z" fill="#CEC1A3"/>
<path d="M130.129 509.066C130.129 509.066 64.2654 512.616 83.261 465.579C102.257 418.719 44.7371 446.231 68.8811 419.429C93.9127 391.917 42.2517 409.312 60.0047 353.045C62.8451 343.992 68.8811 337.425 59.4721 325.355C35.8607 360.499 16.6875 318.787 15.9774 313.817C15.0897 314.705 14.0246 315.77 13.3145 316.835V356.95C15.4448 358.902 17.9302 361.032 20.9482 362.807C30.1797 368.664 21.8359 374.522 13.3145 372.747V413.572C19.528 421.204 28.582 425.286 38.7011 421.736C43.8495 463.804 15.9774 466.111 15.9774 466.111C15.9774 466.111 17.3976 500.368 53.081 496.286C88.2318 515.811 28.2269 520.426 32.3101 547.405C66.3957 536.4 104.387 503.563 176.641 547.405C164.569 511.728 130.129 509.066 130.129 509.066Z" fill="#CEC1A3"/>
<path d="M447.906 173.416C447.018 163.653 440.982 154.424 432.283 149.809C432.283 159.749 438.674 169.688 447.906 173.416Z" fill="#CEC1A3"/>
<path d="M92.4926 337.602C95.5106 344.702 102.257 349.672 109.535 351.802C100.659 342.572 96.0432 329.437 96.9309 316.657C91.0724 321.45 89.4746 330.68 92.4926 337.602Z" fill="#CEC1A3"/>
<path d="M339.259 75.0819C341.566 89.9918 327.009 88.9268 327.009 88.9268C327.009 88.9268 374.409 98.8667 371.569 132.414C368.728 165.961 378.67 164.541 402.637 171.996C402.637 171.996 396.423 192.231 422.875 187.793C402.281 157.974 449.504 121.409 427.491 121.764C405.477 122.119 417.549 102.062 418.969 82.3594C413.643 92.6543 393.583 102.062 395.003 85.7319C401.039 77.2119 400.684 62.6571 387.902 53.7821C392.517 60.1721 382.221 70.6445 382.221 70.6445C382.221 70.6445 382.221 56.6221 364.823 47.0372C338.726 32.4823 311.209 47.0372 311.209 47.0372C302.51 53.0721 300.202 62.3021 301.8 72.597C308.013 64.2545 336.951 60.1721 339.259 75.0819Z" fill="#CEC1A3"/>
<path d="M195.46 480.488C179.482 498.948 154.095 468.418 141.846 492.913C171.316 490.783 167.765 503.386 174.511 516.875C180.725 529.3 201.14 533.915 203.448 514.923C176.464 505.516 207.532 502.143 195.46 480.488Z" fill="#CEC1A3"/>
<path d="M121.785 481.553C115.927 480.488 109.713 484.571 108.115 490.251C115.927 487.056 125.513 488.653 131.904 494.333C132.259 488.298 127.643 482.441 121.785 481.553Z" fill="#CEC1A3"/>
<path d="M85.9235 113.954C84.1482 108.096 79.1773 103.126 73.3189 101.352C69.9458 100.464 66.3952 100.287 63.1997 99.399C59.8267 98.5115 54.6783 95.1391 53.7907 91.7666C53.0805 97.979 52.548 104.901 56.6311 109.694C59.4716 112.889 63.7323 114.486 67.8155 115.551C71.8986 116.616 76.3369 117.859 79.5324 120.699C82.7279 123.539 84.3257 128.864 81.4852 132.236C85.5684 127.621 87.6988 119.811 85.9235 113.954Z" fill="#CEC1A3"/>
<path d="M34.7957 269.265C28.5822 266.07 27.6945 256.485 32.4878 251.515C37.2811 246.368 45.625 246.013 51.661 249.385C57.697 252.758 61.6026 259.148 63.3779 265.893C65.1532 272.638 64.9757 279.738 64.6206 286.66C64.2656 293.583 63.9105 300.683 65.1532 307.427C67.4611 320.207 73.8521 346.3 86.8118 347.72C70.124 319.142 75.805 273.525 104.565 286.483C100.482 268.378 120.187 260.035 143.976 275.833C137.053 263.23 146.462 256.663 141.136 250.628C136.165 244.948 127.999 243.706 120.542 243.883C96.0433 244.416 101.547 201.106 112.554 200.573C108.47 192.763 97.6411 189.391 89.8298 193.473C79.5331 198.621 76.6926 212.643 67.106 218.678C57.5194 224.891 44.5598 221.163 34.9732 214.951C30.7125 212.111 26.6294 208.738 25.0316 203.946C23.2563 199.153 24.6765 193.118 29.1148 190.633C33.553 188.326 40.2991 192.231 39.2339 197.201C40.6542 191.343 36.3935 185.486 31.9552 181.404C27.517 177.144 22.3687 173.061 21.1259 167.026C18.463 153.004 39.7665 139.691 25.3866 126.557C23.7889 125.137 22.0136 124.072 20.0608 123.007C17.9304 121.942 15.445 120.344 13.4922 118.392V260.745C14.9124 264.65 16.5102 268.2 19.5282 271.04C23.7889 274.945 32.6653 274.945 34.7957 269.265Z" fill="#CEC1A3"/>
<path d="M365.355 430.611C362.337 438.066 360.207 446.409 361.982 454.219C363.758 462.028 370.859 469.128 378.848 468.773C370.681 462.916 368.728 451.379 370.326 441.616C371.924 431.676 376.185 422.446 377.782 412.506C379.38 402.566 377.427 391.029 369.261 385.349C374.764 391.384 375.475 400.259 373.877 408.246C372.279 415.879 368.373 422.979 365.355 430.611Z" fill="#CEC1A3"/>
<path d="M13.3145 490.073V517.408C17.0426 522.378 18.1077 529.3 14.3796 533.915C20.9482 526.105 24.4988 513.326 21.4808 503.386C20.0606 498.416 17.2201 493.801 13.3145 490.073Z" fill="#CEC1A3"/>
<path d="M46.512 184.421C48.9974 187.971 49.7075 192.941 48.2873 197.023C53.4356 194.183 54.3232 186.551 52.0154 181.049C49.7075 175.546 45.4468 171.286 41.8962 166.316C38.5231 161.524 35.8602 155.134 37.9906 149.631C31.5995 156.731 31.5995 168.801 37.9906 175.901C40.6535 178.919 44.3816 181.226 46.512 184.421Z" fill="#CEC1A3"/>
<path d="M20.2381 284.53C17.9302 283.643 15.6223 282.755 13.3145 281.868V295.713C24.6763 298.375 33.9078 309.38 33.5528 321.272C40.8315 317.545 42.6068 307.072 39.0562 299.795C35.3281 292.518 27.8719 287.725 20.2381 284.53Z" fill="#CEC1A3"/>
<path d="M997.714 469.483C993.276 461.319 981.737 458.124 973.748 462.561C980.139 468.241 989.193 470.903 997.714 469.483Z" fill="#CEC1A3"/>
<path d="M1000.73 358.37C996.294 351.802 988.66 347.72 980.849 347.72C985.287 353.932 992.921 358.015 1000.73 358.37Z" fill="#CEC1A3"/>
<path d="M991.501 442.681C983.689 443.924 976.766 449.249 973.393 456.349C981.204 454.929 987.95 449.604 991.501 442.681Z" fill="#CEC1A3"/>
<path d="M956.883 547.405H991.324C990.791 547.05 990.258 546.695 989.726 546.34C976.766 539.24 966.469 542.435 956.883 547.405Z" fill="#CEC1A3"/>
<path d="M800.302 297.488C793.556 289.855 794.444 276.72 802.255 270.153C794.266 271.04 788.94 279.028 786.1 286.483C783.259 293.938 781.306 302.458 775.448 307.96C770.477 312.752 763.376 314.527 757.162 317.367C750.949 320.385 744.735 325.71 744.913 332.632C748.463 326.065 756.807 323.225 764.264 324.112C771.72 324.822 778.466 328.372 785.212 331.567C791.958 334.762 799.237 337.78 806.693 337.247C814.149 336.715 821.783 331.745 823.026 324.467C819.475 325.71 815.925 326.775 812.196 326.42C808.468 325.887 804.918 323.402 804.563 319.675C803.853 313.995 810.421 310.622 815.925 309.025C821.25 307.428 827.997 304.41 827.642 298.73C820.363 305.653 807.048 305.12 800.302 297.488Z" fill="#CEC1A3"/>
<path d="M803.675 387.479C801.19 395.467 805.095 404.874 812.551 408.601C809.356 396.709 813.617 383.219 823.026 375.409C814.859 374.167 806.16 379.492 803.675 387.479Z" fill="#CEC1A3"/>
<path d="M771.542 257.551C776.868 254.001 779.886 247.256 778.998 240.866C778.11 234.476 773.317 228.796 767.281 226.843C761.245 224.891 753.967 226.666 749.528 231.458C756.097 231.103 762.843 233.943 767.104 238.913C771.364 244.061 773.14 251.161 771.542 257.551Z" fill="#CEC1A3"/>
<path d="M985.465 525.573C927.236 493.268 955.818 426.706 999.49 426.706C1000.91 395.999 987.418 363.339 960.789 347.897C952.8 343.282 941.615 338.135 940.018 329.082C948.184 331.922 957.948 329.97 964.339 324.112C956.883 327.13 947.474 323.58 943.746 316.48C941.26 311.51 941.26 305.475 938.242 300.86C935.579 296.422 930.609 293.937 925.815 292.34C919.424 290.21 912.678 289.323 905.755 289.678C906.997 288.258 908.24 286.838 909.483 285.595C913.211 281.335 917.649 276.898 923.152 275.655C929.721 274.235 936.822 277.43 943.391 276.01C953.155 273.88 958.126 260.213 951.912 252.225C957.771 252.758 961.499 258.97 962.386 264.828C963.274 270.685 962.386 276.72 963.807 282.4C966.114 291.808 975.168 299.085 984.755 299.262C992.921 299.44 1000.56 295.18 1008.54 295.002C1010.67 295.002 1012.63 295.18 1014.58 295.535C1025.94 298.197 1035.17 309.202 1034.82 321.095C1042.1 317.367 1043.87 306.895 1040.32 299.617C1036.59 292.34 1029.14 287.548 1021.68 284.353C1019.37 283.465 1017.07 282.578 1014.76 281.69C1009.43 279.738 1003.93 277.785 999.135 274.768C990.791 269.62 983.69 260.568 986.53 250.45C988.128 244.415 993.809 239.978 1000.2 240.688C1007.12 241.575 1010.85 248.32 1012.98 254.533C1013.69 256.485 1014.22 258.438 1014.93 260.39V260.568C1016.36 264.473 1017.95 268.023 1020.97 270.863C1025.41 274.945 1034.29 274.945 1036.42 269.265C1030.2 266.07 1029.31 256.485 1034.11 251.515C1038.9 246.368 1047.25 246.013 1053.28 249.385C1059.32 252.758 1063.22 259.148 1065 265.893C1066.77 272.638 1066.6 279.738 1066.24 286.66C1065.89 293.582 1065.53 300.682 1066.77 307.427C1069.08 320.207 1075.47 346.3 1088.43 347.72C1071.74 319.142 1077.43 273.525 1106.18 286.483C1102.1 268.378 1121.81 260.035 1145.6 275.833C1138.67 263.23 1148.08 256.663 1142.76 250.628C1137.79 244.948 1129.62 243.705 1122.16 243.883C1097.66 244.415 1103.17 201.106 1114.17 200.573C1110.09 192.763 1099.26 189.391 1091.45 193.473C1081.15 198.621 1078.31 212.643 1068.73 218.678C1059.14 224.891 1046.18 221.163 1036.59 214.951C1032.33 212.111 1028.25 208.738 1026.65 203.946C1024.88 199.153 1026.3 193.118 1030.74 190.633C1035.17 188.326 1041.92 192.231 1040.85 197.201C1042.27 191.343 1038.01 185.486 1033.58 181.403C1029.14 177.144 1023.99 173.061 1022.75 167.026C1020.08 153.004 1041.39 139.691 1027.01 126.556C1025.41 125.136 1023.63 124.071 1021.68 123.006C1019.55 121.942 1017.24 120.344 1015.11 118.392V118.214C1012.09 115.374 1010.14 111.647 1011.38 107.564C1011.92 105.789 1013.34 104.192 1015.11 102.949C1016.18 102.239 1017.42 101.707 1018.66 101.529C1025.05 100.642 1030.38 105.257 1032.87 110.582C1036.24 105.789 1034.11 99.0442 1030.74 94.2517C1027.36 89.4593 1022.39 86.0868 1017.6 82.5368C1016.71 82.0043 1016 81.2944 1015.11 80.5844C1011.21 77.5669 1007.66 74.1944 1005.7 69.7569C1004.64 67.4495 1004.11 66.0295 1003.93 64.787C1002.33 57.3321 1002.33 53.6046 991.856 46.5046C981.382 39.4047 957.415 46.5046 957.415 46.5046C941.26 54.8471 927.236 68.1595 905.932 47.0371C908.95 86.4418 965.049 62.8345 929.366 93.3642C946.764 108.984 968.245 93.3642 969.487 62.8345C979.607 77.3894 969.843 92.4768 962.564 101.529C955.64 110.227 951.024 120.699 949.072 131.704C948.006 137.916 948.006 144.661 951.202 150.164C954.397 155.666 961.854 158.861 967.357 155.666C963.096 152.471 959.368 148.389 957.771 143.241C956.173 138.094 957.238 132.059 961.499 128.686C965.404 125.669 970.908 125.846 975.168 128.154C979.429 130.461 982.447 134.721 984.045 139.336C988.838 152.826 982.092 169.334 969.132 175.369C963.452 178.031 957.06 178.741 951.557 181.936C942.681 187.083 938.065 197.378 936.29 207.496C934.337 219.211 935.579 231.281 933.094 242.818C932.384 246.545 930.786 249.918 928.301 252.58C921.377 259.858 913.211 255.775 905.399 254.71C898.298 253.823 891.02 255.42 884.984 259.148C881.966 251.87 878.415 244.77 875.93 237.315C872.557 227.376 871.491 215.838 876.64 206.786C879.48 201.638 885.161 197.556 890.842 198.443C895.458 199.331 898.653 204.656 897.411 208.738C900.961 201.816 899.896 192.586 894.393 187.083C884.451 176.966 864.745 179.806 857.822 167.559C851.076 156.021 861.727 140.934 857.467 128.154C854.981 120.699 847.88 115.729 840.956 111.824C834.033 107.919 826.754 104.014 822.493 97.2692C818.233 90.5243 818.41 77.7444 825.689 74.5494C819.12 73.6619 813.794 80.9393 813.617 87.5068C813.617 94.2517 816.99 100.287 819.83 106.322C822.671 112.357 824.801 119.457 822.316 125.669C818.765 134.544 806.338 137.384 797.639 133.124C788.94 128.864 783.614 119.812 780.419 110.759C777.223 101.707 775.626 91.9443 771.897 83.0693C765.151 67.627 751.482 55.3796 735.149 50.7646C718.994 45.9722 700.708 48.8121 686.861 58.397C671.238 68.8695 659.876 87.5068 641.058 90.3468C631.117 91.7668 620.998 88.2168 612.121 83.6018C603.067 78.9869 594.723 73.3069 585.137 70.1119C575.55 66.917 564.366 66.3845 556.022 71.8869C547.678 77.3894 543.24 88.9268 549.631 96.7367C547.856 89.8143 553.181 82.5368 559.927 80.5844C566.674 78.6319 574.13 81.1169 579.811 85.5543C585.314 89.9918 589.22 96.0267 592.593 102.239C595.966 108.452 599.161 114.842 603.777 120.167C616.737 135.609 640.881 140.224 658.634 130.994C668.575 125.846 676.209 116.972 685.796 111.114C693.785 106.144 703.194 103.127 712.425 104.724C721.657 106.322 730.356 113.067 732.308 122.119C734.261 131.171 728.225 141.999 718.994 143.241C710.295 144.484 702.483 138.271 693.785 137.029C682.068 135.431 669.818 144.839 668.575 156.731C667.51 166.849 674.079 174.836 683.488 177.499C684.908 178.563 686.683 178.918 688.459 178.386C686.683 178.208 685.086 178.031 683.488 177.499C681.002 175.901 679.405 172.529 679.937 169.511C680.825 164.719 685.263 161.346 689.879 159.749C700.353 156.199 714.2 161.701 716.153 172.529C717.396 179.096 714.023 185.841 708.875 189.923C703.726 194.006 696.803 195.603 690.234 195.603C678.695 195.603 667.688 190.811 657.569 185.486C647.449 179.983 637.685 173.594 626.856 169.689C616.027 165.784 603.6 164.541 593.125 169.334C582.651 174.126 575.373 183.533 578.568 194.716C584.604 187.438 594.368 183.533 603.777 184.953C613.186 186.196 621.53 192.586 625.436 201.283C628.631 208.383 628.631 216.548 631.117 223.826C635.022 235.718 645.497 245.303 657.746 247.965C666.445 249.918 675.499 248.498 684.198 247.255C693.074 246.013 701.951 244.593 710.65 246.545C719.349 248.498 727.693 254.355 730.001 262.875C731.598 269.088 729.823 275.655 726.45 280.98C723.077 286.305 718.106 290.565 712.78 294.115C704.969 299.44 694.317 303.877 686.328 298.552C681.89 295.535 679.582 290.388 675.321 287.193C667.688 281.69 655.261 286.483 653.13 295.712C658.279 291.985 666.445 294.47 668.753 300.327C672.836 310.622 656.858 319.32 648.692 319.852C639.461 320.385 630.407 313.64 627.566 304.765C624.903 295.89 628.276 285.595 635.377 279.383C623.66 279.738 613.541 289.5 610.346 300.86C607.15 312.22 609.991 324.467 615.494 334.94C619.4 342.395 624.903 349.317 626.678 357.659C628.631 366.179 626.146 375.764 619.4 381.267C612.831 386.769 602.002 387.302 595.611 381.267C589.397 375.232 589.752 363.339 597.209 358.724C588.332 358.192 581.231 367.422 581.053 376.297C580.698 385.172 585.314 393.514 590.285 400.792C595.078 408.247 600.582 415.701 602.357 424.399C604.487 434.516 601.114 445.166 595.788 454.041C590.463 462.916 591.883 489.186 597.031 489.186C605.73 464.869 625.258 469.483 642.124 468.951C651.178 468.596 660.232 470.548 669.286 471.791C678.34 473.033 687.749 473.566 696.27 470.371C704.791 467.176 712.248 459.721 712.78 450.491C712.78 450.314 712.78 450.136 712.78 449.959C729.113 466.466 735.859 490.961 715.266 498.416C712.958 499.303 711.005 500.546 709.585 502.321C703.371 510.308 720.947 509.953 710.827 517.586C717.929 522.911 728.048 501.433 727.338 519.361C726.45 538.175 762.488 520.071 752.192 546.163C752.902 546.518 753.612 546.518 754.322 546.695H755.92C761.423 546.163 767.459 540.128 769.767 535.335C773.495 527.348 768.524 517.586 771.365 509.243C774.205 500.901 783.792 496.996 792.491 496.108C796.396 495.753 800.48 495.931 803.853 497.883C807.226 499.836 809.356 504.273 807.758 507.823C806.161 511.373 793.734 511.906 793.201 508.356C791.248 519.006 805.806 514.391 810.421 514.746C815.037 515.101 820.185 515.278 823.736 518.296C829.95 523.621 828.707 533.915 833.323 540.128C824.091 541.015 817.167 543.323 812.374 546.695H865.988C865.1 546.163 864.213 545.453 863.148 544.92C886.049 538.885 889.777 512.438 884.984 503.918C882.676 499.658 879.48 495.576 874.864 493.801C870.249 492.026 864.213 493.801 862.437 498.238C866.521 498.238 870.781 498.771 874.154 501.078C877.527 503.386 879.835 507.646 878.948 511.551C878.06 515.101 874.687 517.763 870.959 518.473C867.231 519.183 863.503 517.941 860.307 515.988C850.898 510.131 847.17 496.996 852.141 487.056C854.271 482.796 857.822 479.246 859.597 474.808C862.615 467.531 860.307 459.011 856.579 452.266C852.141 444.101 845.395 437.356 841.311 429.014C840.246 426.884 839.714 424.576 839.714 422.269C839.891 413.749 847.17 412.329 852.496 409.134C858.887 405.407 863.325 398.307 863.858 391.029C864.568 383.574 861.372 375.942 855.691 371.149C857.822 373.989 858.354 378.072 856.579 381.267C856.046 382.154 855.336 382.864 854.271 383.397C855.159 377.007 853.028 370.084 848.59 365.647C857.111 362.097 867.408 362.629 875.575 367.067C883.741 371.504 889.599 379.847 891.375 388.899C892.44 394.579 891.907 400.259 892.44 406.117C892.972 411.796 894.925 417.831 899.541 421.204C903.269 423.866 908.24 424.399 912.856 425.109C917.471 425.819 922.442 426.884 925.46 430.611C928.478 434.161 928.123 440.906 923.685 442.504C928.478 441.084 932.384 436.824 933.449 432.031C934.514 427.061 932.561 421.736 928.833 418.541C923.33 413.926 914.276 413.394 910.903 407.182C907.53 400.969 913.033 392.804 919.779 391.384C926.703 389.964 933.804 393.869 938.42 399.017C948.894 410.731 949.604 428.659 944.988 443.569C940.195 458.479 925.283 463.449 924.573 485.103C923.507 519.716 883.741 512.261 896.345 543.678C933.094 508.356 951.557 547.405 985.465 525.573ZM834.21 399.549C833.678 402.034 832.967 404.164 831.37 406.117C828.174 410.199 822.316 411.619 819.12 415.524C814.149 421.559 817.878 432.031 825.334 433.806C821.606 436.291 816.28 434.339 812.907 431.144C809.534 428.126 807.226 424.044 803.675 421.204C797.817 416.766 788.94 416.589 782.904 421.026C777.933 424.754 775.27 430.966 770.655 435.049C762.666 441.971 748.641 440.374 742.428 431.854C739.765 437.534 743.67 444.634 749.351 447.474C755.032 450.136 761.778 449.426 767.814 447.651C773.85 445.876 779.709 443.391 786.1 442.681C793.378 441.794 801.722 443.746 805.095 450.846C807.226 455.284 805.983 461.141 801.722 463.626C797.107 466.289 791.781 464.159 787.52 461.496C783.614 459.011 779.709 455.816 774.915 455.639C770.3 455.284 764.974 459.544 766.394 463.981C771.542 462.916 776.691 468.241 776.336 473.566C775.981 478.891 771.187 483.151 765.861 484.038C760.536 484.926 755.21 482.796 750.949 479.601C746.688 476.406 743.493 471.968 740.297 467.708C760.713 453.331 719.171 451.379 733.551 437.711C726.095 431.144 689.524 413.216 683.843 435.226C689.701 435.936 695.56 438.066 701.063 441.439C700.708 450.491 688.459 455.106 681.002 451.556C676.564 449.426 673.369 445.166 672.126 440.374C668.753 428.836 676.742 416.234 687.571 410.731C698.4 405.229 711.005 405.407 723.077 407.182C734.971 408.956 746.866 411.974 758.938 411.974C771.01 411.974 783.792 408.069 791.248 398.484C795.509 392.982 797.462 386.237 800.302 380.024C803.143 373.812 807.403 367.599 813.972 365.292C821.961 362.452 831.725 367.422 834.21 375.587C836.696 383.752 831.192 393.337 823.026 395.289C825.866 397.774 829.949 399.372 834.21 399.549ZM902.204 361.564C892.617 360.499 883.563 354.642 878.77 346.3C875.752 340.975 873.977 334.585 869.006 331.39C862.792 327.485 854.626 330.147 848.235 333.875C839.359 339.022 831.547 345.767 822.493 350.737C813.439 355.529 802.432 358.192 793.023 354.287C787.343 351.802 782.727 347.187 777.223 344.347C764.441 337.78 747.221 342.395 739.587 354.464C736.924 358.547 735.326 363.517 736.214 368.309C736.924 373.102 740.297 377.717 745.091 378.782C750.239 380.024 755.742 377.184 758.938 372.924C761.956 368.487 762.843 362.984 762.843 357.659C768.702 360.144 770.655 367.954 768.347 373.812C766.039 379.669 760.713 383.752 755.032 386.769C745.268 392.094 734.084 394.757 722.899 394.579C711.36 394.402 699.821 391.207 688.281 392.272C675.499 393.514 663.605 399.904 653.84 408.247C644.076 416.589 636.088 426.884 628.276 437.001C631.827 420.316 641.768 404.164 655.261 393.869C661.119 389.432 667.865 385.704 671.238 379.314C674.079 374.167 674.079 367.954 673.901 362.097C673.724 356.239 673.369 350.205 675.144 344.525C676.919 339.022 681.002 333.165 686.861 332.987C684.553 337.247 683.843 342.75 686.151 347.01C688.459 351.269 694.317 353.754 698.578 351.447C703.194 348.962 704.081 342.572 703.549 337.247C703.016 331.922 701.951 326.242 704.436 321.627C710.295 310.8 729.113 315.947 737.279 306.717C741.362 302.102 741.54 295.535 742.073 289.323C742.605 283.288 744.558 276.365 750.061 273.88C745.446 276.01 746.511 283.82 751.127 285.95C755.742 288.08 761.423 285.418 764.086 280.98C766.749 276.72 767.104 271.395 766.749 266.248C765.861 254.888 760.891 242.285 750.239 238.558C739.41 234.653 726.627 240.865 716.331 236.073C708.342 232.346 704.614 221.696 708.164 213.708C714.023 220.631 722.367 228.086 730.888 224.891C739.942 221.341 740.475 209.093 744.558 200.218C747.576 194.006 752.902 189.213 756.452 183.178C760.003 177.321 761.423 168.979 756.807 163.831C753.612 160.459 748.819 159.571 744.558 157.974C740.297 156.376 735.681 153.004 735.859 148.389C745.446 150.519 754.145 140.046 753.967 130.106C753.789 120.344 747.931 111.647 742.25 103.482C753.257 105.257 761.956 114.309 766.394 124.426C771.01 134.544 772.075 145.904 773.495 156.909C774.383 164.009 775.626 171.464 780.596 176.611C788.053 184.243 801.545 182.823 810.066 176.256C818.588 169.689 823.381 159.571 827.997 149.986C834.743 161.169 830.837 176.434 822.138 186.018C817.522 191.166 811.664 195.071 805.983 198.976C800.302 202.881 794.621 207.141 790.361 212.643C786.1 218.146 783.259 225.068 784.324 231.991C785.39 238.913 790.893 245.303 797.817 245.835C804.74 246.545 811.842 239.978 810.421 233.056C816.28 231.281 821.606 238.203 821.073 244.238C820.54 250.273 816.457 255.42 813.084 260.39C809.711 265.538 806.871 271.928 809.179 277.608C812.374 285.24 823.736 286.483 830.127 281.335C836.518 276.188 838.471 267.135 837.583 258.97C836.696 250.805 833.5 243.173 831.37 235.186C829.239 227.198 828.352 218.501 832.08 211.046C835.63 203.591 845.04 198.621 852.496 202.348C841.134 210.336 838.826 228.441 847.88 239.09C853.028 245.303 861.017 248.853 865.81 255.243C871.491 263.053 871.314 274.59 865.278 282.223C861.55 286.838 856.224 289.855 852.141 294.115C848.057 298.375 845.395 305.12 848.59 310.09C851.075 300.327 864.923 295.89 872.557 302.457C877.705 306.895 879.48 314.35 884.628 318.61C889.067 322.337 895.103 323.047 900.784 323.402C906.465 323.757 912.501 323.935 917.471 326.597C922.442 329.26 926.348 337.07 924.04 342.395C923.33 337.78 916.229 336.36 913.211 339.91C910.193 343.46 911.79 349.495 915.696 351.979C919.602 354.464 924.928 353.577 928.833 350.914C921.91 358.724 911.791 362.629 902.204 361.564Z" fill="#CEC1A3"/>
<path d="M906.642 468.063C904.866 453.508 890.841 443.214 886.048 429.369C884.095 438.066 889.599 446.409 892.617 454.751C897.41 467.708 895.812 482.796 888.711 494.511C900.073 491.493 908.062 479.601 906.642 468.063Z" fill="#CEC1A3"/>
<path d="M943.923 294.293C950.314 299.972 959.368 302.635 967.889 301.215C963.451 293.05 951.912 289.855 943.923 294.293Z" fill="#CEC1A3"/>
<path d="M595.433 59.8172C604.664 63.7221 612.653 70.1121 621.885 73.8395C631.116 77.7445 642.833 78.632 650.289 72.0646C643.188 75.9695 634.312 74.727 627.033 71.1771C619.754 67.6271 613.718 62.1247 607.15 57.5097C600.581 52.8947 593.125 48.8123 584.959 48.6348C576.97 48.6348 568.271 53.6047 566.851 61.5922C574.662 55.0247 586.201 55.9122 595.433 59.8172Z" fill="#CEC1A3"/>
<path d="M685.44 272.815C695.204 275.655 704.968 269.443 709.229 260.035C705.678 265.005 698.932 266.248 692.896 265.893C686.86 265.538 680.824 263.94 674.788 265.005C671.238 265.715 667.51 267.845 667.332 271.395C669.64 269.088 673.546 268.733 676.564 269.62C679.582 270.33 682.422 271.928 685.44 272.815Z" fill="#CEC1A3"/>
<path d="M792.313 75.082C790.005 87.8619 793.023 101.707 800.657 112.179C805.45 99.5768 802.077 84.312 792.313 75.082Z" fill="#CEC1A3"/>
<path d="M630.761 509.066C630.761 509.066 564.898 512.616 583.893 465.579C602.889 418.719 545.369 446.231 569.513 419.429C594.545 391.917 542.884 409.312 560.637 353.045C563.477 343.992 569.513 337.425 560.104 325.355C536.493 360.499 517.32 318.787 516.61 313.817C515.722 314.705 514.657 315.77 513.947 316.835C504.005 328.55 500.809 344.17 513.947 356.95C516.077 358.902 518.562 361.032 521.58 362.807C530.812 368.664 522.468 374.522 513.947 372.747C511.639 372.392 509.331 371.327 507.378 369.729C500.987 382.864 504.538 402.034 513.947 413.572C520.16 421.204 529.214 425.286 539.333 421.736C544.482 463.804 516.61 466.111 516.61 466.111C516.61 466.111 518.03 500.368 553.713 496.286C588.864 515.811 528.859 520.426 532.942 547.405C567.028 536.4 605.019 503.563 677.274 547.405C665.202 511.728 630.761 509.066 630.761 509.066Z" fill="#CEC1A3"/>
<path d="M948.716 173.416C947.828 163.653 941.792 154.424 933.093 149.809C932.916 159.749 939.484 169.511 948.716 173.416Z" fill="#CEC1A3"/>
<path d="M593.125 337.602C596.143 344.702 602.889 349.672 610.167 351.802C601.291 342.572 596.675 329.437 597.563 316.657C591.704 321.45 590.284 330.502 593.125 337.602Z" fill="#CEC1A3"/>
<path d="M839.89 75.0818C842.198 89.9917 827.641 88.9267 827.641 88.9267C827.641 88.9267 875.041 98.8666 872.201 132.414C869.36 165.961 879.302 164.541 903.268 171.996C903.268 171.996 897.055 192.231 923.507 187.793C902.913 157.974 950.136 121.409 928.122 121.764C906.109 122.119 918.181 102.062 919.601 82.3592C914.275 92.6541 894.214 102.062 895.635 85.7317C901.671 77.2118 901.316 62.6569 888.533 53.782C893.149 60.1719 882.852 70.6443 882.852 70.6443C882.852 70.6443 875.396 47.747 856.046 44.3746C829.061 39.7596 811.841 46.8595 811.841 46.8595C803.142 52.8945 800.834 62.1244 802.432 72.4193C808.823 64.2544 837.583 60.1719 839.89 75.0818Z" fill="#CEC1A3"/>
<path d="M696.092 480.488C680.115 498.948 654.728 468.418 642.479 492.913C671.948 490.783 668.398 503.386 675.144 516.875C681.357 529.3 701.773 533.915 704.081 514.923C677.274 505.516 708.342 501.966 696.092 480.488Z" fill="#CEC1A3"/>
<path d="M622.418 481.376C616.559 480.311 610.346 484.393 608.748 490.073C616.559 486.878 626.146 488.476 632.537 494.156C632.892 488.298 628.276 482.441 622.418 481.376Z" fill="#CEC1A3"/>
<path d="M586.556 113.954C584.781 108.096 579.81 103.126 573.952 101.352C570.579 100.464 567.028 100.287 563.833 99.399C560.459 98.5115 555.311 95.1391 554.423 91.7666C553.713 97.979 553.181 104.901 557.264 109.694C560.104 112.889 564.365 114.486 568.448 115.551C572.531 116.616 576.97 117.859 580.165 120.699C583.361 123.539 584.959 128.864 582.118 132.236C586.201 127.621 588.332 119.811 586.556 113.954Z" fill="#CEC1A3"/>
<path d="M865.987 430.611C862.969 438.066 860.839 446.409 862.614 454.219C864.389 462.028 871.491 469.128 879.479 468.773C871.313 462.916 869.36 451.379 870.958 441.616C872.556 431.676 876.816 422.446 878.414 412.506C880.012 402.566 878.059 391.029 869.893 385.349C875.396 391.384 876.106 400.259 874.509 408.246C872.911 415.879 869.005 422.979 865.987 430.611Z" fill="#CEC1A3"/>
<path d="M514.125 490.074C510.574 486.701 506.136 484.039 501.52 482.619C496.017 481.021 490.158 481.021 484.655 479.424C479.151 477.826 470.453 472.501 469.21 466.821C467.967 477.116 467.257 488.654 474.003 496.641C478.619 502.143 485.72 504.451 492.644 506.403C499.567 508.356 506.669 510.131 511.994 514.923C512.882 515.633 513.592 516.521 514.302 517.408C518.03 522.378 519.096 529.301 515.367 533.916C521.936 526.106 525.487 513.326 522.469 503.386C520.871 498.416 517.853 493.801 514.125 490.074Z" fill="#CEC1A3"/>
<path d="M547.322 184.421C549.808 187.971 550.518 192.941 549.098 197.023C554.246 194.183 555.134 186.551 552.826 181.049C550.518 175.546 546.257 171.286 542.707 166.316C539.334 161.524 536.671 155.134 538.801 149.631C532.41 156.731 532.41 168.801 538.801 175.901C541.464 178.919 545.015 181.049 547.322 184.421Z" fill="#CEC1A3"/>
<path d="M1498.52 469.483C1494.09 461.319 1482.55 458.124 1474.56 462.561C1480.95 468.241 1490 470.903 1498.52 469.483Z" fill="#CEC1A3"/>
<path d="M1501.36 358.37C1496.93 351.802 1489.29 347.72 1481.48 347.72C1485.92 354.11 1493.55 358.192 1501.36 358.37Z" fill="#CEC1A3"/>
<path d="M1492.13 442.681C1484.32 443.924 1477.4 449.249 1474.03 456.349C1481.84 454.929 1488.76 449.604 1492.13 442.681Z" fill="#CEC1A3"/>
<path d="M1457.52 547.583H1491.96C1491.42 547.228 1490.89 546.873 1490.36 546.518C1477.58 539.418 1467.28 542.613 1457.52 547.583Z" fill="#CEC1A3"/>
<path d="M1301.11 297.488C1294.37 289.855 1295.25 276.72 1303.06 270.153C1295.08 271.04 1289.75 279.028 1286.91 286.483C1284.07 293.938 1282.12 302.458 1276.26 307.96C1271.29 312.752 1264.19 314.527 1257.97 317.367C1251.76 320.385 1245.54 325.71 1245.72 332.632C1249.27 326.065 1257.62 323.225 1265.07 324.112C1272.53 324.822 1279.28 328.372 1286.02 331.567C1292.77 334.762 1300.05 337.78 1307.5 337.247C1314.96 336.715 1322.59 331.745 1323.84 324.467C1320.28 325.71 1316.73 326.775 1313.01 326.42C1309.28 325.887 1305.73 323.402 1305.37 319.675C1304.66 313.995 1311.23 310.622 1316.73 309.025C1322.06 307.428 1328.81 304.41 1328.45 298.73C1320.99 305.653 1307.86 305.12 1301.11 297.488Z" fill="#CEC1A3"/>
<path d="M1304.31 387.479C1301.82 395.467 1305.73 404.874 1313.18 408.601C1309.99 396.709 1314.25 383.219 1323.66 375.409C1315.49 374.167 1306.79 379.492 1304.31 387.479Z" fill="#CEC1A3"/>
<path d="M1272.35 257.551C1277.68 254.001 1280.7 247.256 1279.81 240.866C1278.92 234.476 1274.13 228.796 1268.09 226.843C1262.05 224.891 1254.78 226.666 1250.34 231.458C1256.91 231.103 1263.65 233.943 1267.91 238.913C1272.17 244.061 1273.77 251.161 1272.35 257.551Z" fill="#CEC1A3"/>
<path d="M1486.27 525.75C1428.04 493.446 1456.63 426.884 1500.3 426.884C1501.72 396.176 1488.23 363.517 1461.6 348.074C1453.61 343.459 1442.42 338.312 1440.83 329.26C1448.99 332.1 1458.76 330.147 1465.15 324.29C1457.69 327.307 1448.28 323.757 1444.55 316.657C1442.07 311.687 1442.07 305.652 1439.05 301.037C1436.39 296.6 1431.42 294.115 1426.62 292.517C1420.23 290.387 1413.49 289.5 1406.56 289.855C1407.81 288.435 1409.05 287.015 1410.29 285.772C1414.02 281.512 1418.46 277.075 1423.96 275.832C1430.53 274.413 1437.63 277.608 1444.2 276.188C1453.96 274.058 1458.93 260.39 1452.72 252.403C1458.58 252.935 1462.31 259.148 1463.2 265.005C1464.08 270.863 1463.2 276.897 1464.62 282.577C1466.92 291.985 1475.98 299.262 1485.56 299.44C1493.73 299.617 1501.36 295.357 1509.35 295.18C1511.48 295.18 1513.44 295.357 1515.39 295.89C1526.75 298.552 1535.98 309.557 1535.45 321.45C1542.73 317.722 1544.5 307.25 1540.95 299.972C1537.23 292.695 1529.77 287.902 1522.31 284.707C1520 283.82 1517.7 282.932 1515.39 282.045C1510.06 280.092 1504.56 278.14 1499.77 275.123C1491.42 269.975 1484.32 260.923 1487.16 250.805C1488.76 244.77 1494.44 240.333 1500.83 241.043C1507.76 241.93 1511.48 248.675 1513.61 254.888C1514.32 256.84 1514.86 258.793 1515.57 260.745V260.923C1516.99 264.828 1518.58 268.378 1521.6 271.218C1526.04 275.3 1534.92 275.3 1537.05 269.62C1530.83 266.425 1529.95 256.84 1534.74 251.87C1539.53 246.723 1547.88 246.368 1553.91 249.74C1559.95 253.113 1563.85 259.503 1565.63 266.248C1567.41 272.993 1567.23 280.092 1566.87 287.015C1566.52 293.937 1566.16 301.037 1567.41 307.782C1569.71 320.562 1576.1 346.654 1589.06 348.074C1572.38 319.497 1578.06 273.88 1606.82 286.837C1602.73 268.733 1622.44 260.39 1646.23 276.188C1639.3 263.585 1648.71 257.018 1643.39 250.983C1638.42 245.303 1630.25 244.06 1622.79 244.238C1598.3 244.77 1603.8 201.461 1614.81 200.928C1610.72 193.118 1599.89 189.746 1592.08 193.828C1581.79 198.976 1578.94 212.998 1569.36 219.033C1559.77 225.245 1546.81 221.518 1537.23 215.306C1532.96 212.466 1528.88 209.093 1527.28 204.301C1525.51 199.508 1526.93 193.473 1531.37 190.988C1535.8 188.681 1542.55 192.586 1541.49 197.556C1542.91 191.698 1538.65 185.841 1534.21 181.758C1529.77 177.498 1524.62 173.416 1523.38 167.381C1520.72 153.359 1542.02 140.046 1527.64 126.911C1526.04 125.491 1524.27 124.426 1522.31 123.361C1520.18 122.296 1517.87 120.699 1515.74 118.746C1512.73 115.906 1510.77 112.179 1512.02 108.096C1512.55 106.321 1513.97 104.724 1515.74 103.482C1516.81 102.772 1518.05 102.239 1519.12 102.062C1525.51 101.174 1530.83 105.789 1533.32 111.114C1536.69 106.321 1534.56 99.5765 1531.19 94.7841C1527.82 89.9916 1522.85 86.6192 1518.05 83.0692C1517.16 82.5367 1516.28 81.8267 1515.57 81.1167C1511.66 78.0992 1508.11 74.7268 1506.16 70.2893C1505.09 67.9818 1504.56 66.5618 1504.38 65.3193C1502.78 57.8644 1502.78 54.8469 1492.31 47.037C1481.84 39.2271 1457.87 47.037 1457.87 47.037C1441.71 55.3794 1427.69 68.6918 1406.39 47.5695C1409.4 86.9742 1465.5 63.3669 1429.82 93.8966C1447.22 109.516 1468.7 93.8966 1469.94 63.3669C1480.06 77.9217 1470.3 93.0091 1463.02 102.062C1456.09 110.759 1451.48 121.231 1449.53 132.236C1448.46 138.449 1448.46 145.194 1451.66 150.696C1454.85 156.199 1462.31 159.394 1467.81 156.199C1463.55 153.004 1459.82 148.921 1458.22 143.774C1456.63 138.626 1457.69 132.591 1461.95 129.219C1465.86 126.201 1471.36 126.379 1475.62 128.686C1479.88 130.994 1482.9 135.254 1484.5 139.869C1489.29 153.359 1482.55 169.866 1469.59 175.901C1463.91 178.563 1457.51 179.273 1452.01 182.468C1443.13 187.616 1438.52 197.911 1436.74 208.028C1434.79 219.743 1436.03 231.813 1433.55 243.35C1432.84 247.078 1431.24 250.45 1428.75 253.113C1421.83 260.39 1413.66 256.308 1405.85 255.243C1398.75 254.355 1391.47 255.953 1385.44 259.68C1382.42 252.403 1378.87 245.303 1376.38 237.848C1373.01 227.908 1371.95 216.371 1377.09 207.318C1379.93 202.171 1385.62 198.088 1391.3 198.976C1395.91 199.863 1399.11 205.188 1397.86 209.271C1401.42 202.348 1400.35 193.118 1394.85 187.616C1384.91 177.498 1365.2 180.338 1358.28 168.091C1351.53 156.554 1362.18 141.466 1357.92 128.686C1355.44 121.231 1348.33 116.261 1341.41 112.356C1334.49 108.451 1327.21 104.546 1322.95 97.8016C1318.69 91.0566 1318.86 78.2767 1326.14 75.0818C1319.57 74.1943 1314.25 81.4717 1314.07 88.0391C1314.07 94.7841 1317.44 100.819 1320.28 106.854C1323.12 112.889 1325.26 119.989 1322.77 126.201C1319.22 135.076 1306.79 137.916 1298.09 133.656C1289.39 129.396 1284.07 120.344 1280.87 111.291C1277.68 102.239 1276.08 92.4766 1272.35 83.6017C1265.61 68.1593 1251.94 55.9119 1235.6 51.297C1219.45 46.5045 1201.16 49.3445 1187.32 58.9294C1171.69 69.4018 1160.33 88.0391 1141.51 90.8791C1131.57 92.2991 1121.45 88.7491 1112.58 84.1342C1103.52 79.5192 1095.18 73.8393 1085.59 70.6443C1076 67.4493 1064.82 66.9168 1056.48 72.4193C1048.13 77.9217 1043.69 89.4591 1050.08 97.2691C1048.31 90.3466 1053.64 83.0692 1060.38 81.1167C1067.13 79.1642 1074.58 81.6492 1080.26 86.0867C1085.77 90.5241 1089.67 96.5591 1093.05 102.772C1096.42 108.984 1099.62 115.374 1104.23 120.699C1117.19 136.141 1141.34 140.756 1159.09 131.526C1169.03 126.379 1176.66 117.504 1186.25 111.646C1194.24 106.676 1203.65 103.659 1212.88 105.256C1222.11 106.854 1230.81 113.599 1232.76 122.651C1234.72 131.704 1228.68 142.531 1219.45 143.774C1210.75 145.016 1202.94 138.804 1194.24 137.561C1182.52 135.964 1170.27 145.371 1169.03 157.264C1167.96 167.381 1174.53 175.368 1183.94 178.031C1185.36 179.096 1187.14 179.451 1188.91 178.918C1187.14 178.741 1185.54 178.563 1183.94 178.031C1181.46 176.433 1179.86 173.061 1180.39 170.043C1181.28 165.251 1185.72 161.879 1190.33 160.281C1200.81 156.731 1214.65 162.234 1216.61 173.061C1217.85 179.628 1214.48 186.373 1209.33 190.456C1204.18 194.538 1197.26 196.136 1190.69 196.136C1179.15 196.136 1168.14 191.343 1158.02 186.018C1147.9 180.516 1138.14 174.126 1127.31 170.221C1116.48 166.316 1104.05 165.073 1093.58 169.866C1083.11 174.658 1075.83 184.066 1079.02 195.248C1085.06 187.971 1094.82 184.066 1104.23 185.486C1113.64 186.728 1121.98 193.118 1125.89 201.816C1129.09 208.916 1129.09 217.081 1131.57 224.358C1135.48 236.25 1145.95 245.835 1158.2 248.498C1166.9 250.45 1175.95 249.03 1184.65 247.788C1193.53 246.545 1202.41 245.125 1211.1 247.078C1219.8 249.03 1228.15 254.888 1230.45 263.408C1232.05 269.62 1230.28 276.188 1226.9 281.512C1223.53 286.837 1218.56 291.097 1213.23 294.647C1205.42 299.972 1194.77 304.41 1186.78 299.085C1182.34 296.067 1180.04 290.92 1175.78 287.725C1168.14 282.222 1155.71 287.015 1153.58 296.245C1158.73 292.517 1166.9 295.002 1169.21 300.86C1173.29 311.155 1157.31 319.852 1149.15 320.385C1139.91 320.917 1130.86 314.172 1128.02 305.297C1125.36 296.422 1128.73 286.127 1135.83 279.915C1124.11 280.27 1114 290.032 1110.8 301.392C1107.6 312.752 1110.44 325 1115.95 335.472C1119.85 342.927 1125.36 349.849 1127.13 358.192C1129.09 366.712 1126.6 376.297 1119.85 381.799C1113.29 387.302 1102.46 387.834 1096.07 381.799C1089.85 375.764 1090.21 363.872 1097.66 359.257C1088.79 358.724 1081.69 367.954 1081.51 376.829C1081.15 385.704 1085.77 394.046 1090.74 401.324C1095.53 408.779 1101.04 416.234 1102.81 424.931C1104.94 435.049 1101.57 445.699 1096.24 454.573C1090.92 463.448 1092.34 489.718 1097.49 489.718C1106.18 465.401 1125.71 470.016 1142.58 469.483C1151.63 469.128 1160.69 471.081 1169.74 472.323C1178.79 473.566 1188.2 474.098 1196.72 470.903C1205.25 467.708 1212.7 460.253 1213.23 451.023C1213.23 450.846 1213.23 450.668 1213.23 450.491C1229.57 466.998 1236.31 491.493 1215.72 498.948C1213.41 499.836 1211.46 501.078 1210.04 502.853C1203.83 510.84 1221.4 510.485 1211.28 518.118C1218.38 523.443 1228.5 501.966 1227.79 519.893C1226.9 538.708 1262.94 520.603 1252.65 546.695C1253.36 547.05 1254.07 547.05 1254.78 547.228H1256.37C1261.88 546.695 1267.91 540.66 1270.22 535.868C1273.95 527.88 1268.98 518.118 1271.82 509.776C1274.66 501.433 1284.25 497.528 1292.94 496.641C1296.85 496.286 1300.93 496.463 1304.31 498.416C1307.68 500.368 1309.81 504.806 1308.21 508.356C1306.61 511.905 1294.19 512.438 1293.66 508.888C1291.7 519.538 1306.26 514.923 1310.88 515.278C1315.49 515.633 1320.64 515.81 1324.19 518.828C1330.4 524.153 1329.16 534.448 1333.78 540.66C1324.55 541.548 1317.62 543.855 1312.83 547.228H1366.44C1365.55 546.695 1364.67 545.985 1363.6 545.453C1386.5 539.418 1390.23 512.97 1385.44 504.451C1383.13 500.191 1379.93 496.108 1375.32 494.333C1370.7 492.558 1364.67 494.333 1362.89 498.771C1366.97 498.771 1371.24 499.303 1374.61 501.611C1377.98 503.918 1380.29 508.178 1379.4 512.083C1378.51 515.633 1375.14 518.295 1371.41 519.005C1367.68 519.715 1363.96 518.473 1360.76 516.52C1351.35 510.663 1347.62 497.528 1352.59 487.588C1354.73 483.328 1358.28 479.778 1360.05 475.341C1363.07 468.063 1360.76 459.543 1357.03 452.798C1352.59 444.634 1345.85 437.889 1341.77 429.546C1340.7 427.416 1340.17 425.109 1340.17 422.801C1340.35 414.281 1347.62 412.861 1352.95 409.666C1359.34 405.939 1363.78 398.839 1364.31 391.562C1365.02 384.107 1361.83 376.474 1356.15 371.682C1358.28 374.522 1358.81 378.604 1357.03 381.799C1356.5 382.687 1355.79 383.397 1354.73 383.929C1355.61 377.539 1353.48 370.617 1349.04 366.179C1357.57 362.629 1367.86 363.162 1376.03 367.599C1384.19 372.037 1390.05 380.379 1391.83 389.432C1392.89 395.111 1392.36 400.791 1392.89 406.649C1393.43 412.329 1395.38 418.364 1400 421.736C1403.72 424.399 1408.69 424.931 1413.31 425.641C1417.93 426.351 1422.9 427.416 1425.91 431.144C1428.93 434.694 1428.58 441.439 1424.14 443.036C1428.93 441.616 1432.84 437.356 1433.9 432.564C1434.97 427.594 1433.02 422.269 1429.29 419.074C1423.78 414.459 1414.73 413.926 1411.36 407.714C1407.98 401.501 1413.49 393.336 1420.23 391.917C1427.16 390.497 1434.26 394.401 1438.87 399.549C1449.35 411.264 1450.06 429.191 1445.44 444.101C1440.65 459.011 1425.74 463.981 1425.03 485.636C1423.96 520.248 1384.19 512.793 1396.8 544.21C1433.73 508.356 1452.19 547.583 1486.27 525.75ZM1334.84 399.726C1334.31 402.211 1333.6 404.341 1332 406.294C1328.81 410.376 1322.95 411.796 1319.75 415.701C1314.78 421.736 1318.51 432.209 1325.97 433.984C1322.24 436.469 1316.91 434.516 1313.54 431.321C1310.17 428.304 1307.86 424.221 1304.31 421.381C1298.45 416.944 1289.57 416.766 1283.54 421.204C1278.57 424.931 1275.9 431.144 1271.29 435.226C1263.3 442.149 1249.27 440.551 1243.06 432.031C1240.4 437.711 1244.3 444.811 1249.98 447.651C1255.66 450.313 1262.41 449.604 1268.45 447.829C1274.48 446.054 1280.34 443.569 1286.73 442.859C1294.01 441.971 1302.35 443.924 1305.73 451.023C1307.86 455.461 1306.61 461.318 1302.35 463.803C1297.74 466.466 1292.41 464.336 1288.15 461.673C1284.25 459.188 1280.34 455.993 1275.55 455.816C1270.93 455.461 1265.61 459.721 1267.03 464.158C1272.17 463.093 1277.32 468.418 1276.97 473.743C1276.61 479.068 1271.82 483.328 1266.49 484.216C1261.17 485.103 1255.84 482.973 1251.58 479.778C1247.32 476.583 1244.12 472.146 1240.93 467.886C1261.34 453.508 1219.8 451.556 1234.18 437.889C1226.73 431.321 1190.16 413.394 1184.47 435.404C1190.33 436.114 1196.19 438.244 1201.69 441.616C1201.34 450.668 1189.09 455.283 1181.63 451.733C1177.2 449.603 1174 445.344 1172.76 440.551C1169.38 429.014 1177.37 416.411 1188.2 410.909C1199.03 405.406 1211.64 405.584 1223.71 407.359C1235.6 409.134 1247.5 412.151 1259.57 412.151C1271.64 412.151 1284.42 408.246 1291.88 398.661C1296.14 393.159 1298.09 386.414 1300.93 380.202C1303.77 373.989 1308.03 367.777 1314.6 365.469C1322.59 362.629 1332.36 367.599 1334.84 375.764C1337.33 383.929 1331.82 393.514 1323.66 395.466C1326.5 397.951 1330.76 399.371 1334.84 399.726ZM1402.84 361.564C1393.25 360.499 1384.2 354.642 1379.4 346.299C1376.38 340.974 1374.61 334.584 1369.64 331.39C1363.42 327.485 1355.26 330.147 1348.87 333.875C1339.99 339.022 1332.18 345.767 1323.12 350.737C1314.07 355.529 1303.06 358.192 1293.66 354.287C1287.97 351.802 1283.36 347.187 1277.85 344.347C1265.07 337.779 1247.85 342.394 1240.22 354.464C1237.56 358.547 1235.96 363.517 1236.85 368.309C1237.56 373.102 1240.93 377.717 1245.72 378.782C1250.87 380.024 1256.37 377.184 1259.57 372.924C1262.59 368.487 1263.48 362.984 1263.48 357.659C1269.33 360.144 1271.29 367.954 1268.98 373.812C1266.67 379.669 1261.34 383.752 1255.66 386.769C1245.9 392.094 1234.72 394.756 1223.53 394.579C1211.99 394.401 1200.45 391.207 1188.91 392.271C1176.13 393.514 1164.24 399.904 1154.47 408.246C1144.71 416.589 1136.72 426.884 1128.91 437.001C1132.46 420.316 1142.4 404.164 1155.89 393.869C1161.75 389.432 1168.5 385.704 1171.87 379.314C1174.71 374.167 1174.71 367.954 1174.53 362.097C1174.36 356.239 1174 350.204 1175.78 344.524C1177.55 339.022 1181.63 333.165 1187.49 332.987C1185.18 337.247 1184.47 342.749 1186.78 347.009C1189.09 351.269 1194.95 353.754 1199.21 351.447C1203.83 348.962 1204.71 342.572 1204.18 337.247C1203.65 331.922 1202.58 326.242 1205.07 321.627C1210.93 310.8 1229.74 315.947 1237.91 306.717C1241.99 302.102 1242.17 295.535 1242.7 289.322C1243.24 283.287 1245.19 276.365 1250.69 273.88C1246.08 276.01 1247.14 283.82 1251.76 285.95C1256.37 288.08 1262.05 285.417 1264.72 280.98C1267.38 276.72 1267.74 271.395 1267.38 266.248C1266.49 254.888 1261.52 242.285 1250.87 238.558C1240.04 234.653 1227.26 240.865 1216.96 236.073C1208.97 232.345 1205.25 221.695 1208.8 213.708C1214.65 220.631 1223 228.085 1231.52 224.89C1240.57 221.34 1241.11 209.093 1245.19 200.218C1248.21 194.006 1253.53 189.213 1257.08 183.178C1260.63 177.321 1262.05 168.978 1257.44 163.831C1254.24 160.459 1249.45 159.571 1245.19 157.974C1240.93 156.376 1236.31 153.004 1236.49 148.389C1246.08 150.519 1254.78 140.046 1254.6 130.106C1254.42 120.344 1248.56 111.646 1242.88 103.482C1253.89 105.256 1262.59 114.309 1267.03 124.426C1271.64 134.544 1272.71 145.904 1274.13 156.909C1275.01 164.008 1276.26 171.463 1281.23 176.611C1288.68 184.243 1302.18 182.823 1310.7 176.256C1319.22 169.688 1324.01 159.571 1328.63 149.986C1335.37 161.169 1331.47 176.433 1322.77 186.018C1318.15 191.166 1312.3 195.071 1306.61 198.976C1300.93 202.881 1295.25 207.141 1290.99 212.643C1286.73 218.146 1283.89 225.068 1284.96 231.99C1286.02 238.913 1291.52 245.303 1298.45 245.835C1305.37 246.545 1312.47 239.978 1311.05 233.055C1316.91 231.28 1322.24 238.203 1321.7 244.238C1321.17 250.273 1317.09 255.42 1313.72 260.39C1310.34 265.538 1307.5 271.928 1309.81 277.607C1313.01 285.24 1324.37 286.482 1330.76 281.335C1337.15 276.188 1339.1 267.135 1338.21 258.97C1337.33 250.805 1334.13 243.173 1332 235.185C1329.87 227.198 1328.98 218.501 1332.71 211.046C1336.26 203.591 1345.67 198.621 1353.13 202.348C1341.77 210.336 1339.46 228.44 1348.51 239.09C1353.66 245.303 1361.65 248.853 1366.44 255.243C1372.12 263.053 1371.95 274.59 1365.91 282.222C1362.18 286.837 1356.86 289.855 1352.77 294.115C1348.69 298.375 1346.03 305.12 1349.22 310.09C1351.71 300.327 1365.55 295.89 1373.19 302.457C1378.34 306.895 1380.11 314.35 1385.26 318.61C1389.7 322.337 1395.73 323.047 1401.42 323.402C1407.1 323.757 1413.13 323.935 1418.1 326.597C1423.07 329.26 1426.98 337.069 1424.67 342.394C1423.96 337.779 1416.86 336.359 1413.84 339.909C1410.82 343.459 1412.42 349.494 1416.33 351.979C1420.23 354.464 1425.56 353.577 1429.46 350.914C1422.54 358.724 1412.6 362.629 1402.84 361.564Z" fill="#CEC1A3"/>
<path d="M1407.45 468.241C1405.68 453.686 1391.65 443.391 1386.86 429.546C1384.91 438.244 1390.41 446.586 1393.43 454.929C1398.22 467.886 1396.62 482.973 1389.52 494.688C1400.71 491.671 1408.69 479.778 1407.45 468.241Z" fill="#CEC1A3"/>
<path d="M1444.56 294.293C1450.95 299.972 1460 302.635 1468.52 301.215C1464.08 293.05 1452.72 289.855 1444.56 294.293Z" fill="#CEC1A3"/>
<path d="M1096.07 59.8172C1105.3 63.7221 1113.29 70.1121 1122.52 73.8395C1131.75 77.7445 1143.47 78.632 1150.92 72.0646C1143.82 75.9695 1134.94 74.727 1127.67 71.1771C1120.39 67.6271 1114.35 62.1247 1107.78 57.5097C1101.21 52.8947 1093.76 48.8123 1085.59 48.6348C1077.6 48.6348 1068.9 53.6047 1067.48 61.5922C1075.29 55.2022 1086.83 55.9122 1096.07 59.8172Z" fill="#CEC1A3"/>
<path d="M1186.25 272.815C1196.01 275.655 1205.78 269.443 1210.04 260.035C1206.49 265.005 1199.74 266.248 1193.71 265.893C1187.67 265.538 1181.63 263.94 1175.6 265.005C1172.05 265.715 1168.32 267.845 1168.14 271.395C1170.45 269.088 1174.36 268.733 1177.37 269.62C1180.39 270.33 1183.23 271.928 1186.25 272.815Z" fill="#CEC1A3"/>
<path d="M1293.12 75.082C1290.81 87.8619 1293.83 101.707 1301.47 112.179C1306.26 99.5768 1302.71 84.312 1293.12 75.082Z" fill="#CEC1A3"/>
<path d="M1131.39 509.066C1131.39 509.066 1065.53 512.616 1084.53 465.579C1103.52 418.719 1046 446.231 1070.15 419.429C1095.18 391.917 1043.52 409.312 1061.27 353.045C1064.11 343.992 1070.15 337.425 1060.74 325.355C1037.13 360.499 1017.95 318.787 1017.24 313.817C1016.35 314.705 1015.29 315.77 1014.58 316.835C1004.64 328.55 1001.44 344.17 1014.58 356.95V357.127C1016.71 359.079 1019.2 361.209 1022.21 362.984C1031.44 368.842 1023.28 374.522 1014.76 372.924C1012.45 372.569 1010.14 371.504 1008.19 369.907C1001.8 383.042 1005.35 402.212 1014.76 413.572V413.749C1020.97 421.381 1030.02 425.464 1040.14 421.914C1045.29 463.981 1017.42 466.289 1017.42 466.289C1017.42 466.289 1018.84 500.546 1054.52 496.463C1089.67 515.988 1029.67 520.603 1033.75 547.583C1067.84 536.578 1105.83 503.741 1178.08 547.583C1166.01 511.728 1131.39 509.066 1131.39 509.066Z" fill="#CEC1A3"/>
<path d="M1449.35 173.416C1448.46 163.653 1442.43 154.424 1433.73 149.809C1433.73 159.926 1440.12 169.688 1449.35 173.416Z" fill="#CEC1A3"/>
<path d="M1093.94 337.78C1096.95 344.88 1103.7 349.85 1110.98 351.98C1102.1 342.75 1097.49 329.615 1098.37 316.835C1092.51 321.627 1090.92 330.68 1093.94 337.78Z" fill="#CEC1A3"/>
<path d="M1340.7 75.0819C1343.01 89.9918 1328.45 88.9268 1328.45 88.9268C1328.45 88.9268 1375.85 98.8667 1373.01 132.414C1370.17 165.961 1380.11 164.541 1404.08 171.996C1404.08 171.996 1397.87 192.231 1424.32 187.793C1403.72 157.974 1450.95 121.409 1428.93 121.764C1406.92 122.119 1418.99 102.062 1420.41 82.3594C1415.09 92.6543 1395.02 102.062 1396.45 85.7319C1402.48 77.2119 1402.13 62.6571 1389.34 53.7821C1393.96 60.1721 1383.66 70.6445 1383.66 70.6445C1383.66 70.6445 1383.66 56.6221 1366.27 47.0372C1340.17 32.4823 1312.65 47.0372 1312.65 47.0372C1303.95 53.0721 1301.64 62.3021 1303.24 72.597C1309.46 64.2545 1338.22 60.1721 1340.7 75.0819Z" fill="#CEC1A3"/>
<path d="M1196.9 480.488C1180.92 498.948 1155.54 468.418 1143.29 492.913C1172.76 490.783 1169.21 503.386 1175.95 516.875C1182.17 529.3 1202.58 533.915 1204.89 514.923C1177.91 505.516 1208.97 502.143 1196.9 480.488Z" fill="#CEC1A3"/>
<path d="M1123.23 481.553C1117.37 480.488 1111.16 484.571 1109.56 490.251C1117.37 487.056 1126.96 488.653 1133.35 494.333C1133.52 488.298 1128.91 482.441 1123.23 481.553Z" fill="#CEC1A3"/>
<path d="M1087.19 113.954C1085.41 108.096 1080.44 103.126 1074.58 101.352C1071.21 100.464 1067.66 100.287 1064.47 99.399C1061.09 98.5115 1055.94 95.1391 1055.06 91.7666C1054.35 97.979 1053.81 104.901 1057.9 109.694C1060.74 112.889 1065 114.486 1069.08 115.551C1073.16 116.616 1077.6 117.859 1080.8 120.699C1083.99 123.539 1085.59 128.864 1082.75 132.236C1087.01 127.621 1088.96 119.811 1087.19 113.954Z" fill="#CEC1A3"/>
<path d="M1366.8 430.611C1363.78 438.066 1361.65 446.409 1363.42 454.219C1365.2 462.028 1372.3 469.128 1380.29 468.773C1372.12 462.916 1370.17 451.379 1371.77 441.616C1373.37 431.676 1377.63 422.446 1379.22 412.506C1380.82 402.566 1378.87 391.029 1370.7 385.349C1376.21 391.384 1376.92 400.259 1375.32 408.246C1373.54 415.879 1369.82 423.156 1366.8 430.611Z" fill="#CEC1A3"/>
<path d="M1014.76 490.251C1011.21 486.701 1006.77 484.038 1002.15 482.796C996.649 481.198 990.79 481.198 985.287 479.601C979.783 478.003 971.084 472.678 969.842 466.999C968.599 477.293 967.889 488.831 974.635 496.818C979.251 502.321 986.352 504.628 993.276 506.581C1000.2 508.533 1007.3 510.308 1012.63 515.101C1013.51 515.811 1014.22 516.698 1014.76 517.586V517.763C1018.48 522.733 1019.55 529.655 1015.82 534.27C1022.39 526.461 1025.94 513.681 1022.92 503.741C1021.5 498.416 1018.66 493.801 1014.76 490.251Z" fill="#CEC1A3"/>
<path d="M1047.96 184.421C1050.44 187.971 1051.15 192.941 1049.73 197.023C1054.88 194.183 1055.77 186.551 1053.46 181.049C1051.15 175.546 1046.89 171.286 1043.34 166.316C1039.97 161.524 1037.3 155.134 1039.43 149.631C1033.04 156.731 1033.04 168.801 1039.43 175.901C1042.1 179.096 1045.65 181.226 1047.96 184.421Z" fill="#CEC1A3"/>
<path d="M1986.55 479.601C1981.05 478.003 1972.35 472.678 1971.11 466.999C1969.86 477.293 1969.15 488.831 1975.9 496.818C1980.52 502.321 1987.62 504.628 1994.54 506.581C2001.46 508.533 2008.57 510.308 2013.89 515.101C2014.78 515.811 2015.49 516.698 2016.2 517.586V490.251C2012.65 486.878 2008.21 484.216 2003.6 482.796C1997.91 481.198 1992.23 481.021 1986.55 479.601Z" fill="#CEC1A3"/>
<path d="M2016.2 356.95V316.835C2006.26 328.55 2002.88 344.17 2016.2 356.95Z" fill="#CEC1A3"/>
<path d="M1975.19 462.561C1981.58 468.241 1990.64 470.904 1999.16 469.484C1994.72 461.496 1983.18 458.124 1975.19 462.561Z" fill="#CEC1A3"/>
<path d="M2002 358.37C1997.56 351.802 1989.93 347.72 1982.11 347.72C1986.55 354.11 1994.19 358.192 2002 358.37Z" fill="#CEC1A3"/>
<path d="M1974.84 456.349C1982.47 454.929 1989.39 449.781 1992.94 442.681C1985.13 443.924 1978.21 449.249 1974.84 456.349Z" fill="#CEC1A3"/>
<path d="M2016.2 413.572V372.747C2013.89 372.392 2011.58 371.327 2009.63 369.729C2003.24 383.042 2006.79 402.212 2016.2 413.572Z" fill="#CEC1A3"/>
<path d="M1958.33 547.583H1992.77C1992.23 547.228 1991.7 546.873 1991.17 546.518C1978.21 539.418 1967.91 542.436 1958.33 547.583Z" fill="#CEC1A3"/>
<path d="M1801.74 297.488C1795 289.855 1795.89 276.72 1803.7 270.153C1795.71 271.04 1790.38 279.028 1787.54 286.483C1784.7 293.938 1782.75 302.458 1776.89 307.96C1771.92 312.752 1764.82 314.527 1758.6 317.367C1752.39 320.385 1746.18 325.71 1746.36 332.632C1749.91 326.065 1758.25 323.225 1765.71 324.112C1773.16 324.822 1779.91 328.372 1786.65 331.567C1793.4 334.762 1800.68 337.78 1808.14 337.247C1815.59 336.715 1823.23 331.745 1824.47 324.467C1820.92 325.71 1817.37 326.775 1813.64 326.42C1809.91 325.887 1806.36 323.402 1806.01 319.675C1805.29 313.995 1811.86 310.622 1817.37 309.025C1822.69 307.428 1829.44 304.41 1829.08 298.73C1821.63 305.653 1808.49 305.12 1801.74 297.488Z" fill="#CEC1A3"/>
<path d="M1804.94 387.479C1802.45 395.467 1806.36 404.874 1813.82 408.601C1810.62 396.709 1814.88 383.219 1824.29 375.409C1816.3 374.167 1807.6 379.492 1804.94 387.479Z" fill="#CEC1A3"/>
<path d="M1772.98 257.551C1778.31 254.001 1781.33 247.256 1780.44 240.866C1779.55 234.476 1774.76 228.796 1768.72 226.843C1762.69 224.891 1755.41 226.666 1750.97 231.458C1757.54 231.103 1764.29 233.943 1768.55 238.913C1772.81 244.061 1774.4 251.161 1772.98 257.551Z" fill="#CEC1A3"/>
<path d="M2016.2 103.127V80.9393C2012.29 77.9219 2008.74 74.5494 2006.79 70.1119C2005.73 67.8044 2005.19 66.3845 2005.02 65.142C2003.42 57.687 2003.42 53.9596 1992.94 46.8596C1982.47 39.7597 1958.5 46.8596 1958.5 46.8596C1942.35 55.2021 1928.32 68.5144 1907.02 47.3921C1910.04 86.7968 1966.14 63.1895 1930.45 93.7192C1947.85 109.339 1969.33 93.7192 1970.57 63.1895C1980.69 77.7444 1970.93 92.8317 1963.65 101.884C1956.73 110.582 1952.11 121.054 1950.16 132.059C1949.09 138.271 1949.09 145.016 1952.29 150.519C1955.48 156.021 1962.94 159.216 1968.44 156.021C1964.18 152.826 1960.46 148.744 1958.86 143.596C1957.26 138.449 1958.32 132.414 1962.59 129.041C1966.49 126.024 1971.99 126.201 1976.26 128.509C1980.52 130.816 1983.53 135.076 1985.13 139.691C1989.93 153.181 1983.18 169.689 1970.22 175.724C1964.54 178.386 1958.15 179.096 1952.64 182.291C1943.77 187.438 1939.15 197.733 1937.38 207.851C1935.42 219.566 1936.67 231.636 1934.18 243.173C1933.47 246.9 1931.87 250.273 1929.39 252.935C1922.46 260.213 1914.3 256.13 1906.49 255.065C1899.39 254.178 1892.11 255.775 1886.07 259.503C1883.05 252.225 1879.5 245.125 1877.02 237.67C1873.64 227.731 1872.58 216.193 1877.73 207.141C1880.57 201.993 1886.25 197.911 1891.93 198.798C1896.54 199.686 1899.74 205.011 1898.5 209.093C1902.05 202.171 1900.98 192.941 1895.48 187.438C1885.54 177.321 1865.83 180.161 1858.91 167.914C1852.16 156.376 1862.81 141.289 1858.55 128.509C1856.07 121.054 1848.97 116.084 1842.04 112.179C1835.12 108.274 1827.84 104.369 1823.58 97.6242C1819.32 90.8793 1819.5 78.0994 1826.78 74.9044C1820.21 74.0169 1814.88 81.2943 1814.7 87.8618C1814.7 94.6067 1818.08 100.642 1820.92 106.677C1823.76 112.712 1825.89 119.811 1823.4 126.024C1819.85 134.899 1807.43 137.739 1798.73 133.479C1790.03 129.219 1784.7 120.166 1781.51 111.114C1778.31 102.062 1776.71 92.2992 1772.98 83.4243C1766.24 67.9819 1752.57 55.7346 1736.24 51.1196C1720.08 46.3271 1701.8 49.1671 1687.95 58.752C1672.33 69.2244 1660.96 87.8618 1642.15 90.7017C1632.2 92.1217 1622.08 88.5718 1613.21 83.9568C1604.15 79.3418 1595.81 73.6619 1586.22 70.4669C1576.64 67.272 1565.45 66.7395 1557.11 72.2419C1548.76 77.7444 1544.33 89.2818 1550.72 97.0917C1548.94 90.1693 1554.27 82.8918 1561.01 80.9393C1567.76 78.9869 1575.22 81.4718 1580.9 85.9093C1586.4 90.3468 1590.31 96.3817 1593.68 102.594C1597.05 108.807 1600.25 115.197 1604.86 120.521C1617.82 135.964 1641.97 140.579 1659.72 131.349C1669.66 126.201 1677.3 117.327 1686.88 111.469C1694.87 106.499 1704.28 103.482 1713.51 105.079C1722.74 106.677 1731.44 113.422 1733.4 122.474C1735.35 131.526 1729.31 142.354 1720.08 143.596C1711.38 144.839 1703.57 138.626 1694.87 137.384C1683.15 135.786 1670.91 145.194 1669.66 157.086C1668.6 167.204 1675.17 175.191 1684.57 177.853C1686 178.918 1687.77 179.273 1689.55 178.741C1687.77 178.563 1686.17 178.386 1684.57 177.853C1682.09 176.256 1680.49 172.884 1681.02 169.866C1681.91 165.074 1686.35 161.701 1690.97 160.104C1701.44 156.554 1715.29 162.056 1717.24 172.884C1718.48 179.451 1715.11 186.196 1709.96 190.278C1704.81 194.361 1697.89 195.958 1691.32 195.958C1679.78 195.958 1668.77 191.166 1658.66 185.841C1648.54 180.338 1638.77 173.949 1627.94 170.044C1617.11 166.139 1604.69 164.896 1594.21 169.689C1583.74 174.481 1576.46 183.888 1579.65 195.071C1585.69 187.793 1595.46 183.888 1604.86 185.308C1614.27 186.551 1622.62 192.941 1626.52 201.638C1629.72 208.738 1629.72 216.903 1632.2 224.181C1636.11 236.073 1646.58 245.658 1658.83 248.32C1667.53 250.273 1676.59 248.853 1685.28 247.61C1694.16 246.368 1703.04 244.948 1711.74 246.9C1720.44 248.853 1728.78 254.71 1731.09 263.23C1732.69 269.443 1730.91 276.01 1727.54 281.335C1724.16 286.66 1719.19 290.92 1713.87 294.47C1706.06 299.795 1695.4 304.232 1687.42 298.907C1682.98 295.89 1680.67 290.743 1676.41 287.548C1668.77 282.045 1656.35 286.838 1654.22 296.067C1659.37 292.34 1667.53 294.825 1669.84 300.682C1673.92 310.977 1657.95 319.675 1649.78 320.207C1640.55 320.74 1631.49 313.995 1628.65 305.12C1625.99 296.245 1629.36 285.95 1636.46 279.738C1624.75 280.093 1614.63 289.855 1611.43 301.215C1608.24 312.575 1611.08 324.822 1616.58 335.295C1620.49 342.75 1625.99 349.672 1627.77 358.014C1629.72 366.534 1627.23 376.119 1620.49 381.622C1613.92 387.124 1603.09 387.657 1596.7 381.622C1590.48 375.587 1590.84 363.694 1598.3 359.079C1589.42 358.547 1582.32 367.777 1582.14 376.652C1581.79 385.527 1586.4 393.869 1591.37 401.147C1596.17 408.601 1601.67 416.056 1603.44 424.754C1605.57 434.871 1602.2 445.521 1596.88 454.396C1591.55 463.271 1592.97 489.541 1598.12 489.541C1606.82 465.223 1626.35 469.838 1643.21 469.306C1652.26 468.951 1661.32 470.903 1670.37 472.146C1679.43 473.388 1688.84 473.921 1697.36 470.726C1705.88 467.531 1713.33 460.076 1713.87 450.846C1713.87 450.669 1713.87 450.491 1713.87 450.314C1730.2 466.821 1736.95 491.316 1716.35 498.771C1714.04 499.658 1712.09 500.901 1710.67 502.676C1704.46 510.663 1722.03 510.308 1711.91 517.941C1719.02 523.265 1729.13 501.788 1728.42 519.716C1727.54 538.53 1763.58 520.426 1753.28 546.518C1753.99 546.873 1754.7 546.873 1755.41 547.05H1757.01C1762.51 546.518 1768.55 540.483 1770.85 535.69C1774.58 527.703 1769.61 517.941 1772.45 509.598C1775.29 501.256 1784.88 497.351 1793.58 496.463C1797.48 496.108 1801.57 496.286 1804.94 498.238C1808.31 500.191 1810.44 504.628 1808.85 508.178C1807.25 511.728 1794.82 512.261 1794.29 508.711C1792.34 519.361 1806.89 514.746 1811.51 515.101C1816.12 515.456 1821.27 515.633 1824.82 518.651C1831.04 523.976 1829.79 534.27 1834.41 540.483C1825.18 541.37 1818.25 543.678 1813.46 547.05H1867.07C1866.19 546.518 1865.3 545.808 1864.23 545.275C1887.14 539.24 1890.86 512.793 1886.07 504.273C1883.76 500.013 1880.57 495.931 1875.95 494.156C1871.34 492.381 1865.3 494.156 1863.52 498.593C1867.61 498.593 1871.87 499.126 1875.24 501.433C1878.61 503.741 1880.92 508.001 1880.03 511.906C1879.15 515.456 1875.77 518.118 1872.05 518.828C1868.32 519.538 1864.59 518.296 1861.39 516.343C1851.98 510.486 1848.26 497.351 1853.23 487.411C1855.36 483.151 1858.91 479.601 1860.68 475.163C1863.7 467.886 1861.39 459.366 1857.67 452.621C1853.23 444.456 1846.48 437.711 1842.4 429.369C1841.33 427.239 1840.8 424.931 1840.8 422.624C1840.98 414.104 1848.26 412.684 1853.58 409.489C1859.97 405.762 1864.41 398.662 1864.94 391.384C1865.65 383.929 1862.46 376.297 1856.78 371.504C1858.91 374.344 1859.44 378.427 1857.67 381.622C1857.13 382.509 1856.42 383.219 1855.36 383.752C1856.25 377.362 1854.12 370.439 1849.68 366.002C1858.2 362.452 1868.5 362.984 1876.66 367.422C1884.83 371.859 1890.69 380.202 1892.46 389.254C1893.53 394.934 1892.99 400.614 1893.53 406.472C1894.06 412.151 1896.01 418.186 1900.63 421.559C1904.36 424.221 1909.33 424.754 1913.94 425.464C1918.56 426.174 1923.53 427.239 1926.55 430.966C1929.57 434.516 1929.21 441.261 1924.77 442.859C1929.57 441.439 1933.47 437.179 1934.54 432.386C1935.6 427.416 1933.65 422.091 1929.92 418.896C1924.42 414.281 1915.36 413.749 1911.99 407.537C1908.62 401.324 1914.12 393.159 1920.87 391.739C1927.79 390.319 1934.89 394.224 1939.51 399.372C1949.98 411.086 1950.69 429.014 1946.08 443.924C1941.28 458.834 1926.37 463.804 1925.66 485.458C1924.59 520.071 1884.83 512.616 1897.43 544.033C1934.36 508.178 1952.82 547.405 1986.91 525.573C1928.68 493.268 1957.26 426.706 2000.93 426.706C2002.35 395.999 1988.86 363.339 1962.23 347.897C1954.24 343.282 1943.06 338.135 1941.46 329.082C1949.63 331.922 1959.39 329.97 1965.78 324.112C1958.33 327.13 1948.92 323.58 1945.19 316.48C1942.7 311.51 1942.7 305.475 1939.68 300.86C1937.02 296.422 1932.05 293.937 1927.26 292.34C1920.87 290.21 1914.12 289.323 1907.2 289.678C1908.44 288.258 1909.68 286.838 1910.92 285.595C1914.65 281.335 1919.09 276.898 1924.59 275.655C1931.16 274.235 1938.26 277.43 1944.83 276.01C1954.6 273.88 1959.57 260.213 1953.35 252.225C1959.21 252.758 1962.94 258.97 1963.83 264.828C1964.72 270.685 1963.83 276.72 1965.25 282.4C1967.56 291.808 1976.61 299.085 1986.2 299.262C1994.36 299.44 2002 295.18 2009.99 295.002C2012.12 295.002 2014.07 295.18 2016.02 295.712V281.868C2010.7 279.915 2005.19 277.963 2000.4 274.945C1992.06 269.798 1984.95 260.745 1987.79 250.628C1989.39 244.593 1995.07 240.155 2001.46 240.865C2008.39 241.753 2012.12 248.498 2014.25 254.71C2014.96 256.663 2015.49 258.615 2016.2 260.745V118.392C2013.18 115.552 2011.23 111.824 2012.47 107.742C2013 105.967 2014.42 104.192 2016.2 103.127ZM1835.65 399.549C1835.12 402.034 1834.41 404.164 1832.81 406.117C1829.62 410.199 1823.76 411.619 1820.56 415.524C1815.59 421.559 1819.32 432.031 1826.78 433.806C1823.05 436.291 1817.72 434.339 1814.35 431.144C1810.98 428.126 1808.67 424.044 1805.12 421.204C1799.26 416.766 1790.38 416.589 1784.35 421.026C1779.38 424.754 1776.71 430.966 1772.1 435.049C1764.11 441.971 1750.08 440.374 1743.87 431.854C1741.21 437.534 1745.11 444.634 1750.79 447.474C1756.47 450.136 1763.22 449.426 1769.26 447.651C1775.29 445.876 1781.15 443.391 1787.54 442.681C1794.82 441.794 1803.16 443.746 1806.54 450.846C1808.67 455.284 1807.43 461.141 1803.16 463.626C1798.55 466.289 1793.22 464.159 1788.96 461.496C1785.06 459.011 1781.15 455.816 1776.36 455.639C1771.74 455.284 1766.42 459.544 1767.84 463.981C1772.98 462.916 1778.13 468.241 1777.78 473.566C1777.42 478.891 1772.63 483.151 1767.3 484.038C1761.98 484.926 1756.65 482.796 1752.39 479.601C1748.13 476.406 1744.93 471.968 1741.74 467.708C1762.16 453.331 1720.61 451.379 1734.99 437.711C1727.54 431.144 1690.97 413.216 1685.28 435.226C1691.14 435.936 1697 438.066 1702.51 441.439C1702.15 450.491 1689.9 455.106 1682.44 451.556C1678.01 449.426 1674.81 445.166 1673.57 440.374C1670.19 428.836 1678.18 416.234 1689.01 410.731C1699.84 405.229 1712.45 405.407 1724.52 407.181C1736.41 408.956 1748.31 411.974 1760.38 411.974C1772.45 411.974 1785.23 408.069 1792.69 398.484C1796.95 392.982 1798.9 386.237 1801.74 380.024C1804.58 373.812 1808.85 367.599 1815.41 365.292C1823.4 362.452 1833.17 367.422 1835.65 375.587C1838.14 383.752 1832.63 393.337 1824.47 395.289C1827.31 397.952 1831.39 399.372 1835.65 399.549ZM1918.38 327.307C1923.35 329.97 1927.26 337.78 1924.95 343.105C1924.24 338.49 1917.14 337.07 1914.12 340.62C1911.1 344.17 1912.7 350.204 1916.61 352.689C1920.51 355.174 1925.84 354.287 1929.74 351.624C1923.35 358.902 1913.23 362.807 1903.65 361.742C1894.06 360.677 1885.01 354.819 1880.21 346.477C1877.19 341.152 1875.42 334.762 1870.45 331.567C1864.23 327.662 1856.07 330.325 1849.68 334.052C1840.8 339.2 1832.99 345.945 1823.94 350.914C1814.88 355.707 1803.87 358.369 1794.47 354.464C1788.78 351.979 1784.17 347.365 1778.67 344.525C1765.88 337.957 1748.66 342.572 1741.03 354.642C1738.37 358.724 1736.77 363.694 1737.66 368.487C1738.37 373.279 1741.74 377.894 1746.53 378.959C1751.68 380.202 1757.18 377.362 1760.38 373.102C1763.4 368.664 1764.29 363.162 1764.29 357.837C1770.14 360.322 1772.1 368.132 1769.79 373.989C1767.48 379.847 1762.16 383.929 1756.47 386.947C1746.71 392.272 1735.53 394.934 1724.34 394.757C1712.8 394.579 1701.26 391.384 1689.72 392.449C1676.94 393.692 1665.05 400.082 1655.28 408.424C1645.52 416.766 1637.53 427.061 1629.72 437.179C1633.27 420.494 1643.21 404.342 1656.7 394.047C1662.56 389.609 1669.31 385.882 1672.68 379.492C1675.52 374.344 1675.52 368.132 1675.34 362.274C1675.17 356.417 1674.81 350.382 1676.59 344.702C1678.36 339.2 1682.44 333.342 1688.3 333.165C1686 337.425 1685.28 342.927 1687.59 347.187C1689.9 351.447 1695.76 353.932 1700.02 351.624C1704.64 349.14 1705.52 342.75 1704.99 337.425C1704.46 332.1 1703.39 326.42 1705.88 321.805C1711.74 310.977 1730.55 316.125 1738.72 306.895C1742.8 302.28 1742.98 295.712 1743.51 289.5C1744.05 283.465 1746 276.543 1751.5 274.058C1746.89 276.188 1747.95 283.998 1752.57 286.128C1757.18 288.258 1762.87 285.595 1765.53 281.158C1768.19 276.898 1768.55 271.573 1768.19 266.425C1767.3 255.065 1762.33 242.463 1751.68 238.735C1740.85 234.83 1728.07 241.043 1717.77 236.25C1709.78 232.523 1706.06 221.873 1709.61 213.886C1715.46 220.808 1723.81 228.263 1732.33 225.068C1741.38 221.518 1741.92 209.271 1746 200.396C1749.02 194.183 1754.34 189.391 1757.89 183.356C1761.44 177.499 1762.87 169.156 1758.25 164.009C1755.05 160.636 1750.26 159.749 1746 158.151C1741.74 156.554 1737.12 153.181 1737.3 148.566C1746.89 150.696 1755.59 140.224 1755.41 130.284C1755.23 120.521 1749.37 111.824 1743.69 103.659C1754.7 105.434 1763.4 114.487 1767.84 124.604C1772.45 134.721 1773.52 146.081 1774.94 157.086C1775.82 164.186 1777.07 171.641 1782.04 176.788C1789.49 184.421 1802.99 183.001 1811.51 176.434C1820.03 169.866 1824.82 159.749 1829.44 150.164C1836.18 161.346 1832.28 176.611 1823.58 186.196C1818.96 191.343 1813.11 195.248 1807.42 199.153C1801.74 203.058 1796.06 207.318 1791.8 212.821C1787.54 218.323 1784.7 225.246 1785.77 232.168C1786.83 239.09 1792.34 245.48 1799.26 246.013C1806.18 246.723 1813.28 240.155 1811.86 233.233C1817.72 231.458 1823.05 238.38 1822.51 244.415C1821.98 250.45 1817.9 255.598 1814.53 260.568C1811.15 265.715 1808.31 272.105 1810.62 277.785C1813.82 285.418 1825.18 286.66 1831.57 281.513C1837.96 276.365 1839.91 267.313 1839.03 259.148C1838.14 250.983 1834.94 243.35 1832.81 235.363C1830.68 227.376 1829.79 218.678 1833.52 211.223C1837.07 203.768 1846.48 198.798 1853.94 202.526C1842.58 210.513 1840.27 228.618 1849.32 239.268C1854.47 245.48 1862.46 249.03 1867.25 255.42C1872.93 263.23 1872.76 274.768 1866.72 282.4C1862.99 287.015 1857.67 290.033 1853.58 294.292C1849.5 298.552 1846.84 305.297 1850.03 310.267C1852.52 300.505 1866.36 296.067 1874 302.635C1879.15 307.072 1880.92 314.527 1886.07 318.787C1890.51 322.515 1896.54 323.225 1902.23 323.58C1907.37 324.29 1913.41 324.467 1918.38 327.307Z" fill="#CEC1A3"/>
<path d="M1908.08 468.063C1906.31 453.508 1892.28 443.214 1887.49 429.369C1885.54 438.066 1891.04 446.409 1894.06 454.751C1898.85 467.708 1897.25 482.796 1890.15 494.511C1901.34 491.493 1909.5 479.601 1908.08 468.063Z" fill="#CEC1A3"/>
<path d="M1945.37 294.293C1951.76 299.972 1960.81 302.635 1969.33 301.215C1964.89 293.05 1953.35 289.855 1945.37 294.293Z" fill="#CEC1A3"/>
<path d="M1596.88 59.8172C1606.11 63.7221 1614.1 70.1121 1623.33 73.8395C1632.56 77.7445 1644.28 78.632 1651.73 72.0646C1644.63 75.9695 1635.75 74.727 1628.48 71.1771C1621.2 67.6271 1615.16 62.1247 1608.59 57.5097C1602.02 52.8947 1594.57 48.8123 1586.4 48.6348C1578.41 48.6348 1569.71 53.6047 1568.29 61.5922C1575.93 55.0247 1587.64 55.9122 1596.88 59.8172Z" fill="#CEC1A3"/>
<path d="M1686.88 272.815C1696.65 275.655 1706.41 269.443 1710.67 260.035C1707.12 265.005 1700.38 266.248 1694.34 265.893C1688.3 265.538 1682.27 263.94 1676.23 265.005C1672.68 265.715 1668.95 267.845 1668.78 271.395C1671.08 269.088 1674.99 268.733 1678.01 269.62C1681.02 270.33 1683.87 271.928 1686.88 272.815Z" fill="#CEC1A3"/>
<path d="M1793.76 75.082C1791.45 87.8619 1794.47 101.707 1802.1 112.179C1806.89 99.5768 1803.52 84.312 1793.76 75.082Z" fill="#CEC1A3"/>
<path d="M1632.2 509.066C1632.2 509.066 1566.34 512.616 1585.34 465.579C1604.33 418.719 1546.81 446.231 1570.96 419.429C1595.99 391.917 1544.33 409.312 1562.08 353.045C1564.92 343.992 1570.96 337.425 1561.55 325.355C1537.94 360.499 1518.76 318.787 1518.05 313.817C1517.17 314.705 1516.1 315.77 1515.39 316.835C1505.45 328.55 1502.25 344.17 1515.39 356.95C1517.52 358.902 1520.01 361.032 1523.02 362.807C1532.26 368.664 1523.91 374.522 1515.39 372.747C1513.08 372.392 1510.77 371.327 1508.82 369.729C1502.43 382.864 1505.98 402.034 1515.39 413.572C1521.6 421.204 1530.66 425.286 1540.78 421.736C1545.93 463.804 1518.05 466.111 1518.05 466.111C1518.05 466.111 1519.47 500.368 1555.16 496.286C1590.31 515.811 1530.3 520.426 1534.39 547.405C1568.47 536.4 1606.46 503.563 1678.72 547.405C1666.64 511.728 1632.2 509.066 1632.2 509.066Z" fill="#CEC1A3"/>
<path d="M1950.16 173.416C1949.27 163.653 1943.23 154.424 1934.54 149.809C1934.36 159.749 1940.75 169.688 1950.16 173.416Z" fill="#CEC1A3"/>
<path d="M1594.57 337.602C1597.59 344.702 1604.33 349.672 1611.61 351.802C1602.73 342.572 1598.12 329.437 1599.01 316.657C1593.15 321.45 1591.55 330.68 1594.57 337.602Z" fill="#CEC1A3"/>
<path d="M1841.33 75.0818C1843.64 89.9917 1829.08 88.9267 1829.08 88.9267C1829.08 88.9267 1876.48 98.8666 1873.64 132.414C1870.8 165.961 1880.75 164.541 1904.71 171.996C1904.71 171.996 1898.5 192.231 1924.95 187.793C1904.36 157.974 1951.58 121.409 1929.57 121.764C1907.55 122.119 1919.62 102.062 1921.04 82.3592C1915.72 92.6541 1895.66 102.062 1897.08 85.7317C1903.11 77.2118 1902.76 62.6569 1889.98 53.782C1894.59 60.1719 1884.3 70.6443 1884.3 70.6443C1884.3 70.6443 1876.84 47.747 1857.49 44.3746C1830.5 39.7596 1813.28 46.8595 1813.28 46.8595C1804.59 52.8945 1802.28 62.1244 1803.88 72.4193C1810.09 64.2544 1839.03 60.1719 1841.33 75.0818Z" fill="#CEC1A3"/>
<path d="M1697.53 480.488C1681.56 498.948 1656.17 468.418 1643.92 492.913C1673.39 490.783 1669.84 503.386 1676.59 516.875C1682.8 529.3 1703.22 533.915 1705.52 514.923C1678.54 505.516 1709.78 502.143 1697.53 480.488Z" fill="#CEC1A3"/>
<path d="M1623.86 481.553C1618 480.488 1611.79 484.571 1610.19 490.251C1618 487.056 1627.59 488.653 1633.98 494.333C1634.33 488.298 1629.72 482.441 1623.86 481.553Z" fill="#CEC1A3"/>
<path d="M1588 113.954C1586.22 108.096 1581.25 103.126 1575.39 101.352C1572.02 100.464 1568.47 100.287 1565.27 99.399C1561.9 98.5115 1556.75 95.1391 1555.87 91.7666C1555.16 97.979 1554.62 104.901 1558.71 109.694C1561.55 112.889 1565.81 114.486 1569.89 115.551C1573.97 116.616 1578.41 117.859 1581.61 120.699C1584.8 123.539 1586.4 128.864 1583.56 132.236C1587.64 127.621 1589.77 119.811 1588 113.954Z" fill="#CEC1A3"/>
<path d="M1867.43 430.611C1864.41 438.066 1862.28 446.409 1864.06 454.219C1865.83 462.028 1872.93 469.128 1880.92 468.773C1872.76 462.916 1870.8 451.379 1872.4 441.616C1874 431.676 1878.26 422.446 1879.86 412.506C1881.45 402.566 1879.5 391.029 1871.34 385.349C1876.84 391.384 1877.55 400.259 1875.95 408.246C1874.35 415.879 1870.45 422.979 1867.43 430.611Z" fill="#CEC1A3"/>
<path d="M1515.39 490.074C1511.84 486.701 1507.4 484.039 1502.78 482.619C1497.28 481.021 1491.42 481.021 1485.92 479.424C1480.42 477.826 1471.72 472.501 1470.47 466.821C1469.23 477.116 1468.52 488.654 1475.27 496.641C1479.88 502.143 1486.98 504.451 1493.91 506.403C1500.83 508.356 1507.93 510.131 1513.26 514.923C1514.15 515.633 1514.86 516.521 1515.57 517.408C1519.3 522.378 1520.36 529.301 1516.63 533.916C1523.2 526.106 1526.75 513.326 1523.73 503.386C1522.14 498.416 1519.3 493.801 1515.39 490.074Z" fill="#CEC1A3"/>
<path d="M1548.76 184.421C1551.25 187.971 1551.96 192.941 1550.54 197.023C1555.69 194.183 1556.58 186.551 1554.27 181.049C1551.96 175.546 1547.7 171.286 1544.15 166.316C1540.78 161.524 1538.11 155.134 1540.24 149.631C1533.85 156.731 1533.85 168.801 1540.24 175.901C1542.91 178.919 1546.46 181.226 1548.76 184.421Z" fill="#CEC1A3"/>
</svg>
