<svg width="111" height="140" viewBox="0 0 111 140" fill="none" xmlns="http://www.w3.org/2000/svg">
<path d="M13.4282 50.8541C13.4282 30.0114 28.4349 12.5036 48.2771 8.66854C48.2771 8.33506 48.4438 8.00157 48.4438 7.66809C27.9347 11.3364 12.4277 29.3445 12.4277 50.8541V61.3588C12.7612 61.3588 13.0947 61.192 13.4282 61.0253V50.8541Z" fill="white"/>
<path d="M83.6261 17.8393C84.1263 17.8393 84.4598 17.6726 84.96 17.6726C78.7906 12.3368 71.1205 8.66853 62.6167 7.50134C62.4499 7.83483 62.4499 8.16831 62.2832 8.50179C70.2868 9.50224 77.6234 12.8371 83.6261 17.8393Z" fill="white"/>
<path d="M99.2999 42.35C98.9665 42.5167 98.7997 42.6835 98.4662 42.8502C98.9665 45.3513 99.1332 48.0192 99.1332 50.8538V84.7023V95.8739C99.1332 119.551 79.958 138.726 56.2807 138.726C37.6057 138.726 21.7652 126.721 15.9293 110.214C14.2619 105.712 13.4282 100.876 13.4282 95.8739V94.2065L13.2614 94.3732C13.0947 94.7067 12.7612 95.0402 12.4277 95.207V95.8739C12.4277 100.876 13.2614 105.545 14.7621 110.047C20.5981 127.221 37.1054 139.727 56.2807 139.727C78.2905 139.727 96.4653 123.386 99.6334 102.377C99.9669 100.209 100.134 98.0416 100.134 95.8739V50.8538C100.134 48.0192 99.8002 45.1846 99.2999 42.35Z" fill="white"/>
<path d="M20.5996 44.518C21.0998 43.1841 22.6005 42.3504 23.9344 42.5171C25.2684 42.6839 26.6023 43.5176 27.436 44.518C25.1016 43.5176 22.6005 43.5176 20.5996 44.518Z" fill="white"/>
<path d="M26.6013 82.3682C27.7685 80.8675 27.6017 78.5331 26.4345 77.1992C26.9348 78.1997 26.4345 79.5336 25.7676 80.534C25.1006 81.5345 24.2669 82.3682 23.9334 83.5354C23.5999 84.7026 23.7667 86.0365 24.7671 86.7035C24.4337 85.8698 24.6004 84.8693 24.9339 84.2023C25.4341 83.3686 26.1011 82.8684 26.6013 82.3682Z" fill="white"/>
<path d="M19.5991 102.877C19.5991 97.3749 25.2683 100.043 27.2692 104.378C29.6035 109.214 38.9411 108.38 37.9406 102.21C34.9393 106.546 32.6049 104.712 32.6049 102.044C32.6049 99.3758 28.6031 96.5412 26.4355 100.376C24.7681 96.708 29.2701 95.0405 29.2701 95.0405C22.4337 91.2055 30.4373 87.8707 25.9352 88.2042C24.768 88.2042 23.4341 87.5372 22.7672 86.5367C21.7667 85.3696 22.2669 83.7021 22.7672 82.2015C23.6009 80.3673 24.7681 78.5332 25.6018 76.5323C26.4355 74.5314 26.6022 72.3637 25.6018 70.5296C24.9348 69.3624 23.9343 68.5287 23.2674 67.5282C21.6 65.0271 22.2669 61.5256 24.4346 59.6914C25.2683 59.0244 26.102 58.6909 27.1024 58.6909C28.1029 58.6909 29.1033 59.3579 29.4368 60.1916C29.7703 61.1921 29.4368 62.3593 28.6031 63.193C27.7694 63.8599 26.7689 64.1934 25.6018 64.3601C26.2687 65.5273 27.9361 65.6941 28.9366 65.0271C30.1038 64.3601 30.7707 63.193 31.271 62.0258C32.1047 59.8581 32.4382 57.5238 32.1047 55.3561C31.7712 53.0217 30.9375 50.6874 30.7707 48.353C30.7707 45.6851 31.7712 43.184 33.2719 41.0164C34.7725 38.8487 36.6067 37.0146 38.4408 35.1804C35.106 36.3476 32.1047 38.682 30.2705 41.6833C29.4368 43.0173 28.9366 44.3512 27.6026 45.1849C26.6022 45.8519 25.435 46.0186 24.1011 46.1853C22.9339 46.3521 21.6 46.3521 20.5995 46.8523C19.4323 47.3525 18.4319 48.353 18.5986 49.5202C19.4323 49.0199 20.4328 48.6865 21.4332 49.02C22.4337 49.3534 22.9339 50.5206 22.6004 51.5211C22.2669 52.5215 20.933 52.855 19.9326 52.855C18.9321 52.855 17.5982 52.855 16.7645 53.3552C14.7636 54.8559 16.2643 58.5242 14.4301 60.3584C14.0966 60.6918 13.5964 61.0253 13.0962 61.1921C12.7627 61.3588 12.4292 61.3588 12.0957 61.5255C11.7622 61.6923 11.262 61.6923 10.9285 61.6923C9.76133 62.0258 8.42741 62.526 7.92719 63.6932C8.26067 62.6927 9.92808 62.6927 10.4283 63.6932C10.9285 64.5269 10.595 65.8608 9.76134 66.361C8.92763 67.028 7.92719 67.5282 6.92674 67.1948C1.25754 65.8608 0.423828 71.53 0.423828 71.53C1.75776 71.53 3.25843 72.5305 3.59191 73.8644C3.92539 75.1983 2.75821 76.8657 1.25753 76.699C1.09079 77.8662 2.59146 78.8666 3.75865 78.5332C4.92584 78.3664 6.09303 77.5327 6.92674 76.5323C7.42696 75.8653 8.42741 75.6986 9.5946 76.032C11.262 76.5323 11.5955 78.6999 10.7618 80.2006C10.2616 81.0343 8.76089 81.5345 7.09348 81.5345C5.42607 81.5345 2.7582 81.201 2.7582 84.7026C2.7582 84.7026 4.59236 82.2015 6.92674 83.7021C8.26067 84.5358 5.25932 86.8702 6.75999 88.5376C9.26111 84.5358 13.0962 90.7053 9.92808 92.7062C8.92763 93.3731 7.5937 93.7066 5.5928 91.8725C4.92584 94.5403 6.75999 95.7075 8.26066 96.041C9.59459 96.3745 11.0953 96.2077 12.0957 95.374C12.4292 95.2073 12.7627 94.8738 12.9294 94.5403L13.0962 94.3736C13.7631 93.5399 15.0971 93.0396 16.0975 93.5399C14.4301 94.0401 13.4296 103.044 19.5991 102.877Z" fill="white"/>
<path d="M109.805 3.66638C108.138 10.8363 103.469 16.5055 93.9646 17.1724C90.9633 17.3392 87.7952 17.3392 84.9606 17.6726C84.4604 17.6726 84.1269 17.6726 83.6267 17.8394C78.1242 18.5063 73.7889 20.1738 73.7889 26.8434C73.6222 37.3481 76.29 46.3521 64.6182 49.02C64.6182 49.02 64.6182 48.1863 64.6182 47.6861C65.2851 47.3526 65.9521 47.1859 66.619 46.6856C69.1202 45.185 70.1206 41.8501 68.7867 39.1823C68.9534 41.0164 67.6195 42.5171 66.2856 43.5175C65.7853 44.0178 65.1184 44.3513 64.6182 44.6847C64.6182 44.1845 64.6182 43.851 64.4514 43.3508C64.6182 43.1841 64.7849 43.1841 64.9516 43.0173C67.4527 41.5167 68.4532 38.1818 67.1193 35.514C67.286 37.3481 64.6181 40.1827 63.9512 40.1827C62.9507 32.8461 60.4496 26.1765 54.1134 23.1751C45.6096 19.0066 41.4411 26.6767 40.7741 28.8443C40.7741 29.0111 40.6074 29.1778 40.2739 29.1778C38.273 29.678 33.771 31.0119 32.4371 33.3463C32.1036 33.8465 32.7706 34.3468 33.2708 34.18C35.4384 33.0128 40.2739 31.3454 44.109 33.6798L38.7733 40.1827L45.9431 35.514C46.2766 35.8475 46.4433 36.3477 46.7768 36.6812C51.6123 44.8515 35.7719 55.5229 36.2721 71.6968C36.6056 87.8707 53.113 91.0388 73.4554 89.8716C77.4572 89.7049 84.2936 89.3714 88.6289 89.3714C90.9633 89.3714 92.9642 91.2055 93.1309 93.5399C93.1309 93.5399 93.1309 93.5399 93.1309 93.7067C93.1309 95.5408 92.2972 97.2082 90.6298 97.8752C84.2936 100.71 79.9584 105.379 76.957 110.881C74.7894 111.215 69.9539 112.215 66.9525 114.216C69.1202 114.549 71.2878 114.549 73.2887 114.383C68.4532 115.716 62.117 117.717 57.4483 119.218C59.4492 119.885 62.117 119.885 64.9516 119.552C58.6155 121.552 50.9454 123.387 44.6092 122.553C47.6105 125.721 54.7804 125.387 61.7835 124.054C60.9498 124.387 60.1161 124.721 59.4492 125.054C59.4492 125.054 51.6123 127.722 45.1094 125.054C46.9436 126.888 49.1112 128.222 50.9454 129.056C38.1063 126.388 36.7724 117.717 36.6056 116.884C36.9391 121.886 39.607 125.554 42.6083 127.889C32.2703 122.72 29.4357 110.047 29.4357 110.047C29.1023 115.216 30.2694 119.218 32.1036 122.386C25.2672 114.883 25.4339 103.878 25.4339 103.878C24.4335 107.046 24.1 109.881 24.4335 112.382C23.0996 110.381 21.4321 107.88 19.2645 106.379C19.598 109.214 20.7652 111.881 21.7656 113.716L20.9319 113.215C19.2645 110.881 17.2636 107.379 16.7634 103.544C15.9297 106.046 15.9297 108.547 15.9297 110.548C16.0964 111.048 16.2632 111.548 16.5967 112.048C16.5967 112.215 16.7634 112.382 16.7634 112.548C16.9301 112.882 17.0969 113.215 17.2636 113.549C17.4304 113.716 17.4304 113.882 17.5971 114.216C17.7638 114.549 17.9306 114.883 18.0973 115.05C18.2641 115.216 18.2641 115.383 18.4308 115.717C18.5975 116.05 18.7643 116.217 18.931 116.55C19.0978 116.717 19.0978 117.05 19.2645 117.217C19.4313 117.551 19.598 117.717 19.7647 118.051C19.9315 118.218 20.0982 118.551 20.0982 118.718C20.265 119.051 20.4317 119.218 20.5984 119.552C20.7652 119.718 20.9319 120.052 21.0987 120.219C21.2654 120.385 21.4322 120.719 21.5989 120.885C21.7656 121.052 21.9324 121.219 22.0991 121.552C22.2659 121.719 22.4326 122.053 22.5993 122.219C22.7661 122.386 22.9328 122.553 23.0996 122.886C23.2663 123.053 23.4331 123.387 23.5998 123.553C23.7665 123.72 23.9333 123.887 24.1 124.22C24.2668 124.387 24.4335 124.721 24.6002 124.887C24.767 125.054 24.9337 125.221 25.1005 125.388C25.2672 125.554 25.4339 125.888 25.7674 126.054C25.9342 126.221 26.1009 126.388 26.2677 126.555C26.4344 126.721 26.6011 126.888 26.9346 127.222C27.1014 127.388 27.2681 127.555 27.4348 127.722C27.6016 127.889 27.9351 128.055 28.1018 128.389C28.2685 128.556 28.4353 128.722 28.7688 128.889C28.9355 129.056 29.269 129.223 29.4357 129.389C29.6025 129.556 29.7692 129.723 30.1027 129.89C30.2694 130.056 30.6029 130.223 30.7697 130.39C30.9364 130.556 31.2699 130.723 31.4366 130.89C31.6034 131.057 31.9369 131.223 32.1036 131.39C32.2703 131.557 32.6038 131.724 32.7706 131.89C32.9373 132.057 33.2708 132.224 33.4375 132.391C33.6043 132.557 33.9377 132.724 34.1045 132.891C34.2712 133.058 34.6047 133.224 34.7715 133.391C34.9382 133.558 35.2717 133.725 35.4384 133.725C35.6052 133.891 35.9387 134.058 36.1054 134.225C36.2721 134.392 36.6056 134.558 36.7723 134.558C37.1058 134.725 37.2726 134.892 37.6061 134.892C37.7728 135.058 38.1063 135.059 38.273 135.225C38.6065 135.392 38.7732 135.392 39.1067 135.559C39.2735 135.725 39.607 135.725 39.7737 135.892C40.1072 136.059 40.2739 136.059 40.6074 136.226C40.7741 136.392 41.1076 136.392 41.2744 136.559C41.6079 136.726 41.7746 136.726 42.1081 136.893C42.4416 137.059 42.6083 137.059 42.9418 137.226C43.2753 137.393 43.442 137.393 43.7755 137.56C44.109 137.56 44.2757 137.726 44.6092 137.726C44.9427 137.726 45.1094 137.893 45.4429 137.893C45.7764 137.893 45.9431 138.06 46.2766 138.06C46.6101 138.06 46.7768 138.227 47.1103 138.227C47.4438 138.227 47.6105 138.393 47.944 138.393C48.2775 138.393 48.4442 138.56 48.7777 138.56C49.1112 138.56 49.278 138.727 49.6114 138.727C49.9449 138.727 50.2784 138.894 50.4451 138.894C50.7786 138.894 50.9454 138.894 51.2788 139.06C51.6123 139.06 51.9458 139.06 52.1126 139.227C52.446 139.227 52.6128 139.227 52.9463 139.227C53.2797 139.227 53.6132 139.227 53.9467 139.227C54.2802 139.227 54.4469 139.227 54.7804 139.227C55.1139 139.227 55.4474 139.227 55.7809 139.227C56.1143 139.227 56.2811 139.227 56.6146 139.227C56.7813 139.227 57.1148 139.227 57.2815 139.227C57.7818 139.227 58.282 139.227 58.7822 139.227C58.9489 139.227 59.2824 139.227 59.4492 139.227C79.9584 138.06 96.6325 122.219 99.3003 102.21C99.6338 100.043 99.6338 97.8752 99.6338 95.7076V85.2029C97.7997 76.8658 89.9628 69.3624 75.4563 63.3598C75.4563 63.193 85.6275 64.3602 85.961 54.0222C85.961 53.8555 95.4653 55.6897 94.7983 44.3512C94.7983 44.3512 96.966 44.518 98.9669 43.5175C99.3003 43.3508 99.6338 43.1841 99.8006 43.0173C101.968 41.5167 103.636 38.5153 102.135 32.3459C102.302 32.3459 110.305 29.8448 107.304 20.8407C106.97 20.1738 113.64 17.1724 109.805 3.66638ZM31.2699 126.888H31.1032H30.9364C30.7697 126.721 27.1014 122.886 27.2681 120.552C27.2681 120.552 27.2681 120.385 27.4348 120.385H27.6016C27.6016 120.385 27.7683 120.385 27.7683 120.552V120.719C27.6016 122.72 31.2699 126.555 31.2699 126.555V126.721V126.888ZM33.4375 124.22C33.4375 124.054 33.6043 123.887 33.6043 123.887C33.771 123.887 33.9378 124.054 33.9378 124.054C34.1045 126.888 38.1063 128.722 38.1063 128.722C38.273 128.722 38.273 128.889 38.273 129.056C38.273 129.223 38.1063 129.223 38.1063 129.223C38.1063 129.223 38.1063 129.223 37.9395 129.223C37.7728 129.223 33.771 127.388 33.4375 124.22ZM43.9422 134.058C43.9422 134.225 43.7755 134.225 43.7755 134.225C43.7755 134.225 43.7755 134.225 43.6088 134.225C43.442 134.225 38.6065 132.391 37.7728 131.223V131.057C37.7728 131.057 37.7728 130.89 37.9395 130.89H38.1063C38.1063 130.89 38.273 130.89 38.273 131.057C38.7732 131.89 41.9413 133.224 43.9422 133.891C43.9422 133.891 44.109 133.891 44.109 134.058C43.9422 133.891 43.9422 134.058 43.9422 134.058ZM52.6128 134.392C52.6128 134.392 52.2793 134.392 51.7791 134.392C50.6119 134.392 48.611 134.225 46.4433 132.724C46.2766 132.724 46.2766 132.557 46.4433 132.391L46.6101 132.224H46.7768C49.7782 134.225 52.6128 133.725 52.6128 133.725C52.7795 133.725 52.9463 133.725 52.9463 133.891C52.9463 134.225 52.7795 134.392 52.6128 134.392ZM79.1246 21.1742C80.2918 20.007 82.126 19.5068 84.2936 19.6735C84.4604 19.6735 84.4604 19.8403 84.4604 20.007C84.4604 20.1738 84.2936 20.1738 84.1269 20.1738C81.9592 19.8403 80.4586 20.3405 79.2914 21.5077C76.957 23.8421 77.7907 28.3441 77.7907 28.3441C77.7907 28.5108 77.7907 28.6776 77.624 28.6776C77.4572 28.6776 77.4572 28.5108 77.2905 28.5108C77.4572 28.3441 76.6235 23.6753 79.1246 21.1742ZM92.9642 29.3445C93.1309 29.3445 93.2976 29.3445 93.2976 29.5113C93.2976 29.678 93.2977 29.8448 93.1309 29.8448C92.6307 29.8448 91.9637 30.0115 91.2968 30.0115C87.295 30.0115 83.6266 28.5108 83.4599 28.3441C83.2932 28.3441 83.2932 28.1774 83.2932 28.0106C83.2932 27.8439 83.4599 27.8439 83.6267 27.8439C83.7934 28.0106 88.4622 30.0115 92.9642 29.3445ZM77.4572 39.8492C77.4572 39.6825 77.624 39.6825 77.7907 39.8492L77.9575 40.016V40.1827C77.9575 40.1827 76.4568 42.5171 76.957 44.518C77.1237 45.3517 77.7907 46.0187 78.6244 46.5189C78.7912 46.5189 78.7912 46.6856 78.7912 46.8524C78.7912 47.0191 78.6244 47.0191 78.6244 47.0191C78.6244 47.0191 78.6244 47.0191 78.4577 47.0191C77.4572 46.5189 76.7903 45.6852 76.4568 44.6847C75.7898 42.3504 77.4572 39.8492 77.4572 39.8492ZM76.29 50.6874C76.4568 50.5207 76.6235 50.6874 76.6235 50.6874C76.6235 50.6874 78.4577 53.0218 82.4595 53.1885H82.6262V53.3553C82.6262 53.522 82.4595 53.6888 82.2927 53.6888C77.9575 53.522 76.1233 51.1876 76.1233 51.0209C76.1233 50.8542 76.1233 50.6874 76.29 50.6874ZM81.2923 40.8497C81.2923 40.6829 81.459 40.6829 81.6258 40.8497C81.6258 40.8497 83.6267 42.1836 86.1278 42.6838C86.1278 42.6838 86.2945 42.6838 86.2945 42.8506V43.0173C86.2945 43.1841 86.1278 43.1841 85.961 43.1841C83.2932 42.6838 81.2923 41.3499 81.1255 41.3499C81.2923 41.0164 81.2923 41.0164 81.2923 40.8497ZM66.2856 50.5207C66.4523 50.3539 66.619 50.3539 66.619 50.5207C66.619 50.5207 68.9534 52.6883 73.122 52.5216C73.2887 52.5216 73.4554 52.6883 73.4554 52.855C73.4554 53.0218 73.2887 53.1885 73.122 53.1885C72.9552 53.1885 72.7885 53.1885 72.6217 53.1885C68.6199 53.1885 66.2856 51.0209 66.2856 51.0209C66.2856 50.8542 66.2856 50.6874 66.2856 50.5207ZM60.2829 67.5283C60.2829 67.3615 60.4496 67.3615 60.6164 67.3615C60.6164 67.3615 63.7844 68.8622 66.1188 68.362H66.2856L66.4523 68.5287V68.6955L66.2856 68.8622C65.9521 68.8622 65.6186 69.029 65.2851 69.029C62.9507 69.029 60.6164 67.8618 60.4496 67.8618C60.2829 67.695 60.2829 67.5283 60.2829 67.5283ZM57.615 61.3589V61.1921C57.615 61.1921 57.615 61.0254 57.7818 61.0254H57.9485C57.9485 61.0254 58.1152 61.0254 58.1152 61.1921C58.282 61.3589 60.6164 64.1935 64.4514 64.1935C64.6182 64.1935 64.7849 64.3602 64.7849 64.5269C64.7849 64.6937 64.6182 64.8604 64.4514 64.8604C60.2829 64.6937 57.615 61.5256 57.615 61.3589ZM63.1175 73.531H63.2842C63.2842 73.531 69.4536 73.3642 71.6213 70.3629L71.788 70.1961H71.9548C72.1215 70.1961 72.1215 70.3629 71.9548 70.5296C69.6204 73.6977 63.451 73.8645 63.1175 74.0312C62.9507 74.0312 62.784 73.8644 62.784 73.6977C62.9507 73.6977 62.9507 73.6977 63.1175 73.531ZM70.2874 60.8586C69.6204 61.3589 68.7867 61.5256 67.6195 61.5256C66.1188 61.5256 64.6182 61.0254 64.4514 61.0254C64.4514 61.0254 64.2847 61.0254 64.2847 60.8586V60.6919C64.2847 60.5252 64.4514 60.5252 64.6182 60.5252C64.6182 60.5252 68.1197 61.6923 69.9539 60.3584C70.1206 60.3584 70.2874 60.3584 70.2874 60.3584V60.5252C70.4541 60.8586 70.2874 60.8586 70.2874 60.8586ZM65.2851 57.0236H65.4519H65.6186L65.7853 57.1903V57.3571C65.7853 57.3571 65.6186 57.3571 65.6186 57.5238H65.4519C62.117 57.5238 59.9494 54.5225 59.9494 54.3557V54.189C59.9494 54.189 59.9494 54.0222 60.1161 54.0222H60.2829C60.2829 54.0222 60.4496 54.0222 60.4496 54.189C60.1161 54.0222 62.2838 57.0236 65.2851 57.0236ZM61.7835 47.0191C61.9503 47.0191 62.117 47.1859 62.117 47.3526C62.117 48.353 62.4505 51.1876 63.451 51.8546C63.6177 51.8546 63.6177 52.0214 63.6177 52.1881L63.451 52.3548H63.2842C61.7835 51.5211 61.6168 47.6861 61.6168 47.5193C61.4501 47.1859 61.6168 47.0191 61.7835 47.0191ZM60.4496 43.6843C60.2829 43.6843 60.1161 43.5175 60.1161 43.3508C60.1161 40.016 58.1152 36.5144 58.1152 36.3477C58.1152 36.1809 58.1152 36.0142 58.282 36.0142H58.4487C58.4487 36.0142 58.6155 36.0142 58.6155 36.1809C58.7822 36.3477 60.7831 39.8492 60.7831 43.3508C60.7831 43.5175 60.6164 43.6843 60.4496 43.6843ZM56.7813 29.0111C56.948 28.8443 57.1148 28.8443 57.1148 29.0111C57.2815 29.1778 59.7826 31.6789 59.9494 33.6798V33.8466L59.7826 34.0133C59.6159 34.0133 59.4492 33.8466 59.4492 33.8466C59.2824 32.0124 56.7813 29.5113 56.7813 29.5113V29.3445C56.7813 29.1778 56.7813 29.1778 56.7813 29.0111ZM55.9476 42.8506C55.9476 42.8506 55.9476 42.6838 56.1143 42.6838H56.2811C56.2811 42.6838 56.4478 42.6838 56.4478 42.8506V43.0173C56.1143 47.5193 58.9489 49.5202 58.9489 49.5202L59.1157 49.687V49.8537L58.9489 50.0205H58.7822C58.4487 49.8537 55.6141 47.6861 55.9476 42.8506ZM56.9481 70.6964C57.1148 70.8631 57.1148 71.0298 57.1148 71.0298C57.1148 71.1966 56.9481 71.1966 56.9481 71.1966C56.9481 71.1966 56.948 71.1966 56.7813 71.1966C50.2784 68.0285 53.4465 59.358 53.4465 59.358C53.4465 59.1912 53.6132 59.1912 53.78 59.1912C53.9467 59.1912 53.9467 59.358 53.9467 59.5247C53.78 59.5247 50.7786 67.695 56.9481 70.6964ZM54.1134 51.6879C54.1134 51.6879 51.6123 55.0227 50.9454 57.1903C50.9454 57.3571 50.7786 57.3571 50.6119 57.3571C50.6119 57.3571 50.4451 57.3571 50.4451 57.1903V57.0236C51.1121 54.6892 53.6132 51.5211 53.6132 51.3544L53.78 51.1876H53.9467C54.1134 51.3544 54.2802 51.5211 54.1134 51.6879ZM50.1117 35.6807C50.2784 35.6807 50.4451 35.6807 50.4451 35.8474C50.4451 36.0142 52.2793 39.5158 51.2788 42.3504C51.2788 42.5171 51.1121 42.5171 51.1121 42.5171C51.1121 42.5171 51.1121 42.5171 50.9454 42.5171C50.9454 42.5171 50.7786 42.5171 50.7786 42.3504V42.1836C51.7791 39.5158 50.1117 36.1809 50.1117 36.0142C49.9449 35.8474 50.1117 35.6807 50.1117 35.6807ZM46.1099 50.1872L46.2766 50.0205H46.4433L46.6101 50.1872V50.3539C46.6101 50.3539 43.2753 54.0222 43.1085 56.0231C43.1085 56.1899 42.9418 56.1899 42.775 56.1899C42.775 56.1899 42.6083 56.1899 42.6083 56.0231V55.8564C42.775 54.0222 46.1099 50.3539 46.1099 50.1872ZM46.2766 76.0321C46.4433 76.1988 46.4433 76.3656 46.2766 76.3656L46.1099 76.5323H45.9431C43.7755 74.6982 44.6092 71.1966 44.6092 71.0298C44.6092 70.8631 44.7759 70.8631 44.9427 70.8631C45.1094 70.8631 45.1094 71.0298 45.1094 71.1966C45.1094 71.1966 44.2757 74.3647 46.2766 76.0321ZM44.6092 62.1926C44.6092 62.3593 44.4424 62.3593 44.2757 62.3593C44.2757 62.3593 44.109 62.3593 44.109 62.1926V62.0258C44.6092 59.0245 46.1099 57.1903 46.1099 57.0236C46.2766 56.8568 46.4433 56.8568 46.4433 57.0236C46.6101 57.1903 46.6101 57.3571 46.4433 57.3571C46.6101 57.5238 45.1094 59.358 44.6092 62.1926ZM40.9409 72.5305C40.7741 72.5305 40.6074 72.5305 40.6074 72.3638C39.4402 69.6959 40.4407 66.1944 40.4407 66.0276C40.4407 66.0276 40.4407 65.8609 40.6074 65.8609H40.7741C40.9409 65.8609 40.9409 66.0276 40.9409 66.1944C40.9409 66.1944 39.9404 69.6959 41.1076 72.197C41.1076 72.197 41.1076 72.3638 40.9409 72.5305ZM47.944 83.0352C47.944 83.202 47.7773 83.202 47.6105 83.202C44.7759 82.2015 42.1081 79.2002 41.9413 79.0334C41.7746 78.8667 41.9413 78.6999 41.9413 78.6999C42.1081 78.5332 42.2748 78.6999 42.2748 78.6999C42.4416 78.8667 44.9427 81.868 47.7773 82.7017C47.7773 82.7017 47.944 82.7017 47.944 82.8685C47.944 82.8685 47.944 82.8685 47.944 83.0352ZM48.1108 61.5256C47.2771 63.3598 46.7768 66.8613 46.7768 66.8613C46.7768 67.0281 46.6101 67.0281 46.4433 67.0281C46.4433 67.0281 46.2766 67.0281 46.2766 66.8613V66.6946C46.2766 66.5278 46.7768 63.193 47.6105 61.1921C47.6105 61.1921 47.6105 61.0254 47.7773 61.0254H47.944C47.944 61.0254 48.1108 61.0254 48.1108 61.1921C48.1108 61.3589 48.1108 61.5256 48.1108 61.5256ZM47.2771 30.0115C46.4433 30.0115 45.9431 29.3445 45.9431 28.6776C45.9431 28.5108 45.9431 28.5108 45.9431 28.3441C46.1099 27.6771 46.6101 27.1769 47.2771 27.1769C48.1108 27.1769 48.611 27.8439 48.611 28.5108C48.611 29.3445 48.1108 30.0115 47.2771 30.0115ZM49.4447 51.8546C49.4447 52.0213 49.2779 52.0213 49.2779 52.0213C49.2779 52.0213 49.2779 52.0213 49.1112 52.0213C48.9445 52.0213 48.9445 51.8546 48.9445 51.6879C50.1117 49.1867 53.6132 44.0178 53.6132 44.0178L53.78 43.851H53.9467L54.1134 44.0178V44.1845C53.78 44.8515 50.6119 49.5202 49.4447 51.8546ZM50.1117 73.6977H50.2784C50.2784 73.6977 50.4451 73.6977 50.4451 73.8645C50.4451 74.0312 51.9458 77.8662 54.9472 79.2002C54.9472 79.2002 55.1139 79.2002 55.1139 79.3669V79.5337C55.1139 79.7004 54.9472 79.7004 54.9472 79.7004C54.9472 79.7004 54.9472 79.7004 54.7804 79.7004C51.6123 78.3665 50.1117 74.3647 49.9449 74.1979C49.7782 73.8645 49.9449 73.6977 50.1117 73.6977ZM57.7818 84.3691C54.7804 84.0357 51.2789 81.868 51.1121 81.7013L50.9454 81.5346V81.3678L51.1121 81.2011H51.2788C51.4456 81.3678 54.7804 83.3687 57.615 83.7022C57.7817 83.7022 57.7818 83.8689 57.7818 84.0357C58.1152 84.3692 57.9485 84.3691 57.7818 84.3691ZM57.2815 75.3651C57.1148 75.1984 57.1148 75.0316 57.2815 75.0316C57.4483 74.8649 57.615 74.8649 57.615 75.0316C57.615 75.0316 62.4505 80.2006 70.6208 78.3665H70.7876L70.9543 78.5332V78.6999L70.7876 78.8667C69.6204 79.2002 68.4532 79.2002 67.286 79.2002C64.4514 79.2002 62.2838 78.3665 60.7831 77.6995C58.6155 76.8658 57.4483 75.5319 57.2815 75.3651ZM71.6213 87.3705L71.4545 87.5372C70.9543 87.704 70.2874 87.704 69.6204 87.704C66.7858 87.704 63.1175 87.2038 62.9507 87.2038C62.9507 87.2038 62.784 87.2038 62.784 87.037V86.8703C62.784 86.7035 62.9507 86.7035 63.1175 86.7035C63.1175 86.7035 68.9534 87.5372 71.4545 87.2038H71.6213L71.788 87.3705C71.6213 87.2038 71.6213 87.2038 71.6213 87.3705ZM77.1237 83.3687C73.9557 83.3687 69.4537 82.0348 69.4537 82.0348C69.4537 82.0348 69.2869 82.0348 69.2869 81.868V81.7013C69.2869 81.7013 69.2869 81.5346 69.4537 81.5346H69.6204C69.7871 81.5346 74.1224 82.8685 77.2905 82.8685C77.4572 82.8685 77.624 83.0352 77.624 83.202C77.4572 83.202 77.2905 83.3687 77.1237 83.3687ZM72.455 74.6982C72.6217 74.5314 76.1233 71.0299 79.4581 72.197C79.6249 72.197 79.6249 72.3638 79.6249 72.5305C79.6249 72.5305 79.6249 72.6973 79.4581 72.6973H79.2914C76.1233 71.5301 72.7885 75.0316 72.7885 75.0316H72.6217H72.455C72.455 75.0316 72.455 74.8649 72.455 74.6982ZM86.2945 86.5368C86.1278 86.7035 86.1278 86.7035 85.961 86.5368C82.7929 84.2024 79.1246 86.5368 78.9579 86.5368H78.7912C78.6244 86.5368 78.6244 86.5368 78.6244 86.3701V86.2033C78.6244 86.2033 78.6244 86.0366 78.7912 86.0366C78.7912 86.0366 82.9597 83.5354 86.2945 86.0366C86.2945 86.37 86.4613 86.5368 86.2945 86.5368ZM91.2968 81.5346C91.13 81.5346 91.13 81.3678 90.9633 81.3678C90.6298 78.8667 88.1287 77.8662 87.9619 77.8662C87.7952 77.8662 87.7952 77.6995 87.7952 77.5328C87.7952 77.366 87.9619 77.366 88.1287 77.366C88.2954 77.366 90.9633 78.5332 91.2968 81.3678C91.6302 81.3678 91.4635 81.3678 91.2968 81.5346ZM74.9561 115.717C74.9561 115.717 75.1228 115.55 74.9561 115.717C78.9579 114.049 83.4599 111.548 83.4599 111.548C83.6266 111.548 83.7934 111.548 83.7934 111.715C83.7934 111.881 83.7934 112.048 83.6267 112.048C83.4599 112.215 78.9579 114.716 75.1228 116.217C75.1228 116.217 75.1228 116.217 74.9561 116.217C74.7894 116.217 74.7894 116.217 74.7894 116.05C74.9561 115.883 74.9561 115.883 74.9561 115.717ZM66.4523 120.219C70.6208 120.052 75.6231 118.885 75.7898 118.885H75.9566L76.1233 119.051V119.218L75.9566 119.385C75.9566 119.385 70.7876 120.552 66.619 120.719C66.4523 120.719 66.2856 120.552 66.2856 120.552C66.2856 120.385 66.4523 120.219 66.4523 120.219ZM61.6168 126.054C65.6186 125.054 70.1206 123.22 70.6208 123.053H70.7876C70.7876 123.053 70.9543 123.053 70.9543 123.22C70.9543 123.387 70.9543 123.553 70.7876 123.553C70.7876 123.553 65.7853 125.554 61.7835 126.388C61.6168 126.388 61.6168 126.221 61.4501 126.221C61.4501 126.221 61.4501 126.221 61.6168 126.054ZM56.1143 129.223C56.1143 129.056 56.2811 129.056 56.4478 129.056C59.7826 130.056 62.4505 128.722 62.4505 128.556H62.6172C62.6172 128.556 62.784 128.556 62.784 128.722V128.889C62.784 128.889 62.784 129.056 62.6172 129.056C62.6172 129.056 60.9498 129.89 58.7822 129.89C57.9485 129.89 57.1148 129.723 56.1143 129.556C56.2811 129.556 56.1143 129.389 56.1143 129.223ZM55.7809 132.891C55.4474 132.891 55.1139 132.891 54.9472 132.891C54.9472 132.891 54.7804 132.891 54.7804 132.724V132.557C54.7804 132.557 54.7804 132.391 54.9472 132.391H55.1139C56.6146 132.557 59.6159 132.224 59.7826 132.224H59.9494L60.1161 132.391C60.1161 132.557 59.9494 132.724 59.9494 132.724C59.6159 132.724 57.4483 132.891 55.7809 132.891ZM64.6182 134.058C64.4514 134.225 62.784 135.059 60.2829 135.059C59.7827 135.059 59.1157 135.058 58.6155 134.892C58.4487 134.892 58.4487 134.725 58.4487 134.558C58.4487 134.392 58.6155 134.392 58.7822 134.392C61.9503 134.892 64.2847 133.558 64.4514 133.558C64.6182 133.558 64.7849 133.558 64.7849 133.725C64.7849 133.891 64.7849 134.058 64.6182 134.058ZM66.1188 129.723L65.9521 129.89H65.7853C65.6186 129.89 65.6186 129.723 65.6186 129.556C66.4523 128.055 70.9543 126.888 71.1211 126.888C71.2878 126.888 71.4545 126.888 71.4545 127.055C71.4545 127.222 71.4545 127.388 71.2878 127.388C71.1211 127.388 66.7858 128.556 66.1188 129.723ZM72.7885 130.723C72.7885 130.723 69.6204 131.89 67.6195 132.057C67.4527 132.057 67.286 131.89 67.286 131.89C67.286 131.724 67.4527 131.557 67.4527 131.557C69.4536 131.39 72.455 130.39 72.455 130.223H72.6217C72.6217 130.223 72.7885 130.223 72.7885 130.39C72.9552 130.556 72.7885 130.556 72.7885 130.723ZM75.7898 124.887C75.7898 124.721 75.7898 124.721 75.7898 124.887C75.9566 124.721 79.4581 123.887 80.4586 121.886C80.4586 121.719 80.6253 121.719 80.7921 121.719C80.9588 121.719 80.9588 121.886 80.9588 122.053C79.9583 124.387 76.29 125.221 76.1233 125.388C75.9566 125.388 75.9566 125.388 75.7898 125.221C75.6231 125.054 75.6231 124.887 75.7898 124.887ZM82.6262 126.388C82.4595 126.555 78.7912 129.389 76.4568 129.389C76.29 129.389 76.1233 129.389 75.9566 129.389C75.9566 129.389 75.7898 129.389 75.7898 129.223V129.056C75.7898 129.056 75.7898 128.889 75.9566 128.889H76.1233C78.1242 129.389 82.2927 126.054 82.2927 126.054C82.4595 125.888 82.6262 126.054 82.6262 126.054C82.7929 126.221 82.7929 126.388 82.6262 126.388ZM83.1264 116.55C80.6253 117.717 78.6244 120.219 78.6244 120.219L78.4577 120.385H78.2909L78.1242 120.219V120.052C78.2909 119.885 80.2918 117.384 82.793 116.383H82.9597C82.9597 116.383 83.1264 116.383 83.1264 116.55C83.1264 116.383 83.1264 116.383 83.1264 116.55ZM89.4626 115.717C88.9624 117.217 84.1269 121.719 83.9601 121.886H83.7934H83.6267V121.719V121.552C83.6267 121.552 88.4622 117.05 88.9624 115.55C88.9624 115.383 89.1291 115.383 89.2959 115.383C89.4626 115.383 89.4626 115.55 89.4626 115.717ZM87.1282 114.049H86.9615C86.9615 114.049 86.7947 114.049 86.7947 113.882C86.628 113.716 86.7947 113.549 86.7947 113.549C88.7956 111.881 89.6293 106.879 89.6293 106.712C89.6293 106.712 89.6293 106.546 89.7961 106.546H89.9628C89.9628 106.546 90.1296 106.546 90.1296 106.712V106.879C90.1296 107.213 89.2959 112.215 87.1282 114.049ZM86.4613 108.046C86.4613 108.213 86.2945 108.213 86.2945 108.213C86.2945 108.213 86.2945 108.213 86.1278 108.213C85.961 108.213 85.961 108.046 85.961 107.88C86.1278 107.713 88.7956 102.711 91.6302 101.877C91.797 101.877 91.9637 101.877 91.9637 102.044C91.9637 102.21 91.9637 102.377 91.797 102.377C89.1291 103.044 86.4613 107.88 86.4613 108.046ZM95.7988 99.3759C95.7988 99.5426 95.632 99.5426 95.632 99.5426C95.632 99.5426 95.632 99.5426 95.4653 99.5426C95.4653 99.5426 95.2986 99.5426 95.2986 99.3759V99.2091C96.4657 96.5413 95.632 92.873 95.632 92.873C95.632 92.7062 95.632 92.5395 95.7988 92.5395H95.9655L96.1323 92.7062C96.1323 92.873 96.966 96.708 95.7988 99.3759ZM95.1318 82.8685C95.2985 82.7017 95.4653 82.7017 95.4653 82.8685C96.299 83.7022 97.1327 87.2038 96.6325 89.2047C96.6325 89.3714 96.4657 89.3714 96.299 89.3714C96.299 89.3714 96.1323 89.3714 96.1323 89.2047V89.0379C96.6325 87.2038 95.9655 84.0357 95.1318 83.202V83.0352C94.9651 82.8685 94.9651 82.8685 95.1318 82.8685ZM94.7983 104.378C94.9651 104.378 95.1318 104.545 95.1318 104.712C95.1318 104.712 95.1318 110.881 92.4639 114.883L92.2972 115.05H92.1305L91.9637 114.883V114.716C94.6316 111.048 94.6316 104.878 94.6316 104.878C94.4648 104.545 94.6316 104.378 94.7983 104.378ZM94.4648 88.0375C94.4648 88.2042 94.2981 88.2042 94.1314 88.2042C93.9646 88.2042 93.9646 88.0375 93.9646 87.8707C94.1314 85.8698 91.6302 84.0357 91.4635 83.8689L91.2968 83.7022V83.5354L91.4635 83.3687H91.6302C91.9637 83.7022 94.6316 85.7031 94.4648 88.0375ZM87.6284 72.3638C87.6284 72.197 87.7952 72.197 87.9619 72.3638C88.1287 72.5305 92.2972 75.3651 93.1309 79.0334V79.2002L92.9642 79.3669C92.7974 79.3669 92.7974 79.3669 92.6307 79.2002C91.797 75.8653 87.6284 72.864 87.6284 72.864C87.6284 72.5305 87.4617 72.3638 87.6284 72.3638ZM86.628 81.5346H86.7947L86.9615 81.7013C86.9615 81.868 86.7947 82.0348 86.7947 82.0348H86.628C84.7938 82.0348 80.2918 80.2006 80.1251 80.0339C79.9583 80.0339 79.9583 79.8671 79.9583 79.7004C79.9583 79.7004 79.9583 79.5337 80.1251 79.5337H80.2918C80.2918 79.7004 84.7938 81.5346 86.628 81.5346ZM83.6267 75.6986V75.8653C83.6267 75.8653 83.6266 76.0321 83.4599 76.0321H83.2932C78.6244 75.0316 74.4559 78.6999 74.2891 78.6999H74.1224C74.1224 78.6999 73.9557 78.6999 73.9557 78.5332V78.3665C73.9557 78.3665 73.9557 78.1997 74.1224 78.1997C74.1224 78.3665 78.6244 74.5314 83.6267 75.6986C83.4599 75.6986 83.6267 75.6986 83.6267 75.6986ZM83.1264 71.0298L82.9597 71.1966H82.793C79.9584 69.1957 75.9566 68.5287 75.7898 68.5287C75.6231 68.5287 75.6231 68.362 75.6231 68.1953C75.6231 68.1953 75.6231 68.0285 75.7898 68.0285H75.9566C75.9566 68.0285 80.1251 68.6955 83.1264 70.6964C83.1264 70.6964 83.2932 70.8631 83.1264 71.0298ZM78.4577 66.0276L78.6244 66.1944V66.3611L78.4577 66.5278H78.2909C76.4568 65.0272 70.9543 64.3602 70.9543 64.3602C70.7876 64.3602 70.7876 64.1935 70.7876 64.0267C70.7876 63.86 70.9543 63.6932 71.1211 63.86C71.2878 63.86 76.4568 64.3602 78.4577 66.0276ZM82.9597 56.5234C81.9592 56.6901 80.7921 56.8568 79.6249 56.8568C76.7903 56.8568 74.9561 56.0231 74.9561 56.0231C74.7894 56.0231 74.7894 55.8564 74.7894 55.6897C74.7894 55.6897 74.7894 55.5229 74.9561 55.5229H75.1228C75.1228 55.5229 78.4577 57.0236 82.793 56.0231C82.9597 56.0231 83.1264 56.0231 83.1264 56.1899C83.2932 56.3566 83.1264 56.5234 82.9597 56.5234ZM91.797 46.3521C91.2968 46.3521 90.9633 46.5189 90.4631 46.5189C86.628 46.5189 82.4595 44.0178 82.126 43.851C81.9592 43.851 81.9593 43.6843 81.9593 43.5175L82.126 43.3508H82.2927C82.2927 43.3508 87.6284 46.5189 91.6302 45.6852C91.797 45.6852 91.9637 45.6852 91.9637 45.8519C92.1305 46.1854 91.9637 46.3521 91.797 46.3521ZM92.9642 36.8479L92.7974 37.0146C91.9637 37.1814 91.13 37.1814 90.1296 37.1814C83.6266 37.1814 79.4581 34.5135 79.2914 34.5135C79.1246 34.5135 79.1246 34.3468 79.2914 34.18C79.2914 34.0133 79.4581 34.0133 79.6249 34.18C79.6249 34.18 84.9606 37.5149 92.6307 36.6812H92.7974L92.9642 36.8479ZM95.9655 34.6803C95.9655 34.6803 95.7988 34.6803 95.9655 34.6803C94.7983 35.0137 92.6307 35.1805 90.9633 35.1805C89.9628 35.1805 89.2959 35.1805 89.1291 35.1805C88.9624 35.1805 88.7956 35.0137 88.7956 34.847C88.7956 34.6803 88.9624 34.5135 89.1291 34.5135C89.2959 34.5135 94.1314 34.6803 95.632 34.18C95.7988 34.18 95.9655 34.18 95.9655 34.3468C95.9655 34.5135 95.9655 34.5135 95.9655 34.6803ZM98.2999 25.6762C97.1327 26.1765 95.2985 26.1764 93.9646 26.1764C92.9642 26.1764 92.2972 26.1764 91.9637 26.1764C91.797 26.1764 91.6302 26.0097 91.797 25.843C91.797 25.6762 91.9637 25.5095 92.1305 25.6762C92.1305 25.6762 96.299 26.0097 98.1331 25.176H98.2999C98.2999 25.176 98.4666 25.176 98.4666 25.3427C98.4666 25.5095 98.2999 25.6762 98.2999 25.6762ZM104.136 18.6731C99.9673 22.3414 90.6298 22.8416 90.1296 23.0084C89.9628 23.0084 89.7961 22.8416 89.7961 22.8416V22.6749L89.9628 22.5081C90.1296 22.5081 99.6338 21.8412 103.636 18.3396C103.802 18.1729 103.969 18.3396 103.969 18.3396C104.303 18.3396 104.303 18.5063 104.136 18.6731Z" fill="white"/>
<path d="M62.2841 8.33501C62.4508 8.00153 62.6175 7.66805 62.6175 7.33457C63.2845 5.50041 63.7847 4.33322 63.7847 4.33322L59.7829 6.83434V2.33233L55.9479 5.66715L55.2809 0.498169L52.2796 6.16738C52.2796 6.16738 51.6126 4.49996 49.9452 0.831653C49.2782 2.83255 48.778 5.16692 48.2778 7.66804C48.2778 8.00152 48.1111 8.33501 48.1111 8.66849C47.4441 13.8375 47.2773 18.8397 47.2773 18.8397C47.2773 18.8397 51.9461 20.3404 57.782 21.0073C58.2823 18.5062 60.6166 12.5035 62.2841 8.33501ZM53.28 16.3386L53.1133 16.5053C52.9465 16.5053 52.9465 16.3386 52.9465 16.3386C52.9465 16.3386 54.2805 9.5022 54.4472 8.00153C54.4472 7.83478 54.614 7.83479 54.614 7.83479C54.7807 7.83479 54.7807 8.00153 54.7807 8.00153C54.614 9.33546 53.28 16.0051 53.28 16.3386ZM57.6153 10.6694C56.9483 12.1701 55.9479 17.5058 55.9479 17.5058L55.7811 17.6725C55.6144 17.6725 55.6144 17.5058 55.6144 17.339C55.6144 17.1723 56.7816 12.0033 57.4486 10.5026C57.4486 10.3359 57.6153 10.3359 57.6153 10.3359C57.6153 10.5026 57.782 10.5026 57.6153 10.6694Z" fill="white"/>
<path d="M54.448 109.214C55.9487 108.213 58.7833 106.879 61.2844 105.712C64.786 104.211 67.1204 100.71 67.1204 96.8746V91.7057L60.6174 91.3722V96.7079C60.6174 101.543 56.9491 105.879 52.1136 106.379C50.9465 106.546 49.6125 106.546 48.1118 106.379C36.7734 105.545 36.7734 112.882 36.7734 112.882C36.7734 112.882 39.608 107.546 45.9442 108.547C40.4417 110.714 39.608 115.216 41.1087 118.718C41.7757 114.049 43.1096 111.881 47.4449 111.381C45.2772 114.716 45.1105 119.218 46.6112 121.052C45.9442 114.883 52.4471 110.881 52.4471 110.881C52.4471 110.881 55.115 113.215 54.1145 117.717C56.6157 115.883 56.1154 111.214 54.448 109.214ZM64.9527 93.3731C64.9527 93.2063 64.9527 93.2063 65.1195 93.2063C65.2862 93.2063 65.2862 93.2063 65.2862 93.3731V99.209C65.2862 99.3758 65.2862 99.3758 65.1195 99.3758C64.9527 99.3758 64.9527 99.3758 64.9527 99.209V93.3731Z" fill="white"/>
</svg>
