<svg width="267" height="285" viewBox="0 0 267 285" fill="none" xmlns="http://www.w3.org/2000/svg">
<g opacity="0.15">
<path opacity="0.36" d="M107.499 50.3868C102.516 49.1956 98.2447 45.6221 96.2278 40.9766C94.5667 45.6221 95.8718 51.2206 99.3125 54.7941C102.753 58.3677 108.329 59.5588 113.075 58.0103C117.702 56.3427 121.262 51.9353 121.855 46.9324C117.94 50.1486 112.482 51.4589 107.499 50.3868Z" fill="#CEC1A3"/>
<path opacity="0.36" d="M25.1601 199.283C28.4822 195.948 30.0245 190.707 29.0754 186.061C28.4822 183.441 27.1771 181.058 26.7025 178.438C26.1093 175.817 26.4652 171.052 28.3635 169.266C23.8551 171.052 18.9907 173.316 17.211 177.842C16.0246 180.939 16.6178 184.393 17.3296 187.61C18.0415 190.826 18.872 194.161 18.1601 197.496C17.4483 200.713 14.3635 203.69 11.1602 203.095C15.7873 204.167 21.8381 202.738 25.1601 199.283Z" fill="#CEC1A3"/>
<path opacity="0.36" d="M257.939 192.946C255.685 192.232 253.194 191.993 251.058 192.946C248.922 193.899 247.38 196.52 248.329 198.664C249.753 197.235 251.414 196.043 253.312 195.686C255.211 195.329 257.465 196.043 258.414 197.711C259.363 199.26 259.007 201.285 258.058 202.714C256.99 204.143 255.329 205.096 253.55 205.454C248.448 206.645 242.753 203.31 241.092 198.307C240.38 196.163 240.38 193.78 239.55 191.636C238.126 188.182 234.567 186.038 230.889 184.966C226.617 183.655 222.109 183.655 217.838 182.107C216.77 181.749 215.821 181.154 214.99 180.32C212.262 177.342 214.16 174.483 214.99 171.505C215.939 168.051 215.109 164.239 212.855 161.38C210.601 158.641 206.923 157.092 203.363 157.33C205.024 157.569 206.685 158.76 207.041 160.427C207.16 160.904 207.16 161.38 207.041 161.976C205.262 159.475 202.177 157.807 199.092 157.807C200.872 153.757 204.431 150.422 208.702 149.23C212.973 148.039 217.719 148.873 221.397 151.375C223.651 152.923 225.431 155.186 227.448 156.854C229.584 158.641 232.194 160.07 234.923 159.594C237.177 159.236 238.956 157.807 240.736 156.497C242.516 155.186 244.651 153.876 246.906 154.114C249.16 154.352 251.177 156.735 250.228 158.76C251.414 156.616 251.295 153.876 249.99 151.851C248.685 149.826 246.194 148.635 243.821 148.754C240.38 148.992 237.177 151.851 233.855 150.898C230.651 149.826 229.702 145.3 231.6 142.441C233.499 139.701 237.177 138.51 240.499 138.748C247.973 139.225 245.245 109.922 231.007 113.614C226.736 114.687 221.16 116.711 217.6 114.21C221.397 112.423 224.007 108.492 224.245 104.323C222.702 107.897 218.312 109.803 214.634 108.612C212.143 107.778 210.126 105.753 207.516 105.038C205.143 104.442 202.651 105.276 200.397 106.348C197.55 107.778 194.821 109.803 192.685 112.185C192.685 111.351 192.567 110.398 192.567 109.564C192.448 106.825 192.448 103.847 193.872 101.584C195.651 98.8439 199.092 97.6528 200.872 94.9131C203.482 90.8631 200.634 84.5499 195.77 83.9543C198.024 82.1676 201.346 83.0014 203.601 84.7881C205.855 86.4558 207.634 88.8381 210.007 90.3866C213.923 92.769 219.499 92.2925 222.821 89.0763C225.668 86.4558 226.855 82.4058 229.465 79.547C230.177 78.8323 230.889 78.2367 231.719 77.7602L227.092 72.9955C224.6 74.1867 222.109 75.2588 219.38 75.8543C214.872 76.9264 209.414 76.2117 206.923 71.8044C205.38 69.1838 205.855 65.7294 208.346 63.9426C210.956 61.9177 214.516 62.9897 217.363 64.4191C218.194 64.8956 219.143 65.372 220.092 65.7294C197.787 44.7648 196.363 72.4 196.363 72.4C188.889 72.4 186.516 68.7073 186.516 65.2529C186.516 61.7985 192.685 45.3604 180.584 30.8281C168.482 16.1767 158.041 24.2767 158.041 24.2767C158.634 11.5312 150.804 2.59737 150.804 2.59737C147.719 0.572385 146.533 -0.737903 140.601 0.453267C134.55 1.52532 128.855 12.0076 128.855 12.0076C126.126 20.2267 125.77 29.6369 111.414 29.5178C125.651 42.0251 136.923 14.9855 134.906 37.4987C146.058 37.0222 148.194 24.3958 138.346 13.5561C146.651 15.1047 148.312 23.562 148.906 29.1605C149.499 34.5207 151.397 39.6428 154.482 44.0501C156.262 46.5516 158.516 48.8148 161.363 49.6486C164.329 50.3633 167.889 49.053 168.719 46.0751C166.228 46.4324 163.499 46.3133 161.245 45.1222C158.99 43.931 157.329 41.4295 157.685 38.9281C158.041 36.6648 159.94 34.759 162.194 34.0443C164.448 33.4487 166.821 33.9252 168.956 34.8781C175.126 37.856 178.329 45.8369 175.956 52.2692C174.889 55.128 172.99 57.5103 172.16 60.3691C170.855 65.1338 172.753 70.1367 175.482 74.1867C178.685 78.8323 183.194 82.5249 186.279 87.2896C187.228 88.8381 187.94 90.5058 187.94 92.2925C188.058 97.0572 183.906 98.4866 180.821 100.75C178.092 102.775 176.194 105.872 175.363 109.207C171.923 107.659 168.363 106.467 164.923 104.8C160.414 102.537 156.262 98.9631 154.957 94.0793C154.245 91.3396 154.719 88.0043 156.973 86.4558C158.753 85.1455 161.719 85.9793 162.668 87.7661C161.601 84.1925 158.16 81.4529 154.363 81.3337C147.601 81.2146 141.787 88.8381 135.262 86.9322C129.092 85.2646 127.668 76.5691 121.974 73.5911C118.651 71.8044 114.499 72.5191 110.821 73.472C107.143 74.4249 103.346 75.6161 99.6684 74.6632C95.9905 73.7102 91.7193 69.3029 93.143 65.8485C90.5329 67.7544 91.1261 72.0426 93.3803 74.3058C95.6346 76.569 98.8379 77.522 101.804 78.7132C104.77 79.9043 107.855 81.4529 109.16 84.4308C110.94 88.719 107.618 93.841 103.228 95.2704C98.8379 96.6998 93.9735 95.3895 89.9397 93.3646C85.7871 91.3396 81.9905 88.4808 77.7193 86.8131C70.2448 83.7161 61.4651 84.1926 54.3465 88.1234C47.2278 91.9352 42.0075 99.0822 40.3465 106.944C38.5668 115.759 40.9397 126.003 35.4821 133.269C32.6346 137.081 28.0075 139.225 23.3804 140.773C18.7533 142.203 14.0075 143.155 9.61772 145.18C5.2279 147.325 1.31265 150.898 0.244851 155.544C-0.822944 160.308 1.66858 165.669 6.41433 166.264C3.56688 164.477 2.85502 160.189 4.51603 157.211C6.17705 154.233 9.49908 152.566 12.9398 152.208C16.2618 151.851 19.7025 152.685 22.9058 153.638C26.1092 154.591 29.4313 155.663 32.7533 156.02C42.3634 156.973 52.0922 150.422 55.0583 141.25C56.7194 136.128 56.3634 130.529 57.5499 125.288C58.6177 120.881 60.8719 116.711 64.5499 114.091C68.2278 111.47 73.4481 110.994 77.1261 113.376C80.9227 115.878 82.3464 121.476 79.6176 125.169C77.1261 128.504 72.2617 129.1 68.9397 131.601C64.3126 135.056 63.3634 142.322 66.9227 146.848C70.0075 150.66 74.8719 151.136 78.9058 148.873C77.482 149.111 75.9397 148.516 75.1092 147.325C73.8041 145.419 74.16 142.679 75.2278 140.654C77.6007 135.889 84.1261 133.15 88.5159 136.247C91.1261 138.033 92.3125 141.488 91.838 144.704C91.482 147.801 89.7024 150.66 87.4481 152.923C83.5329 156.735 78.1939 158.879 72.8549 160.427C67.516 161.976 62.0583 163.048 57.0753 165.43C52.0922 167.694 47.3465 171.505 45.4482 176.627C43.5499 181.749 44.1431 187.467 49.0075 190.207C48.6516 185.68 50.6685 181.035 54.3465 178.414C57.9058 175.674 63.0075 175.079 67.16 176.746C70.6007 178.176 73.3295 180.916 76.6515 182.583C81.9905 185.323 88.7532 185.085 93.8549 181.869C97.4142 179.605 100.143 176.151 102.635 172.697C105.245 169.242 107.855 165.788 111.414 163.525C114.974 161.261 119.838 160.427 123.516 162.572C126.126 164.12 127.787 166.979 128.38 169.957C128.973 172.935 128.736 176.032 128.143 179.01C127.312 183.536 125.058 188.539 120.55 189.373C118.058 189.849 115.567 188.777 113.075 189.254C108.685 189.968 105.957 195.805 108.329 199.617C108.804 196.639 112.482 194.733 115.211 195.924C120.075 198.068 117.584 206.407 114.855 209.385C111.889 212.72 106.55 213.435 102.635 211.29C98.7193 209.146 96.4651 204.501 96.821 199.974C92.9057 204.024 92.7871 210.814 95.5159 215.698C98.2447 220.582 103.346 223.917 108.685 225.584C112.601 226.776 116.753 227.371 120.075 229.634C123.516 231.898 125.889 236.067 125.533 240.117C125.177 244.286 121.618 247.978 117.465 248.098C113.312 248.217 109.516 243.928 110.465 239.879C107.262 242.618 107.974 248.217 110.821 251.314C113.668 254.411 118.058 255.721 122.211 256.674C126.363 257.627 130.753 258.342 134.194 260.724C138.346 263.464 140.719 268.228 141.906 273.112C143.092 277.996 152.346 286.453 154.126 284.786C148.906 273.47 157.211 268.586 162.668 262.749C165.634 259.533 169.431 257.15 172.872 254.649C176.312 252.028 179.753 249.051 181.533 245.001C183.431 241.07 183.431 235.948 180.584 232.612L180.465 232.493C191.499 232.612 202.058 238.806 197.55 248.217C197.075 249.289 196.838 250.361 196.956 251.552C197.55 256.436 203.363 250.361 202.414 256.317C206.567 255.721 202.889 244.881 208.702 251.433C214.753 258.223 220.923 239.879 226.143 252.148C226.499 252.028 226.736 251.79 226.973 251.671L227.567 251.076C229.228 249.051 229.346 245.001 228.516 242.499C227.092 238.568 222.109 236.901 220.329 233.089C218.55 229.277 220.448 224.751 223.177 221.534C224.363 220.105 225.787 218.795 227.685 218.318C229.465 217.842 231.719 218.676 232.312 220.343C232.906 222.13 228.872 226.418 227.567 225.465C230.414 229.754 233.855 223.321 235.634 221.892C237.414 220.462 239.075 218.795 241.329 218.557C245.245 218.318 248.211 222.249 251.889 222.845C261.261 224.274 264.109 216.651 265.414 214.507C270.397 201.761 262.448 194.257 257.939 192.946ZM153.177 220.701C149.262 225.465 147.363 231.54 146.77 237.734C146.296 243.928 147.007 250.003 147.719 256.198C143.329 249.289 141.312 240.474 142.499 232.374C142.973 228.92 144.041 225.346 143.092 222.011C142.262 219.271 140.245 217.127 138.228 215.221C136.211 213.315 134.075 211.29 132.77 208.789C131.584 206.288 130.872 202.952 132.889 200.927C133.601 203.19 135.143 205.335 137.397 205.93C139.651 206.645 142.499 205.454 143.092 203.19C143.804 200.808 142.024 198.307 140.007 196.639C138.109 194.971 135.736 193.423 135.024 191.041C133.363 185.323 141.55 180.796 141.194 174.841C141.075 171.863 138.821 169.599 137.041 167.336C135.262 165.073 133.601 162.095 134.55 159.355C133.719 161.619 136.685 164.001 138.94 163.167C141.194 162.333 142.262 159.475 141.668 157.092C141.194 154.71 139.414 152.804 137.635 151.255C133.482 147.682 127.668 145.061 122.685 147.325C117.702 149.588 115.448 156.02 110.228 157.807C106.313 159.117 101.448 156.854 99.9057 152.923C104.177 153.28 109.635 153.042 111.414 149.111C113.312 144.823 109.397 140.416 107.855 136.008C106.787 132.911 106.906 129.457 106.194 126.241C105.363 123.025 103.109 119.689 99.7871 119.57C97.5329 119.451 95.6346 120.761 93.6176 121.714C91.6007 122.667 88.9905 122.906 87.4481 121.357C91.482 118.856 90.8888 112.423 87.4481 109.088C84.1261 105.753 79.1431 104.8 74.5159 103.966C78.9058 100.869 84.838 101.107 89.821 103.013C94.8041 104.919 98.9566 108.373 103.109 111.709C105.719 113.853 108.685 115.997 112.126 115.997C117.228 116.116 121.262 111.113 122.092 105.991C122.804 100.869 121.143 95.7469 119.363 90.9822C125.414 92.5307 129.211 99.0822 129.448 105.276C129.567 108.612 128.855 111.947 128.262 115.163C127.668 118.498 127.075 121.834 127.431 125.05C127.787 128.385 129.211 131.72 131.821 133.745C134.431 135.77 138.465 136.128 141.075 133.983C143.685 131.839 143.804 127.194 141.075 125.407C142.499 122.786 146.651 123.382 148.431 125.645C150.211 127.909 150.567 131.006 151.16 133.864C151.753 136.723 152.94 139.82 155.55 141.011C159.109 142.56 163.499 139.225 163.973 135.294C164.448 131.363 162.075 127.67 158.99 125.169C155.906 122.667 152.228 121.119 148.906 119.094C145.584 117.069 142.262 114.329 141.075 110.637C139.889 106.944 141.312 102.06 145.109 100.75C143.923 107.301 149.262 114.21 155.787 114.925C159.584 115.282 163.499 113.853 167.295 114.448C171.804 115.163 175.601 119.213 176.194 123.859C176.55 126.717 175.719 129.457 175.719 132.316C175.719 135.175 177.143 138.391 179.872 138.986C177.38 134.817 180.702 128.623 185.448 128.266C188.651 128.028 191.736 130.053 194.939 129.695C197.668 129.457 200.041 127.67 202.058 125.884C204.075 124.097 206.211 122.072 208.821 121.357C211.431 120.642 215.346 121.953 216.295 124.573C214.516 123.263 211.668 125.05 211.787 127.313C211.906 129.576 214.516 131.125 216.651 130.529C218.787 130.053 220.329 128.028 220.804 125.764C221.041 130.41 218.906 135.056 215.346 138.033C211.787 140.892 206.685 141.964 202.295 140.654C199.567 139.82 196.719 138.272 193.99 138.867C190.55 139.582 188.651 143.275 187.702 146.729C186.397 151.494 186.041 156.377 184.617 161.142C183.194 165.788 180.228 170.433 175.719 172.22C172.99 173.292 169.787 173.292 166.94 174.126C160.414 176.151 156.024 183.536 157.448 190.326C157.923 192.589 158.99 194.852 160.889 196.163C162.787 197.592 165.397 197.949 167.414 196.758C169.668 195.448 170.499 192.589 170.143 190.088C169.668 187.586 168.126 185.323 166.346 183.536C169.194 182.464 172.516 184.489 173.702 187.229C174.889 189.968 174.414 193.304 173.584 196.163C172.041 201.285 169.075 205.93 165.279 209.623C161.719 213.673 156.736 216.412 153.177 220.701ZM215.939 206.883C215.346 209.385 212.736 210.457 210.363 210.933C208.228 211.41 205.855 211.648 204.075 213.077C202.414 214.507 201.939 217.723 203.956 218.795C205.38 216.651 208.939 216.77 210.601 218.676C212.262 220.582 212.024 223.679 210.482 225.823C208.939 227.848 206.448 229.039 203.956 229.396C201.465 229.754 198.855 229.277 196.363 228.92C198.499 217.127 183.668 230.468 184.024 220.939C179.279 221.177 160.77 227.371 166.228 236.781C168.482 234.995 171.211 233.804 174.177 233.089C177.143 236.305 174.533 242.023 170.736 243.214C168.482 243.928 165.99 243.571 163.973 242.38C158.99 239.521 157.448 232.493 159.228 227.014C161.007 221.534 165.516 217.246 170.143 213.792C174.77 210.337 179.872 207.479 183.906 203.31C187.94 199.26 191.024 193.542 190.312 187.824C189.956 184.489 188.295 181.511 187.228 178.414C186.16 175.317 185.448 171.744 186.872 168.766C188.651 165.073 193.634 163.524 197.194 165.43C200.753 167.336 202.058 172.458 199.923 176.032C201.94 175.913 203.838 175.079 205.38 173.769C205.973 174.721 206.448 175.794 206.567 176.985C206.804 179.486 205.38 181.869 205.499 184.37C205.855 188.063 210.601 190.445 213.804 188.539C213.329 190.683 210.838 191.755 208.702 191.755C206.567 191.874 204.312 191.16 202.177 191.517C198.617 191.993 195.651 194.971 195.058 198.426C194.584 201.404 195.77 204.382 195.533 207.36C195.058 212.482 189.838 216.532 184.855 215.817C185.804 218.676 189.601 219.748 192.448 218.795C195.295 217.842 197.312 215.221 198.855 212.601C200.397 209.98 201.465 207.121 203.363 204.739C205.499 201.999 209.058 199.855 212.617 201.165C214.99 202.118 216.533 204.62 215.939 206.883Z" fill="#CEC1A3"/>
</g>
</svg>
