<svg id="Layer_1" data-name="Layer 1" xmlns="http://www.w3.org/2000/svg" viewBox="0 0 24 24"><path d="M8.46,21.58a1.4,1.4,0,0,1-.53-.11,1.5,1.5,0,0,1-.85-.94l-.91-2.6a.84.84,0,0,1,0-.61.81.81,0,0,1,.41-.49l2.77-2.12a.89.89,0,0,1,1.25,0L12.2,16a11.11,11.11,0,0,0,2.42-1.86,12.46,12.46,0,0,0,2-2.54L15.27,10c-.37-.72-.14-1.1,0-1.26L17.39,6a1,1,0,0,1,.86-.5h.23l.12,0,2.6.9a1.62,1.62,0,0,1,.89,2,23.85,23.85,0,0,1-5.17,7.82,21.9,21.9,0,0,1-7.81,5.16A1.45,1.45,0,0,1,8.46,21.58Zm1.48-6.41a.23.23,0,0,0-.14.07L6.94,17.42a.2.2,0,0,0-.12.24l.92,2.64a.79.79,0,0,0,.45.52.73.73,0,0,0,.64,0,21.11,21.11,0,0,0,7.6-5,23.26,23.26,0,0,0,5-7.57A.91.91,0,0,0,21,7.07l-2.53-.88h-.17a.28.28,0,0,0-.25.15l0,0L15.82,9.22c-.09.09,0,.27,0,.42l1.42,1.74a.35.35,0,0,1,0,.38,12.34,12.34,0,0,1-2.22,2.91,10.55,10.55,0,0,1-2.81,2.11.36.36,0,0,1-.37-.05l-1.8-1.47A.3.3,0,0,0,9.94,15.17Zm7.75-9h0Z"/><path d="M6.39,12.41A.35.35,0,0,1,6,12.06v-.68a6.16,6.16,0,0,1,6.22-6.23.35.35,0,0,1,.35.35.34.34,0,0,1-.35.35,5.46,5.46,0,0,0-5.52,5.53v.68A.35.35,0,0,1,6.39,12.41Z"/><path d="M3,13a.35.35,0,0,1-.35-.35v-1a10,10,0,0,1,10-9.95.35.35,0,1,1,0,.7A9.26,9.26,0,0,0,3.35,11.6v1A.35.35,0,0,1,3,13Z"/></svg>