<svg width="34" height="40" viewBox="0 0 34 40" fill="none" xmlns="http://www.w3.org/2000/svg">
    <path
        d="M12.9537 0.424463C6.66039 1.77303 1.26613 7.16728 0.217251 13.7603C-0.681791 19.4542 1.26613 24.5488 5.01214 28.2948L15.3511 38.6338C15.9505 39.2331 16.6997 39.2331 17.2991 38.6338L27.638 28.2948C30.9345 25.298 33.0323 20.9526 33.0323 16.3075C32.7326 6.1184 23.4425 -1.97298 12.9537 0.424463Z"
        fill="#3A241F" />
    <path
        d="M25.3896 16.3078C25.5394 16.3078 25.5394 16.3078 25.3896 16.3078H25.2398C20.4449 16.158 16.549 12.2621 16.549 7.31738C16.549 12.2621 12.6532 16.158 7.85827 16.3078H7.70843H7.55859H7.85827C12.6532 16.4576 16.549 20.3535 16.549 25.2982C16.549 20.3535 20.5947 16.3078 25.3896 16.3078Z"
        fill="white" />
</svg>