<svg width="87" height="172" viewBox="0 0 87 172" fill="none" xmlns="http://www.w3.org/2000/svg">
<path opacity="0.36" d="M77.2908 108.741C73.6434 108.741 69.7814 105.538 70.6397 102.015C68.9232 101.908 67.6895 103.563 67.0459 105.165C66.4022 106.766 66.0804 108.528 64.7931 109.649C62.9157 111.357 59.8047 110.77 57.6591 109.435C55.46 108.101 53.6899 106.125 51.4371 105.004C48.2188 103.456 43.6058 103.189 42.3722 99.8262C41.2458 96.73 44.0886 93.6338 46.6632 91.5518C43.7131 90.1639 39.7975 91.5518 38.3493 94.4345C36.4719 98.2247 38.7247 102.922 37.2229 106.873C35.7746 110.823 31.1081 112.585 26.8706 112.852C24.9933 112.958 23.0087 112.852 21.4531 111.837C19.8976 110.823 18.8785 108.741 19.6831 107.033C20.4876 105.378 23.3841 105.058 24.1351 106.713C23.2232 104.631 20.7022 103.937 18.4494 103.67C16.1966 103.403 13.7292 103.296 12.0664 101.801C8.68718 98.7585 10.7254 91.8721 6.70255 89.63C4.98612 88.6692 2.89422 89.0962 0.909592 89.2564C-1.02139 89.4165 -3.38149 89.0962 -4.29335 87.3346C-5.15156 85.7331 -4.23971 83.5978 -2.63055 82.7436C-1.0214 81.8895 0.96323 82.2098 2.57238 83.0639C2.51875 80.8752 0.373207 79.4339 -1.66506 78.6865C-3.70332 77.9926 -5.95614 78.0993 -8.15532 78.1527C-10.3545 78.2061 -12.6073 78.0993 -14.5383 77.085C-16.8984 75.8039 -18.293 73.2949 -19.8485 71.1061C-23.5496 66.0348 -29.5034 62.3513 -35.6719 60.9634C-31.9172 63.8994 -28.1625 66.8355 -25.1587 70.4656C-22.1013 74.0956 -19.7949 78.473 -19.4194 83.2241C-19.0976 87.4947 -20.3313 91.712 -20.4385 95.9826C-20.5458 100.093 -19.5803 104.204 -17.703 107.834C-16.6302 109.916 -15.1283 111.891 -12.9291 112.798C-10.7836 113.652 -7.83349 112.958 -6.92163 110.823C-8.90626 110.823 -10.9445 110.449 -12.5537 109.328C-14.1628 108.207 -15.182 106.125 -14.6992 104.257C-14.2165 102.549 -12.5537 101.321 -10.7836 101.054C-9.01353 100.787 -7.18983 101.428 -5.68795 102.389C-1.28959 105.271 0.373203 111.677 -2.09417 116.322C-3.16694 118.35 -4.88337 120.005 -5.84886 122.14C-7.35074 125.61 -6.43888 129.667 -4.66881 133.03C-2.95238 136.394 -0.43137 139.276 1.44598 142.586C2.78694 144.935 3.75243 147.978 2.25056 150.273C1.01687 152.142 -1.34323 152.729 -3.32785 153.796C-6.43888 155.505 -8.6917 158.814 -9.06717 162.338C-9.49628 165.861 -8.10168 169.598 -5.41975 172C-6.38525 170.612 -6.65344 168.637 -5.74158 167.196C-4.82973 165.754 -2.57692 165.22 -1.28959 166.341C-0.00226593 167.462 -0.592285 170.078 -2.25508 170.292C-0.324093 171.199 2.57239 169.811 3.59152 167.996C4.61065 166.181 4.71792 163.939 4.87884 161.857C5.03975 159.775 5.36159 157.533 6.75619 155.932C8.36534 154.063 11.1545 153.423 12.8173 151.554C15.2311 148.778 13.6756 143.6 10.0818 142.693C11.9591 141.572 14.4265 142.586 15.982 144.081C17.5375 145.629 18.6103 147.604 20.3267 148.992C23.1159 151.234 27.407 151.394 30.3035 149.312C32.7172 147.604 34.0582 144.668 36.4183 142.8C40.3875 139.597 47.0387 140.504 49.9888 144.721C51.3298 141.999 49.5597 138.529 46.8242 137.194C44.0886 135.806 40.8703 136.127 37.9202 136.821C34.97 137.568 32.1272 138.689 29.0698 139.009C26.0661 139.33 22.6868 138.582 20.8095 136.18C18.9321 133.778 19.4685 129.614 22.2577 128.493C24.3496 127.692 26.7097 128.706 28.5871 129.988C30.4644 131.269 32.2881 132.764 34.5409 132.977C36.7938 133.191 39.3684 131.269 38.7247 129.08C36.2037 129.507 33.79 126.891 34.0582 124.329C34.3264 121.767 36.6865 119.791 39.2611 119.418C41.7821 119.044 44.4104 120.112 46.3951 121.713C48.3797 123.315 49.9352 125.45 51.3298 127.532C52.778 129.667 54.2263 131.803 56.1036 133.564C59.6438 136.874 65.2758 138.315 69.406 135.913C65.8122 134.205 62.1111 132.39 59.751 129.187C57.3909 126.037 56.9082 121.073 59.751 118.35C61.6284 116.535 64.4712 116.108 67.0459 115.841C71.1224 115.361 75.3062 114.987 79.1145 113.385C82.8692 111.731 86.3021 108.581 86.9994 104.577C84.1566 106.606 80.9382 108.741 77.2908 108.741ZM25.3687 125.984C22.955 123.101 18.1276 122.674 15.2847 125.13C12.4419 127.585 12.1737 132.443 14.6947 135.219C12.6028 135.273 11.53 132.817 10.94 130.842C10.35 128.867 9.11628 126.411 7.02438 126.624C5.68342 126.731 4.71793 128.119 4.50337 129.454C4.34246 130.788 4.71792 132.123 5.14703 133.404C2.41147 132.924 0.587761 130.094 0.480484 127.318C0.319569 124.596 1.49961 121.927 2.67966 119.471C3.91335 117.016 5.25431 114.507 5.57614 111.784C5.89797 109.061 4.93248 105.965 2.51875 104.631C5.0934 104.631 7.02438 106.926 8.09715 109.222C9.16992 111.517 9.75994 114.133 11.53 116.001C13.5683 118.19 16.6257 118.884 19.4149 120.005C22.2041 121.073 25.1006 123.048 25.3687 125.984ZM41.5676 113.332C40.8166 115.574 38.7247 117.336 36.3646 117.603C34.0045 117.923 31.5372 116.749 30.2499 114.773C32.61 115.361 35.2382 114.773 37.1156 113.225C38.9929 111.677 40.1193 109.222 39.9584 106.819C41.6749 108.421 42.3185 111.09 41.5676 113.332Z" fill="white"/>
<path opacity="0.36" d="M24.6173 72.7076C22.579 71.1595 21.5599 68.7039 20.1116 66.5686C18.6634 64.4867 16.3569 62.5115 13.8359 62.9385C16.4642 63.8461 17.9125 66.7287 18.0197 69.5047C18.127 72.2806 17.2152 74.9497 16.4106 77.5655C15.606 80.1813 14.9087 83.0106 15.4987 85.6797C16.0888 88.3489 18.3416 90.9112 21.0771 90.9112C20.4335 89.6834 19.8435 88.4556 19.7898 87.121C19.7362 85.7865 20.4871 84.2917 21.8281 83.9181C23.8663 83.3842 25.4755 85.5729 26.3337 87.4413C27.2456 89.3098 28.6938 91.5518 30.7857 91.1782C27.8356 88.8827 27.2992 84.0248 29.7129 81.1422C32.1267 78.2595 36.9541 77.8858 39.797 80.3414C39.046 77.4587 35.8277 76.0174 32.9312 75.3768C30.142 74.7362 26.9774 74.5227 24.6173 72.7076Z" fill="white"/>
<path opacity="0.36" d="M26.6022 160.79C24.1885 161.163 21.6138 160.363 19.8438 158.708C19.951 161.057 21.5602 163.299 23.7057 164.206C25.9049 165.114 28.5868 164.687 30.3569 163.085C32.127 161.537 32.8779 158.921 32.2342 156.626C31.2151 158.761 29.0159 160.363 26.6022 160.79Z" fill="white"/>
<path opacity="0.36" d="M51.7054 70.3588C48.2189 71.5333 44.3033 69.6649 41.675 67.1025C39.0467 64.5401 37.1694 61.2303 34.4874 58.668C31.8591 56.1056 27.9972 54.1838 24.457 55.3582C27.4071 54.9845 30.3036 56.6928 32.3419 58.8815C34.3802 61.0702 35.7211 63.7927 37.3303 66.3017C38.9394 68.8107 40.9241 71.213 43.7133 72.334C46.4488 73.4017 50.0962 72.8678 51.7054 70.3588Z" fill="white"/>
<path opacity="0.36" d="M60.1826 93.1532C62.3818 93.6871 64.9028 93.0465 66.5656 91.4984C67.4775 90.6442 68.1748 89.5232 69.0866 88.6157C69.9985 87.7616 72.0368 86.6939 73.2704 87.0676C71.4467 85.6796 69.3012 84.1849 66.9947 84.612C65.4392 84.8789 64.1519 85.9999 63.0255 87.0676C61.8991 88.1352 60.719 89.3097 59.1635 89.7901C57.6616 90.2706 55.677 89.7367 55.1406 88.2954C55.8916 90.4841 57.9835 92.6194 60.1826 93.1532Z" fill="white"/>
<path opacity="0.36" d="M5.30917 71.9069C3.86093 71.3731 2.89544 70.0385 2.46633 68.5438C2.03722 67.1024 2.1445 65.5009 2.30542 64.0062C2.46633 62.5115 2.73452 60.9634 2.62725 59.4687C2.30541 55.1446 -1.28837 51.3011 -5.63309 50.6605C-8.04682 50.3402 -10.4606 50.874 -12.9279 50.7139C-14.9662 50.6071 -17.0044 49.9131 -18.3991 48.4718C-19.7937 47.0304 -20.491 44.7883 -19.6864 42.9199C-18.8818 41.0515 -16.4681 39.9839 -14.6444 40.8914C-12.9816 41.7455 -12.3915 43.8274 -10.9969 45.162C-9.11959 46.9237 -5.794 46.8169 -4.07757 44.8951C-2.62933 43.2402 -2.73661 41.0515 -4.07757 39.3967C-3.86301 39.9839 -4.02393 40.7312 -4.45304 41.2117C-5.20398 41.959 -6.43766 41.959 -7.40316 41.6921C-8.74412 41.3184 -9.87053 40.2508 -10.3533 38.9696C-12.9816 35.6598 -19.3645 32.7772 -22.3683 38.8094C-23.2802 40.7312 -23.6556 42.8132 -23.6556 44.8951C-25.3721 43.1869 -25.7475 40.5177 -25.2111 38.1688C-24.7284 35.82 -23.4947 33.6847 -22.3683 31.6027C-21.6174 30.2682 -20.8664 28.7734 -21.1346 27.2787C-21.5101 24.9832 -24.0311 23.5953 -26.3376 23.6487C-28.644 23.7021 -30.7895 24.8765 -32.8278 25.9975C-32.6133 23.2216 -29.985 21.0329 -27.2494 20.4457C-25.8012 20.1254 -24.2456 20.1788 -22.7438 20.2322C-21.2419 20.2322 -19.74 20.2322 -18.2918 19.8585C-16.8435 19.4314 -15.5026 18.5773 -14.8053 17.2427C-14.108 15.9081 -14.2689 14.0931 -15.3953 13.1322C-16.5217 12.1713 -18.6136 12.3849 -19.2036 13.7728C-20.4373 13.3458 -20.5446 11.4773 -19.6327 10.4631C-18.7745 9.44879 -17.4336 9.12849 -16.1999 8.64805C-14.9662 8.1676 -13.6789 7.42024 -13.357 6.13905C-12.9279 4.43079 -14.7516 2.77592 -16.5217 2.88268C-18.2918 2.98945 -19.7937 4.32402 -20.6519 5.87213C-21.5101 7.42024 -21.9392 9.18188 -22.5829 10.7834C-23.2265 12.4382 -24.192 14.0931 -25.7475 14.8939C-27.303 15.748 -29.6095 15.4277 -30.4141 13.8796C-27.4103 13.8796 -25.0502 11.0503 -24.943 8.06083C-24.8357 2.24209 -29.0195 0 -29.0195 0C-29.3949 1.65487 -29.6631 3.30975 -30.1995 4.91124C-30.8968 7.04656 -32.1305 9.23526 -34.2224 10.1428C-35.3488 10.6766 -36.9043 10.73 -37.7626 9.82247C-38.4599 9.12849 -38.2989 7.74054 -37.6016 7.20671C-39.1035 7.95407 -40.069 9.71571 -39.8008 11.3706C-39.3181 14.36 -35.5634 16.3886 -35.8316 19.378C-36.1534 22.2607 -39.8545 23.5419 -40.7663 26.2644C-41.3027 27.8659 -40.659 29.6276 -39.9617 31.1757C-39.2644 32.7238 -38.4599 34.3253 -38.5671 36.0335C-38.6744 37.7418 -40.3372 39.9839 -42 39.6102C-40.9272 40.5711 -39.1035 40.0373 -38.2453 38.8628C-37.3871 37.6884 -37.2262 36.1937 -36.958 34.8057C-36.6898 33.4178 -36.207 31.8697 -34.9734 31.1223C-33.2033 30.0013 -30.6823 31.0689 -29.7168 32.9373C-28.7513 34.7523 -28.9658 36.9944 -29.5559 38.9696C-30.1459 40.9448 -31.1114 42.8132 -31.5405 44.8417C-32.3451 48.365 -31.4332 52.262 -29.234 55.0913C-26.9812 57.9739 -23.4411 59.7356 -19.7937 59.8424C-15.7171 59.9491 -11.3724 58.1875 -7.72499 60.0025C-5.794 61.0168 -4.50668 62.8852 -3.48755 64.807C-2.52205 66.7288 -1.71748 68.8107 -0.483791 70.5723C0.749897 72.334 2.68088 73.8287 4.82642 73.9355C7.0256 74.0422 9.22478 72.5475 9.1175 70.4122C8.58112 71.8535 6.70377 72.4407 5.30917 71.9069Z" fill="white"/>
</svg>
