<?xml version="1.0" encoding="UTF-8"?>
<svg id="Layer_1" data-name="Layer 1" xmlns="http://www.w3.org/2000/svg" viewBox="0 0 244 437">
  <defs>
    <style>
      .cls-1 {
        fill: #fff;
        isolation: isolate;
        opacity: .36;
      }
    </style>
  </defs>
  <path class="cls-1" d="M219.31,276.28c-9.27,0-19.09-8.14-16.91-17.09-4.36-.27-7.5,3.93-9.14,8-1.64,4.07-2.46,8.54-5.73,11.39-4.77,4.34-12.68,2.85-18.14-.54-5.59-3.39-10.09-8.41-15.82-11.26-8.18-3.93-19.91-4.61-23.05-13.16-2.86-7.87,4.37-15.73,10.91-21.02-7.5-3.53-17.46,0-21.14,7.32-4.77,9.63,.95,21.57-2.86,31.6-3.68,10.04-15.55,14.51-26.32,15.19-4.77,.27-9.82,0-13.77-2.58-3.96-2.58-6.55-7.87-4.5-12.21,2.05-4.2,9.41-5.02,11.32-.81-2.32-5.29-8.73-7.05-14.46-7.73-5.73-.68-12-.95-16.23-4.75-8.59-7.73-3.41-25.23-13.64-30.92-4.36-2.44-9.68-1.36-14.73-.95-4.91,.41-10.91-.41-13.23-4.88-2.18-4.07,.14-9.49,4.23-11.67,4.09-2.17,9.14-1.36,13.23,.81-.14-5.56-5.59-9.22-10.77-11.12-5.18-1.76-10.91-1.49-16.5-1.36-5.59,.14-11.32-.13-16.23-2.71-6-3.26-9.55-9.63-13.5-15.19-9.41-12.88-24.55-22.24-40.23-25.77,9.55,7.46,19.09,14.92,26.73,24.14,7.77,9.22,13.64,20.34,14.59,32.42,.82,10.85-2.32,21.56-2.59,32.42-.27,10.44,2.18,20.89,6.96,30.11,2.73,5.29,6.55,10.31,12.14,12.61,5.46,2.17,12.96,.41,15.27-5.02-5.05,0-10.23-.95-14.32-3.8-4.09-2.85-6.68-8.14-5.46-12.88,1.23-4.34,5.46-7.46,9.96-8.14,4.5-.68,9.14,.95,12.96,3.39,11.18,7.32,15.41,23.6,9.14,35.4-2.73,5.15-7.09,9.36-9.55,14.78-3.82,8.82-1.5,19.12,3,27.67,4.36,8.55,10.77,15.87,15.55,24.28,3.41,5.97,5.86,13.7,2.05,19.53-3.14,4.75-9.14,6.24-14.18,8.95-7.91,4.34-13.64,12.75-14.59,21.7-1.09,8.95,2.45,18.45,9.27,24.55-2.45-3.53-3.14-8.55-.82-12.21,2.32-3.66,8.05-5.02,11.32-2.17,3.27,2.85,1.77,9.49-2.45,10.04,4.91,2.31,12.27-1.22,14.87-5.83,2.59-4.61,2.86-10.31,3.27-15.6,.41-5.29,1.23-10.99,4.77-15.06,4.09-4.75,11.18-6.37,15.41-11.12,6.14-7.05,2.18-20.21-6.96-22.51,4.77-2.85,11.05-.27,15,3.53,3.96,3.93,6.68,8.95,11.05,12.48,7.09,5.7,18,6.1,25.37,.81,6.14-4.34,9.55-11.8,15.55-16.55,10.09-8.14,27-5.83,34.5,4.88,3.41-6.92-1.09-15.73-8.05-19.12-6.96-3.53-15.14-2.71-22.64-.95-7.5,1.9-14.73,4.75-22.5,5.56-7.64,.81-16.23-1.08-21-7.19-4.77-6.1-3.41-16.68,3.68-19.53,5.32-2.03,11.32,.54,16.09,3.8,4.77,3.26,9.41,7.05,15.14,7.6,5.73,.54,12.28-4.34,10.64-9.9-6.41,1.08-12.55-5.56-11.86-12.07,.68-6.51,6.68-11.53,13.23-12.48,6.41-.95,13.09,1.76,18.14,5.83,5.05,4.07,9,9.49,12.55,14.78,3.68,5.43,7.37,10.85,12.14,15.33,9,8.41,23.32,12.07,33.82,5.97-9.14-4.34-18.55-8.95-24.55-17.09-6-8-7.23-20.62,0-27.53,4.77-4.61,12-5.7,18.55-6.38,10.36-1.22,21-2.17,30.69-6.24,9.55-4.2,18.28-12.21,20.05-22.38-7.23,5.15-15.41,10.58-24.68,10.58Zm-132.02,43.81c-6.14-7.32-18.41-8.41-25.64-2.17-7.23,6.24-7.91,18.58-1.5,25.63-5.32,.14-8.05-6.1-9.55-11.12-1.5-5.02-4.64-11.26-9.96-10.71-3.41,.27-5.86,3.8-6.41,7.19-.41,3.39,.55,6.78,1.64,10.04-6.96-1.22-11.59-8.41-11.87-15.46-.41-6.92,2.59-13.7,5.59-19.94,3.14-6.24,6.55-12.61,7.36-19.53,.82-6.92-1.64-14.78-7.77-18.17,6.55,0,11.46,5.83,14.18,11.66,2.73,5.83,4.23,12.48,8.73,17.23,5.18,5.56,12.96,7.32,20.05,10.17,7.09,2.71,14.46,7.73,15.14,15.19Zm41.19-32.14c-1.91,5.7-7.23,10.17-13.23,10.85-6,.81-12.27-2.17-15.55-7.19,6,1.49,12.68,0,17.46-3.93,4.77-3.93,7.64-10.17,7.23-16.27,4.36,4.07,6,10.85,4.09,16.55Z"/>
  <path class="cls-1" d="M85.39,184.73c-5.18-3.93-7.77-10.17-11.46-15.6-3.68-5.29-9.55-10.31-15.96-9.22,6.68,2.3,10.37,9.63,10.64,16.68,.27,7.05-2.05,13.83-4.09,20.48-2.05,6.65-3.82,13.83-2.32,20.62,1.5,6.78,7.23,13.29,14.18,13.29-1.64-3.12-3.14-6.24-3.27-9.63-.14-3.39,1.77-7.19,5.18-8.14,5.18-1.36,9.27,4.2,11.46,8.95,2.32,4.75,6,10.44,11.32,9.49-7.5-5.83-8.87-18.17-2.73-25.5,6.14-7.32,18.41-8.27,25.64-2.04-1.91-7.32-10.09-10.99-17.46-12.61-7.09-1.63-15.14-2.17-21.14-6.78Z"/>
  <path class="cls-1" d="M90.43,408.52c-6.14,.95-12.68-1.08-17.18-5.29,.27,5.97,4.36,11.66,9.82,13.97,5.59,2.31,12.41,1.22,16.91-2.85,4.5-3.93,6.41-10.58,4.77-16.41-2.59,5.43-8.18,9.5-14.32,10.58Z"/>
  <path class="cls-1" d="M154.26,178.76c-8.87,2.98-18.82-1.76-25.5-8.27-6.68-6.51-11.46-14.92-18.28-21.43-6.68-6.51-16.5-11.39-25.5-8.41,7.5-.95,14.87,3.39,20.05,8.95,5.18,5.56,8.59,12.48,12.68,18.85,4.09,6.38,9.14,12.48,16.23,15.33,6.96,2.71,16.23,1.36,20.32-5.02Z"/>
  <path class="cls-1" d="M175.81,236.67c5.59,1.36,12-.27,16.23-4.2,2.32-2.17,4.09-5.02,6.41-7.32,2.32-2.17,7.5-4.88,10.64-3.93-4.64-3.53-10.09-7.32-15.96-6.24-3.96,.68-7.23,3.53-10.09,6.24-2.86,2.71-5.87,5.7-9.82,6.92-3.82,1.22-8.86-.14-10.23-3.8,1.91,5.56,7.23,10.99,12.82,12.34Z"/>
  <path class="cls-1" d="M36.29,182.69c-3.68-1.36-6.14-4.75-7.23-8.54-1.09-3.66-.82-7.73-.41-11.53,.41-3.8,1.09-7.73,.82-11.53-.82-10.99-9.96-20.75-21-22.38-6.14-.81-12.27,.54-18.55,.14-5.18-.27-10.37-2.03-13.91-5.7s-5.32-9.36-3.27-14.11c2.05-4.75,8.18-7.46,12.82-5.15,4.23,2.17,5.73,7.46,9.27,10.85,4.77,4.48,13.23,4.21,17.59-.68,3.68-4.21,3.41-9.76,0-13.97,.55,1.49,.14,3.39-.95,4.61-1.91,1.9-5.05,1.9-7.5,1.22-3.41-.95-6.27-3.66-7.5-6.92-6.68-8.41-22.91-15.73-30.55-.41-2.32,4.88-3.27,10.17-3.27,15.46-4.36-4.34-5.32-11.12-3.96-17.09,1.23-5.97,4.36-11.39,7.23-16.68,1.91-3.39,3.82-7.19,3.14-10.99-.95-5.83-7.36-9.36-13.23-9.22-5.86,.14-11.32,3.12-16.5,5.97,.55-7.05,7.23-12.61,14.18-14.11,3.68-.81,7.64-.68,11.46-.54,3.82,0,7.64,0,11.32-.95,3.68-1.09,7.09-3.26,8.86-6.65,1.77-3.39,1.36-8-1.5-10.44-2.86-2.44-8.18-1.9-9.68,1.63-3.14-1.09-3.41-5.83-1.09-8.41,2.18-2.58,5.59-3.39,8.73-4.61,3.14-1.22,6.41-3.12,7.23-6.37,1.09-4.34-3.55-8.54-8.05-8.27-4.5,.27-8.32,3.66-10.5,7.6s-3.27,8.41-4.91,12.48c-1.64,4.2-4.09,8.41-8.05,10.44-3.96,2.17-9.82,1.36-11.87-2.58,7.64,0,13.64-7.19,13.91-14.78C-40.36,5.7-51,0-51,0c-.95,4.2-1.64,8.41-3,12.48-1.77,5.43-4.91,10.99-10.23,13.29-2.86,1.36-6.82,1.49-9-.81-1.77-1.76-1.36-5.29,.41-6.65-3.82,1.9-6.27,6.37-5.59,10.58,1.23,7.6,10.77,12.75,10.09,20.34-.82,7.32-10.23,10.58-12.55,17.5-1.36,4.07,.27,8.54,2.05,12.48,1.77,3.93,3.82,8,3.55,12.34-.27,4.34-4.5,10.04-8.73,9.09,2.73,2.44,7.36,1.09,9.55-1.9,2.18-2.98,2.59-6.78,3.27-10.31s1.91-7.46,5.05-9.36c4.5-2.85,10.91-.14,13.37,4.61,2.45,4.61,1.91,10.31,.41,15.33-1.5,5.02-3.96,9.77-5.05,14.92-2.05,8.95,.27,18.85,5.86,26.04,5.73,7.32,14.73,11.8,24,12.07,10.37,.27,21.41-4.2,30.69,.41,4.91,2.58,8.18,7.32,10.77,12.21,2.45,4.88,4.5,10.17,7.64,14.65,3.14,4.48,8.05,8.27,13.5,8.55,5.59,.27,11.18-3.53,10.91-8.95-1.36,3.66-6.14,5.15-9.68,3.8Z"/>
</svg>