<svg width="296" height="603" viewBox="0 0 296 603" fill="none" xmlns="http://www.w3.org/2000/svg">
<path opacity="0.36" d="M261.932 373.118C250.521 373.118 238.438 363.043 241.123 351.96C235.752 351.624 231.893 356.83 229.879 361.867C227.865 366.905 226.858 372.446 222.83 375.972C216.957 381.346 207.223 379.499 200.51 375.301C193.629 371.103 188.091 364.89 181.043 361.363C170.974 356.494 156.541 355.654 152.681 345.075C149.157 335.336 158.051 325.597 166.107 319.048C156.877 314.682 144.626 319.048 140.095 328.115C134.221 340.038 141.269 354.815 136.57 367.241C132.039 379.667 117.439 385.208 104.181 386.048C98.3072 386.383 92.0979 386.048 87.2311 382.857C82.3643 379.667 79.1757 373.118 81.693 367.744C84.2103 362.539 93.2726 361.531 95.6221 366.737C92.7691 360.188 84.8816 358.005 77.8331 357.165C70.7846 356.326 63.0649 355.99 57.8624 351.288C47.2897 341.717 53.6669 320.055 41.0804 313.003C35.7101 309.98 29.1651 311.323 22.9557 311.827C16.9142 312.331 9.53005 311.323 6.6771 305.782C3.99197 300.744 6.84492 294.028 11.8795 291.341C16.9142 288.654 23.1235 289.662 28.1582 292.348C27.9903 285.464 21.2775 280.93 14.9003 278.579C8.52313 276.396 1.47466 276.732 -5.40599 276.9C-12.2866 277.068 -19.3351 276.732 -25.3767 273.541C-32.7608 269.511 -37.1241 261.619 -41.9909 254.734C-53.5706 238.782 -72.1987 227.196 -91.498 222.83C-79.7506 232.065 -68.0031 241.301 -58.6052 252.719C-49.0394 264.138 -41.8231 277.907 -40.6484 292.852C-39.6414 306.286 -43.5013 319.551 -43.837 332.985C-44.1726 345.915 -41.1518 358.845 -35.2781 370.263C-31.9217 376.812 -27.2227 383.025 -20.342 385.88C-13.6292 388.566 -4.39907 386.383 -1.54612 379.667C-7.75549 379.667 -14.1327 378.491 -19.1673 374.965C-24.2019 371.439 -27.3905 364.89 -25.8801 359.013C-24.3698 353.639 -19.1673 349.777 -13.6292 348.937C-8.09113 348.098 -2.38522 350.113 2.31376 353.135C16.0751 362.203 21.2775 382.353 13.5577 396.962C10.2013 403.343 4.83107 408.549 1.8103 415.266C-2.88869 426.18 -0.0357285 438.942 5.50236 449.521C10.8726 460.1 18.7602 469.168 24.6339 479.579C28.8294 486.967 31.8502 496.539 27.1512 503.759C23.2914 509.637 15.9072 511.484 9.69788 514.842C-0.0357285 520.216 -7.08421 530.627 -8.25895 541.709C-9.60152 552.792 -5.23817 564.546 3.15286 572.103C0.132088 567.737 -0.707008 561.524 2.14594 556.99C4.99889 552.456 12.0474 550.777 16.0751 554.303C20.1028 557.83 18.2567 566.058 13.0543 566.729C19.0958 569.584 28.1582 565.218 31.3468 559.509C34.5353 553.8 34.871 546.747 35.3745 540.198C35.8779 533.649 36.8848 526.596 41.2482 521.559C46.2828 515.682 55.0095 513.667 60.2119 507.789C67.7639 499.058 62.8971 482.769 51.6531 479.915C57.5268 476.388 65.2466 479.579 70.1134 484.281C74.9802 489.15 78.3366 495.363 83.7068 499.729C92.4335 506.782 105.859 507.286 114.922 500.737C122.473 495.363 126.669 486.128 134.053 480.251C146.472 470.175 167.282 473.03 176.512 486.296C180.707 477.732 175.169 466.817 166.61 462.619C158.051 458.253 147.982 459.261 138.752 461.444C129.522 463.794 120.627 467.321 111.062 468.328C101.664 469.336 91.091 466.985 85.2172 459.429C79.3435 451.872 81.0217 438.774 89.7484 435.248C96.2934 432.729 103.677 435.92 109.551 439.95C115.425 443.98 121.131 448.682 128.179 449.353C135.228 450.025 143.283 443.98 141.269 437.095C133.382 438.439 125.83 430.211 126.669 422.15C127.508 414.09 134.892 407.877 142.948 406.702C150.835 405.526 159.058 408.885 165.268 413.922C171.477 418.96 176.344 425.677 180.707 432.226C185.238 438.942 189.77 445.659 195.643 451.201C206.719 461.612 224.341 466.145 237.263 458.589C226.019 453.216 214.439 447.506 207.055 437.431C199.671 427.524 198.161 411.907 207.055 403.343C212.929 397.634 221.823 396.291 229.879 395.451C242.633 393.94 255.723 392.764 267.638 387.727C279.386 382.521 290.126 372.614 292.308 360.02C283.414 366.401 273.344 373.118 261.932 373.118ZM99.482 427.356C91.93 418.288 76.8262 416.945 67.9317 424.669C59.0372 432.393 58.1981 447.674 66.0856 456.406C59.5406 456.574 56.1842 448.85 54.3382 442.637C52.4922 436.424 48.6323 428.699 42.0873 429.371C37.8918 429.707 34.871 434.073 34.1997 438.271C33.6962 442.469 34.871 446.667 36.2136 450.697C27.6547 449.185 21.9488 440.286 21.6132 431.554C21.1097 422.99 24.8017 414.594 28.4938 406.87C32.3537 399.145 36.5492 391.253 37.5561 382.689C38.563 374.125 35.5423 364.386 27.9903 360.188C36.0457 360.188 42.0873 367.409 45.4437 374.629C48.8001 381.85 50.6461 390.078 56.1842 395.955C62.5614 402.84 72.1272 405.023 80.8539 408.549C89.5806 411.907 98.6429 418.12 99.482 427.356ZM150.164 387.559C147.814 394.612 141.269 400.153 133.885 400.992C126.501 402 118.781 398.306 114.754 392.093C122.138 393.94 130.361 392.093 136.235 387.223C142.108 382.353 145.633 374.629 145.129 367.073C150.499 372.11 152.513 380.506 150.164 387.559Z" fill="#CEC1A3"/>
<path opacity="0.36" d="M97.1324 259.772C90.7552 254.902 87.5666 247.178 83.0354 240.461C78.5043 233.912 71.288 227.699 63.4004 229.043C71.6236 231.897 76.1548 240.965 76.4904 249.697C76.826 258.429 73.9731 266.825 71.4558 275.053C68.9385 283.281 66.7568 292.18 68.6028 300.576C70.4489 308.972 77.4973 317.033 86.0562 317.033C84.0423 313.17 82.1963 309.308 82.0285 305.11C81.8607 300.912 84.2102 296.21 88.4057 295.035C94.7829 293.356 99.8175 300.241 102.503 306.118C105.356 311.995 109.887 319.048 116.432 317.872C107.202 310.652 105.523 295.371 113.075 286.303C120.627 277.236 135.731 276.06 144.626 283.784C142.276 274.717 132.207 270.183 123.145 268.168C114.418 266.153 104.516 265.481 97.1324 259.772Z" fill="#CEC1A3"/>
<path opacity="0.36" d="M103.343 536.84C95.7907 538.015 87.7354 535.496 82.1973 530.291C82.5329 537.679 87.5675 544.732 94.2804 547.586C101.161 550.441 109.552 549.098 115.09 544.06C120.628 539.19 122.978 530.962 120.964 523.742C117.775 530.459 110.895 535.496 103.343 536.84Z" fill="#CEC1A3"/>
<path opacity="0.36" d="M181.882 252.383C170.974 256.078 158.723 250.2 150.499 242.14C142.276 234.08 136.402 223.669 128.011 215.609C119.788 207.549 107.705 201.504 96.6289 205.198C105.859 204.023 114.921 209.396 121.299 216.281C127.676 223.165 131.871 231.729 136.906 239.622C141.941 247.514 148.15 255.07 156.877 258.596C165.435 261.955 176.847 260.276 181.882 252.383Z" fill="#CEC1A3"/>
<path opacity="0.36" d="M208.398 324.085C215.279 325.764 223.166 323.749 228.369 318.88C231.222 316.193 233.403 312.667 236.256 309.812C239.109 307.125 245.487 303.767 249.346 304.942C243.641 300.576 236.928 295.875 229.711 297.218C224.845 298.058 220.817 301.584 217.293 304.942C213.768 308.301 210.076 311.995 205.21 313.506C200.511 315.018 194.301 313.338 192.623 308.804C194.973 315.689 201.518 322.406 208.398 324.085Z" fill="#CEC1A3"/>
<path opacity="0.36" d="M36.7171 257.253C32.186 255.574 29.1652 251.376 27.8226 246.674C26.4801 242.14 26.8157 237.103 27.3192 232.401C27.8226 227.699 28.6617 222.83 28.3261 218.128C27.3192 204.526 16.0752 192.436 2.4817 190.421C-5.07024 189.414 -12.6222 191.093 -20.3419 190.589C-26.7191 190.253 -33.0963 188.07 -37.4596 183.536C-41.823 179.003 -44.0046 171.95 -41.4873 166.073C-38.97 160.196 -31.4181 156.837 -25.7122 159.692C-20.5097 162.378 -18.6637 168.927 -14.3004 173.125C-8.42664 178.667 1.97823 178.331 7.3485 172.286C11.8797 167.08 11.544 160.196 7.3485 154.99C8.01978 156.837 7.51633 159.188 6.17376 160.699C3.82427 163.05 -0.0356064 163.05 -3.05638 162.211C-7.2519 161.035 -10.7761 157.677 -12.2865 153.647C-20.5097 143.236 -40.4804 134.168 -49.8784 153.143C-52.7313 159.188 -53.9061 165.737 -53.9061 172.286C-59.2763 166.912 -60.4511 158.516 -58.7729 151.128C-57.2625 143.739 -53.4026 137.023 -49.8784 130.474C-47.5289 126.276 -45.1794 121.574 -46.0185 116.872C-47.1932 109.652 -55.0808 105.286 -62.2971 105.454C-69.5134 105.622 -76.2262 109.316 -82.6034 112.842C-81.9321 104.11 -73.7089 97.2256 -65.1501 95.3785C-60.6189 94.3709 -55.7521 94.5389 -51.0531 94.7068C-46.3541 94.7068 -41.6552 94.7068 -37.124 93.5314C-32.5928 92.188 -28.3973 89.5013 -26.2156 85.3033C-24.034 81.1053 -24.5374 75.396 -28.0617 72.3735C-31.5859 69.3509 -38.1309 70.0226 -39.977 74.3885C-43.8368 73.0451 -44.1725 67.1679 -41.3195 63.9775C-38.6344 60.787 -34.4389 59.7795 -30.579 58.2682C-26.7191 56.7569 -22.6914 54.406 -21.6845 50.376C-20.3419 45.0025 -26.0478 39.797 -31.5859 40.1329C-37.124 40.4687 -41.823 44.6667 -44.5081 49.5364C-47.1932 54.406 -48.5358 59.9474 -50.5497 64.985C-52.5635 70.1905 -55.5843 75.396 -60.4511 77.9148C-65.3179 80.6015 -72.5342 79.594 -75.0515 74.7243C-65.6535 74.7243 -58.2694 65.8246 -57.9338 56.4211C-57.5981 38.1178 -70.6882 31.0652 -70.6882 31.0652C-71.8629 36.2707 -72.702 41.4762 -74.3802 46.5138C-76.5619 53.2306 -80.4218 60.1153 -86.9668 62.9699C-90.491 64.6491 -95.3578 64.8171 -98.0429 61.9624C-100.225 59.7795 -99.7211 55.4136 -97.5395 53.7344C-102.238 56.0852 -105.259 61.6266 -104.42 66.8321C-102.91 76.2356 -91.1623 82.6166 -92.0014 92.0201C-93.0083 101.088 -104.588 105.118 -107.441 113.682C-109.119 118.719 -107.105 124.261 -104.924 129.13C-102.742 134 -100.225 139.038 -100.56 144.411C-100.896 149.784 -106.098 156.837 -111.301 155.662C-107.944 158.684 -102.238 157.005 -99.5533 153.311C-96.8682 149.617 -96.3647 144.915 -95.5256 140.549C-94.6865 136.183 -93.1761 131.313 -89.3163 128.962C-83.7782 125.436 -75.8906 128.795 -72.8698 134.672C-69.849 140.381 -70.5203 147.434 -72.3664 153.647C-74.2124 159.86 -77.2332 165.737 -78.5757 172.118C-81.093 183.201 -78.2401 195.459 -71.3594 204.358C-64.311 213.426 -53.2348 218.967 -41.823 219.303C-29.0686 219.639 -15.4751 214.098 -4.06331 219.807C1.97824 222.998 6.00594 228.875 9.19453 234.92C12.2153 240.965 14.7326 247.514 18.5925 253.055C22.4524 258.597 28.4939 263.298 35.2067 263.634C42.0874 263.97 48.968 259.268 48.6324 252.551C46.9542 257.085 41.0805 258.932 36.7171 257.253Z" fill="#CEC1A3"/>
</svg>
