<svg width="263" height="476" viewBox="0 0 263 476" fill="none" xmlns="http://www.w3.org/2000/svg">
<path opacity="0.36" d="M182.034 96.6138C174.404 94.8012 167.864 89.3633 164.776 82.2939C162.232 89.3633 164.231 97.8827 169.499 103.321C174.768 108.759 183.306 110.571 190.573 108.215C197.658 105.677 203.108 98.9703 204.016 91.3572C198.021 96.2513 189.664 98.2452 182.034 96.6138Z" fill="#CEC1A3"/>
<path opacity="0.36" d="M55.9546 323.194C61.0414 318.119 63.4031 310.143 61.9498 303.074C61.0414 299.086 59.043 295.461 58.3164 291.473C57.408 287.485 57.953 280.235 60.8597 277.516C53.9563 280.235 46.5078 283.679 43.7828 290.567C41.9661 295.28 42.8744 300.536 43.9644 305.43C45.0544 310.324 46.3261 315.4 45.2361 320.475C44.1461 325.369 39.4227 329.901 34.5176 328.995C41.6027 330.626 50.8679 328.451 55.9546 323.194Z" fill="#CEC1A3"/>
<path opacity="0.36" d="M412.392 313.552C408.94 312.464 405.125 312.102 401.855 313.552C398.585 315.002 396.223 318.99 397.677 322.253C399.857 320.077 402.4 318.265 405.307 317.721C408.214 317.177 411.665 318.265 413.119 320.802C414.572 323.159 414.027 326.24 412.574 328.415C410.939 330.591 408.395 332.041 405.67 332.585C397.858 334.397 389.138 329.322 386.595 321.709C385.505 318.446 385.505 314.821 384.233 311.558C382.053 306.301 376.603 303.038 370.971 301.407C364.431 299.413 357.528 299.413 350.987 297.057C349.352 296.513 347.899 295.607 346.627 294.338C342.449 289.806 345.356 285.456 346.627 280.924C348.081 275.668 346.809 269.867 343.357 265.517C339.906 261.348 334.274 258.991 328.824 259.354C331.367 259.716 333.911 261.529 334.456 264.067C334.637 264.792 334.637 265.517 334.456 266.423C331.73 262.617 327.007 260.079 322.284 260.079C325.009 253.916 330.459 248.84 336.999 247.028C343.539 245.215 350.806 246.484 356.438 250.291C359.889 252.647 362.614 256.091 365.703 258.629C368.973 261.348 372.97 263.523 377.148 262.798C380.6 262.254 383.325 260.079 386.05 258.085C388.775 256.091 392.045 254.097 395.497 254.46C398.948 254.822 402.037 258.447 400.583 261.529C402.4 258.266 402.218 254.097 400.22 251.016C398.222 247.934 394.407 246.121 390.773 246.303C385.505 246.665 380.6 251.016 375.513 249.566C370.608 247.934 369.155 241.046 372.061 236.696C374.968 232.527 380.6 230.714 385.686 231.077C397.132 231.802 392.953 187.211 371.153 192.83C364.613 194.461 356.074 197.543 350.624 193.736C356.438 191.017 360.434 185.035 360.798 178.691C358.436 184.129 351.714 187.029 346.082 185.217C342.267 183.948 339.179 180.866 335.182 179.779C331.549 178.872 327.734 180.141 324.282 181.773C319.922 183.948 315.743 187.029 312.473 190.655C312.473 189.386 312.292 187.936 312.292 186.667C312.11 182.498 312.11 177.966 314.29 174.522C317.015 170.353 322.284 168.54 325.009 164.371C329.005 158.208 324.645 148.601 317.197 147.695C320.649 144.976 325.735 146.245 329.187 148.964C332.639 151.502 335.364 155.127 338.997 157.483C344.992 161.109 353.531 160.383 358.618 155.489C362.978 151.502 364.794 145.339 368.791 140.988C369.881 139.901 370.971 138.994 372.243 138.269L365.158 131.019C361.343 132.831 357.528 134.463 353.349 135.369C346.446 137 338.089 135.913 334.274 129.206C331.912 125.218 332.639 119.962 336.454 117.243C340.451 114.161 345.901 115.792 350.261 117.968C351.533 118.693 352.986 119.418 354.439 119.962C320.285 88.059 318.105 130.112 318.105 130.112C306.66 130.112 303.027 124.493 303.027 119.236C303.027 113.98 312.473 88.9654 293.943 66.8511C275.413 44.5556 259.426 56.8816 259.426 56.8816C260.334 37.4863 248.344 23.8915 248.344 23.8915C243.62 20.81 241.804 18.8161 232.72 20.6287C223.455 22.2601 214.735 38.2114 214.735 38.2114C210.557 50.7186 210.012 65.0385 188.029 64.8572C209.83 83.8899 227.089 42.743 224 77.0019C241.077 76.2769 244.347 57.0628 229.269 40.5678C241.985 42.9242 244.529 55.794 245.437 64.3134C246.346 72.4703 249.252 80.2647 253.976 86.9714C256.701 90.778 260.152 94.222 264.513 95.4909C269.054 96.5785 274.504 94.5845 275.776 90.0529C271.961 90.5967 267.783 90.4155 264.331 88.6028C260.879 86.7902 258.336 82.9836 258.881 79.1771C259.426 75.7331 262.333 72.8328 265.784 71.7452C269.236 70.8389 272.869 71.564 276.139 73.0141C285.586 77.5457 290.491 89.6904 286.858 99.4787C285.223 103.829 282.316 107.454 281.045 111.805C279.046 119.055 281.953 126.668 286.131 132.831C291.036 139.901 297.94 145.52 302.663 152.77C304.117 155.127 305.207 157.665 305.207 160.383C305.388 167.634 299.03 169.809 294.306 173.253C290.128 176.335 287.221 181.048 285.95 186.123C280.681 183.767 275.231 181.954 269.963 179.416C263.059 175.972 256.701 170.534 254.702 163.102C253.612 158.933 254.339 153.858 257.791 151.502C260.516 149.508 265.058 150.776 266.511 153.495C264.876 148.058 259.607 143.888 253.794 143.707C243.439 143.526 234.537 155.127 224.545 152.227C215.098 149.689 212.918 136.457 204.198 131.925C199.111 129.206 192.753 130.294 187.121 131.744C181.489 133.194 175.676 135.006 170.044 133.556C164.412 132.106 157.872 125.399 160.052 120.143C156.056 123.043 156.964 129.569 160.416 133.013C163.867 136.457 168.772 137.907 173.314 139.719C177.856 141.532 182.579 143.888 184.578 148.42C187.303 154.946 182.216 162.74 175.494 164.915C168.772 167.09 161.324 165.096 155.147 162.015C148.789 158.933 142.975 154.583 136.435 152.045C124.99 147.332 111.546 148.058 100.646 154.039C89.746 159.84 81.7525 170.716 79.2091 182.679C76.484 196.093 80.1174 211.681 71.7606 222.738C67.4005 228.539 60.3154 231.802 53.2303 234.158C46.1451 236.333 38.8783 237.783 32.1565 240.865C25.4348 244.128 19.4396 249.566 17.8046 256.635C16.1696 263.885 19.9846 272.042 27.2515 272.949C22.8914 270.23 21.8013 263.704 24.3447 259.173C26.8881 254.641 31.9749 252.103 37.2433 251.559C42.3301 251.016 47.5985 252.284 52.5036 253.735C57.4087 255.185 62.4954 256.816 67.5822 257.36C82.2975 258.81 97.1944 248.84 101.736 234.883C104.28 227.089 103.735 218.569 105.551 210.594C107.186 203.887 110.638 197.543 116.27 193.555C121.902 189.567 129.895 188.842 135.527 192.467C141.34 196.274 143.52 204.793 139.342 210.412C135.527 215.488 128.078 216.394 122.992 220.201C115.906 225.457 114.453 236.514 119.903 243.403C124.627 249.203 132.075 249.928 138.252 246.484C136.072 246.847 133.71 245.94 132.438 244.128C130.44 241.227 130.985 237.058 132.62 233.977C136.253 226.726 146.245 222.557 152.967 227.27C156.964 229.989 158.781 235.246 158.054 240.14C157.509 244.853 154.784 249.203 151.332 252.647C145.337 258.447 137.162 261.71 128.987 264.067C120.812 266.423 112.455 268.054 104.825 271.68C97.1944 275.124 89.9276 280.924 87.0209 288.719C84.1142 296.513 85.0225 305.214 92.471 309.383C91.926 302.495 95.0144 295.425 100.646 291.438C106.096 287.268 113.908 286.362 120.267 288.9C125.535 291.075 129.713 295.244 134.8 297.782C142.975 301.951 153.33 301.588 161.142 296.694C166.592 293.25 170.771 287.994 174.586 282.737C178.583 277.48 182.579 272.224 188.029 268.78C193.48 265.336 200.928 264.067 206.56 267.329C210.557 269.686 213.1 274.036 214.008 278.568C214.917 283.099 214.553 287.812 213.645 292.344C212.373 299.232 208.921 306.845 202.018 308.114C198.203 308.839 194.388 307.208 190.573 307.933C183.851 309.02 179.673 317.902 183.306 323.703C184.033 319.171 189.664 316.271 193.843 318.083C201.291 321.346 197.476 334.035 193.298 338.566C188.756 343.642 180.581 344.729 174.586 341.466C168.591 338.204 165.139 331.134 165.684 324.246C159.689 330.409 159.507 340.741 163.686 348.173C167.864 355.605 175.676 360.681 183.851 363.218C189.846 365.031 196.205 365.937 201.291 369.381C206.56 372.825 210.193 379.169 209.648 385.332C209.103 391.677 203.653 397.296 197.295 397.477C190.936 397.658 185.123 391.133 186.576 384.97C181.671 389.139 182.761 397.658 187.121 402.371C191.481 407.084 198.203 409.078 204.561 410.528C210.92 411.978 217.642 413.066 222.91 416.691C229.269 420.86 232.902 428.111 234.719 435.543C236.535 442.975 250.706 455.844 253.431 453.307C245.437 436.086 258.154 428.655 266.511 419.773C271.053 414.879 276.866 411.253 282.135 407.447C287.403 403.459 292.671 398.927 295.396 392.764C298.303 386.783 298.303 378.988 293.943 373.913L293.761 373.732C310.657 373.913 326.825 383.339 319.922 397.658C319.195 399.29 318.832 400.921 319.014 402.734C319.922 410.166 328.824 400.921 327.37 409.984C333.729 409.078 328.097 392.583 336.999 402.553C346.264 412.885 355.711 384.97 363.704 403.64C364.249 403.459 364.613 403.096 364.976 402.915L365.884 402.009C368.428 398.927 368.609 392.764 367.338 388.958C365.158 382.976 357.528 380.438 354.803 374.638C352.078 368.837 354.984 361.949 359.163 357.055C360.979 354.88 363.159 352.886 366.066 352.161C368.791 351.436 372.243 352.705 373.151 355.243C374.06 357.962 367.883 364.487 365.884 363.037C370.245 369.562 375.513 359.774 378.238 357.599C380.963 355.424 383.506 352.886 386.958 352.524C392.953 352.161 397.495 358.143 403.127 359.049C417.479 361.224 421.839 349.623 423.837 346.361C431.467 326.965 419.295 315.546 412.392 313.552ZM251.977 355.786C245.982 363.037 243.075 372.281 242.167 381.707C241.44 391.133 242.53 400.377 243.62 409.803C236.899 399.29 233.81 385.876 235.627 373.55C236.354 368.294 237.989 362.856 236.535 357.78C235.264 353.611 232.175 350.348 229.087 347.448C225.998 344.548 222.728 341.467 220.73 337.66C218.913 333.853 217.823 328.778 220.912 325.697C222.002 329.141 224.363 332.403 227.815 333.31C231.267 334.397 235.627 332.585 236.535 329.141C237.625 325.515 234.9 321.709 231.812 319.171C228.905 316.633 225.272 314.277 224.182 310.652C221.638 301.951 234.174 295.063 233.629 286C233.447 281.468 229.995 278.024 227.27 274.58C224.545 271.136 222.002 266.604 223.455 262.435C222.183 265.879 226.725 269.505 230.177 268.236C233.629 266.967 235.264 262.617 234.355 258.991C233.629 255.366 230.904 252.466 228.179 250.109C221.82 244.671 212.918 240.684 205.288 244.128C197.658 247.572 194.206 257.36 186.213 260.079C180.218 262.073 172.769 258.629 170.407 252.647C176.948 253.191 185.304 252.828 188.029 246.847C190.936 240.321 184.941 233.614 182.579 226.907C180.944 222.195 181.126 216.938 180.036 212.044C178.764 207.15 175.313 202.074 170.226 201.893C166.774 201.712 163.867 203.706 160.779 205.156C157.691 206.606 153.694 206.968 151.332 204.612C157.509 200.805 156.601 191.017 151.332 185.942C146.245 180.866 138.615 179.416 131.53 178.147C138.252 173.435 147.335 173.797 154.965 176.697C162.596 179.598 168.954 184.854 175.313 189.93C179.309 193.192 183.851 196.455 189.119 196.455C196.931 196.636 203.108 189.023 204.38 181.229C205.47 173.435 202.926 165.64 200.201 158.39C209.467 160.746 215.28 170.716 215.643 180.141C215.825 185.217 214.735 190.292 213.827 195.186C212.918 200.262 212.01 205.337 212.555 210.231C213.1 215.307 215.28 220.382 219.277 223.463C223.273 226.545 229.45 227.089 233.447 223.826C237.444 220.563 237.625 213.494 233.447 210.775C235.627 206.787 241.985 207.693 244.71 211.137C247.436 214.582 247.981 219.294 248.889 223.645C249.797 227.995 251.614 232.708 255.611 234.521C261.061 236.877 267.783 231.802 268.509 225.82C269.236 219.838 265.603 214.219 260.879 210.412C256.156 206.606 250.524 204.249 245.437 201.168C240.35 198.086 235.264 193.917 233.447 188.298C231.63 182.679 233.81 175.247 239.624 173.253C237.807 183.223 245.982 193.736 255.974 194.824C261.787 195.367 267.783 193.192 273.596 194.099C280.5 195.186 286.313 201.349 287.221 208.419C287.766 212.769 286.495 216.938 286.495 221.288C286.495 225.639 288.675 230.533 292.853 231.439C289.038 225.095 294.125 215.669 301.392 215.125C306.297 214.763 311.02 217.844 315.925 217.3C320.104 216.938 323.737 214.219 326.825 211.5C329.914 208.781 333.184 205.7 337.181 204.612C341.177 203.524 347.172 205.518 348.626 209.506C345.901 207.512 341.541 210.231 341.722 213.675C341.904 217.119 345.901 219.476 349.171 218.569C352.441 217.844 354.803 214.763 355.529 211.319C355.893 218.388 352.623 225.457 347.172 229.989C341.722 234.339 333.911 235.971 327.189 233.977C323.01 232.708 318.65 230.351 314.472 231.258C309.203 232.345 306.297 237.965 304.843 243.221C302.845 250.472 302.3 257.904 300.12 265.154C297.94 272.224 293.398 279.293 286.495 282.012C282.316 283.643 277.411 283.643 273.051 284.912C263.059 287.994 256.337 299.232 258.517 309.564C259.244 313.008 260.879 316.452 263.786 318.446C266.693 320.621 270.689 321.165 273.778 319.352C277.229 317.358 278.501 313.008 277.956 309.201C277.229 305.395 274.868 301.951 272.143 299.232C276.503 297.601 281.59 300.682 283.406 304.851C285.223 309.02 284.496 314.096 283.225 318.446C280.863 326.24 276.321 333.31 270.508 338.929C265.058 345.092 257.427 349.261 251.977 355.786ZM348.081 334.76C347.172 338.566 343.176 340.198 339.542 340.923C336.272 341.648 332.639 342.01 329.914 344.185C327.37 346.361 326.644 351.255 329.732 352.886C331.912 349.623 337.362 349.805 339.906 352.705C342.449 355.605 342.086 360.318 339.724 363.581C337.362 366.662 333.547 368.475 329.732 369.019C325.917 369.562 321.92 368.837 318.105 368.294C321.375 350.348 298.667 370.65 299.212 356.149C291.945 356.511 263.604 365.937 271.961 380.257C275.413 377.538 279.591 375.725 284.133 374.638C288.675 379.532 284.678 388.233 278.864 390.045C275.413 391.133 271.598 390.589 268.509 388.776C260.879 384.426 258.517 373.732 261.242 365.393C263.968 357.055 270.871 350.53 277.956 345.273C285.041 340.016 292.853 335.666 299.03 329.322C305.207 323.159 309.93 314.458 308.84 305.757C308.295 300.682 305.752 296.15 304.117 291.438C302.482 286.725 301.392 281.287 303.572 276.755C306.297 271.136 313.927 268.78 319.377 271.68C324.827 274.58 326.825 282.374 323.555 287.812C326.644 287.631 329.55 286.362 331.912 284.368C332.82 285.818 333.547 287.45 333.729 289.262C334.092 293.069 331.912 296.694 332.094 300.501C332.639 306.12 339.906 309.745 344.811 306.845C344.084 310.108 340.269 311.739 336.999 311.739C333.729 311.92 330.277 310.833 327.007 311.377C321.557 312.102 317.015 316.633 316.107 321.89C315.38 326.422 317.197 330.953 316.833 335.485C316.107 343.279 308.113 349.442 300.483 348.355C301.937 352.705 307.75 354.336 312.11 352.886C316.47 351.436 319.559 347.448 321.92 343.46C324.282 339.473 325.917 335.122 328.824 331.497C332.094 327.328 337.544 324.065 342.994 326.059C346.627 327.509 348.989 331.316 348.081 334.76Z" fill="#CEC1A3"/>
</svg>
