<svg width="293" height="603" viewBox="0 0 293 603" fill="none" xmlns="http://www.w3.org/2000/svg">
<path opacity="0.36" d="M258.932 373.118C247.521 373.118 235.438 363.043 238.123 351.96C232.752 351.624 228.893 356.83 226.879 361.867C224.865 366.905 223.858 372.446 219.83 375.972C213.956 381.346 204.223 379.499 197.51 375.301C190.629 371.103 185.091 364.89 178.043 361.363C167.974 356.494 153.541 355.654 149.681 345.075C146.157 335.336 155.051 325.597 163.107 319.048C153.877 314.682 141.626 319.048 137.095 328.115C131.221 340.038 138.269 354.815 133.57 367.241C129.039 379.667 114.439 385.208 101.181 386.048C95.3072 386.383 89.0979 386.048 84.2311 382.857C79.3643 379.667 76.1757 373.118 78.693 367.744C81.2103 362.539 90.2726 361.531 92.6221 366.737C89.7692 360.188 81.8816 358.005 74.8331 357.165C67.7846 356.326 60.0649 355.99 54.8624 351.288C44.2897 341.717 50.6669 320.055 38.0804 313.003C32.7101 309.98 26.1651 311.323 19.9557 311.827C13.9142 312.331 6.53005 311.323 3.6771 305.782C0.991968 300.744 3.84492 294.028 8.87954 291.341C13.9142 288.654 20.1235 289.662 25.1582 292.348C24.9903 285.464 18.2775 280.93 11.9003 278.579C5.52313 276.396 -1.52534 276.732 -8.40599 276.9C-15.2866 277.068 -22.3351 276.732 -28.3767 273.541C-35.7608 269.511 -40.1241 261.619 -44.9909 254.734C-56.5706 238.782 -75.1987 227.196 -94.498 222.83C-82.7506 232.065 -71.0031 241.301 -61.6052 252.719C-52.0394 264.138 -44.8231 277.907 -43.6484 292.852C-42.6414 306.286 -46.5013 319.551 -46.837 332.985C-47.1726 345.915 -44.1518 358.845 -38.2781 370.263C-34.9217 376.812 -30.2227 383.025 -23.342 385.88C-16.6292 388.566 -7.39907 386.383 -4.54612 379.667C-10.7555 379.667 -17.1327 378.491 -22.1673 374.965C-27.2019 371.439 -30.3905 364.89 -28.8801 359.013C-27.3697 353.639 -22.1673 349.777 -16.6292 348.937C-11.0911 348.098 -5.38522 350.113 -0.686237 353.135C13.0751 362.203 18.2775 382.353 10.5577 396.962C7.20133 403.343 1.83107 408.549 -1.1897 415.266C-5.88869 426.18 -3.03573 438.942 2.50236 449.521C7.87262 460.1 15.7602 469.168 21.6339 479.579C25.8294 486.967 28.8502 496.539 24.1512 503.759C20.2914 509.637 12.9072 511.484 6.69788 514.842C-3.03573 520.216 -10.0842 530.627 -11.259 541.709C-12.6015 552.792 -8.23817 564.546 0.152866 572.103C-2.86791 567.737 -3.70701 561.524 -0.854056 556.99C1.9989 552.456 9.04736 550.777 13.0751 554.303C17.1028 557.83 15.2567 566.058 10.0543 566.729C16.0958 569.584 25.1582 565.218 28.3468 559.509C31.5354 553.8 31.871 546.747 32.3744 540.198C32.8779 533.649 33.8848 526.597 38.2482 521.559C43.2828 515.682 52.0095 513.667 57.2119 507.789C64.7639 499.058 59.8971 482.769 48.6531 479.915C54.5268 476.388 62.2466 479.579 67.1134 484.281C71.9802 489.15 75.3366 495.363 80.7068 499.729C89.4335 506.782 102.859 507.286 111.922 500.737C119.473 495.363 123.669 486.128 131.053 480.251C143.472 470.175 164.282 473.03 173.512 486.296C177.707 477.732 172.169 466.817 163.61 462.619C155.051 458.253 144.982 459.261 135.752 461.444C126.522 463.794 117.627 467.321 108.062 468.328C98.6637 469.336 88.0909 466.985 82.2172 459.429C76.3435 451.872 78.0217 438.774 86.7484 435.248C93.2934 432.729 100.677 435.92 106.551 439.95C112.425 443.98 118.131 448.682 125.179 449.353C132.228 450.025 140.283 443.98 138.269 437.095C130.382 438.439 122.83 430.211 123.669 422.15C124.508 414.09 131.892 407.877 139.948 406.702C147.835 405.526 156.058 408.885 162.268 413.922C168.477 418.96 173.344 425.677 177.707 432.226C182.238 438.942 186.77 445.659 192.643 451.201C203.719 461.612 221.341 466.145 234.263 458.589C223.019 453.216 211.439 447.506 204.055 437.431C196.671 427.524 195.161 411.907 204.055 403.343C209.929 397.634 218.823 396.291 226.879 395.451C239.633 393.94 252.723 392.764 264.638 387.727C276.386 382.521 287.126 372.614 289.308 360.02C280.414 366.401 270.344 373.118 258.932 373.118ZM96.482 427.356C88.93 418.288 73.8262 416.945 64.9317 424.669C56.0372 432.393 55.1981 447.674 63.0857 456.406C56.5406 456.574 53.1842 448.85 51.3382 442.637C49.4922 436.424 45.6323 428.699 39.0873 429.371C34.8918 429.707 31.871 434.073 31.1997 438.271C30.6962 442.469 31.871 446.667 33.2136 450.697C24.6547 449.185 18.9488 440.286 18.6132 431.554C18.1097 422.99 21.8017 414.594 25.4938 406.87C29.3537 399.145 33.5492 391.253 34.5561 382.689C35.563 374.125 32.5423 364.386 24.9903 360.188C33.0457 360.188 39.0873 367.409 42.4437 374.629C45.8001 381.85 47.6461 390.078 53.1842 395.955C59.5614 402.84 69.1272 405.023 77.8539 408.549C86.5806 411.907 95.6429 418.12 96.482 427.356ZM147.164 387.559C144.814 394.612 138.269 400.153 130.885 400.992C123.501 402 115.781 398.306 111.754 392.093C119.138 393.94 127.361 392.093 133.235 387.223C139.108 382.353 142.633 374.629 142.129 367.073C147.499 372.11 149.513 380.506 147.164 387.559Z" fill="#CEC1A3"/>
<path opacity="0.36" d="M94.1324 259.772C87.7552 254.902 84.5666 247.178 80.0354 240.461C75.5043 233.912 68.288 227.699 60.4004 229.043C68.6236 231.897 73.1548 240.965 73.4904 249.697C73.826 258.429 70.9731 266.825 68.4558 275.053C65.9385 283.281 63.7568 292.181 65.6028 300.577C67.4489 308.973 74.4973 317.033 83.0562 317.033C81.0423 313.171 79.1963 309.308 79.0285 305.11C78.8607 300.912 81.2102 296.211 85.4057 295.035C91.7829 293.356 96.8175 300.241 99.5026 306.118C102.356 311.995 106.887 319.048 113.432 317.872C104.202 310.652 102.523 295.371 110.075 286.303C117.627 277.236 132.731 276.06 141.626 283.785C139.276 274.717 129.207 270.183 120.145 268.168C111.418 266.153 101.516 265.481 94.1324 259.772Z" fill="#CEC1A3"/>
<path opacity="0.36" d="M100.343 536.839C92.7907 538.015 84.7354 535.496 79.1973 530.291C79.5329 537.679 84.5675 544.732 91.2804 547.586C98.161 550.441 106.552 549.098 112.09 544.06C117.628 539.19 119.978 530.962 117.964 523.742C114.775 530.458 107.895 535.496 100.343 536.839Z" fill="#CEC1A3"/>
<path opacity="0.36" d="M178.882 252.384C167.974 256.078 155.723 250.201 147.499 242.14C139.276 234.08 133.402 223.669 125.011 215.609C116.788 207.549 104.705 201.504 93.6289 205.198C102.859 204.023 111.921 209.396 118.299 216.281C124.676 223.166 128.871 231.729 133.906 239.622C138.941 247.514 145.15 255.07 153.877 258.597C162.435 261.955 173.847 260.276 178.882 252.384Z" fill="#CEC1A3"/>
<path opacity="0.36" d="M205.398 324.085C212.279 325.765 220.166 323.749 225.369 318.88C228.222 316.193 230.403 312.667 233.256 309.812C236.109 307.125 242.487 303.767 246.346 304.942C240.641 300.577 233.928 295.875 226.711 297.218C221.845 298.058 217.817 301.584 214.293 304.942C210.768 308.301 207.076 311.995 202.21 313.506C197.511 315.018 191.301 313.338 189.623 308.805C191.973 315.689 198.518 322.406 205.398 324.085Z" fill="#CEC1A3"/>
<path opacity="0.36" d="M33.7171 257.253C29.186 255.574 26.1652 251.376 24.8226 246.674C23.4801 242.14 23.8157 237.103 24.3192 232.401C24.8226 227.699 25.6617 222.83 25.3261 218.128C24.3192 204.526 13.0752 192.436 -0.518303 190.421C-8.07024 189.414 -15.6222 191.093 -23.3419 190.589C-29.7191 190.253 -36.0963 188.07 -40.4596 183.536C-44.823 179.003 -47.0046 171.95 -44.4873 166.073C-41.97 160.196 -34.4181 156.837 -28.7122 159.692C-23.5097 162.378 -21.6637 168.927 -17.3004 173.125C-11.4266 178.667 -1.02176 178.331 4.3485 172.286C8.87966 167.08 8.54402 160.196 4.3485 154.99C5.01979 156.837 4.51633 159.188 3.17376 160.699C0.824271 163.05 -3.03561 163.05 -6.05638 162.211C-10.2519 161.035 -13.7761 157.677 -15.2865 153.647C-23.5097 143.236 -43.4804 134.168 -52.8784 153.143C-55.7313 159.188 -56.9061 165.737 -56.9061 172.286C-62.2763 166.912 -63.4511 158.516 -61.7729 151.128C-60.2625 143.739 -56.4026 137.023 -52.8784 130.474C-50.5289 126.276 -48.1794 121.574 -49.0185 116.872C-50.1932 109.652 -58.0808 105.286 -65.2971 105.454C-72.5134 105.622 -79.2262 109.316 -85.6034 112.842C-84.9321 104.11 -76.7089 97.2256 -68.1501 95.3785C-63.6189 94.3709 -58.7521 94.5389 -54.0531 94.7068C-49.3541 94.7068 -44.6552 94.7068 -40.124 93.5314C-35.5928 92.188 -31.3973 89.5013 -29.2156 85.3033C-27.034 81.1053 -27.5374 75.396 -31.0617 72.3735C-34.5859 69.3509 -41.1309 70.0226 -42.977 74.3885C-46.8368 73.0451 -47.1725 67.1679 -44.3195 63.9775C-41.6344 60.787 -37.4389 59.7795 -33.579 58.2682C-29.7191 56.7569 -25.6914 54.406 -24.6845 50.376C-23.3419 45.0025 -29.0478 39.797 -34.5859 40.1329C-40.124 40.4687 -44.823 44.6667 -47.5081 49.5364C-50.1932 54.406 -51.5358 59.9474 -53.5497 64.985C-55.5635 70.1905 -58.5843 75.396 -63.4511 77.9148C-68.3179 80.6015 -75.5342 79.594 -78.0515 74.7243C-68.6535 74.7243 -61.2694 65.8246 -60.9338 56.4211C-60.5981 38.1178 -73.6882 31.0652 -73.6882 31.0652C-74.8629 36.2707 -75.702 41.4762 -77.3802 46.5138C-79.5619 53.2306 -83.4218 60.1153 -89.9668 62.9699C-93.491 64.6491 -98.3578 64.8171 -101.043 61.9624C-103.225 59.7795 -102.721 55.4136 -100.539 53.7344C-105.238 56.0852 -108.259 61.6266 -107.42 66.8321C-105.91 76.2356 -94.1623 82.6166 -95.0014 92.0201C-96.0083 101.088 -107.588 105.118 -110.441 113.682C-112.119 118.719 -110.105 124.261 -107.924 129.13C-105.742 134 -103.225 139.038 -103.56 144.411C-103.896 149.784 -109.098 156.837 -114.301 155.662C-110.944 158.684 -105.238 157.005 -102.553 153.311C-99.8682 149.617 -99.3647 144.915 -98.5256 140.549C-97.6865 136.183 -96.1761 131.313 -92.3163 128.962C-86.7782 125.436 -78.8906 128.795 -75.8698 134.672C-72.849 140.381 -73.5203 147.434 -75.3664 153.647C-77.2124 159.86 -80.2332 165.737 -81.5757 172.118C-84.093 183.201 -81.2401 195.459 -74.3594 204.358C-67.311 213.426 -56.2348 218.967 -44.823 219.303C-32.0686 219.639 -18.4751 214.098 -7.06331 219.807C-1.02176 222.998 3.00593 228.875 6.19453 234.92C9.2153 240.965 11.7326 247.514 15.5925 253.055C19.4524 258.597 25.4939 263.298 32.2067 263.634C39.0874 263.97 45.9681 259.268 45.6324 252.551C43.9542 257.085 38.0805 258.932 33.7171 257.253Z" fill="#CEC1A3"/>
</svg>
