<svg width="151" height="181" viewBox="0 0 151 181" fill="none" xmlns="http://www.w3.org/2000/svg">
<path opacity="0.36" d="M68.4454 32.2138C65.2727 31.4584 62.5532 29.1922 61.269 26.2461C60.2115 29.1922 61.0424 32.7426 63.2331 35.0089C65.4238 37.2751 68.9742 38.0305 71.9959 37.0485C74.942 35.9909 77.2082 33.1959 77.5859 30.0231C75.0931 32.0628 71.6182 32.8937 68.4454 32.2138Z" fill="#CEC1A3"/>
<path opacity="0.36" d="M16.0193 126.64C18.1345 124.525 19.1165 121.201 18.5122 118.255C18.1345 116.593 17.3035 115.082 17.0013 113.421C16.6236 111.759 16.8503 108.737 18.0589 107.604C15.1884 108.737 12.0912 110.172 10.9581 113.043C10.2027 115.007 10.5804 117.198 11.0336 119.237C11.4869 121.277 12.0156 123.392 11.5624 125.507C11.1091 127.547 9.14508 129.435 7.10547 129.058C10.0516 129.737 13.9042 128.831 16.0193 126.64Z" fill="#CEC1A3"/>
<path opacity="0.36" d="M164.231 122.622C162.796 122.169 161.209 122.018 159.85 122.622C158.49 123.226 157.508 124.888 158.112 126.248C159.019 125.341 160.076 124.586 161.285 124.359C162.494 124.133 163.929 124.586 164.533 125.643C165.138 126.626 164.911 127.91 164.307 128.816C163.627 129.723 162.569 130.327 161.436 130.554C158.188 131.309 154.562 129.194 153.504 126.021C153.051 124.661 153.051 123.151 152.522 121.791C151.616 119.6 149.35 118.24 147.008 117.561C144.288 116.73 141.418 116.73 138.698 115.748C138.018 115.521 137.414 115.143 136.885 114.614C135.148 112.726 136.356 110.913 136.885 109.024C137.49 106.834 136.961 104.416 135.525 102.603C134.09 100.866 131.748 99.884 129.482 100.035C130.54 100.186 131.597 100.942 131.824 101.999C131.9 102.301 131.9 102.603 131.824 102.981C130.691 101.395 128.727 100.337 126.763 100.337C127.896 97.7688 130.162 95.6537 132.882 94.8983C135.601 94.1429 138.623 94.6716 140.964 96.258C142.4 97.24 143.533 98.6753 144.817 99.7329C146.177 100.866 147.839 101.773 149.576 101.47C151.011 101.244 152.145 100.337 153.278 99.5063C154.411 98.6753 155.771 97.8444 157.206 97.9955C158.641 98.1465 159.925 99.6574 159.321 100.942C160.076 99.5818 160.001 97.8444 159.17 96.5602C158.339 95.276 156.753 94.5206 155.242 94.5961C153.051 94.7472 151.011 96.5602 148.896 95.9558C146.857 95.276 146.252 92.4054 147.461 90.5924C148.67 88.855 151.011 88.0996 153.127 88.2507C157.886 88.5528 156.148 69.9697 147.083 72.3115C144.364 72.9914 140.813 74.2756 138.547 72.6892C140.964 71.5561 142.626 69.0632 142.777 66.4193C141.795 68.6855 139 69.8942 136.659 69.1388C135.072 68.61 133.788 67.3258 132.126 66.8725C130.615 66.4948 129.029 67.0236 127.594 67.7035C125.781 68.61 124.043 69.8942 122.684 71.405C122.684 70.8762 122.608 70.2719 122.608 69.7431C122.532 68.0057 122.532 66.1171 123.439 64.6818C124.572 62.9444 126.763 62.189 127.896 60.4515C129.558 57.8831 127.745 53.8795 124.648 53.5018C126.083 52.3686 128.198 52.8974 129.633 54.0305C131.069 55.0881 132.202 56.5989 133.713 57.581C136.205 59.0918 139.756 58.7896 141.871 56.75C143.684 55.0881 144.439 52.5197 146.101 50.7067C146.554 50.2535 147.008 49.8758 147.537 49.5736L144.59 46.552C143.004 47.3074 141.418 47.9873 139.68 48.365C136.81 49.0448 133.335 48.5916 131.748 45.7966C130.766 44.1347 131.069 41.944 132.655 40.8109C134.317 39.5267 136.583 40.2065 138.396 41.113C138.925 41.4152 139.529 41.7174 140.134 41.944C125.932 28.6487 125.025 46.1743 125.025 46.1743C120.266 46.1743 118.755 43.8325 118.755 41.6418C118.755 39.4511 122.684 29.0264 114.978 19.8104C107.273 10.5189 100.626 15.6557 100.626 15.6557C101.003 7.57278 96.0175 1.9072 96.0175 1.9072C94.0534 0.623002 93.298 -0.20795 89.521 0.547461C85.6684 1.22733 82.0424 7.87495 82.0424 7.87495C80.305 13.0873 80.0784 19.055 70.9379 18.9795C80.0028 26.9113 87.1792 9.76347 85.895 24.0407C92.9959 23.7386 94.3556 15.7312 88.0857 8.85698C93.3736 9.83901 94.4312 15.2024 94.8089 18.7529C95.1866 22.1522 96.3952 25.4005 98.3593 28.1955C99.4924 29.7819 100.928 31.2171 102.741 31.7459C104.629 32.1992 106.895 31.3682 107.424 29.4797C105.838 29.7063 104.1 29.6308 102.665 28.8754C101.23 28.12 100.172 26.5336 100.399 24.9472C100.626 23.5119 101.834 22.3033 103.269 21.85C104.705 21.4723 106.216 21.7745 107.575 22.3788C111.503 24.2674 113.543 29.3286 112.032 33.4078C111.352 35.2208 110.144 36.7316 109.615 38.5446C108.784 41.5663 109.993 44.739 111.73 47.3074C113.77 50.2535 116.64 52.5953 118.604 55.6169C119.209 56.5989 119.662 57.6565 119.662 58.7896C119.737 61.8113 117.093 62.7178 115.129 64.1531C113.392 65.4372 112.183 67.4013 111.655 69.5165C109.464 68.5344 107.198 67.779 105.007 66.7215C102.136 65.2862 99.4924 63.0199 98.6615 59.9228C98.2082 58.1853 98.5104 56.0702 99.9456 55.0881C101.079 54.2572 102.967 54.786 103.572 55.9191C102.892 53.6528 100.701 51.9154 98.2837 51.8399C93.9779 51.7643 90.2764 56.5989 86.1216 55.3903C82.1935 54.3327 81.287 48.8182 77.661 46.9297C75.5459 45.7966 72.9019 46.2498 70.5602 46.8541C68.2184 47.4585 65.8011 48.2139 63.4593 47.6096C61.1175 47.0052 58.3981 44.2102 59.3046 42.0195C57.6427 43.2282 58.0204 45.9476 59.4556 47.3829C60.8909 48.8182 62.9305 49.4225 64.8191 50.178C66.7076 50.9334 68.6716 51.9154 69.5026 53.8039C70.6357 56.5234 68.5206 59.7717 65.7255 60.6782C62.9305 61.5847 59.8333 60.7537 57.2649 59.4695C54.621 58.1853 52.2037 56.3723 49.4842 55.3147C44.7251 53.3507 39.1351 53.6528 34.6026 56.1457C30.0702 58.563 26.7464 63.0955 25.6888 68.0812C24.5557 73.6712 26.0665 80.1678 22.5916 84.7758C20.7786 87.1931 17.8325 88.5528 14.8864 89.5349C11.9403 90.4413 8.91866 91.0457 6.12364 92.3299C3.32862 93.6896 0.835767 95.9558 0.155898 98.9019C-0.523972 101.924 1.06239 105.323 4.08403 105.701C2.27105 104.568 1.8178 101.848 2.87538 99.9595C3.93295 98.071 6.0481 97.0134 8.23879 96.7868C10.3539 96.5602 12.5446 97.089 14.5842 97.6933C16.6238 98.2976 18.739 98.9775 20.8542 99.2041C26.973 99.8084 33.1673 95.6537 35.0559 89.837C36.1134 86.5887 35.8868 83.0383 36.6422 79.7145C37.3221 76.9195 38.7574 74.2756 41.0992 72.6137C43.4409 70.9518 46.7647 70.6496 49.1065 72.1604C51.5238 73.7468 52.4303 77.2972 50.6929 79.639C49.1065 81.7541 46.0093 82.1318 43.8942 83.7182C40.9481 85.9089 40.3438 90.5169 42.61 93.3875C44.5741 95.8048 47.6712 96.1069 50.2396 94.6717C49.3331 94.8227 48.3511 94.445 47.8223 93.6896C46.9914 92.481 47.218 90.7435 47.8979 89.4593C49.4087 86.4377 53.5634 84.7002 56.3585 86.6643C58.0204 87.7974 58.7758 89.9881 58.4736 92.0277C58.247 93.9918 57.1139 95.8048 55.6786 97.24C53.1857 99.6574 49.7864 101.017 46.387 101.999C42.9877 102.981 39.5128 103.661 36.3401 105.172C33.1673 106.607 30.1457 109.024 28.937 112.273C27.7284 115.521 28.1061 119.147 31.2033 120.884C30.9767 118.014 32.2609 115.068 34.6026 113.406C36.8689 111.668 40.1171 111.291 42.7611 112.348C44.9518 113.255 46.6892 114.992 48.8043 116.05C52.2037 117.787 56.5095 117.636 59.7578 115.597C62.024 114.161 63.7615 111.971 65.3478 109.78C67.0097 107.589 68.6716 105.398 70.9379 103.963C73.2041 102.528 76.3013 101.999 78.6431 103.359C80.305 104.341 81.3625 106.154 81.7403 108.042C82.118 109.931 81.9669 111.895 81.5892 113.784C81.0604 116.654 79.6251 119.827 76.7545 120.356C75.1682 120.658 73.5818 119.978 71.9955 120.28C69.2004 120.733 67.463 124.435 68.9738 126.852C69.276 124.964 71.6178 123.755 73.3552 124.51C76.4524 125.87 74.866 131.158 73.1286 133.047C71.24 135.162 67.8407 135.615 65.3478 134.255C62.855 132.895 61.4197 129.949 61.6463 127.079C59.1535 129.647 59.0779 133.953 60.8154 137.05C62.5528 140.147 65.8011 142.263 69.2004 143.32C71.6933 144.076 74.3372 144.453 76.4524 145.889C78.6431 147.324 80.1539 149.968 79.9273 152.536C79.7006 155.18 77.4344 157.522 74.7905 157.597C72.1465 157.673 69.7292 154.953 70.3335 152.385C68.2939 154.122 68.7472 157.673 70.5602 159.637C72.3732 161.601 75.1682 162.432 77.8121 163.036C80.4561 163.641 83.2511 164.094 85.4418 165.605C88.0857 167.342 89.5965 170.364 90.3519 173.461C91.1073 176.558 96.9995 181.922 98.1327 180.864C94.8089 173.688 100.097 170.59 103.572 166.889C105.46 164.849 107.877 163.339 110.068 161.752C112.259 160.09 114.45 158.202 115.583 155.633C116.791 153.14 116.791 149.892 114.978 147.777L114.903 147.701C121.928 147.777 128.651 151.705 125.781 157.673C125.479 158.353 125.327 159.033 125.403 159.788C125.781 162.885 129.482 159.033 128.878 162.81C131.522 162.432 129.18 155.558 132.882 159.713C136.734 164.018 140.662 152.385 143.986 160.166C144.213 160.09 144.364 159.939 144.515 159.864L144.893 159.486C145.95 158.202 146.026 155.633 145.497 154.047C144.59 151.554 141.418 150.497 140.285 148.079C139.151 145.662 140.36 142.791 142.098 140.752C142.853 139.845 143.759 139.014 144.968 138.712C146.101 138.41 147.537 138.939 147.914 139.996C148.292 141.129 145.724 143.849 144.893 143.245C146.706 145.964 148.896 141.885 150.029 140.978C151.162 140.072 152.22 139.014 153.655 138.863C156.148 138.712 158.037 141.205 160.379 141.583C166.346 142.489 168.159 137.655 168.99 136.295C172.163 128.212 167.102 123.453 164.231 122.622ZM97.5283 140.223C95.0355 143.245 93.8268 147.097 93.4491 151.025C93.147 154.953 93.6002 158.806 94.0535 162.734C91.2584 158.353 89.9742 152.763 90.7296 147.626C91.0318 145.435 91.7117 143.169 91.1073 141.054C90.5786 139.316 89.2944 137.957 88.0102 136.748C86.726 135.539 85.3662 134.255 84.5353 132.669C83.7799 131.082 83.3266 128.967 84.6108 127.683C85.0641 129.118 86.0461 130.478 87.4814 130.856C88.9167 131.309 90.7296 130.554 91.1073 129.118C91.5606 127.608 90.4275 126.021 89.1433 124.964C87.9346 123.906 86.4238 122.924 85.9706 121.413C84.913 117.787 90.1253 114.917 89.8987 111.14C89.8232 109.251 88.3879 107.816 87.2548 106.381C86.1216 104.945 85.0641 103.057 85.6684 101.319C85.1396 102.755 87.0281 104.265 88.4634 103.737C89.8987 103.208 90.5786 101.395 90.2009 99.884C89.8987 98.3732 88.7656 97.1645 87.6325 96.1825C84.9885 93.9162 81.287 92.2543 78.1143 93.6896C74.9416 95.1249 73.5063 99.2041 70.1825 100.337C67.6896 101.168 64.5924 99.7329 63.6104 97.24C66.3299 97.4667 69.8048 97.3156 70.9379 94.8227C72.1465 92.1032 69.6537 89.3082 68.6716 86.5132C67.9918 84.5491 68.0673 82.3585 67.6141 80.3188C67.0853 78.2792 65.65 76.1641 63.5349 76.0885C62.0996 76.013 60.8909 76.844 59.6067 77.4483C58.3225 78.0526 56.6606 78.2037 55.6786 77.2217C58.247 75.6353 57.8693 71.5561 55.6786 69.4409C53.5634 67.3258 50.3907 66.7215 47.4446 66.1927C50.2396 64.2286 54.0167 64.3797 57.1894 65.5883C60.3621 66.797 63.0061 68.9877 65.65 71.1028C67.3119 72.4626 69.2004 73.8223 71.3911 73.8223C74.6394 73.8979 77.2078 70.7251 77.7366 67.4769C78.1898 64.2286 77.1322 60.9803 75.9991 57.9587C79.8517 58.9407 82.269 63.0955 82.4201 67.0236C82.4957 69.1388 82.0424 71.2539 81.6647 73.2935C81.287 75.4087 80.9093 77.5238 81.1359 79.5634C81.3625 81.6786 82.269 83.7937 83.9309 85.0779C85.5928 86.3621 88.1612 86.5888 89.8232 85.229C91.4851 83.8693 91.5606 80.9232 89.8232 79.7901C90.7296 78.1282 93.3736 78.5059 94.5067 79.9411C95.6398 81.3764 95.8664 83.3405 96.2441 85.1535C96.6218 86.9665 97.3773 88.9305 99.0392 89.6859C101.305 90.668 104.1 88.5528 104.403 86.06C104.705 83.5671 103.194 81.2253 101.23 79.639C99.2658 78.0526 96.924 77.0706 94.8089 75.7864C92.6937 74.5022 90.5786 72.7647 89.8232 70.423C89.0677 68.0812 89.9742 64.984 92.3915 64.1531C91.6361 68.3078 95.0355 72.6892 99.1902 73.1424C101.608 73.3691 104.1 72.4626 106.518 72.8403C109.388 73.2935 111.806 75.8619 112.183 78.808C112.41 80.621 111.881 82.3585 111.881 84.1714C111.881 85.9844 112.788 88.024 114.525 88.4017C112.939 85.7578 115.054 81.8297 118.076 81.603C120.115 81.452 122.079 82.7362 124.119 82.5095C125.856 82.3585 127.367 81.2253 128.651 80.0922C129.935 78.9591 131.295 77.6749 132.957 77.2217C134.619 76.7684 137.112 77.5994 137.716 79.2613C136.583 78.4303 134.77 79.5634 134.846 80.9987C134.921 82.434 136.583 83.416 137.943 83.0383C139.303 82.7362 140.285 81.452 140.587 80.0167C140.738 82.9628 139.378 85.9089 137.112 87.7974C134.846 89.6104 131.597 90.2903 128.802 89.4593C127.065 88.9305 125.252 87.9485 123.514 88.3262C121.324 88.7794 120.115 91.1212 119.511 93.3119C118.68 96.3335 118.453 99.4307 117.547 102.452C116.64 105.398 114.752 108.345 111.881 109.478C110.144 110.158 108.104 110.158 106.291 110.686C102.136 111.971 99.3413 116.654 100.248 120.96C100.55 122.395 101.23 123.831 102.439 124.661C103.647 125.568 105.309 125.795 106.593 125.039C108.029 124.208 108.557 122.395 108.331 120.809C108.029 119.222 107.047 117.787 105.913 116.654C107.726 115.974 109.842 117.258 110.597 118.996C111.352 120.733 111.05 122.848 110.521 124.661C109.539 127.91 107.651 130.856 105.234 133.198C102.967 135.766 99.7946 137.503 97.5283 140.223ZM137.49 131.46C137.112 133.047 135.45 133.726 133.939 134.029C132.579 134.331 131.069 134.482 129.935 135.388C128.878 136.295 128.576 138.334 129.86 139.014C130.766 137.655 133.033 137.73 134.09 138.939C135.148 140.147 134.997 142.111 134.015 143.471C133.033 144.755 131.446 145.511 129.86 145.737C128.274 145.964 126.612 145.662 125.025 145.435C126.385 137.957 116.942 146.417 117.169 140.374C114.147 140.525 102.363 144.453 105.838 150.421C107.273 149.288 109.011 148.532 110.899 148.079C112.788 150.119 111.126 153.745 108.708 154.5C107.273 154.953 105.687 154.727 104.403 153.971C101.23 152.158 100.248 147.701 101.381 144.227C102.514 140.752 105.385 138.032 108.331 135.842C111.277 133.651 114.525 131.838 117.093 129.194C119.662 126.626 121.626 123 121.173 119.374C120.946 117.258 119.888 115.37 119.209 113.406C118.529 111.442 118.076 109.176 118.982 107.287C120.115 104.945 123.288 103.963 125.554 105.172C127.82 106.381 128.651 109.629 127.292 111.895C128.576 111.819 129.784 111.291 130.766 110.46C131.144 111.064 131.446 111.744 131.522 112.499C131.673 114.086 130.766 115.597 130.842 117.183C131.069 119.525 134.09 121.035 136.13 119.827C135.828 121.187 134.241 121.866 132.882 121.866C131.522 121.942 130.087 121.489 128.727 121.715C126.461 122.018 124.572 123.906 124.194 126.097C123.892 127.985 124.648 129.874 124.496 131.762C124.194 135.011 120.871 137.579 117.698 137.126C118.302 138.939 120.719 139.619 122.532 139.014C124.345 138.41 125.63 136.748 126.612 135.086C127.594 133.424 128.274 131.611 129.482 130.1C130.842 128.363 133.108 127.003 135.374 127.834C136.885 128.439 137.867 130.025 137.49 131.46Z" fill="#CEC1A3"/>
</svg>
