<svg width="428" height="63" viewBox="0 0 428 63" fill="none" xmlns="http://www.w3.org/2000/svg">
<path d="M231.277 51.6039H222.152H221.405H212.28C215.571 50.5568 216.169 50.2577 216.319 48.014L216.02 4.6368C216.02 3.29061 214.973 2.24357 213.627 2.24357H199.417C198.071 2.24357 197.024 3.29061 197.024 4.6368L196.724 48.014C196.874 50.2577 197.472 50.5568 200.763 51.6039H191.639H190.741H181.617C184.908 50.5568 185.506 50.2577 185.656 48.014V4.6368C185.656 1.64526 185.207 1.49569 181.617 0.299072H231.277C227.687 1.49569 227.238 1.64526 227.238 4.6368V48.014C227.388 50.2577 227.986 50.5568 231.277 51.6039Z" fill="white"/>
<path d="M377.563 51.604V62.6727C377.563 62.6727 374.871 52.3519 367.242 51.604H328.502C332.092 50.4074 332.54 50.2579 332.54 47.2663V3.7395C332.391 1.49585 331.793 1.1967 328.502 0.149658H337.477H338.374H347.349C344.058 1.1967 343.46 1.49585 343.31 3.7395L343.609 48.1638C343.609 49.51 344.656 50.557 346.002 50.557H360.063C361.409 50.557 362.456 49.51 362.456 48.1638L362.755 3.88908C362.605 1.64543 362.007 1.34627 358.716 0.299235H367.691H368.588H377.563C374.272 1.34627 373.674 1.64543 373.525 3.88908V47.4159C373.525 50.2579 373.973 50.4074 377.563 51.604Z" fill="white"/>
<path d="M427.373 51.1552C426.774 51.1552 426.325 50.856 426.026 49.809C425.578 48.3132 411.218 12.5644 406.88 2.09399C406.581 1.49568 405.684 0.299072 405.235 0.299072H388.782C388.782 0.299072 389.53 1.04696 389.829 1.04696C393.718 1.49569 396.261 3.73934 397.756 7.1796C397.756 7.1796 404.188 23.9322 404.338 24.5305C404.338 24.5305 402.692 24.3809 400.748 24.3809C398.504 24.3809 395.812 24.5305 394.914 24.9792C393.269 25.7271 391.923 27.522 391.175 29.0178C388.483 34.5521 380.256 51.0056 380.256 51.4543H390.427C393.269 51.4543 396.41 49.809 398.953 46.8174C403.44 41.7318 404.936 33.9538 404.936 25.8767L405.235 26.475C406.581 29.6161 411.817 41.8814 413.163 45.6208C413.462 46.5183 413.911 47.4157 413.911 48.3132C413.911 48.4628 413.911 48.6123 413.911 48.9115C413.761 49.809 412.714 50.856 411.368 51.1552L411.218 51.6039H412.415H427.971V51.0056H427.373V51.1552ZM403.889 28.8682C403.291 36.7958 401.944 41.7318 397.906 46.0695C395.513 48.6123 392.82 50.4073 390.277 50.4073V50.2577C391.624 43.5267 400.15 27.522 403.59 25.2784C403.739 26.3254 403.889 27.0733 403.889 27.9708C403.889 28.2699 403.889 28.5691 403.889 28.8682Z" fill="white"/>
<path d="M276.897 0.299072H272.559H269.717H264.781H264.482H263.435H262.239H257.003H255.807H254.76H246.683H242.494C242.494 0.299072 242.494 0.299072 242.345 0.299072H236.811V12.8635C237.259 9.7224 237.259 2.39314 242.494 2.09399H248.627H252.666C253.414 2.6923 253.862 3.58976 253.862 4.6368V40.8344V45.6208C253.862 49.6594 253.414 50.2577 249.375 51.6039H264.931H269.717C268.97 51.1552 268.222 51.1552 267.474 51.0056C266.128 50.5568 265.081 49.9585 264.781 48.4628V46.2191V46.0695C264.781 42.7789 264.781 6.13256 264.781 6.13256V3.88891C264.781 3.14103 264.931 2.54272 265.38 2.09399H270.465H276.598C281.833 2.24357 281.983 9.57283 282.282 12.8635V0.299072H276.897Z" fill="white"/>
<path d="M322.371 1.79492V13.9106V16.9022V22.1374V23.334V24.381V45.6209C322.371 45.6209 322.371 45.6209 322.371 45.7705V51.3048H309.657C312.798 50.8561 320.127 50.8561 320.426 45.6209V24.5306V23.7827V22.5861V17.5005V15.8551L287.818 52.8006C287.818 52.8006 287.818 51.3048 287.818 50.7065V41.2832V38.2916V20.3424V19.1458V18.0988V5.83349C287.818 5.83349 287.818 5.83349 287.818 5.68392V0.149577H300.383C297.242 0.598307 289.912 0.598306 289.613 5.83349V18.6971V36.3471L322.221 0L322.371 1.79492Z" fill="white"/>
<path d="M55.3746 51.4544H42.8102C39.5195 51.4544 38.9212 46.0697 37.4254 40.9841C34.1347 30.2145 34.2843 19.5946 28.1517 19.5946V26.4751V45.9201C28.1517 51.1553 35.4809 51.1553 38.622 51.4544H27.7029H16.7838C19.9249 51.0057 27.2542 51.0057 27.2542 45.9201V26.4751V19.5946C21.2711 19.5946 21.4207 30.3641 17.9805 40.9841C16.3351 46.0697 15.8864 51.4544 12.5957 51.4544H0.03125V51.0057H0.330405C3.62109 51.0057 6.91178 43.6764 6.91178 43.6764L14.9889 26.9239C17.8309 19.8937 19.9249 19.5946 20.3737 19.5946C4.51855 16.4535 0.928708 11.2183 0.928708 7.3293C0.928708 4.48734 2.87321 2.24369 2.87321 2.24369C3.62109 1.34623 4.66813 1.34623 4.66813 1.34623H14.3906C14.3906 1.34623 11.2495 4.63692 11.2495 8.52591C11.2495 9.2738 11.2495 9.8721 11.5487 10.62C14.241 18.398 21.4207 18.8467 25.6089 18.8467H27.2542V7.03015C27.2542 1.79496 19.9249 1.64538 16.7838 1.34623H27.7029H38.622C35.4809 1.79496 28.1517 1.79496 28.1517 7.03015V18.8467H29.797C33.9852 18.8467 41.1649 18.398 43.8572 10.62C44.1564 9.8721 44.1564 9.2738 44.1564 8.52591C44.1564 4.63692 41.0153 1.34623 41.0153 1.34623H50.7378C50.7378 1.34623 51.7848 1.34623 52.5327 2.24369C52.5327 2.24369 54.4772 4.48734 54.4772 7.3293C54.4772 11.2183 51.0369 16.4535 35.0322 19.5946C35.4809 19.5946 37.575 20.0433 40.417 26.9239L48.4941 43.6764C48.4941 43.6764 51.6352 51.0057 54.9259 51.0057H55.3746V51.4544ZM103.987 51.0057H104.286V51.4544H89.0294H87.8328L87.9824 51.0057C89.3286 50.557 90.3756 49.6595 90.5252 48.762C90.5252 48.6125 90.5252 48.3133 90.5252 48.3133C90.5252 47.4159 90.0764 46.5184 89.7773 45.6209C88.4311 42.0311 83.3455 30.065 81.9993 27.0734L81.7001 26.4751C81.7001 34.2531 80.2044 41.8815 75.8666 46.8176C73.3238 49.6595 70.3323 51.3049 67.6399 51.3049H57.7679C57.9174 50.8561 65.845 34.8514 68.5374 29.4667C69.2853 27.9709 70.6315 26.3255 72.1272 25.4281C73.0247 24.9794 75.7171 24.9793 77.8111 24.9793C79.7556 24.9793 81.401 24.9794 81.401 25.1289C81.2514 24.5306 75.1188 8.22676 74.9692 8.22676C73.623 4.7865 71.0802 2.54285 67.3408 2.24369C67.0416 2.24369 66.2937 1.49581 66.2937 1.49581H82.2984C82.7472 1.49581 83.6446 2.69242 83.9438 3.29073C88.1319 13.4619 102.192 48.3133 102.641 49.8091C102.94 50.7065 103.389 51.0057 103.987 51.0057ZM80.9522 29.3171C80.9522 29.0179 80.9522 28.7188 80.9522 28.4196C80.9522 27.5222 80.8027 26.6247 80.6531 25.7272C77.2128 27.9709 68.9861 43.5269 67.6399 50.1082V50.2578C70.0331 50.2578 72.7255 48.6125 74.9692 46.0697C79.1573 41.8815 80.3539 37.0951 80.9522 29.3171ZM147.364 15.4064C147.364 25.7272 139.736 35.3001 128.966 36.6463C128.368 36.6463 127.62 36.7959 126.872 36.7959C124.778 36.7959 122.684 36.4968 120.141 36.3472V48.1637C120.291 50.2578 120.889 50.4074 123.731 51.4544H115.654H114.906H106.829C109.821 50.557 110.419 50.2578 110.419 48.1637V34.5523C110.419 34.5523 110.269 16.0047 110.269 6.73099C110.269 3.14115 110.12 2.69242 106.679 1.79496H120.74V15.8552H120.889C121.488 14.0603 121.936 12.2653 122.684 10.62C124.479 6.43184 127.022 2.842 131.509 1.34623C132.855 0.897501 134.202 0.747925 135.548 0.747925C140.933 0.747925 145.42 4.33777 146.916 10.4704C147.065 12.1158 147.364 13.7611 147.364 15.4064ZM136.445 19.1459C136.445 17.5005 136.296 16.0048 135.996 14.2098C135.697 12.2653 134.949 10.3208 133.902 8.67549C132.855 7.03015 131.21 6.13269 129.415 6.13269C128.218 6.13269 126.872 6.58142 125.825 7.62845C124.479 8.82507 123.282 10.4704 122.535 12.1158C120.74 15.7056 120.441 19.445 120.441 22.8853C120.441 23.7827 120.441 24.6802 120.441 25.5777V30.065V32.0095C120.441 32.6078 120.74 33.3556 121.188 33.8044C122.535 35.001 124.18 35.5993 125.825 35.5993C127.171 35.5993 128.518 35.1506 129.714 34.2531C131.509 32.9069 132.855 31.112 133.902 29.0179C135.548 26.0264 136.445 22.7357 136.445 19.1459ZM152.3 30.065C160.078 27.0734 168.754 33.2061 176.831 28.4196C173.989 31.5607 168.455 36.1976 164.117 36.3472C158.732 36.4968 156.638 30.8128 152.3 30.065Z" fill="white"/>
</svg>
