<svg width="280" height="495" viewBox="0 0 280 495" fill="none" xmlns="http://www.w3.org/2000/svg">
<g clip-path="url(#clip0_687_3268)">
<path opacity="0.36" d="M165.947 88.1213C158.991 86.468 153.029 81.5081 150.214 75.0602C147.895 81.5081 149.717 89.2786 154.52 94.2385C159.323 99.1985 167.107 100.852 173.731 98.7025C180.19 96.3878 185.159 90.2706 185.987 83.3267C180.522 87.7906 172.903 89.6093 165.947 88.1213Z" fill="#CEC1A3"/>
<path opacity="0.36" d="M51.0095 294.785C55.6468 290.155 57.7998 282.881 56.4748 276.433C55.6468 272.796 53.825 269.489 53.1625 265.852C52.3344 262.214 52.8313 255.601 55.4811 253.121C49.1877 255.601 42.3975 258.742 39.9132 265.025C38.2571 269.324 39.0851 274.118 40.0788 278.582C41.0725 283.046 42.2318 287.675 41.2381 292.305C40.2445 296.769 35.9384 300.902 31.4668 300.075C37.9258 301.563 46.3723 299.579 51.0095 294.785Z" fill="#CEC1A3"/>
<path opacity="0.36" d="M375.949 287.345C372.802 286.353 369.324 286.022 366.343 287.345C363.362 288.667 361.209 292.305 362.534 295.281C364.521 293.297 366.84 291.643 369.49 291.147C372.14 290.651 375.286 291.643 376.611 293.958C377.936 296.107 377.439 298.918 376.114 300.902C374.624 302.886 372.305 304.208 369.821 304.704C362.699 306.358 354.75 301.728 352.431 294.785C351.438 291.809 351.438 288.502 350.278 285.526C348.291 280.731 343.322 277.756 338.188 276.268C332.226 274.449 325.933 274.449 319.97 272.3C318.48 271.804 317.155 270.977 315.996 269.82C312.187 265.686 314.836 261.718 315.996 257.585C317.321 252.791 316.161 247.5 313.015 243.532C309.868 239.729 304.734 237.58 299.765 237.911C302.084 238.241 304.403 239.895 304.899 242.209C305.065 242.871 305.065 243.532 304.899 244.359C302.415 240.887 298.109 238.572 293.803 238.572C296.287 232.951 301.256 228.322 307.218 226.668C313.18 225.015 319.805 226.172 324.939 229.644C328.086 231.794 330.57 234.935 333.385 237.249C336.367 239.729 340.01 241.713 343.819 241.052C346.966 240.556 349.45 238.572 351.934 236.753C354.419 234.935 357.4 233.116 360.546 233.447C363.693 233.778 366.509 237.084 365.184 239.895C366.84 236.919 366.674 233.116 364.852 230.306C363.031 227.495 359.553 225.842 356.24 226.007C351.438 226.338 346.966 230.306 342.329 228.983C337.857 227.495 336.532 221.212 339.182 217.244C341.832 213.442 346.966 211.789 351.603 212.119C362.037 212.781 358.228 172.109 338.354 177.234C332.392 178.722 324.608 181.533 319.639 178.061C324.939 175.581 328.583 170.125 328.914 164.339C326.761 169.299 320.633 171.944 315.499 170.291C312.021 169.133 309.205 166.323 305.562 165.331C302.25 164.504 298.772 165.661 295.625 167.149C291.65 169.133 287.841 171.944 284.86 175.251C284.86 174.093 284.694 172.771 284.694 171.613C284.529 167.811 284.529 163.677 286.516 160.536C289 156.733 293.803 155.08 296.287 151.278C299.931 145.656 295.956 136.894 289.166 136.067C292.313 133.587 296.95 134.744 300.097 137.224C303.243 139.539 305.728 142.846 309.04 144.995C314.505 148.302 322.289 147.64 326.926 143.176C330.901 139.539 332.557 133.918 336.201 129.95C337.195 128.958 338.188 128.131 339.348 127.47L332.889 120.857C329.411 122.51 325.933 123.998 322.124 124.825C315.83 126.313 308.212 125.321 304.734 119.203C302.581 115.566 303.243 110.772 306.721 108.292C310.365 105.481 315.333 106.969 319.308 108.953C320.467 109.614 321.792 110.276 323.117 110.772C291.981 81.6733 289.994 120.03 289.994 120.03C279.56 120.03 276.248 114.905 276.248 110.11C276.248 105.316 284.86 82.5 267.967 62.3296C251.074 41.994 236.5 53.2365 236.5 53.2365C237.328 35.5461 226.397 23.1463 226.397 23.1463C222.091 20.3357 220.435 18.517 212.154 20.1703C203.708 21.6583 195.758 36.2074 195.758 36.2074C191.949 47.6152 191.452 60.6763 171.413 60.511C191.287 77.8707 207.02 40.3407 204.205 71.5882C219.773 70.9268 222.754 53.4018 209.008 38.3567C220.601 40.506 222.919 52.2445 223.748 60.015C224.576 67.4549 227.225 74.5641 231.531 80.6813C234.016 84.1533 237.162 87.2946 241.137 88.4519C245.278 89.4439 250.246 87.6252 251.405 83.492C247.927 83.988 244.118 83.8226 240.972 82.1693C237.825 80.516 235.506 77.0441 236.003 73.5721C236.5 70.4308 239.15 67.7856 242.297 66.7936C245.443 65.9669 248.756 66.6282 251.737 67.9509C260.349 72.0841 264.82 83.1613 261.508 92.0892C260.017 96.0571 257.368 99.3637 256.208 103.332C254.387 109.945 257.036 116.889 260.846 122.51C265.317 128.958 271.611 134.083 275.917 140.696C277.242 142.846 278.235 145.16 278.235 147.64C278.401 154.254 272.604 156.237 268.298 159.379C264.489 162.189 261.839 166.488 260.68 171.117C255.877 168.968 250.909 167.315 246.106 165C239.812 161.859 234.016 156.899 232.194 150.12C231.2 146.318 231.863 141.688 235.009 139.539C237.494 137.72 241.634 138.878 242.959 141.358C241.468 136.398 236.666 132.595 231.366 132.43C221.926 132.265 213.811 142.846 204.702 140.2C196.09 137.886 194.102 125.817 186.153 121.683C181.515 119.203 175.719 120.195 170.585 121.518C165.451 122.841 160.151 124.494 155.017 123.171C149.883 121.849 143.921 115.731 145.908 110.937C142.264 113.582 143.092 119.534 146.239 122.675C149.386 125.817 153.857 127.139 157.998 128.793C162.138 130.446 166.444 132.595 168.266 136.728C170.75 142.68 166.113 149.79 159.985 151.774C153.857 153.758 147.067 151.939 141.436 149.128C135.64 146.318 130.34 142.35 124.378 140.035C113.944 135.736 101.688 136.398 91.7514 141.854C81.8145 147.144 74.5274 157.064 72.2087 167.976C69.7245 180.21 73.0368 194.429 65.4185 204.514C61.4437 209.805 54.9846 212.781 48.5256 214.93C42.0666 216.914 35.4419 218.236 29.3141 221.047C23.1863 224.023 17.721 228.983 16.2305 235.431C14.7399 242.044 18.2179 249.484 24.8425 250.311C20.8677 247.831 19.874 241.879 22.1926 237.745C24.5113 233.612 29.1485 231.298 33.9514 230.802C38.5886 230.306 43.3915 231.463 47.8631 232.786C52.3348 234.108 56.972 235.596 61.6093 236.092C75.0242 237.415 88.6047 228.322 92.7451 215.591C95.0638 208.482 94.5669 200.711 96.2231 193.437C97.7136 187.32 100.86 181.533 105.994 177.896C111.129 174.259 118.416 173.597 123.55 176.904C128.849 180.376 130.837 188.146 127.028 193.272C123.55 197.901 116.759 198.727 112.122 202.199C105.663 206.994 104.338 217.079 109.307 223.362C113.613 228.652 120.403 229.314 126.034 226.172C124.047 226.503 121.894 225.676 120.734 224.023C118.912 221.378 119.409 217.575 120.9 214.765C124.212 208.151 133.321 204.349 139.449 208.647C143.092 211.127 144.749 215.922 144.086 220.386C143.589 224.684 141.105 228.652 137.958 231.794C132.493 237.084 125.04 240.06 117.588 242.209C110.135 244.359 102.516 245.847 95.5606 249.153C88.6047 252.295 81.9801 257.585 79.3302 264.694C76.6804 271.804 77.5084 279.739 84.2987 283.542C83.8019 277.26 86.6173 270.812 91.7514 267.174C96.7199 263.372 103.841 262.545 109.638 264.86C114.441 266.844 118.25 270.646 122.887 272.961C130.34 276.764 139.78 276.433 146.902 271.969C151.87 268.828 155.679 264.033 159.157 259.238C162.801 254.444 166.444 249.649 171.413 246.508C176.381 243.367 183.172 242.209 188.306 245.185C191.949 247.335 194.268 251.303 195.096 255.436C195.924 259.569 195.593 263.868 194.765 268.001C193.605 274.284 190.459 281.227 184.165 282.385C180.687 283.046 177.209 281.558 173.731 282.219C167.604 283.211 163.794 291.313 167.107 296.603C167.769 292.47 172.903 289.825 176.713 291.478C183.503 294.454 180.025 306.027 176.216 310.16C172.075 314.79 164.623 315.782 159.157 312.806C153.692 309.83 150.545 303.382 151.042 297.099C145.577 302.72 145.411 312.144 149.22 318.923C153.029 325.701 160.151 330.331 167.604 332.645C173.069 334.299 178.866 335.125 183.503 338.267C188.306 341.408 191.618 347.194 191.121 352.816C190.624 358.602 185.656 363.727 179.859 363.893C174.063 364.058 168.763 358.106 170.088 352.485C165.616 356.288 166.61 364.058 170.585 368.357C174.56 372.655 180.687 374.474 186.484 375.797C192.28 377.119 198.408 378.111 203.211 381.418C209.008 385.22 212.32 391.834 213.976 398.612C215.632 405.391 228.55 417.129 231.035 414.815C223.748 399.108 235.341 392.33 242.959 384.228C247.099 379.765 252.399 376.458 257.202 372.986C262.005 369.349 266.808 365.215 269.292 359.594C271.942 354.138 271.942 347.029 267.967 342.4L267.801 342.234C283.204 342.4 297.944 350.997 291.65 364.058C290.988 365.546 290.656 367.034 290.822 368.687C291.65 375.466 299.765 367.034 298.44 375.301C304.237 374.474 299.103 359.429 307.218 368.522C315.664 377.946 324.277 352.485 331.564 369.514C332.06 369.349 332.392 369.018 332.723 368.853L333.551 368.026C335.87 365.215 336.035 359.594 334.876 356.122C332.889 350.666 325.933 348.352 323.448 343.061C320.964 337.771 323.614 331.488 327.423 327.024C329.079 325.04 331.067 323.221 333.717 322.56C336.201 321.899 339.348 323.056 340.176 325.371C341.004 327.851 335.373 333.803 333.551 332.48C337.526 338.432 342.329 329.504 344.813 327.52C347.297 325.536 349.616 323.221 352.763 322.891C358.228 322.56 362.368 328.016 367.502 328.843C380.586 330.827 384.561 320.245 386.383 317.27C393.338 299.579 382.242 289.163 375.949 287.345ZM229.71 325.867C224.244 332.48 221.595 340.912 220.766 349.509C220.104 358.106 221.098 366.538 222.091 375.135C215.964 365.546 213.148 353.312 214.804 342.069C215.467 337.275 216.957 332.315 215.632 327.685C214.473 323.883 211.658 320.907 208.842 318.262C206.027 315.616 203.045 312.806 201.224 309.334C199.568 305.862 198.574 301.232 201.389 298.422C202.383 301.563 204.536 304.539 207.683 305.366C210.829 306.358 214.804 304.704 215.632 301.563C216.626 298.257 214.142 294.785 211.326 292.47C208.676 290.155 205.364 288.006 204.37 284.699C202.052 276.764 213.479 270.481 212.982 262.214C212.817 258.081 209.67 254.94 207.186 251.799C204.702 248.657 202.383 244.524 203.708 240.721C202.549 243.863 206.689 247.169 209.836 246.012C212.982 244.855 214.473 240.887 213.645 237.58C212.982 234.274 210.498 231.628 208.014 229.479C202.217 224.519 194.102 220.882 187.146 224.023C180.19 227.164 177.044 236.092 169.757 238.572C164.291 240.391 157.501 237.249 155.348 231.794C161.31 232.29 168.929 231.959 171.413 226.503C174.063 220.551 168.597 214.434 166.444 208.317C164.954 204.018 165.119 199.223 164.126 194.76C162.966 190.296 159.82 185.666 155.182 185.501C152.036 185.336 149.386 187.154 146.57 188.477C143.755 189.8 140.111 190.13 137.958 187.981C143.589 184.509 142.761 175.581 137.958 170.952C133.321 166.323 126.365 165 119.906 163.843C126.034 159.544 134.315 159.875 141.271 162.52C148.227 165.165 154.023 169.96 159.82 174.589C163.463 177.565 167.604 180.541 172.406 180.541C179.528 180.706 185.159 173.763 186.318 166.653C187.312 159.544 184.993 152.435 182.509 145.822C190.956 147.971 196.255 157.064 196.586 165.661C196.752 170.291 195.758 174.92 194.93 179.384C194.102 184.013 193.274 188.642 193.771 193.106C194.268 197.735 196.255 202.365 199.899 205.175C203.542 207.986 209.173 208.482 212.817 205.506C216.46 202.53 216.626 196.082 212.817 193.602C214.804 189.965 220.601 190.792 223.085 193.933C225.569 197.074 226.066 201.373 226.894 205.341C227.722 209.309 229.378 213.607 233.022 215.261C237.99 217.41 244.118 212.781 244.781 207.325C245.443 201.869 242.131 196.743 237.825 193.272C233.519 189.8 228.385 187.65 223.748 184.84C219.11 182.029 214.473 178.226 212.817 173.101C211.161 167.976 213.148 161.197 218.448 159.379C216.792 168.472 224.244 178.061 233.353 179.053C238.653 179.549 244.118 177.565 249.418 178.392C255.711 179.384 261.011 185.005 261.839 191.453C262.336 195.421 261.177 199.223 261.177 203.191C261.177 207.159 263.164 211.623 266.973 212.45C263.495 206.663 268.133 198.066 274.757 197.57C279.229 197.239 283.535 200.05 288.007 199.554C291.816 199.223 295.128 196.743 297.944 194.264C300.759 191.784 303.74 188.973 307.384 187.981C311.027 186.989 316.493 188.808 317.817 192.445C315.333 190.626 311.358 193.106 311.524 196.247C311.69 199.389 315.333 201.538 318.314 200.711C321.295 200.05 323.448 197.239 324.111 194.098C324.442 200.546 321.461 206.994 316.493 211.127C311.524 215.095 304.403 216.583 298.275 214.765C294.466 213.607 290.491 211.458 286.682 212.285C281.879 213.277 279.229 218.402 277.904 223.196C276.082 229.81 275.585 236.588 273.598 243.201C271.611 249.649 267.47 256.097 261.177 258.577C257.368 260.065 252.896 260.065 248.921 261.222C239.812 264.033 233.684 274.284 235.672 283.707C236.334 286.849 237.825 289.99 240.475 291.809C243.125 293.793 246.768 294.289 249.584 292.635C252.73 290.817 253.89 286.849 253.393 283.377C252.73 279.905 250.577 276.764 248.093 274.284C252.068 272.796 256.705 275.606 258.361 279.409C260.017 283.211 259.355 287.841 258.196 291.809C256.043 298.918 251.902 305.366 246.603 310.491C241.634 316.112 234.678 319.915 229.71 325.867ZM317.321 306.688C316.493 310.16 312.849 311.648 309.537 312.31C306.556 312.971 303.243 313.302 300.759 315.286C298.44 317.27 297.778 321.733 300.593 323.221C302.581 320.245 307.549 320.411 309.868 323.056C312.187 325.701 311.855 330 309.702 332.976C307.549 335.787 304.071 337.44 300.593 337.936C297.115 338.432 293.472 337.771 289.994 337.275C292.975 320.907 272.273 339.424 272.77 326.197C266.145 326.528 240.309 335.125 247.927 348.186C251.074 345.706 254.883 344.053 259.024 343.061C263.164 347.525 259.521 355.461 254.221 357.114C251.074 358.106 247.596 357.61 244.781 355.957C237.825 351.989 235.672 342.234 238.156 334.629C240.64 327.024 246.934 321.072 253.393 316.278C259.852 311.483 266.973 307.515 272.604 301.728C278.235 296.107 282.541 288.171 281.548 280.235C281.051 275.606 278.732 271.473 277.242 267.174C275.751 262.876 274.757 257.916 276.745 253.783C279.229 248.657 286.185 246.508 291.153 249.153C296.122 251.799 297.944 258.908 294.962 263.868C297.778 263.702 300.428 262.545 302.581 260.726C303.409 262.049 304.071 263.537 304.237 265.19C304.568 268.662 302.581 271.969 302.746 275.441C303.243 280.566 309.868 283.873 314.34 281.227C313.677 284.203 310.199 285.691 307.218 285.691C304.237 285.857 301.09 284.865 298.109 285.361C293.141 286.022 289 290.155 288.172 294.95C287.51 299.083 289.166 303.216 288.835 307.35C288.172 314.459 280.885 320.08 273.929 319.088C275.254 323.056 280.554 324.544 284.529 323.221C288.503 321.899 291.319 318.262 293.472 314.624C295.625 310.987 297.115 307.019 299.765 303.712C302.746 299.91 307.715 296.934 312.683 298.753C315.996 300.075 318.149 303.547 317.321 306.688Z" fill="#CEC1A3"/>
<path opacity="0.36" d="M290.988 389.684C291.816 393.322 288.504 397.124 284.86 398.116C281.051 399.274 277.076 398.447 273.432 397.786C269.789 397.124 265.649 396.628 262.171 398.116C256.871 400.265 254.552 406.217 252.73 411.508C254.718 409.028 260.349 408.532 263.33 409.028C266.311 409.689 269.292 411.012 272.273 411.508C277.738 412.5 283.701 410.351 287.344 406.383C290.988 402.249 292.313 395.14 290.988 389.684Z" fill="#CEC1A3"/>
</g>
<defs>
<clipPath id="clip0_687_3268">
<rect width="762" height="495" fill="white"/>
</clipPath>
</defs>
</svg>
