<svg width="263" height="484" viewBox="0 0 263 484" fill="none" xmlns="http://www.w3.org/2000/svg">
<path opacity="0.36" d="M235.655 299.484C226.496 299.484 216.798 291.397 218.953 282.502C214.643 282.232 211.545 286.41 209.928 290.454C208.312 294.497 207.504 298.945 204.271 301.775C199.557 306.088 191.744 304.606 186.356 301.236C180.834 297.867 176.389 292.88 170.731 290.05C162.649 286.141 151.065 285.467 147.967 276.976C145.139 269.158 152.278 261.341 158.743 256.085C151.335 252.58 141.502 256.085 137.865 263.363C133.151 272.932 138.808 284.793 135.036 294.767C131.4 304.741 119.681 309.188 109.04 309.862C104.325 310.132 99.3415 309.862 95.4353 307.302C91.5291 304.741 88.9698 299.484 90.9903 295.171C93.0107 290.993 100.284 290.184 102.17 294.363C99.8803 289.106 93.5496 287.354 87.8923 286.68C82.235 286.006 76.0388 285.737 71.8632 281.963C63.3773 274.28 68.4958 256.893 58.3935 251.232C54.0831 248.806 48.83 249.885 43.8461 250.289C38.997 250.693 33.0703 249.885 30.7805 245.437C28.6253 241.393 30.9152 236.002 34.9561 233.846C38.997 231.689 43.9809 232.498 48.0218 234.654C47.8871 229.128 42.4992 225.489 37.3807 223.602C32.2622 221.85 26.6049 222.12 21.0823 222.254C15.5597 222.389 9.90236 222.12 5.05325 219.559C-0.873447 216.324 -4.37557 209.989 -8.2818 204.463C-17.5759 191.659 -32.5274 182.359 -48.0176 178.855C-38.5887 186.268 -29.1599 193.681 -21.6169 202.846C-13.9391 212.011 -8.1471 223.063 -7.20422 235.059C-6.39603 245.841 -9.49409 256.489 -9.76348 267.271C-10.0329 277.65 -7.60831 288.028 -2.8939 297.193C-0.199951 302.449 3.57159 307.436 9.09419 309.728C14.4821 311.884 21.8904 310.132 24.1803 304.741C19.1965 304.741 14.078 303.797 10.0371 300.967C5.99612 298.136 3.43687 292.88 4.64915 288.163C5.86143 283.85 10.0371 280.75 14.4821 280.076C18.9271 279.402 23.5068 281.019 27.2784 283.445C38.3236 290.723 42.4992 306.897 36.3031 318.623C33.6091 323.745 29.2988 327.923 26.8742 333.314C23.1027 342.075 25.3926 352.319 29.8376 360.81C34.1479 369.301 40.4787 376.579 45.1931 384.936C48.5606 390.866 50.9851 398.549 47.2136 404.344C44.1155 409.061 38.1889 410.544 33.205 413.24C25.3926 417.553 19.7353 425.909 18.7924 434.805C17.7148 443.7 21.217 453.135 27.9519 459.2C25.5273 455.696 24.8538 450.709 27.1437 447.07C29.4335 443.431 35.0908 442.083 38.3235 444.913C41.5563 447.744 40.0746 454.348 35.899 454.887C40.7481 457.178 48.0218 453.674 50.581 449.092C53.1403 444.509 53.4097 438.848 53.8138 433.592C54.2178 428.335 55.026 422.674 58.5282 418.631C62.5691 413.914 69.5734 412.296 73.749 407.579C79.8104 400.57 75.9042 387.496 66.8794 385.205C71.5938 382.375 77.7899 384.936 81.6962 388.709C85.6024 392.618 88.2964 397.605 92.6067 401.109C99.6109 406.77 110.387 407.175 117.66 401.918C123.722 397.605 127.089 390.192 133.016 385.475C142.984 377.388 159.686 379.679 167.094 390.327C170.462 383.453 166.017 374.692 159.147 371.323C152.278 367.818 144.196 368.627 136.787 370.379C129.379 372.266 122.24 375.097 114.562 375.905C107.019 376.714 98.5334 374.827 93.8189 368.762C89.1045 362.697 90.4515 352.184 97.4557 349.353C102.709 347.332 108.636 349.892 113.35 353.127C118.064 356.362 122.644 360.136 128.302 360.675C133.959 361.214 140.424 356.362 138.808 350.836C132.477 351.914 126.416 345.31 127.089 338.84C127.763 332.371 133.689 327.384 140.155 326.44C146.486 325.497 153.086 328.193 158.07 332.236C163.053 336.28 166.96 341.671 170.462 346.927C174.099 352.319 177.735 357.71 182.45 362.158C191.34 370.514 205.483 374.153 215.855 368.088C206.83 363.775 197.536 359.192 191.609 351.105C185.683 343.153 184.47 330.619 191.609 323.745C196.324 319.162 203.463 318.084 209.928 317.41C220.165 316.197 230.672 315.254 240.235 311.21C249.664 307.032 258.285 299.08 260.036 288.971C252.897 294.093 244.815 299.484 235.655 299.484ZM105.268 343.019C99.2068 335.74 87.084 334.662 79.9451 340.862C72.8061 347.062 72.1326 359.327 78.4634 366.336C73.2102 366.471 70.5163 360.271 69.0346 355.284C67.5529 350.297 64.4549 344.097 59.2017 344.636C55.8342 344.906 53.4097 348.41 52.8709 351.779C52.4668 355.149 53.4097 358.518 54.4872 361.753C47.6177 360.54 43.038 353.397 42.7686 346.388C42.3645 339.514 45.3278 332.775 48.2911 326.575C51.3892 320.375 54.7567 314.041 55.5648 307.167C56.373 300.293 53.9485 292.476 47.8871 289.106C54.3526 289.106 59.2017 294.902 61.8956 300.697C64.5896 306.493 66.0712 313.097 70.5162 317.814C75.6348 323.341 83.3125 325.093 90.3168 327.923C97.3211 330.619 104.595 335.606 105.268 343.019ZM145.947 311.075C144.061 316.736 138.808 321.184 132.881 321.858C126.955 322.667 120.758 319.701 117.526 314.715C123.452 316.197 130.053 314.715 134.767 310.806C139.481 306.897 142.31 300.697 141.906 294.632C146.216 298.676 147.833 305.415 145.947 311.075Z" fill="#CEC1A3"/>
<path opacity="0.36" d="M103.383 208.507C98.2643 204.598 95.705 198.398 92.0682 193.007C88.4313 187.751 82.6394 182.764 76.3086 183.842C82.9088 186.133 86.5456 193.411 86.815 200.42C87.0844 207.429 84.7945 214.168 82.7741 220.772C80.7536 227.376 79.0026 234.52 80.4842 241.259C81.9659 247.998 87.6232 254.467 94.4928 254.467C92.8764 251.367 91.3947 248.267 91.26 244.898C91.1253 241.528 93.0111 237.754 96.3785 236.811C101.497 235.463 105.538 240.989 107.693 245.707C109.983 250.424 113.62 256.085 118.873 255.141C111.465 249.346 110.118 237.081 116.179 229.802C122.24 222.524 134.363 221.581 141.502 227.781C139.616 220.502 131.535 216.863 124.261 215.246C117.257 213.629 109.31 213.089 103.383 208.507Z" fill="#CEC1A3"/>
<path opacity="0.36" d="M108.366 430.896C102.305 431.84 95.8396 429.818 91.3945 425.64C91.6639 431.57 95.7049 437.231 101.093 439.522C106.615 441.813 113.35 440.735 117.795 436.692C122.24 432.783 124.126 426.179 122.51 420.383C119.95 425.774 114.428 429.818 108.366 430.896Z" fill="#CEC1A3"/>
<path opacity="0.36" d="M171.405 202.576C162.65 205.542 152.817 200.824 146.216 194.355C139.616 187.885 134.902 179.529 128.167 173.059C121.567 166.59 111.869 161.738 102.979 164.703C110.387 163.759 117.661 168.072 122.779 173.598C127.898 179.125 131.265 185.998 135.306 192.333C139.347 198.668 144.331 204.733 151.335 207.563C158.205 210.259 167.364 208.911 171.405 202.576Z" fill="#CEC1A3"/>
<path opacity="0.36" d="M192.687 260.128C198.21 261.476 204.54 259.858 208.716 255.95C211.006 253.793 212.757 250.963 215.047 248.672C217.337 246.515 222.455 243.82 225.553 244.763C220.973 241.259 215.586 237.485 209.794 238.563C205.887 239.237 202.655 242.067 199.826 244.763C196.997 247.459 194.034 250.424 190.128 251.637C186.356 252.85 181.372 251.502 180.025 247.863C181.911 253.389 187.164 258.78 192.687 260.128Z" fill="#CEC1A3"/>
<path opacity="0.36" d="M54.8931 206.485C51.2563 205.137 48.8317 201.768 47.7541 197.994C46.6765 194.355 46.9459 190.311 47.35 186.537C47.7541 182.764 48.4276 178.855 48.1582 175.081C47.35 164.164 38.3253 154.459 27.4148 152.842C21.3534 152.033 15.292 153.381 9.09593 152.977C3.97742 152.707 -1.1411 150.955 -4.64324 147.316C-8.14537 143.677 -9.89643 138.016 -7.87597 133.299C-5.85551 128.581 0.205872 125.886 4.78559 128.177C8.96121 130.334 10.4429 135.59 13.945 138.96C18.6594 143.407 27.0107 143.138 31.321 138.286C34.9579 134.107 34.6885 128.581 31.321 124.403C31.8598 125.886 31.4557 127.773 30.3781 128.986C28.4924 130.873 25.3943 130.873 22.9698 130.199C19.6023 129.255 16.7737 126.56 15.5614 123.325C8.96121 114.969 -7.06778 107.69 -14.6108 122.921C-16.9007 127.773 -17.8436 133.029 -17.8436 138.286C-22.1539 133.973 -23.0968 127.234 -21.7498 121.303C-20.5375 115.373 -17.4395 109.982 -14.6108 104.725C-12.7251 101.356 -10.8393 97.5817 -11.5128 93.8079C-12.4557 88.0123 -18.7865 84.5079 -24.5785 84.6427C-30.3705 84.7775 -35.7584 87.7427 -40.8769 90.5731C-40.3381 83.5645 -33.7379 78.0384 -26.8683 76.5558C-23.2315 75.7472 -19.3253 75.8819 -15.5537 76.0167C-11.7822 76.0167 -8.01068 76.0167 -4.37384 75.0732C-0.737011 73.995 2.63042 71.8385 4.38149 68.469C6.13256 65.0994 5.72849 60.5169 2.89983 58.0908C0.0711861 55.6647 -5.18203 56.2039 -6.6637 59.7082C-9.76174 58.6299 -10.0311 53.9126 -7.74128 51.3517C-5.58612 48.7909 -2.21867 47.9822 0.879372 46.7692C3.97742 45.5561 7.21014 43.6692 8.01833 40.4344C9.0959 36.1214 4.5162 31.9432 0.0711784 32.2128C-4.37384 32.4823 -8.14537 35.8519 -10.3005 39.7605C-12.4557 43.6692 -13.5333 48.117 -15.1497 52.1604C-16.766 56.3386 -19.1906 60.5169 -23.0968 62.5386C-27.003 64.6951 -32.795 63.8864 -34.8155 59.9777C-27.2724 59.9777 -21.3457 52.8343 -21.0763 45.2866C-20.8069 30.5954 -31.3134 24.9346 -31.3134 24.9346C-32.2562 29.1128 -32.9297 33.291 -34.2767 37.3345C-36.0278 42.7257 -39.1258 48.2518 -44.379 50.543C-47.2077 51.8909 -51.1139 52.0256 -53.2691 49.7344C-55.0201 47.9822 -54.616 44.4779 -52.865 43.1301C-56.6365 45.017 -59.061 49.4648 -58.3875 53.643C-57.1753 61.1908 -47.7465 66.3125 -48.4199 73.8602C-49.2281 81.1384 -58.5223 84.3732 -60.8121 91.247C-62.1591 95.2905 -60.5427 99.7383 -58.7916 103.647C-57.0406 107.556 -55.0201 111.599 -55.2895 115.912C-55.5589 120.225 -59.7345 125.886 -63.9102 124.942C-61.2162 127.368 -56.6365 126.021 -54.4813 123.055C-52.3262 120.09 -51.9221 116.316 -51.2486 112.812C-50.5751 109.308 -49.3628 105.399 -46.2648 103.512C-41.8197 100.682 -35.489 103.377 -33.0644 108.095C-30.6399 112.677 -31.1787 118.338 -32.6603 123.325C-34.142 128.312 -36.5666 133.029 -37.6441 138.151C-39.6646 147.047 -37.3747 156.886 -31.8521 164.029C-26.1948 171.307 -17.3048 175.755 -8.14538 176.025C2.09163 176.294 13.0021 171.846 22.1616 176.429C27.0107 178.99 30.2434 183.707 32.8027 188.559C35.2272 193.411 37.2477 198.668 40.3457 203.116C43.4438 207.563 48.2929 211.337 53.6808 211.607C59.2034 211.876 64.726 208.102 64.4566 202.711C63.1096 206.35 58.3952 207.833 54.8931 206.485Z" fill="#CEC1A3"/>
<path opacity="0.36" d="M1.28247 356.497C-3.29727 352.858 -8.55048 350.297 -13.5343 347.197C-18.5181 343.962 -23.3672 340.053 -25.5223 334.797C-29.8327 324.688 -23.906 313.367 -23.3672 302.449C-22.9631 292.745 -27.004 282.771 -34.2777 276.167C-41.4167 269.428 -51.6537 266.193 -61.3519 267.676C-66.8745 268.35 -72.1277 270.506 -77.6503 271.719C-83.0382 272.932 -89.0996 272.932 -93.814 269.967C-98.5284 267.002 -100.953 259.993 -97.5855 255.546C-95.161 252.446 -91.1201 251.502 -87.2138 251.098C-83.3076 250.559 -79.2667 250.424 -76.0339 248.402C-72.8012 246.38 -70.7807 241.528 -73.2053 238.563C-72.5318 243.011 -78.8626 246.919 -83.577 246.919C-88.1567 246.919 -92.3323 244.359 -96.3733 242.202C-100.414 240.046 -105.129 237.889 -109.574 238.967C-117.117 240.72 -121.427 250.559 -129.239 250.693C-137.456 250.963 -142.036 240.315 -149.983 238.428C-154.428 237.485 -159.412 239.641 -161.702 243.415C-160.085 241.663 -156.314 241.528 -154.563 243.55C-152.407 245.976 -152.812 250.154 -154.428 253.119C-157.391 258.511 -163.318 261.341 -169.379 262.689C-173.959 263.632 -178.404 263.902 -182.984 264.711C-182.984 260.532 -184.331 256.354 -186.89 253.119C-189.853 249.48 -194.298 246.65 -192.682 241.124C-192.143 238.967 -190.796 237.35 -189.18 235.733C-184.196 231.015 -177.731 228.05 -172.612 223.602C-168.167 219.694 -164.53 214.437 -164.53 208.372C-164.665 204.733 -166.147 201.363 -166.551 197.724C-167.359 189.503 -161.297 181.011 -153.081 179.394C-150.252 178.855 -147.289 179.124 -144.864 180.472C-142.44 181.955 -140.823 184.785 -140.958 187.616C-141.228 190.716 -143.921 193.142 -147.02 193.816C-150.118 194.49 -153.216 193.816 -156.044 192.737C-155.91 196.511 -152.138 199.072 -148.501 199.072C-144.864 198.937 -141.632 196.916 -138.668 194.624C-133.684 190.446 -129.913 184.92 -127.623 178.855C-125.199 172.52 -120.754 163.085 -110.517 163.759C-125.333 173.464 -126.546 188.964 -113.615 192.872C-109.304 165.916 -104.051 200.959 -83.577 190.581C-100.549 186.403 -98.1243 175.216 -98.9325 164.838C-98.9325 164.838 -102.569 150.82 -109.304 147.72C-115.904 144.486 -117.655 145.699 -121.966 147.181C-121.966 147.181 -133.819 155.268 -136.917 170.498C-136.917 170.498 -146.75 157.829 -165.338 171.442C-183.927 184.92 -181.502 205.946 -182.58 209.989C-183.657 214.033 -187.563 217.672 -196.319 215.381C-196.319 215.381 -189.719 182.494 -222.181 200.42C-220.968 200.285 -219.756 200.016 -218.544 199.746C-214.772 198.937 -210.193 198.668 -207.768 201.903C-205.344 204.733 -205.882 208.911 -208.442 211.607C-212.752 216.055 -219.352 215.246 -224.336 212.685C-227.434 211.202 -229.993 209.181 -232.552 207.024C-247.1 200.824 -248.581 210.933 -248.581 210.933C-243.732 206.081 -239.422 211.202 -239.422 211.202C-238.614 212.011 -237.94 212.955 -237.267 214.033C-235.112 218.211 -234.842 223.333 -232.283 227.241C-229.32 231.959 -222.854 234.25 -217.601 232.633C-214.368 231.554 -211.54 229.263 -208.442 228.05C-205.209 226.568 -201.033 226.702 -199.013 229.398C-204.939 228.589 -210.193 235.194 -208.307 240.72C-207.095 244.493 -203.323 246.92 -202.111 250.693C-201.168 253.793 -201.976 257.298 -202.919 260.398C-203.188 261.341 -203.592 262.419 -203.862 263.498C-205.613 260.128 -208.307 256.893 -211.136 254.332C-213.425 252.446 -216.119 250.693 -219.083 250.693C-222.315 250.693 -225.279 252.58 -228.512 252.715C-233.226 252.985 -237.806 249.48 -238.479 244.763C-239.422 249.75 -237.536 255.141 -233.63 258.376C-238.614 260.263 -244.541 256.219 -249.255 253.659C-264.88 245.033 -276.868 278.593 -267.978 280.345C-263.937 281.019 -260.031 283.58 -258.549 287.354C-257.202 291.263 -259.627 296.249 -263.668 296.654C-267.843 296.789 -270.807 292.476 -274.713 291.128C-277.407 290.319 -280.774 290.993 -282.929 292.88C-285.085 294.767 -286.027 298.002 -285.219 300.967C-285.758 298.271 -282.66 296.115 -279.966 296.519C-277.272 296.923 -275.117 299.08 -273.366 301.102C-271.615 303.123 -269.998 305.415 -267.439 306.493C-264.341 307.841 -260.839 307.032 -257.876 305.549C-255.047 304.202 -252.218 302.045 -249.12 300.967C-244.002 299.08 -238.21 299.619 -233.495 302.315C-228.781 305.01 -225.683 309.997 -224.74 315.254C-228.377 314.31 -232.552 315.388 -235.381 317.815C-235.381 317.141 -235.246 316.467 -234.977 316.062C-234.034 314.175 -231.744 313.367 -229.724 313.502C-233.899 312.154 -238.614 312.828 -242.116 315.388C-245.618 318.084 -247.773 322.262 -247.639 326.575C-247.504 330.349 -246.157 334.258 -250.333 336.953C-251.545 337.627 -252.892 338.032 -254.239 338.167C-259.761 338.706 -265.015 337.358 -270.402 337.627C-275.117 337.762 -279.831 339.245 -282.525 342.884C-284.142 345.175 -284.815 348.006 -286.297 350.297C-289.799 355.688 -297.477 357.845 -303.134 354.879C-305.154 353.936 -306.771 352.319 -307.579 350.297C-308.252 348.275 -308.118 345.849 -306.501 344.366C-304.885 342.749 -302.056 342.48 -299.901 343.558C-297.746 344.501 -296.13 346.388 -294.917 348.545C-293.166 346.253 -294.244 342.749 -296.399 340.997C-298.554 339.245 -301.652 338.706 -304.481 338.975C-310.138 339.11 -321.722 345.579 -319.702 362.023C-318.759 364.988 -317.681 374.692 -306.232 375.905C-301.787 376.31 -297.073 372.536 -292.493 374.018C-289.934 374.962 -288.452 377.388 -286.836 379.679C-285.219 381.836 -283.064 390.462 -278.35 386.283C-280.235 386.957 -283.603 380.757 -282.391 378.87C-281.178 377.118 -278.35 376.849 -276.329 377.927C-274.174 379.005 -272.962 381.027 -272.019 383.049C-269.729 387.631 -268.921 393.562 -272.154 397.47C-275.386 401.379 -281.717 401.918 -284.546 406.096C-286.297 408.792 -287.374 413.509 -286.027 416.474L-285.489 417.418C-285.219 417.688 -285.085 417.957 -284.68 418.227C-274.847 405.422 -273.096 428.74 -263.937 422.674C-255.182 416.744 -262.725 428.335 -258.01 430.222C-257.337 422.944 -252.353 431.84 -250.198 426.314C-249.659 424.966 -249.659 423.618 -249.928 422.27C-252.488 409.87 -238.21 405.827 -225.144 408.927L-225.279 409.062C-229.589 412.161 -231.205 418.092 -230.128 423.348C-229.185 428.605 -226.087 433.187 -222.854 437.231C-219.487 441.139 -215.85 445.183 -213.291 449.766C-208.576 458.257 -200.36 466.478 -209.789 478.204C-208.172 480.63 -194.837 473.487 -191.874 468.231C-189.045 462.839 -184.87 457.987 -179.078 455.965C-174.363 454.213 -168.975 454.618 -163.722 454.752C-158.604 454.887 -152.946 454.618 -148.771 451.922C-144.595 449.226 -142.036 442.757 -144.999 438.579C-145.134 443.566 -150.791 447.474 -155.64 446.126C-160.489 444.779 -163.587 439.387 -162.779 434.4C-161.971 429.548 -157.93 425.37 -153.216 423.753C-148.636 422.135 -143.517 422.674 -138.668 422.405C-131.933 422.001 -124.929 419.709 -120.215 414.722C-115.5 409.735 -113.615 401.783 -117.117 395.853C-118.06 401.244 -122.1 406.096 -127.354 407.444C-132.607 408.792 -138.668 406.366 -141.228 401.514C-143.517 397.201 -144.056 386.688 -137.591 385.61C-134.089 385.07 -130.317 388.305 -130.586 391.944C-126.68 388.17 -128.162 380.488 -133.011 378.331C-135.84 376.984 -139.072 377.523 -141.901 376.175C-147.02 373.884 -148.097 367.279 -147.693 361.753C-147.558 358.114 -146.885 354.34 -145.268 351.106C-143.652 347.736 -140.823 344.906 -137.321 343.962C-132.337 342.614 -126.815 345.04 -123.313 348.679C-119.811 352.453 -117.79 357.171 -115.77 362.023C-113.884 366.875 -111.729 371.727 -108.227 375.366C-103.243 380.623 -95.2957 382.914 -88.1567 381.297C-83.7117 380.353 -79.6707 377.927 -75.2257 377.253C-69.8378 376.579 -64.0459 378.736 -60.6784 383.049C-57.1763 387.227 -56.0987 393.292 -57.8498 398.414C-51.2496 396.662 -48.9597 390.192 -49.6332 383.588C-50.3067 376.984 -54.7517 371.188 -60.0049 367.01C-65.1234 362.697 -71.3195 359.866 -77.1115 356.362C-82.9035 352.992 -88.5608 348.814 -92.0629 343.153C-94.0834 339.784 -95.2957 335.875 -94.7569 332.236C-94.3528 328.327 -91.9282 324.688 -88.2914 323.341C-82.23 321.049 -75.3604 326.171 -74.0135 332.506C-73.34 335.201 -73.7441 338.571 -75.8992 340.323C-77.2462 341.536 -79.2667 341.671 -80.883 340.997C-76.8421 344.906 -70.9154 345.714 -66.201 342.21C-60.6784 338.032 -59.6008 329.136 -64.0459 323.745C-67.1439 319.836 -72.8012 317.68 -74.687 312.962C-76.8421 307.841 -73.4747 301.641 -68.2215 299.889C-63.2376 298.136 -57.1763 300.293 -53.6741 304.471C-50.172 308.649 -48.6903 314.175 -48.825 319.701C-48.9597 326.171 -51.1149 332.64 -50.7108 339.11C-49.9026 350.701 -40.4738 361.349 -28.8898 363.101C-24.8488 363.64 -20.6732 363.371 -16.6323 363.236C-12.5914 363.101 -8.28104 363.101 -4.50952 364.584C-0.603302 366.066 2.89883 369.031 3.84174 372.94C4.78461 376.849 2.76416 381.701 -1.14209 383.049C4.6499 383.723 9.09491 378.197 9.36432 372.266C9.36432 365.797 5.72748 360.405 1.28247 356.497ZM-209.384 424.292C-212.078 425.1 -215.176 424.696 -217.601 423.214C-221.777 420.653 -223.124 413.24 -218.679 410.275C-215.446 412.027 -212.483 414.183 -210.462 417.014C-201.168 407.579 -221.103 394.775 -226.626 393.157C-229.05 404.479 -242.52 384.397 -243.463 398.818C-246.561 398.549 -249.659 398.279 -252.488 397.066C-255.316 395.853 -257.876 393.696 -259.088 390.866C-260.3 387.901 -259.627 384.127 -257.067 382.51C-254.508 380.757 -250.333 381.701 -249.255 384.666C-246.561 383.992 -246.157 380.084 -247.639 377.927C-249.255 375.771 -252.084 374.692 -254.373 373.479C-257.067 372.266 -259.761 370.11 -259.761 367.01C-259.761 364.179 -257.202 361.753 -254.104 361.349C-249.524 360.945 -246.022 364.449 -244.271 368.358C-242.789 371.727 -242.385 375.366 -241.308 378.87C-240.23 382.375 -238.749 386.149 -235.651 388.036C-232.552 389.923 -227.838 389.923 -225.818 386.823C-231.879 386.149 -236.863 379.814 -235.92 373.749C-235.246 370.244 -233.091 367.01 -232.687 363.371C-232.418 359.192 -234.977 354.745 -239.018 353.127C-241.443 352.049 -244.271 352.184 -246.83 351.51C-249.39 350.836 -251.949 348.814 -251.814 346.253C-248.581 349.488 -242.385 348.14 -240.769 343.827C-239.826 340.997 -240.904 337.762 -239.826 334.797C-239.287 333.449 -238.479 332.371 -237.536 331.427C-236.055 333.449 -234.169 334.932 -231.744 335.74C-233.226 330.888 -230.128 325.362 -225.414 324.149C-220.699 322.936 -215.311 326.306 -214.234 331.158C-213.425 335.067 -215.311 339.11 -217.466 342.345C-219.622 345.714 -222.45 348.679 -223.932 352.453C-226.491 358.923 -224.605 366.605 -220.968 372.536C-217.466 378.601 -212.348 383.453 -207.903 388.979C-203.458 394.505 -199.417 400.84 -199.013 407.714C-198.609 414.588 -202.65 422.405 -209.384 424.292ZM-79.5361 290.858C-84.5199 293.689 -87.2138 301.102 -83.1729 305.28C-85.4628 306.628 -88.4261 305.549 -90.5813 303.797C-92.7364 302.045 -94.4875 300.023 -97.1814 299.484C-101.088 298.676 -104.725 301.91 -106.745 305.415C-108.496 308.919 -109.439 313.097 -111.594 316.332C-114.692 321.049 -120.619 325.093 -119.676 330.619C-118.733 335.74 -112.402 337.627 -107.284 338.571C-110.247 342.749 -116.713 343.962 -120.888 341.266C-126.546 337.627 -127.219 329.406 -132.472 325.227C-137.725 321.049 -145.268 322.397 -151.195 325.362C-153.754 326.71 -156.448 328.327 -157.661 331.023C-159.008 333.584 -158.604 337.358 -156.314 338.975C-154.159 340.458 -150.387 338.975 -149.983 336.414C-150.118 339.649 -152.677 342.345 -155.236 344.366C-158.065 346.523 -161.297 348.41 -162.375 351.914C-164.53 358.788 -156.314 366.605 -159.951 372.805C-161.432 375.366 -164.8 376.444 -167.494 377.927C-170.322 379.275 -173.151 381.701 -173.016 384.666C-173.016 387.496 -170.053 389.788 -167.089 389.653C-164.261 389.653 -161.836 387.631 -160.355 385.205C-158.604 388.17 -160.355 391.944 -162.51 394.505C-164.8 397.066 -167.898 398.818 -170.861 400.436C-173.824 402.053 -176.788 403.94 -178.673 406.905C-180.829 410.544 -180.559 414.992 -181.098 419.17C-182.176 429.009 -187.159 438.713 -194.298 445.587C-191.604 438.579 -188.91 431.57 -187.698 424.157C-186.486 416.744 -187.025 409.062 -190.123 402.322C-193.086 396.257 -198.07 391.54 -201.033 385.744C-204.401 380.218 -206.556 373.884 -206.825 367.414C-206.96 363.775 -206.556 359.732 -204.266 356.901C-202.111 354.071 -197.531 352.723 -194.568 354.745C-197.262 356.362 -199.686 358.519 -201.033 361.349C-202.246 364.179 -202.111 367.818 -199.821 369.975C-197.801 371.997 -194.568 372.401 -192.009 371.188C-189.449 370.244 -187.429 367.953 -186.217 365.392C-182.58 357.845 -185.543 347.871 -192.547 343.558C-195.645 341.671 -199.417 340.727 -202.246 338.706C-206.96 335.201 -209.115 328.867 -209.384 323.071C-209.654 317.006 -208.576 311.21 -208.711 305.28C-208.846 300.967 -209.923 295.98 -213.83 294.228C-216.928 292.745 -220.699 293.689 -224.201 293.823C-229.724 294.093 -235.381 291.263 -238.749 286.815C-241.981 282.232 -243.194 276.167 -241.443 270.776C-241.577 273.606 -240.365 276.437 -237.94 277.65C-235.651 278.997 -232.014 277.919 -231.205 275.358C-230.397 272.798 -233.226 269.832 -235.651 270.776C-233.765 267.945 -228.781 267.676 -225.952 269.293C-223.124 270.911 -221.238 273.876 -219.352 276.571C-217.466 279.267 -215.311 282.097 -212.078 283.176C-208.442 284.524 -204.131 283.041 -200.494 284.389C-194.972 286.276 -192.951 294.497 -197.127 298.676C-193.76 298.81 -191.066 295.441 -190.257 292.071C-189.449 288.702 -189.584 285.197 -188.237 281.963C-186.217 276.706 -180.425 273.067 -174.902 273.606C-170.322 274.011 -166.012 276.841 -161.567 277.65C-153.62 278.728 -145.268 272.258 -144.73 264.172C-140.689 266.867 -140.419 272.932 -142.979 276.976C-145.538 280.884 -150.252 283.176 -154.697 284.524C-159.277 285.871 -163.991 286.68 -168.436 288.567C-172.747 290.589 -176.653 294.228 -177.326 298.945C-178 303.662 -173.824 308.919 -169.11 308.11C-165.742 307.436 -163.318 304.202 -161.836 301.102C-160.355 298.002 -159.008 294.363 -156.179 292.341C-153.35 290.184 -148.367 290.723 -147.424 294.228C-151.195 295.441 -152.407 300.967 -149.983 304.336C-147.558 307.571 -142.709 308.38 -139.072 306.897C-135.436 305.28 -132.742 301.776 -131.26 298.002C-129.913 294.363 -129.644 290.184 -129.239 286.141C-128.97 282.232 -128.835 278.054 -127.623 274.145C-125.468 267.002 -119.137 260.398 -111.459 260.398C-114.962 265.385 -118.464 270.911 -119.137 277.245C-119.676 283.445 -116.443 290.589 -110.382 291.936C-106.341 293.015 -102.165 291.397 -98.5284 289.645C-92.6017 286.95 -86.675 284.119 -80.3442 283.445C-74.0135 282.771 -66.8745 284.254 -62.5642 289.106C-68.4909 288.297 -74.687 288.028 -79.5361 290.858Z" fill="#CEC1A3"/>
</svg>
