<svg id="Слой_1" data-name="Слой 1" xmlns="http://www.w3.org/2000/svg" xmlns:xlink="http://www.w3.org/1999/xlink" viewBox="0 0 444.03 107.67"><defs><style>.cls-1{fill:none;}.cls-2{clip-path:url(#clip-path);}.cls-3{fill:#1d1d1b;}.cls-4{fill:#878787;}</style><clipPath id="clip-path" transform="translate(-38.23 -39.63)"><rect class="cls-1" width="508.31" height="174.34"/></clipPath></defs><title>Лого_А</title><g class="cls-2"><path class="cls-3" d="M127.71,69.24a6.75,6.75,0,0,1-.17,2.09c-1.4,3.36-8.08,9.31-12.63,9.5-2.13.1-4.12-.53-5.17-2a8,8,0,0,1-1.22-5.25c.53-7.62,6.61-17.27,10.29-23.47l-1.57-6.48a8.8,8.8,0,0,0,.26,1.3,12.22,12.22,0,0,1,.78,3.62,2.87,2.87,0,0,1-.68,1.74A33.31,33.31,0,0,1,115.11,53q-1.86,1.92-3.28,3.6c-2.17,2.41-3.75,4.21-4.74,5.38s-2.24,2.82-3.72,4.93a36.1,36.1,0,0,0-3.62,6.36,14.92,14.92,0,0,0-1.39,6,19.46,19.46,0,0,0,1.07,6.25A12.5,12.5,0,0,0,103.1,91a9.92,9.92,0,0,0,6.79,2.28c7.69,0,15-9.87,18.52-21.18Z" transform="translate(-38.23 -39.63)"/><path class="cls-3" d="M148.37,92.75c-.61,0-1.08-.33-1.42-1.34-.47-1.55-15.23-38.22-19.68-48.87-.27-.61-1.28-1.89-1.75-1.89H109.86l-.12.73h.07c4,.41,6.61,2.7,8.09,6.34,0,0,2.28,5.87,4.16,10.85l6.3,15.84c2,4.76,4.33,10.39,5.24,12.67a8,8,0,0,1,.75,2.83c0,.14-.07.34-.07.54a3.72,3.72,0,0,1-2.63,2.36l.31.47h16.41v-.54Z" transform="translate(-38.23 -39.63)"/><path class="cls-3" d="M96.56,93.22H83.35c-3.52,0-4.06-5.62-5.76-11-3.52-11.38-2.83-22.63-9.2-22.63V87.33c0,5.49,7.24,5.49,10.56,5.89H55.84c3.32-.4,10.56-.4,10.56-5.89V59.55c-6.37,0-5.68,11.31-9.2,22.63-1.7,5.42-2.24,11-5.76,11H38.23v-.4h.27C42,92.82,45.41,85,45.41,85L54,67.34c3-7.38,5.21-7.79,5.69-7.79h.06c-16.8-3.32-20.46-8.88-20.46-12.94a9,9,0,0,1,2-5.35,2.52,2.52,0,0,1,1.9-.89h10.3S50.08,43.9,50.08,48a6.46,6.46,0,0,0,.34,2.24c2.92,8.26,10.44,8.74,14.84,8.74H66.4V46.41c0-5.49-7.24-5.63-10.56-6H79c-3.32.41-10.56.55-10.56,6V58.94h1.14c4.4,0,11.93-.48,14.84-8.74A6.46,6.46,0,0,0,84.71,48c0-4.06-3.39-7.59-3.39-7.59h10.3a2.52,2.52,0,0,1,1.9.89,9,9,0,0,1,2,5.35c0,4.06-3.66,9.62-20.46,12.94h.06c.48,0,2.71.41,5.69,7.79L89.38,85s3.39,7.79,6.85,7.79h.27Z" transform="translate(-38.23 -39.63)"/><path class="cls-3" d="M193,49.93c-1.55-6.44-6.3-10.3-12-10.3a13.12,13.12,0,0,0-4.2.68c-4.81,1.49-7.52,5.28-9.35,9.75a54,54,0,0,0-1.9,5.49.27.27,0,0,1-.2-.06V40.71H150.55c3.59,1.09,3.79,1.43,3.79,5.29,0,9.76.21,29.34.21,29.34v14.5c-.14,2.23-.75,2.44-3.87,3.45h18c-3.12-1-3.73-1.22-3.87-3.45V77.3c2.72.07,5,.41,7.19.41a21.39,21.39,0,0,0,2.17-.14c11.31-1.49,19.37-11.52,19.37-22.49a22.48,22.48,0,0,0-.61-5.15M179.48,69.78a16.47,16.47,0,0,1-4.4,5.49A6.61,6.61,0,0,1,171,76.69a7.36,7.36,0,0,1-4.88-2,3.09,3.09,0,0,1-.81-1.9V66.05c0-.88-.07-1.83-.07-2.84a25.72,25.72,0,0,1,2.17-11.38A14.29,14.29,0,0,1,170.94,47a5.84,5.84,0,0,1,3.8-1.56,5.56,5.56,0,0,1,4.67,2.71A16.28,16.28,0,0,1,181.58,54a27,27,0,0,1,.48,5.15,23.24,23.24,0,0,1-2.58,10.64" transform="translate(-38.23 -39.63)"/><path class="cls-3" d="M198.9,70.55c8.19-3.16,17.4,3.33,25.83-1.67-3.06,3.39-8.82,8.19-13.41,8.36-5.71.2-7.82-5.82-12.42-6.69" transform="translate(-38.23 -39.63)"/><path class="cls-4" d="M124.94,136.07a15.2,15.2,0,0,0-5.12-.65v-5h4l1.84,2.36h.22l1.31-3.5H115v.22l1.51,1.28v14.69L115,146.73V147h5.65a13,13,0,0,0,4.66-.64,5.14,5.14,0,0,0,2.38-1.93,5.65,5.65,0,0,0,.84-3.15,5.44,5.44,0,0,0-.92-3.22,5.57,5.57,0,0,0-2.64-2m-.54,7.61a3.7,3.7,0,0,1-1.35,1.58,5.56,5.56,0,0,1-2.89.55h-.34v-9.24h.34a5.54,5.54,0,0,1,2.88.55,3.74,3.74,0,0,1,1.36,1.61,5.65,5.65,0,0,1,.5,2.49,5.57,5.57,0,0,1-.5,2.46" transform="translate(-38.23 -39.63)"/><path class="cls-4" d="M140.27,128.93H140l-2.81,2.74,1,1.25-5.15,12.57-1.38,1.24V147h5.15v-.23l-2.51-1.24,1.27-3.09h6.56l1.28,3.09-2.52,1.25V147h7.58v-.23l-1.37-1.24Zm-4.21,12.4,2.82-6.87,2.85,6.87Z" transform="translate(-38.23 -39.63)"/><polygon class="cls-4" points="123.39 89.87 125.77 91.14 125.77 97.3 118.81 97.3 118.81 91.14 121.17 89.87 121.17 89.64 113.99 89.64 113.99 89.87 115.47 91.14 115.47 105.86 113.96 107.1 113.96 107.33 121.18 107.33 121.18 107.1 118.81 105.86 118.81 98.45 125.77 98.45 125.77 105.86 123.4 107.1 123.4 107.33 130.59 107.33 130.59 107.1 129.11 105.86 129.11 91.14 130.59 89.87 130.59 89.64 123.39 89.64 123.39 89.87"/><polygon class="cls-4" points="144.79 89.87 147.17 91.14 147.17 97.3 140.21 97.3 140.21 91.14 142.58 89.87 142.58 89.64 135.39 89.64 135.39 89.87 136.87 91.14 136.87 105.86 135.37 107.1 135.37 107.33 142.59 107.33 142.59 107.1 140.21 105.86 140.21 98.45 147.17 98.45 147.17 105.86 144.8 107.1 144.8 107.33 151.99 107.33 151.99 107.1 150.51 105.86 150.51 91.14 151.99 89.87 151.99 89.64 144.79 89.64 144.79 89.87"/><path class="cls-4" d="M207.15,138a5.6,5.6,0,0,0-2.65-2,15.14,15.14,0,0,0-5.11-.65v-5l2.42-.92v-.22h-7.28v.22l1.51,1.24v14.73l-1.51,1.27V147h5.65a13,13,0,0,0,4.66-.64,5.17,5.17,0,0,0,2.39-1.93,5.73,5.73,0,0,0,.83-3.15,5.51,5.51,0,0,0-.91-3.22M204,143.68a3.79,3.79,0,0,1-1.36,1.58,5.52,5.52,0,0,1-2.88.55h-.34v-9.24h.34a5.54,5.54,0,0,1,2.88.55,3.88,3.88,0,0,1,1.36,1.61,5.79,5.79,0,0,1,.5,2.49,5.71,5.71,0,0,1-.5,2.46" transform="translate(-38.23 -39.63)"/><polygon class="cls-4" points="169.82 89.87 171.34 91.14 171.34 105.86 169.81 107.1 169.81 107.33 176.19 107.33 176.19 107.1 174.68 105.86 174.68 91.14 176.2 89.87 176.2 89.64 169.82 89.64 169.82 89.87"/><path class="cls-4" d="M225.47,127.18a3.83,3.83,0,0,0,2,.49,4,4,0,0,0,2-.48,3.67,3.67,0,0,0,1.28-1.22,3.23,3.23,0,0,0,.48-1.46h-.21a2.08,2.08,0,0,1-1.19,1,7.39,7.39,0,0,1-2.39.4,6.28,6.28,0,0,1-2.3-.43,2.81,2.81,0,0,1-1.27-.95h-.2a3.38,3.38,0,0,0,.49,1.45,3.67,3.67,0,0,0,1.28,1.22" transform="translate(-38.23 -39.63)"/><polygon class="cls-4" points="185.26 105 185.26 89.64 180.41 89.64 180.41 89.87 181.93 91.14 181.93 105.86 180.4 107.1 180.4 107.33 185.47 107.33 192.55 91.87 192.42 92.55 192.42 105.86 190.9 107.1 190.9 107.33 197.27 107.33 197.27 107.1 195.76 105.86 195.76 91.14 197.29 89.87 197.29 89.64 192.28 89.64 185.26 105"/><polygon class="cls-4" points="219.64 100.3 216.03 98.05 220.75 91.14 222.03 89.87 222.03 89.64 217.6 89.64 217.6 89.87 219.34 91.14 213.36 99.9 213.36 91.14 214.9 89.87 214.9 89.64 208.51 89.64 208.51 89.87 210.02 91.14 210.02 105.86 208.5 107.1 208.5 107.33 215.77 107.33 215.77 107.1 213.36 105.86 213.36 101.95 215.27 99.17 219.54 107.33 223.87 107.33 223.87 107.1 222.54 105.86 219.64 100.3"/><path class="cls-4" d="M277.54,130.12a9.65,9.65,0,0,0-9.41,0,8.48,8.48,0,0,0-3.18,3.33,10.15,10.15,0,0,0,0,9.27,8.48,8.48,0,0,0,3.18,3.33,9.63,9.63,0,0,0,9.42,0,8.53,8.53,0,0,0,3.17-3.33,10.13,10.13,0,0,0,0-9.3,8.5,8.5,0,0,0-3.18-3.31m.52,12.86a6.31,6.31,0,0,1-2,2.51,6.46,6.46,0,0,1-1.25.11,6.69,6.69,0,0,1-4.07-1.36,9.48,9.48,0,0,1-2.92-3.52,9.86,9.86,0,0,1-1.06-4.36,7.34,7.34,0,0,1,.7-3.22,6,6,0,0,1,2.11-2.43,7.34,7.34,0,0,1,1.38-.14,6.37,6.37,0,0,1,3.92,1.36,9.31,9.31,0,0,1,2.81,3.49,9.84,9.84,0,0,1,1,4.34,8,8,0,0,1-.65,3.22" transform="translate(-38.23 -39.63)"/><polygon class="cls-4" points="257.35 102.02 252.04 89.64 247.54 89.64 247.54 89.87 249.05 91.14 249.05 105.86 247.54 107.1 247.54 107.33 252.61 107.33 252.61 107.1 250.2 105.86 250.2 93.48 250.35 94.16 256.13 107.67 256.36 107.67 259.01 104.73 258 103.46 263.29 91.14 263.16 91.82 263.16 105.86 260.75 107.1 260.75 107.33 268.03 107.33 268.03 107.1 266.5 105.86 266.5 91.14 268.03 89.87 268.03 89.64 262.68 89.64 257.35 102.02"/><polygon class="cls-4" points="271.67 89.87 273.18 91.14 273.18 105.86 271.66 107.1 271.66 107.33 278.04 107.33 278.04 107.1 276.53 105.86 276.53 90.79 283.71 90.79 283.71 105.86 282.19 107.1 282.19 107.33 288.57 107.33 288.57 107.1 287.06 105.86 287.06 91.14 288.58 89.87 288.58 89.64 271.67 89.64 271.67 89.87"/><path class="cls-4" d="M331.46,129.49l2.42,1.28v12.31a6.43,6.43,0,0,1-.26,2,1.88,1.88,0,0,1-.9,1.08,3.69,3.69,0,0,1-1.75.35l-.07.22a7.38,7.38,0,0,0,2.14.33,5.18,5.18,0,0,0,2.12-.42,3.39,3.39,0,0,0,1.5-1.33,4.13,4.13,0,0,0,.57-2.25V130.41h7v15.08l-1.53,1.24V147h6.38v-.23l-1.51-1.24V130.77l1.52-1.28v-.22H331.46Z" transform="translate(-38.23 -39.63)"/><polygon class="cls-4" points="324.02 106.18 320.04 106.18 320.04 99.37 324.96 99.37 325.69 97.43 320.04 98.22 320.04 90.79 324.04 90.79 325.88 93.14 326.1 93.14 327.41 89.64 315.18 89.64 315.18 89.87 316.7 91.14 316.7 105.83 315.18 107.1 315.18 107.33 327.27 107.33 327.7 103.79 327.47 103.79 324.02 106.18"/><polygon class="cls-4" points="343.03 100.3 339.43 98.05 344.15 91.14 345.42 89.87 345.42 89.64 341 89.64 341 89.87 342.74 91.14 336.76 99.9 336.76 91.14 338.29 89.87 338.29 89.64 331.9 89.64 331.9 89.87 333.42 91.14 333.42 105.86 331.89 107.1 331.89 107.33 339.17 107.33 339.17 107.1 336.76 105.86 336.76 101.95 338.67 99.17 342.93 107.33 347.26 107.33 347.26 107.1 345.93 105.86 343.03 100.3"/><path class="cls-4" d="M402.7,142.6l-4.47,3.48a5.7,5.7,0,0,1-3.58-1.41,10.6,10.6,0,0,1-2.87-3.65,10.14,10.14,0,0,1-1.11-4.52,8.12,8.12,0,0,1,.61-3.16,7.35,7.35,0,0,1,1.9-2.65c.29,0,.54,0,.75,0a10.19,10.19,0,0,1,3.88.79,9.45,9.45,0,0,1,3.27,2.17h.24l1.09-3.5a10.11,10.11,0,0,0-2.65-.93,15.74,15.74,0,0,0-3.15-.3,9.21,9.21,0,0,0-4.77,1.23,8.52,8.52,0,0,0-3.22,3.33,10,10,0,0,0,0,9.27,8.52,8.52,0,0,0,3.22,3.33,9.21,9.21,0,0,0,4.77,1.23,12,12,0,0,0,5.18-1l1.11-3.6Z" transform="translate(-38.23 -39.63)"/><path class="cls-3" d="M277.58,93.27H257.92c3.4-1.11,4.07-1.33,4.21-3.71L261.81,45a2.52,2.52,0,0,0-2.53-2.5H244.71a2.53,2.53,0,0,0-2.53,2.5l-.29,44.59c.14,2.38.81,2.6,4.21,3.71H226.44c3.4-1.11,4.07-1.33,4.21-3.71V44.84c-.05-3.09-.5-3.24-4.23-4.45h51.14c-3.73,1.21-4.18,1.36-4.23,4.45l0,44.72c.14,2.38.81,2.6,4.21,3.71" transform="translate(-38.23 -39.63)"/><path class="cls-3" d="M428.16,93.29h0v11.45s-2.71-10.69-10.69-11.45h-39.9c3.69-1.2,4.13-1.35,4.19-4.41l-.05-44.8c-.13-2.36-.79-2.58-4.16-3.67H397c-3.37,1.09-4,1.31-4.16,3.67l.31,44.77a2.5,2.5,0,0,0,2.5,2.47h14.42a2.5,2.5,0,0,0,2.5-2.48l.28-44.76c-.13-2.36-.8-2.58-4.16-3.67h19.45c-3.37,1.09-4,1.31-4.16,3.67v44.8c0,3.06.5,3.21,4.19,4.41" transform="translate(-38.23 -39.63)"/><path class="cls-3" d="M324.56,40.37H283.35v13c.39-3.27.42-10.86,5.86-11h10.42a3.18,3.18,0,0,1,1.28,2.54V87.13c0,4.2-.41,4.81-4.61,6.16h16v-.07h4.95a10.26,10.26,0,0,0-2.24-.6c-1.42-.41-2.5-1.16-2.71-2.58V87.6c-.06-3.46-.06-41.13-.06-41.13V44.24a3.09,3.09,0,0,1,.55-1.88h11.55c5.44.15,5.48,7.74,5.86,11v-13Z" transform="translate(-38.23 -39.63)"/><path class="cls-3" d="M371.28,42.05V65.39h0V87.31s0,0,0,.08V93h-13c3.27-.39,10.85-.43,11-5.87V56.6L335.65,94.68V92.57h0V58.72h0V46.1s0-.05,0-.08V40.39h13c-3.28.39-10.86.42-11,5.86V77.81l33.64-37.42v1.67Z" transform="translate(-38.23 -39.63)"/><path class="cls-3" d="M461.6,69.24a6.75,6.75,0,0,1-.17,2.09c-1.4,3.36-8.08,9.31-12.63,9.5-2.13.1-4.12-.53-5.17-2a8,8,0,0,1-1.22-5.25c.53-7.62,6.61-17.27,10.29-23.47l-1.57-6.48a8.8,8.8,0,0,0,.26,1.3,12.22,12.22,0,0,1,.78,3.62,2.87,2.87,0,0,1-.68,1.74A33.31,33.31,0,0,1,449,53q-1.86,1.92-3.28,3.6C443.55,59,442,60.81,441,62s-2.24,2.82-3.72,4.93a36.1,36.1,0,0,0-3.62,6.36,14.92,14.92,0,0,0-1.39,6,19.46,19.46,0,0,0,1.07,6.25A12.5,12.5,0,0,0,437,91a9.92,9.92,0,0,0,6.79,2.28c7.69,0,15-9.87,18.52-21.18Z" transform="translate(-38.23 -39.63)"/><path class="cls-3" d="M482.26,92.75c-.61,0-1.08-.33-1.42-1.34-.47-1.55-15.23-38.22-19.68-48.87-.27-.61-1.28-1.89-1.75-1.89H443.75l-.12.73h.07c4,.41,6.61,2.7,8.09,6.34,0,0,2.28,5.87,4.16,10.85l6.3,15.84c2,4.76,4.33,10.39,5.24,12.67a8,8,0,0,1,.75,2.83c0,.14-.07.34-.07.54a3.72,3.72,0,0,1-2.63,2.36l.31.47h16.41v-.54Z" transform="translate(-38.23 -39.63)"/></g></svg>