<svg id="Layer_1" data-name="Layer 1" xmlns="http://www.w3.org/2000/svg" viewBox="0 0 1024 1024">
    <defs>
        <style>
            .cls-1 {
                fill: #332927;
            }
        </style>
    </defs>
    <path class="cls-1"
        d="M512,268.37A243.63,243.63,0,1,0,755.61,512,243.3,243.3,0,0,0,512,268.37Zm0,402c-87.19,0-158.35-71.15-158.35-158.34S424.79,353.66,512,353.66,670.32,424.81,670.32,512,599.17,670.34,512,670.34ZM765.59,201.61a56.83,56.83,0,1,0,.15,0ZM986.9,512c0-65.57.59-130.55-3.09-196-3.69-76-21-143.5-76.62-199.09S784.12,44,708.1,40.29c-65.57-3.68-130.55-3.09-196-3.09s-130.55-.59-196,3.09c-76,3.68-143.5,21-199.09,76.62S44.07,240,40.39,316c-3.68,65.57-3.09,130.55-3.09,196s-.59,130.55,3.09,196c3.68,76,21,143.5,76.62,199.09S240.07,980,316.1,983.71c65.57,3.68,130.55,3.09,196,3.09s130.55.59,196-3.09c76-3.68,143.5-21,199.09-76.62S980.12,784,983.81,708c3.8-65.45,3.09-130.43,3.09-196ZM882.36,792.1c-8.67,21.62-19.12,37.78-35.87,54.41s-32.79,27.2-54.41,35.87C729.6,907.21,581.23,901.63,512,901.63s-217.74,5.58-280.22-19.13c-21.62-8.67-37.78-19.12-54.41-35.87s-27.2-32.79-35.87-54.41c-24.71-62.6-19.13-211-19.13-280.22s-5.58-217.74,19.13-280.22c8.67-21.62,19.12-37.78,35.87-54.41s32.79-27.2,54.41-35.87c62.48-24.71,211-19.13,280.22-19.13s217.74-5.58,280.22,19.13c21.62,8.67,37.78,19.12,54.41,35.87s27.2,32.79,35.87,54.41c24.71,62.48,19.13,211,19.13,280.22S907.19,729.62,882.36,792.1Z" />
</svg>