<svg width="28" height="25" viewBox="0 0 28 25" fill="none" xmlns="http://www.w3.org/2000/svg">
    <path
        d="M25.0226 0.156069L1.9115 10.1709C0.563354 10.7487 0.563354 12.482 1.9115 13.0598L7.68928 15.1783L9.8078 21.919C10.193 23.0746 11.5411 23.4598 12.5041 22.6894L15.2004 20.1857C15.393 19.9931 15.5856 19.9931 15.5856 20.1857L20.0152 23.6524C21.3634 24.8079 23.4819 24.0375 23.8671 22.3042L27.9115 2.46718C28.2967 0.926439 26.5634 -0.421709 25.0226 0.156069ZM21.9411 22.3042C21.9411 22.4968 21.5559 22.6894 21.3634 22.4968L15.2004 17.4894L11.3485 20.9561L12.3115 15.7561L21.7485 6.70422C21.9411 6.51162 22.3263 5.93385 22.1337 5.93385C21.9411 5.93385 21.5559 6.12644 21.3634 6.12644L9.23002 13.8301L3.25965 11.7116L25.9856 2.08199L21.9411 22.3042Z"
        fill="#332927" />
</svg>