<svg id="Layer_1" data-name="Layer 1" xmlns="http://www.w3.org/2000/svg" viewBox="0 0 34.02 23.25">
    <defs>
        <style>
            .cls-1 {
                fill: #332927;
            }
        </style>
    </defs>
    <path class="cls-1"
        d="M2.59,8.64c1.15,2.31,4.43,7.51,7.7,10A13,13,0,0,0,18.57,21c1.16,0,1.35-.38,1.35-1.73s.39-2.7,1.35-2.7c.77,0,2.31,1.93,3.27,2.89,1.16,1,1.55,1.54,3.86,1.54s4.43.19,5.2-.58c.57-.57.38-1.54-1.54-3.46a46.27,46.27,0,0,1-3.66-3.85c-.39-.39,0-1.35,1.34-2.7,1.16-1.54,3.47-4.24,4.05-5.78.38-1.54.38-1.92-.77-1.92H27.24c-1.15,0-1.15.38-1.73,1.73a25,25,0,0,1-3.66,6c-1.16,1.16-1.93,1.35-2.12-.19V3.63c0-1.16-.19-1.73-2.89-1.73s-4,0-5,.57-.77.77-.38,1A1.56,1.56,0,0,1,13.18,5c.19,1.54.39,5.39-.38,6.16s-1.93-.58-2.51-1.54S7.79,5,7.21,4c-.38-1-.58-1.34-1.92-1.34H.86c-.77,0-1.16.57-.58,1.92C1.05,5.94,2.2,7.87,2.59,8.64Z" />
</svg>