<svg width="40" height="40" viewBox="0 0 40 40" fill="none" xmlns="http://www.w3.org/2000/svg">
<circle cx="20" cy="20" r="20" fill="#CC3663" fill-opacity="0.2"/>
<path fill-rule="evenodd" clip-rule="evenodd" d="M29 12H11C10.4696 12 9.96086 12.2107 9.58579 12.5858C9.21071 12.9609 9 13.4696 9 14V26C9 26.5304 9.21071 27.0391 9.58579 27.4142C9.96086 27.7893 10.4696 28 11 28H29C29.5304 28 30.0391 27.7893 30.4142 27.4142C30.7893 27.0391 31 26.5304 31 26V14C31 13.4696 30.7893 12.9609 30.4142 12.5858C30.0391 12.2107 29.5304 12 29 12ZM11 14V16H29V14H11ZM11 18V26H29V18H11ZM18 21H14V23H18V21Z" fill="#CC3663"/>
</svg>
