<svg width="40" height="40" fill="none" xmlns="http://www.w3.org/2000/svg"><path fill-rule="evenodd" clip-rule="evenodd" d="M20.093 40c11.046 0 20-8.954 20-20s-8.955-20-20-20c-11.046 0-20 8.954-20 20s8.954 20 20 20Z" fill="#F7F7F7"/><path d="m18.889 5-.096 13.156 3.745 2.208v-9.026L18.889 5Z" fill="#FAB719"/><path d="M18.886 21.322v12.675l3.649-6.53v-3.84l-3.65-2.305Z" fill="#61B42C"/><path d="M32.14 25.552 9.094 11.34l3.457 6.146 13.06 8.066h6.53Z" fill="#208BC9"/><path d="m18.887 5 13.252 8.066h-6.53l-3.073-1.728L18.886 5Z" fill="#F77C1C"/><path d="m22.54 15.14 3.072-2.074h6.53l-9.603 6.338v-4.263Z" fill="#D60B4C"/><path d="m22.536 27.467 3.073-1.92h6.53l-13.252 8.45 3.649-6.53Z" fill="#097F2D"/><path d="M9.094 11.34v16.133l3.265-5.954.192-4.033-3.457-6.146Z" fill="#5B59A1"/><path d="m15.662 19.406-3.303 2.113-3.265 5.954 9.795-6.146-3.227-1.92Z" fill="#9F4393"/></svg>