<svg xmlns="http://www.w3.org/2000/svg" fill="none" height="42" width="42"><radialGradient id="a" cx="0" cy="0" gradientTransform="rotate(135 21 8.698) scale(40.9839)" gradientUnits="userSpaceOnUse" r="1"><stop offset="0" stop-color="#3bdfb4"/><stop offset="1" stop-color="#3bdfb4" stop-opacity="0"/></radialGradient><radialGradient id="b" cx="0" cy="0" gradientTransform="rotate(135 16.916 10.39) scale(40.8354)" gradientUnits="userSpaceOnUse" r="1"><stop offset="0" stop-color="#19ccdc"/><stop offset=".223" stop-color="#19ccdc" stop-opacity=".75"/><stop offset="1" stop-color="#19ccdc" stop-opacity="0"/></radialGradient><radialGradient id="c" cx="0" cy="0" gradientTransform="rotate(-45 50.698 21) scale(29.6985)" gradientUnits="userSpaceOnUse" r="1"><stop offset="0" stop-color="#f5ed01"/><stop offset=".332" stop-color="#f5ed01" stop-opacity=".8"/><stop offset="1" stop-color="#f5ed01" stop-opacity="0"/></radialGradient><circle cx="21" cy="21" fill="#13dc20" r="21"/><circle cx="21" cy="21" fill="url(#a)" r="21"/><circle cx="21" cy="21" fill="url(#b)" r="21"/><circle cx="21" cy="21" fill="url(#c)" r="21"/><rect fill="#08b64e" height="14" rx="7" width="31" x="6" y="13.98"/><path clip-rule="evenodd" d="M29 29H13a8 8 0 010-16h16a8 8 0 010 16zm-18.078-7.914v-1.263l1.674 1.05 3.48-2.561c.21.27.387.563.528.874l-4.008 2.95zm5.056-.182v.09a3.386 3.386 0 11-1.476-2.79l.859-.63a4.4 4.4 0 101.563 2.634zm5.386 2.74V21.85h.888c1.686 0 2.59-.674 2.59-2.014 0-1.3-.772-1.95-2.59-1.95h-1.916v5.757zm0-2.74v-2.072h.983c1.002 0 1.43.27 1.43.978 0 .781-.493 1.093-1.447 1.093zm4.02-1.085c.271-.203.765-.37 1.473-.37 1.2 0 1.793.411 1.793 1.48v2.714h-.905v-.74c-.197.476-.698.806-1.357.806-.83 0-1.323-.47-1.323-1.275 0-.938.682-1.201 1.693-1.201h.93v-.18c0-.584-.28-.766-.831-.766-.757 0-1.192.297-1.471.732zm2.302 2.372v-.332h-.813c-.568 0-.84.107-.84.476 0 .312.23.51.659.51.649 0 .954-.37.994-.654zm2.513-2.66h-1.073l1.73 4.133c-.156.554-.378.751-.673.751a.726.726 0 01-.494-.206v.898c.121.106.402.18.658.18.543 0 .912-.222 1.275-1.208l1.644-4.548h-1.02l-.92 2.82z" fill="#fff" fill-rule="evenodd"/></svg>
