<svg width="243" height="484" viewBox="0 0 243 484" fill="none" xmlns="http://www.w3.org/2000/svg">
<path opacity="0.36" d="M215.655 299.484C206.496 299.484 196.798 291.397 198.953 282.501C194.643 282.232 191.545 286.41 189.928 290.453C188.312 294.497 187.504 298.945 184.271 301.775C179.557 306.088 171.744 304.606 166.356 301.236C160.834 297.866 156.389 292.88 150.731 290.049C142.649 286.14 131.065 285.467 127.967 276.975C125.139 269.158 132.278 261.341 138.743 256.084C131.335 252.58 121.502 256.084 117.865 263.362C113.151 272.932 118.808 284.793 115.036 294.766C111.4 304.74 99.6808 309.188 89.0397 309.862C84.3253 310.132 79.3415 309.862 75.4353 307.301C71.5291 304.74 68.9698 299.484 70.9903 295.171C73.0107 290.993 80.2844 290.184 82.1702 294.362C79.8803 289.106 73.5496 287.354 67.8923 286.68C62.235 286.006 56.0388 285.736 51.8632 281.962C43.3773 274.28 48.4958 256.893 38.3935 251.232C34.0831 248.806 28.83 249.884 23.8461 250.289C18.997 250.693 13.0703 249.884 10.7805 245.437C8.62531 241.393 10.9152 236.002 14.9561 233.845C18.997 231.689 23.9809 232.498 28.0218 234.654C27.8871 229.128 22.4992 225.489 17.3807 223.602C12.2622 221.85 6.60487 222.119 1.08227 222.254C-4.44033 222.389 -10.0976 222.119 -14.9468 219.558C-20.8734 216.324 -24.3756 209.989 -28.2818 204.463C-37.5759 191.659 -52.5274 182.359 -68.0176 178.854C-58.5887 186.267 -49.1599 193.68 -41.6169 202.846C-33.9391 212.011 -28.1471 223.063 -27.2042 235.058C-26.396 245.841 -29.4941 256.489 -29.7635 267.271C-30.0329 277.649 -27.6083 288.027 -22.8939 297.193C-20.2 302.449 -16.4284 307.436 -10.9058 309.727C-5.51791 311.884 1.89043 310.132 4.18029 304.74C-0.803513 304.74 -5.92202 303.797 -9.96295 300.966C-14.0039 298.136 -16.5631 292.88 -15.3508 288.162C-14.1386 283.849 -9.96292 280.749 -5.51791 280.075C-1.07288 279.401 3.50683 281.019 7.27836 283.445C18.3236 290.723 22.4992 306.897 16.3031 318.623C13.6091 323.744 9.2988 327.923 6.87424 333.314C3.10271 342.075 5.39259 352.318 9.83761 360.809C14.1479 369.301 20.4787 376.579 25.1931 384.935C28.5606 390.866 30.9851 398.548 27.2136 404.344C24.1155 409.061 18.1889 410.544 13.205 413.239C5.39259 417.552 -0.264725 425.909 -1.20761 434.804C-2.28519 443.7 1.21697 453.135 7.95185 459.2C5.52729 455.695 4.8538 450.709 7.14365 447.069C9.43352 443.43 15.0908 442.083 18.3235 444.913C21.5563 447.743 20.0746 454.348 15.899 454.887C20.7481 457.178 28.0218 453.674 30.581 449.091C33.1403 444.509 33.4097 438.848 33.8138 433.591C34.2178 428.335 35.026 422.674 38.5282 418.631C42.5691 413.913 49.5734 412.296 53.749 407.579C59.8104 400.57 55.9042 387.496 46.8794 385.205C51.5938 382.374 57.7899 384.935 61.6962 388.709C65.6024 392.618 68.2964 397.605 72.6067 401.109C79.6109 406.77 90.3867 407.174 97.6604 401.918C103.722 397.605 107.089 390.192 113.016 385.474C122.984 377.387 139.686 379.679 147.094 390.327C150.462 383.453 146.017 374.692 139.147 371.322C132.278 367.818 124.196 368.627 116.787 370.379C109.379 372.266 102.24 375.096 94.5623 375.905C87.0193 376.714 78.5334 374.827 73.8189 368.761C69.1045 362.696 70.4515 352.183 77.4557 349.353C82.709 347.331 88.6357 349.892 93.3501 353.127C98.0645 356.362 102.644 360.135 108.302 360.675C113.959 361.214 120.424 356.362 118.808 350.836C112.477 351.914 106.416 345.31 107.089 338.84C107.763 332.37 113.689 327.384 120.155 326.44C126.486 325.497 133.086 328.192 138.07 332.236C143.053 336.279 146.96 341.67 150.462 346.927C154.099 352.318 157.735 357.709 162.45 362.157C171.34 370.514 185.483 374.153 195.855 368.088C186.83 363.775 177.536 359.192 171.609 351.105C165.683 343.153 164.47 330.618 171.609 323.744C176.324 319.162 183.463 318.084 189.928 317.41C200.165 316.197 210.672 315.253 220.235 311.21C229.664 307.032 238.285 299.079 240.036 288.971C232.897 294.093 224.815 299.484 215.655 299.484ZM85.2682 343.018C79.2068 335.74 67.084 334.662 59.9451 340.862C52.8061 347.062 52.1326 359.327 58.4634 366.335C53.2102 366.47 50.5163 360.27 49.0346 355.283C47.5529 350.296 44.4549 344.096 39.2017 344.636C35.8342 344.905 33.4097 348.41 32.8709 351.779C32.4668 355.149 33.4097 358.518 34.4872 361.753C27.6177 360.54 23.038 353.396 22.7686 346.388C22.3645 339.514 25.3278 332.775 28.2911 326.575C31.3892 320.375 34.7567 314.04 35.5648 307.166C36.373 300.293 33.9485 292.475 27.8871 289.106C34.3526 289.106 39.2017 294.901 41.8956 300.697C44.5896 306.492 46.0712 313.097 50.5162 317.814C55.6348 323.34 63.3125 325.092 70.3168 327.923C77.3211 330.618 84.5947 335.605 85.2682 343.018ZM125.947 311.075C124.061 316.736 118.808 321.184 112.881 321.858C106.955 322.666 100.758 319.701 97.5257 314.714C103.452 316.197 110.053 314.714 114.767 310.805C119.481 306.897 122.31 300.697 121.906 294.632C126.216 298.675 127.833 305.414 125.947 311.075Z" fill="#CEC1A3"/>
<path opacity="0.36" d="M83.3828 208.506C78.2643 204.598 75.705 198.398 72.0682 193.007C68.4313 187.75 62.6394 182.763 56.3086 183.841C62.9088 186.133 66.5456 193.411 66.815 200.42C67.0844 207.428 64.7945 214.167 62.7741 220.772C60.7536 227.376 59.0026 234.519 60.4842 241.258C61.9659 247.997 67.6232 254.467 74.4928 254.467C72.8764 251.367 71.3947 248.267 71.26 244.897C71.1253 241.528 73.0111 237.754 76.3785 236.811C81.497 235.463 85.5379 240.989 87.6931 245.706C89.983 250.424 93.6198 256.084 98.873 255.141C91.4647 249.345 90.1177 237.08 96.1791 229.802C102.24 222.524 114.363 221.58 121.502 227.78C119.616 220.502 111.535 216.863 104.261 215.246C97.2567 213.628 89.3095 213.089 83.3828 208.506Z" fill="#CEC1A3"/>
<path opacity="0.36" d="M88.3664 430.896C82.305 431.839 75.8396 429.818 71.3945 425.639C71.6639 431.57 75.7049 437.231 81.0928 439.522C86.6154 441.813 93.3502 440.735 97.7953 436.691C102.24 432.783 104.126 426.178 102.51 420.383C99.9504 425.774 94.4278 429.818 88.3664 430.896Z" fill="#CEC1A3"/>
<path opacity="0.36" d="M151.405 202.577C142.65 205.542 132.817 200.824 126.216 194.355C119.616 187.885 114.902 179.529 108.167 173.059C101.567 166.59 91.8686 161.738 82.9785 164.703C90.3869 163.76 97.6606 168.073 102.779 173.599C107.898 179.125 111.265 185.998 115.306 192.333C119.347 198.668 124.331 204.733 131.335 207.563C138.205 210.259 147.364 208.911 151.405 202.577Z" fill="#CEC1A3"/>
<path opacity="0.36" d="M172.687 260.128C178.21 261.476 184.54 259.859 188.716 255.95C191.006 253.794 192.757 250.963 195.047 248.672C197.337 246.516 202.455 243.82 205.553 244.763C200.973 241.259 195.586 237.485 189.794 238.563C185.887 239.237 182.655 242.068 179.826 244.763C176.997 247.459 174.034 250.424 170.128 251.637C166.356 252.85 161.372 251.502 160.025 247.863C161.911 253.389 167.164 258.781 172.687 260.128Z" fill="#CEC1A3"/>
<path opacity="0.36" d="M34.8931 206.485C31.2563 205.137 28.8317 201.768 27.7541 197.994C26.6765 194.355 26.9459 190.311 27.35 186.537C27.7541 182.764 28.4276 178.855 28.1582 175.081C27.35 164.164 18.3253 154.459 7.41476 152.842C1.35337 152.033 -4.70798 153.381 -10.9041 152.977C-16.0226 152.707 -21.1411 150.955 -24.6432 147.316C-28.1454 143.677 -29.8964 138.016 -27.876 133.299C-25.8555 128.581 -19.7941 125.886 -15.2144 128.177C-11.0388 130.334 -9.55713 135.59 -6.05499 138.96C-1.34058 143.407 7.0107 143.138 11.321 138.286C14.9579 134.107 14.6885 128.581 11.321 124.403C11.8598 125.886 11.4557 127.773 10.3781 128.986C8.49236 130.873 5.39432 130.873 2.96976 130.199C-0.397682 129.255 -3.22633 126.56 -4.43861 123.325C-11.0388 114.969 -27.0678 107.69 -34.6108 122.921C-36.9007 127.773 -37.8436 133.029 -37.8436 138.286C-42.1539 133.973 -43.0968 127.234 -41.7498 121.303C-40.5375 115.373 -37.4395 109.982 -34.6108 104.725C-32.7251 101.356 -30.8393 97.5817 -31.5128 93.8079C-32.4557 88.0123 -38.7865 84.5079 -44.5785 84.6427C-50.3705 84.7775 -55.7584 87.7427 -60.8769 90.5731C-60.3381 83.5645 -53.7379 78.0384 -46.8683 76.5558C-43.2315 75.7472 -39.3253 75.8819 -35.5537 76.0167C-31.7822 76.0167 -28.0107 76.0167 -24.3738 75.0732C-20.737 73.995 -17.3696 71.8385 -15.6185 68.469C-13.8674 65.0994 -14.2715 60.5169 -17.1002 58.0908C-19.9288 55.6647 -25.182 56.2039 -26.6637 59.7082C-29.7617 58.6299 -30.0311 53.9126 -27.7413 51.3517C-25.5861 48.7909 -22.2187 47.9822 -19.1206 46.7692C-16.0226 45.5561 -12.7899 43.6692 -11.9817 40.4344C-10.9041 36.1214 -15.4838 31.9432 -19.9288 32.2128C-24.3738 32.4823 -28.1454 35.8519 -30.3005 39.7605C-32.4557 43.6692 -33.5333 48.117 -35.1497 52.1604C-36.766 56.3386 -39.1906 60.5169 -43.0968 62.5386C-47.003 64.6951 -52.795 63.8864 -54.8155 59.9777C-47.2724 59.9777 -41.3457 52.8343 -41.0763 45.2866C-40.8069 30.5954 -51.3134 24.9346 -51.3134 24.9346C-52.2562 29.1128 -52.9297 33.291 -54.2767 37.3345C-56.0278 42.7257 -59.1258 48.2518 -64.379 50.543C-67.2077 51.8909 -71.1139 52.0256 -73.2691 49.7344C-75.0201 47.9822 -74.616 44.4779 -72.865 43.1301C-76.6365 45.017 -79.061 49.4648 -78.3875 53.643C-77.1753 61.1908 -67.7465 66.3125 -68.4199 73.8602C-69.2281 81.1384 -78.5223 84.3732 -80.8121 91.247C-82.1591 95.2905 -80.5427 99.7383 -78.7916 103.647C-77.0406 107.556 -75.0201 111.599 -75.2895 115.912C-75.5589 120.225 -79.7345 125.886 -83.9102 124.942C-81.2162 127.368 -76.6365 126.021 -74.4813 123.055C-72.3262 120.09 -71.9221 116.316 -71.2486 112.812C-70.5751 109.308 -69.3628 105.399 -66.2648 103.512C-61.8197 100.682 -55.489 103.377 -53.0644 108.095C-50.6399 112.677 -51.1787 118.338 -52.6603 123.325C-54.142 128.312 -56.5666 133.029 -57.6441 138.151C-59.6646 147.047 -57.3747 156.886 -51.8521 164.029C-46.1948 171.307 -37.3048 175.755 -28.1454 176.025C-17.9084 176.294 -6.99786 171.846 2.16157 176.429C7.01068 178.99 10.2434 183.707 12.8027 188.559C15.2272 193.411 17.2477 198.668 20.3457 203.116C23.4438 207.563 28.2929 211.337 33.6808 211.607C39.2034 211.876 44.726 208.102 44.4566 202.711C43.1096 206.35 38.3952 207.833 34.8931 206.485Z" fill="#CEC1A3"/>
</svg>
