<?xml version="1.0" encoding="UTF-8"?>
<svg id="Layer_1" data-name="Layer 1" xmlns="http://www.w3.org/2000/svg" viewBox="0 0 110.57 139.23">
    <defs>
        <style>
            .cls-1 {
                fill: #fff;
            }
        </style>
    </defs>
    <path class="cls-1"
        d="M13,50.36c0-20.84,15.01-38.35,34.85-42.19,0-.33,.17-.67,.17-1C27.51,10.84,12,28.85,12,50.36v10.5c.33,0,.67-.17,1-.33v-10.17h0Z" />
    <path class="cls-1"
        d="M83.2,17.34c.5,0,.83-.17,1.33-.17-6.17-5.34-13.84-9-22.34-10.17-.17,.33-.17,.67-.33,1,8,1,15.34,4.34,21.34,9.34Z" />
    <path class="cls-1"
        d="M98.88,41.85c-.33,.17-.5,.33-.83,.5,.5,2.5,.67,5.17,.67,8v45.02c0,23.68-19.18,42.85-42.85,42.85-18.68,0-34.51-12-40.35-28.51-1.67-4.5-2.5-9.34-2.5-14.34v-1.67l-.17,.17c-.17,.33-.5,.67-.83,.83v.67c0,5,.83,9.67,2.33,14.17,5.84,17.17,22.34,29.68,41.52,29.68,22.01,0,40.18-16.34,43.35-37.35,.33-2.17,.5-4.33,.5-6.5V50.36c0-2.83-.33-5.67-.83-8.5Z" />
    <path class="cls-1" d="M20.17,44.02c.5-1.33,2-2.17,3.34-2,1.33,.17,2.67,1,3.5,2-2.33-1-4.84-1-6.84,0Z" />
    <path class="cls-1"
        d="M26.18,81.87c1.17-1.5,1-3.83-.17-5.17,.5,1,0,2.33-.67,3.33-.67,1-1.5,1.83-1.83,3-.33,1.17-.17,2.5,.83,3.17-.33-.83-.17-1.83,.17-2.5,.5-.83,1.17-1.33,1.67-1.83Z" />
    <path class="cls-1"
        d="M19.17,102.38c0-5.5,5.67-2.83,7.67,1.5,2.33,4.84,11.67,4,10.67-2.17-3,4.33-5.33,2.5-5.33-.17s-4-5.5-6.17-1.67c-1.67-3.67,2.83-5.34,2.83-5.34-6.84-3.84,1.17-7.17-3.33-6.84-1.17,0-2.5-.67-3.17-1.67-1-1.17-.5-2.83,0-4.34,.83-1.83,2-3.67,2.84-5.67,.83-2,1-4.17,0-6-.67-1.17-1.67-2-2.34-3-1.67-2.5-1-6,1.17-7.84,.83-.67,1.67-1,2.67-1s2,.67,2.34,1.5c.33,1,0,2.17-.83,3-.83,.67-1.83,1-3,1.17,.67,1.17,2.33,1.33,3.33,.67,1.17-.67,1.83-1.83,2.34-3,.83-2.17,1.17-4.5,.83-6.67-.33-2.33-1.17-4.67-1.33-7,0-2.67,1-5.17,2.5-7.34,1.5-2.17,3.33-4,5.17-5.84-3.34,1.17-6.34,3.5-8.17,6.5-.83,1.33-1.33,2.67-2.67,3.5-1,.67-2.17,.83-3.5,1-1.17,.17-2.5,.17-3.5,.67-1.17,.5-2.17,1.5-2,2.67,.83-.5,1.83-.83,2.83-.5s1.5,1.5,1.17,2.5c-.33,1-1.67,1.33-2.67,1.33s-2.33,0-3.17,.5c-2,1.5-.5,5.17-2.33,7-.33,.33-.83,.67-1.33,.83-.33,.17-.67,.17-1,.33-.33,.17-.83,.17-1.17,.17-1.17,.33-2.5,.83-3,2,.33-1,2-1,2.5,0,.5,.83,.17,2.17-.67,2.67-.83,.67-1.83,1.17-2.83,.83-5.67-1.33-6.5,4.34-6.5,4.34,1.33,0,2.83,1,3.17,2.33,.33,1.33-.83,3-2.34,2.83-.17,1.17,1.33,2.17,2.5,1.83,1.17-.17,2.33-1,3.17-2,.5-.67,1.5-.83,2.67-.5,1.67,.5,2,2.67,1.17,4.17-.5,.83-2,1.33-3.67,1.33s-4.33-.33-4.33,3.17c0,0,1.83-2.5,4.17-1,1.33,.83-1.67,3.17-.17,4.84,2.5-4,6.34,2.17,3.17,4.17-1,.67-2.34,1-4.34-.83-.67,2.67,1.17,3.83,2.67,4.17,1.33,.33,2.83,.17,3.83-.67,.33-.17,.67-.5,.83-.83l.17-.17c.67-.83,2-1.33,3-.83-1.67,.5-2.67,9.5,3.5,9.34Z" />
    <path class="cls-1"
        d="M109.38,3.17c-1.67,7.17-6.34,12.84-15.84,13.51-3,.17-6.17,.17-9,.5-.5,0-.83,0-1.33,.17-5.5,.67-9.84,2.33-9.84,9-.17,10.5,2.5,19.51-9.17,22.18v-1.33c.67-.33,1.33-.5,2-1,2.5-1.5,3.5-4.84,2.17-7.5,.17,1.83-1.17,3.33-2.5,4.34-.5,.5-1.17,.83-1.67,1.17,0-.5,0-.83-.17-1.33,.17-.17,.33-.17,.5-.33,2.5-1.5,3.5-4.84,2.17-7.5,.17,1.83-2.5,4.67-3.17,4.67-1-7.34-3.5-14.01-9.84-17.01-8.5-4.17-12.67,3.5-13.34,5.67,0,.17-.17,.33-.5,.33-2,.5-6.5,1.83-7.84,4.17-.33,.5,.33,1,.83,.83,2.17-1.17,7-2.83,10.84-.5l-5.34,6.5,7.17-4.67c.33,.33,.5,.83,.83,1.17,4.84,8.17-11.01,18.84-10.5,35.02,.33,16.17,16.84,19.34,37.18,18.17,4-.17,10.84-.5,15.17-.5,2.33,0,4.34,1.83,4.5,4.17v.17c0,1.83-.83,3.5-2.5,4.17-6.34,2.83-10.67,7.5-13.67,13.01-2.17,.33-7,1.33-10,3.33,2.17,.33,4.34,.33,6.34,.17-4.83,1.33-11.17,3.33-15.84,4.84,2,.67,4.67,.67,7.5,.33-6.34,2-14.01,3.83-20.34,3,3,3.17,10.17,2.83,17.17,1.5-.83,.33-1.67,.67-2.33,1,0,0-7.84,2.67-14.34,0,1.83,1.83,4,3.17,5.84,4-12.84-2.67-14.17-11.34-14.34-12.17,.33,5,3,8.67,6,11-10.34-5.17-13.17-17.84-13.17-17.84-.33,5.17,.83,9.17,2.67,12.34-6.84-7.5-6.67-18.51-6.67-18.51-1,3.17-1.33,6-1,8.5-1.33-2-3-4.5-5.17-6,.33,2.83,1.5,5.5,2.5,7.34l-.83-.5c-1.67-2.33-3.67-5.84-4.17-9.67-.83,2.5-.83,5-.83,7,.17,.5,.33,1,.67,1.5,0,.17,.17,.33,.17,.5,.17,.33,.33,.67,.5,1,.17,.17,.17,.33,.33,.67,.17,.33,.33,.67,.5,.83,.17,.17,.17,.33,.33,.67,.17,.33,.33,.5,.5,.83,.17,.17,.17,.5,.33,.67,.17,.33,.33,.5,.5,.83,.17,.17,.33,.5,.33,.67,.17,.33,.33,.5,.5,.83,.17,.17,.33,.5,.5,.67,.17,.17,.33,.5,.5,.67,.17,.17,.33,.33,.5,.67,.17,.17,.33,.5,.5,.67,.17,.17,.33,.33,.5,.67,.17,.17,.33,.5,.5,.67,.17,.17,.33,.33,.5,.67,.17,.17,.33,.5,.5,.67,.17,.17,.33,.33,.5,.5,.17,.17,.33,.5,.67,.67,.17,.17,.33,.33,.5,.5,.17,.17,.33,.33,.67,.67,.17,.17,.33,.33,.5,.5,.17,.17,.5,.33,.67,.67,.17,.17,.33,.33,.67,.5,.17,.17,.5,.33,.67,.5,.17,.17,.33,.33,.67,.5,.17,.17,.5,.33,.67,.5,.17,.17,.5,.33,.67,.5,.17,.17,.5,.33,.67,.5s.5,.33,.67,.5c.17,.17,.5,.33,.67,.5s.5,.33,.67,.5c.17,.17,.5,.33,.67,.5,.17,.17,.5,.33,.67,.33,.17,.17,.5,.33,.67,.5,.17,.17,.5,.33,.67,.33,.33,.17,.5,.33,.83,.33,.17,.17,.5,.17,.67,.33,.33,.17,.5,.17,.83,.33,.17,.17,.5,.17,.67,.33,.33,.17,.5,.17,.83,.33,.17,.17,.5,.17,.67,.33,.33,.17,.5,.17,.83,.33,.33,.17,.5,.17,.83,.33,.33,.17,.5,.17,.83,.33,.33,0,.5,.17,.83,.17s.5,.17,.83,.17,.5,.17,.83,.17,.5,.17,.83,.17,.5,.17,.83,.17,.5,.17,.83,.17,.5,.17,.83,.17,.67,.17,.83,.17c.33,0,.5,0,.83,.17,.33,0,.67,0,.83,.17h7.34c20.51-1.17,37.18-17.01,39.85-37.02,.33-2.17,.33-4.34,.33-6.5v-10.5c-1.83-8.34-9.67-15.84-24.18-21.84,0-.17,10.17,1,10.51-9.34,0-.17,9.5,1.67,8.84-9.67,0,0,2.17,.17,4.17-.83,.33-.17,.67-.33,.83-.5,2.17-1.5,3.84-4.5,2.33-10.67,.17,0,8.17-2.5,5.17-11.51-.33-.67,6.34-3.67,2.5-17.17ZM30.85,126.39h-.33c-.17-.17-3.84-4-3.67-6.34,0,0,0-.17,.17-.17h.17s.17,0,.17,.17v.17c-.17,2,3.5,5.84,3.5,5.84v.33Zm2.17-2.67c0-.17,.17-.33,.17-.33,.17,0,.33,.17,.33,.17,.17,2.83,4.17,4.67,4.17,4.67,.17,0,.17,.17,.17,.33s-.17,.17-.17,.17h-.17c-.17,0-4.17-1.83-4.5-5Zm10.51,9.84c0,.17-.17,.17-.17,.17h-.17c-.17,0-5-1.83-5.84-3v-.17s0-.17,.17-.17h.17s.17,0,.17,.17c.5,.83,3.67,2.17,5.67,2.84,0,0,.17,0,.17,.17-.17-.17-.17,0-.17,0Zm8.67,.33h-.83c-1.17,0-3.17-.17-5.34-1.67-.17,0-.17-.17,0-.33l.17-.17h.17c3,2,5.84,1.5,5.84,1.5,.17,0,.33,0,.33,.17,0,.33-.17,.5-.33,.5ZM78.7,20.68c1.17-1.17,3-1.67,5.17-1.5,.17,0,.17,.17,.17,.33s-.17,.17-.33,.17c-2.17-.33-3.67,.17-4.83,1.33-2.34,2.33-1.5,6.84-1.5,6.84,0,.17,0,.33-.17,.33s-.17-.17-.33-.17c.17-.17-.67-4.84,1.83-7.34Zm13.84,8.17c.17,0,.33,0,.33,.17s0,.33-.17,.33c-.5,0-1.17,.17-1.83,.17-4,0-7.67-1.5-7.84-1.67-.17,0-.17-.17-.17-.33s.17-.17,.33-.17c.17,.17,4.84,2.17,9.34,1.5Zm-15.51,10.5c0-.17,.17-.17,.33,0l.17,.17v.17s-1.5,2.33-1,4.34c.17,.83,.83,1.5,1.67,2,.17,0,.17,.17,.17,.33s-.17,.17-.17,.17h-.17c-1-.5-1.67-1.33-2-2.33-.67-2.33,1-4.84,1-4.84Zm-1.17,10.84c.17-.17,.33,0,.33,0,0,0,1.83,2.33,5.84,2.5h.17v.17c0,.17-.17,.33-.33,.33-4.33-.17-6.17-2.5-6.17-2.67s0-.33,.17-.33Zm5-9.84c0-.17,.17-.17,.33,0,0,0,2,1.33,4.5,1.83,0,0,.17,0,.17,.17v.17c0,.17-.17,.17-.33,.17-2.67-.5-4.67-1.83-4.84-1.83q.17-.33,.17-.5Zm-15.01,9.67c.17-.17,.33-.17,.33,0,0,0,2.33,2.17,6.5,2,.17,0,.33,.17,.33,.33s-.17,.33-.33,.33h-.5c-4,0-6.34-2.17-6.34-2.17v-.5Zm-6,17.01c0-.17,.17-.17,.33-.17,0,0,3.17,1.5,5.5,1h.17l.17,.17v.17l-.17,.17c-.33,0-.67,.17-1,.17-2.34,0-4.67-1.17-4.84-1.17-.17-.17-.17-.33-.17-.33Zm-2.67-6.17v-.17s0-.17,.17-.17h.17s.17,0,.17,.17c.17,.17,2.5,3,6.34,3,.17,0,.33,.17,.33,.33s-.17,.33-.33,.33c-4.17-.17-6.84-3.33-6.84-3.5Zm5.5,12.17h.17s6.17-.17,8.34-3.17l.17-.17h.17c.17,0,.17,.17,0,.33-2.33,3.17-8.5,3.33-8.84,3.5-.17,0-.33-.17-.33-.33q.17,0,.33-.17Zm7.17-12.67c-.67,.5-1.5,.67-2.67,.67-1.5,0-3-.5-3.17-.5,0,0-.17,0-.17-.17v-.17c0-.17,.17-.17,.33-.17,0,0,3.5,1.17,5.34-.17h.33v.17c.17,.33,0,.33,0,.33Zm-5-3.83h.33l.17,.17v.17s-.17,0-.17,.17h-.17c-3.33,0-5.5-3-5.5-3.17v-.17s0-.17,.17-.17h.17s.17,0,.17,.17c-.33-.17,1.83,2.83,4.84,2.83Zm-3.5-10c.17,0,.33,.17,.33,.33,0,1,.33,3.84,1.33,4.5,.17,0,.17,.17,.17,.33l-.17,.17h-.17c-1.5-.83-1.67-4.67-1.67-4.84-.17-.33,0-.5,.17-.5Zm-1.33-3.33c-.17,0-.33-.17-.33-.33,0-3.33-2-6.84-2-7s0-.33,.17-.33h.17s.17,0,.17,.17c.17,.17,2.17,3.67,2.17,7.17,0,.17-.17,.33-.33,.33Zm-3.67-14.67c.17-.17,.33-.17,.33,0,.17,.17,2.67,2.67,2.84,4.67v.17l-.17,.17c-.17,0-.33-.17-.33-.17-.17-1.83-2.67-4.34-2.67-4.34v-.5Zm-.83,13.84s0-.17,.17-.17h.17s.17,0,.17,.17v.17c-.33,4.5,2.5,6.5,2.5,6.5l.17,.17v.17l-.17,.17h-.17c-.33-.17-3.17-2.33-2.83-7.17Zm1,27.85c.17,.17,.17,.33,.17,.33,0,.17-.17,.17-.17,.17h-.17c-6.5-3.17-3.34-11.84-3.34-11.84,0-.17,.17-.17,.33-.17s.17,.17,.17,.33c-.17,0-3.17,8.17,3,11.17Zm-2.84-19.01s-2.5,3.33-3.17,5.5c0,.17-.17,.17-.33,.17,0,0-.17,0-.17-.17v-.17c.67-2.33,3.17-5.5,3.17-5.67l.17-.17h.17c.17,.17,.33,.33,.17,.5Zm-4-16.01c.17,0,.33,0,.33,.17s1.83,3.67,.83,6.5c0,.17-.17,.17-.17,.17h-.17s-.17,0-.17-.17v-.17c1-2.67-.67-6-.67-6.17-.17-.17,0-.33,0-.33Zm-4,14.51l.17-.17h.17l.17,.17v.17s-3.34,3.67-3.5,5.67c0,.17-.17,.17-.33,.17,0,0-.17,0-.17-.17v-.17c.17-1.83,3.5-5.5,3.5-5.67Zm.17,25.84c.17,.17,.17,.33,0,.33l-.17,.17h-.17c-2.17-1.83-1.33-5.34-1.33-5.5s.17-.17,.33-.17,.17,.17,.17,.33c0,0-.83,3.17,1.17,4.84Zm-1.67-13.84c0,.17-.17,.17-.33,.17,0,0-.17,0-.17-.17v-.17c.5-3,2-4.84,2-5,.17-.17,.33-.17,.33,0,.17,.17,.17,.33,0,.33,.17,.17-1.33,2-1.83,4.84Zm-3.67,10.34c-.17,0-.33,0-.33-.17-1.17-2.67-.17-6.17-.17-6.34,0,0,0-.17,.17-.17h.17c.17,0,.17,.17,.17,.33,0,0-1,3.5,.17,6,0,0,0,.17-.17,.33Zm7,10.5c0,.17-.17,.17-.33,.17-2.84-1-5.5-4-5.67-4.17-.17-.17,0-.33,0-.33,.17-.17,.33,0,.33,0,.17,.17,2.67,3.17,5.5,4,0,0,.17,0,.17,.17v.17Zm.17-21.51c-.83,1.83-1.33,5.34-1.33,5.34,0,.17-.17,.17-.33,.17,0,0-.17,0-.17-.17v-.17c0-.17,.5-3.5,1.33-5.5,0,0,0-.17,.17-.17h.17s.17,0,.17,.17v.33Zm-.83-31.51c-.83,0-1.33-.67-1.33-1.33v-.33c.17-.67,.67-1.17,1.33-1.17,.83,0,1.33,.67,1.33,1.33,0,.83-.5,1.5-1.33,1.5Zm2.17,21.84c0,.17-.17,.17-.17,.17h-.17c-.17,0-.17-.17-.17-.33,1.17-2.5,4.67-7.67,4.67-7.67l.17-.17h.17l.17,.17v.17c-.33,.67-3.5,5.34-4.67,7.67Zm.67,21.84h.17s.17,0,.17,.17,1.5,4,4.5,5.34c0,0,.17,0,.17,.17v.17c0,.17-.17,.17-.17,.17h-.17c-3.17-1.33-4.67-5.34-4.84-5.5-.17-.33,0-.5,.17-.5Zm7.67,10.67c-3-.33-6.5-2.5-6.67-2.67l-.17-.17v-.17l.17-.17h.17c.17,.17,3.5,2.17,6.34,2.5,.17,0,.17,.17,.17,.33,.33,.33,.17,.33,0,.33Zm-.5-9c-.17-.17-.17-.33,0-.33,.17-.17,.33-.17,.33,0,0,0,4.84,5.17,13.01,3.33h.17l.17,.17v.17l-.17,.17c-1.17,.33-2.33,.33-3.5,.33-2.83,0-5-.83-6.5-1.5-2.17-.83-3.34-2.17-3.5-2.33Zm14.34,12.01l-.17,.17c-.5,.17-1.17,.17-1.83,.17-2.83,0-6.5-.5-6.67-.5,0,0-.17,0-.17-.17v-.17c0-.17,.17-.17,.33-.17,0,0,5.84,.83,8.34,.5h.17l.17,.17q-.17-.17-.17,0Zm5.5-4c-3.17,0-7.67-1.33-7.67-1.33,0,0-.17,0-.17-.17v-.17s0-.17,.17-.17h.17c.17,0,4.5,1.33,7.67,1.33,.17,0,.33,.17,.33,.33-.17,0-.33,.17-.5,.17Zm-4.67-8.67c.17-.17,3.67-3.67,7-2.5,.17,0,.17,.17,.17,.33,0,0,0,.17-.17,.17h-.17c-3.17-1.17-6.5,2.33-6.5,2.33h-.33v-.33Zm13.84,11.84q-.17,.17-.33,0c-3.17-2.33-6.84,0-7,0h-.17q-.17,0-.17-.17v-.17s0-.17,.17-.17c0,0,4.17-2.5,7.5,0,0,.33,.17,.5,0,.5Zm5-5c-.17,0-.17-.17-.33-.17-.33-2.5-2.83-3.5-3-3.5s-.17-.17-.17-.33,.17-.17,.33-.17,2.83,1.17,3.17,4c.33,0,.17,0,0,.17Zm-16.34,34.18s.17-.17,0,0c4-1.67,8.5-4.17,8.5-4.17,.17,0,.33,0,.33,.17s0,.33-.17,.33c-.17,.17-4.67,2.67-8.5,4.17h-.17q-.17,0-.17-.17,.17-.17,.17-.33Zm-8.5,4.5c4.17-.17,9.17-1.33,9.34-1.33h.17l.17,.17v.17l-.17,.17s-5.17,1.17-9.34,1.33c-.17,0-.33-.17-.33-.17,0-.17,.17-.33,.17-.33Zm-4.84,5.84c4-1,8.5-2.83,9-3h.17s.17,0,.17,.17,0,.33-.17,.33c0,0-5,2-9,2.83-.17,0-.17-.17-.33-.17l.17-.17Zm-5.5,3.17c0-.17,.17-.17,.33-.17,3.33,1,6-.33,6-.5h.17s.17,0,.17,.17v.17s0,.17-.17,.17c0,0-1.67,.83-3.84,.83-.83,0-1.67-.17-2.67-.33,.17,0,0-.17,0-.33Zm-.33,3.67h-.83s-.17,0-.17-.17v-.17s0-.17,.17-.17h.17c1.5,.17,4.5-.17,4.67-.17h.17l.17,.17c0,.17-.17,.33-.17,.33-.33,0-2.5,.17-4.17,.17Zm8.84,1.17c-.17,.17-1.83,1-4.34,1-.5,0-1.17,0-1.67-.17-.17,0-.17-.17-.17-.33s.17-.17,.33-.17c3.17,.5,5.5-.83,5.67-.83s.33,0,.33,.17,0,.33-.17,.33Zm1.5-4.34l-.17,.17h-.17c-.17,0-.17-.17-.17-.33,.83-1.5,5.34-2.67,5.5-2.67s.33,0,.33,.17,0,.33-.17,.33-4.5,1.17-5.17,2.33Zm6.67,1s-3.17,1.17-5.17,1.33c-.17,0-.33-.17-.33-.17,0-.17,.17-.33,.17-.33,2-.17,5-1.17,5-1.33h.17s.17,0,.17,.17c.17,.17,0,.17,0,.33Zm3-5.84q0-.17,0,0c.17-.17,3.67-1,4.67-3,0-.17,.17-.17,.33-.17s.17,.17,.17,.33c-1,2.33-4.67,3.17-4.83,3.33q-.17,0-.33-.17c-.17-.17-.17-.33,0-.33Zm6.84,1.5c-.17,.17-3.83,3-6.17,3h-.5s-.17,0-.17-.17v-.17s0-.17,.17-.17h.17c2,.5,6.17-2.84,6.17-2.84,.17-.17,.33,0,.33,0,.17,.17,.17,.33,0,.33Zm.5-9.84c-2.5,1.17-4.5,3.67-4.5,3.67l-.17,.17h-.17l-.17-.17v-.17c.17-.17,2.17-2.67,4.67-3.67h.17s.17,0,.17,.17q0-.17,0,0Zm6.34-.83c-.5,1.5-5.34,6-5.5,6.17h-.33v-.33s4.84-4.5,5.34-6c0-.17,.17-.17,.33-.17s.17,.17,.17,.33Zm-2.33-1.67h-.17s-.17,0-.17-.17c-.17-.17,0-.33,0-.33,2-1.67,2.83-6.67,2.83-6.84,0,0,0-.17,.17-.17h.17s.17,0,.17,.17v.17c0,.33-.83,5.34-3,7.17Zm-.67-6c0,.17-.17,.17-.17,.17h-.17c-.17,0-.17-.17-.17-.33,.17-.17,2.83-5.17,5.67-6,.17,0,.33,0,.33,.17s0,.33-.17,.33c-2.67,.67-5.34,5.5-5.34,5.67Zm9.34-8.67c0,.17-.17,.17-.17,.17h-.17s-.17,0-.17-.17v-.17c1.17-2.67,.33-6.34,.33-6.34,0-.17,0-.33,.17-.33h.17l.17,.17c0,.17,.83,4-.33,6.67Zm-.67-16.51c.17-.17,.33-.17,.33,0,.83,.83,1.67,4.34,1.17,6.34,0,.17-.17,.17-.33,.17,0,0-.17,0-.17-.17v-.17c.5-1.83-.17-5-1-5.84v-.17q-.17-.17,0-.17Zm-.33,21.51c.17,0,.33,.17,.33,.33,0,0,0,6.17-2.67,10.17l-.17,.17h-.17l-.17-.17v-.17c2.67-3.67,2.67-9.84,2.67-9.84-.17-.33,0-.5,.17-.5Zm-.33-16.34c0,.17-.17,.17-.33,.17s-.17-.17-.17-.33c.17-2-2.33-3.83-2.5-4l-.17-.17v-.17l.17-.17h.17c.33,.33,3,2.33,2.83,4.67Zm-6.84-15.67c0-.17,.17-.17,.33,0,.17,.17,4.34,3,5.17,6.67v.17l-.17,.17q-.17,0-.33-.17c-.83-3.33-5-6.34-5-6.34,0-.33-.17-.5,0-.5Zm-1,9.17h.17l.17,.17c0,.17-.17,.33-.17,.33h-.17c-1.83,0-6.34-1.83-6.5-2-.17,0-.17-.17-.17-.33,0,0,0-.17,.17-.17h.17c0,.17,4.5,2,6.34,2Zm-3-5.84v.17s0,.17-.17,.17h-.17c-4.67-1-8.84,2.67-9,2.67h-.17s-.17,0-.17-.17v-.17s0-.17,.17-.17c0,.17,4.5-3.67,9.5-2.5,0,0-.17,0,0,0Zm-.5-4.67l-.17,.17h-.17c-2.83-2-6.84-2.67-7-2.67s-.17-.17-.17-.33c0,0,0-.17,.17-.17h.17s4.17,.67,7.17,2.67c0,0,.17,.17,0,.33Zm-4.67-5l.17,.17v.17l-.17,.17h-.17c-1.83-1.5-7.34-2.17-7.34-2.17-.17,0-.17-.17-.17-.33s.17-.33,.33-.17c.17,0,5.33,.5,7.34,2.17Zm4.5-9.5c-1,.17-2.17,.33-3.34,.33-2.83,0-4.67-.83-4.67-.83-.17,0-.17-.17-.17-.33,0,0,0-.17,.17-.17h.17s3.34,1.5,7.67,.5c.17,0,.33,0,.33,.17,.17,.17,0,.33-.17,.33Zm8.84-10.17c-.5,0-.83,.17-1.33,.17-3.84,0-8-2.5-8.34-2.67-.17,0-.17-.17-.17-.33l.17-.17h.17s5.34,3.17,9.34,2.33c.17,0,.33,0,.33,.17,.17,.33,0,.5-.17,.5Zm1.17-9.5l-.17,.17c-.83,.17-1.67,.17-2.67,.17-6.5,0-10.67-2.67-10.84-2.67s-.17-.17,0-.33c0-.17,.17-.17,.33,0,0,0,5.34,3.33,13.01,2.5h.17l.17,.17h0Zm3-2.17s-.17,0,0,0c-1.17,.33-3.33,.5-5,.5h-1.83c-.17,0-.33-.17-.33-.33s.17-.33,.33-.33,5,.17,6.5-.33c.17,0,.33,0,.33,.17v.33Zm2.33-9c-1.17,.5-3,.5-4.34,.5h-2c-.17,0-.33-.17-.17-.33,0-.17,.17-.33,.33-.17,0,0,4.17,.33,6-.5h.17s.17,0,.17,.17-.17,.33-.17,.33Zm5.84-7c-4.17,3.67-13.51,4.17-14.01,4.34-.17,0-.33-.17-.33-.17v-.17l.17-.17c.17,0,9.67-.67,13.67-4.17,.17-.17,.33,0,.33,0,.33,0,.33,.17,.17,.33Z" />
    <path class="cls-1"
        d="M61.86,7.84c.17-.33,.33-.67,.33-1,.67-1.83,1.17-3,1.17-3l-4,2.5V1.83l-3.83,3.33-.67-5.17-3,5.67s-.67-1.67-2.33-5.34c-.67,2-1.17,4.34-1.67,6.84,0,.33-.17,.67-.17,1-.67,5.17-.83,10.17-.83,10.17,0,0,4.67,1.5,10.51,2.17,.5-2.5,2.83-8.5,4.5-12.67Zm-9,8l-.17,.17c-.17,0-.17-.17-.17-.17,0,0,1.33-6.84,1.5-8.34,0-.17,.17-.17,.17-.17,.17,0,.17,.17,.17,.17-.17,1.33-1.5,8-1.5,8.34Zm4.34-5.67c-.67,1.5-1.67,6.84-1.67,6.84l-.17,.17c-.17,0-.17-.17-.17-.33s1.17-5.34,1.83-6.84c0-.17,.17-.17,.17-.17,0,.17,.17,.17,0,.33Z" />
    <path class="cls-1"
        d="M54.02,108.71c1.5-1,4.34-2.33,6.84-3.5,3.5-1.5,5.84-5,5.84-8.84v-5.17l-6.5-.33v5.34c0,4.84-3.67,9.17-8.5,9.67-1.17,.17-2.5,.17-4,0-11.34-.83-11.34,6.5-11.34,6.5,0,0,2.84-5.34,9.17-4.34-5.5,2.17-6.34,6.67-4.84,10.17,.67-4.67,2-6.84,6.34-7.34-2.17,3.33-2.33,7.84-.83,9.67-.67-6.17,5.84-10.17,5.84-10.17,0,0,2.67,2.33,1.67,6.84,2.5-1.83,2-6.5,.33-8.5Zm10.5-15.84q0-.17,.17-.17t.17,.17v5.84q0,.17-.17,.17-.17,0-.17-.17v-5.84Z" />
</svg>