<svg width="102" height="208" viewBox="0 0 102 208" fill="none" xmlns="http://www.w3.org/2000/svg">
<g clip-path="url(#clip0_1706_14666)">
<path opacity="0.36" d="M69.6877 37.0287C66.7666 36.334 64.2628 34.2498 63.0805 31.5404C62.1068 34.2498 62.8718 37.515 64.8888 39.5992C66.9057 41.6834 70.1746 42.3781 72.9566 41.4749C75.6691 40.5023 77.7556 37.9319 78.1033 35.014C75.8082 36.8898 72.6088 37.654 69.6877 37.0287Z" fill="#CEC1A3"/>
<path opacity="0.36" d="M21.4218 123.869C23.3692 121.924 24.2733 118.867 23.7169 116.158C23.3692 114.629 22.6041 113.24 22.3259 111.711C21.9782 110.183 22.1868 107.404 23.2996 106.362C20.6567 107.404 17.8052 108.724 16.7619 111.364C16.0664 113.17 16.4141 115.185 16.8314 117.061C17.2487 118.937 17.7356 120.882 17.3183 122.827C16.901 124.703 15.0927 126.44 13.2148 126.092C15.9273 126.717 19.4744 125.884 21.4218 123.869Z" fill="#CEC1A3"/>
<path opacity="0.36" d="M157.878 120.743C156.557 120.326 155.096 120.187 153.844 120.743C152.592 121.299 151.688 122.827 152.245 124.078C153.079 123.244 154.053 122.549 155.166 122.341C156.279 122.132 157.6 122.549 158.156 123.522C158.713 124.425 158.504 125.606 157.948 126.44C157.322 127.273 156.348 127.829 155.305 128.037C152.314 128.732 148.976 126.787 148.002 123.869C147.585 122.619 147.585 121.229 147.098 119.979C146.263 117.964 144.177 116.713 142.021 116.088C139.517 115.324 136.874 115.324 134.37 114.421C133.744 114.212 133.188 113.865 132.701 113.379C131.101 111.642 132.214 109.975 132.701 108.238C133.257 106.223 132.771 104 131.449 102.333C130.128 100.735 127.972 99.8317 125.885 99.9706C126.859 100.11 127.833 100.804 128.041 101.777C128.111 102.055 128.111 102.333 128.041 102.68C126.998 101.221 125.19 100.249 123.381 100.249C124.425 97.8865 126.511 95.9413 129.015 95.2465C131.519 94.5518 134.301 95.0381 136.457 96.497C137.778 97.4002 138.821 98.7202 140.004 99.6928C141.256 100.735 142.786 101.569 144.385 101.291C145.707 101.082 146.75 100.249 147.793 99.4843C148.837 98.7202 150.089 97.956 151.41 98.0949C152.732 98.2338 153.914 99.6233 153.357 100.804C154.053 99.5538 153.983 97.956 153.218 96.7749C152.453 95.5939 150.993 94.8992 149.602 94.9687C147.585 95.1076 145.707 96.7749 143.76 96.2191C141.882 95.5939 141.325 92.9539 142.438 91.2866C143.551 89.6888 145.707 88.994 147.654 89.133C152.036 89.4109 150.436 72.3207 142.09 74.4743C139.587 75.0996 136.318 76.2806 134.231 74.8217C136.457 73.7796 137.987 71.487 138.126 69.0555C137.222 71.1397 134.648 72.2512 132.492 71.5565C131.032 71.0702 129.85 69.8892 128.319 69.4723C126.928 69.125 125.468 69.6113 124.146 70.2365C122.477 71.0702 120.878 72.2512 119.626 73.6407C119.626 73.1544 119.556 72.5986 119.556 72.1123C119.487 70.5144 119.487 68.7776 120.321 67.4576C121.364 65.8598 123.381 65.165 124.425 63.5672C125.955 61.2051 124.286 57.5231 121.434 57.1757C122.755 56.1336 124.703 56.62 126.024 57.662C127.346 58.6346 128.389 60.0241 129.78 60.9272C132.075 62.3167 135.344 62.0388 137.291 60.163C138.961 58.6346 139.656 56.2726 141.186 54.6053C141.604 54.1884 142.021 53.8411 142.508 53.5632L139.795 50.7843C138.335 51.479 136.874 52.1043 135.274 52.4516C132.632 53.0769 129.432 52.66 127.972 50.0896C127.068 48.5612 127.346 46.5465 128.806 45.5044C130.336 44.3234 132.423 44.9486 134.092 45.7823C134.579 46.0602 135.135 46.3381 135.692 46.5465C122.616 34.3193 121.782 50.4369 121.782 50.4369C117.4 50.4369 116.009 48.2833 116.009 46.2686C116.009 44.2539 119.626 34.6667 112.532 26.1911C105.437 17.646 99.317 22.3701 99.317 22.3701C99.6648 14.9366 95.0745 9.72616 95.0745 9.72616C93.2662 8.54513 92.5707 7.78094 89.0932 8.47566C85.5461 9.10091 82.2077 15.2145 82.2077 15.2145C80.6081 20.0081 80.3994 25.4964 71.9838 25.4269C80.3299 32.7215 86.9371 16.9513 85.7548 30.0815C92.2925 29.8036 93.5444 22.4396 87.7717 16.1176C92.6402 17.0208 93.6139 21.9533 93.9617 25.2185C94.3094 28.3447 95.4222 31.332 97.2305 33.9025C98.2738 35.3614 99.5952 36.6814 101.264 37.1677C103.003 37.5845 105.09 36.8204 105.577 35.0835C104.116 35.292 102.516 35.2225 101.195 34.5278C99.8734 33.833 98.8997 32.3741 99.1084 30.9152C99.317 29.5952 100.43 28.4837 101.751 28.0668C103.073 27.7195 104.464 27.9974 105.716 28.5531C109.332 30.29 111.21 34.9446 109.819 38.6961C109.193 40.3634 108.08 41.7529 107.593 43.4202C106.828 46.1991 107.941 49.1169 109.541 51.479C111.419 54.1884 114.062 56.3421 115.87 59.121C116.426 60.0241 116.844 60.9967 116.844 62.0388C116.913 64.8177 114.479 65.6513 112.671 66.9713C111.071 68.1524 109.958 69.9586 109.471 71.9039C107.454 71.0007 105.368 70.306 103.351 69.3334C100.708 68.0134 98.2738 65.9292 97.5087 63.0809C97.0914 61.483 97.3696 59.5378 98.6911 58.6347C99.7343 57.8705 101.473 58.3568 102.029 59.3988C101.404 57.3147 99.3866 55.7168 97.161 55.6473C93.1966 55.5779 89.7887 60.0241 85.9634 58.9125C82.3468 57.9399 81.5122 52.8684 78.1738 51.1316C76.2264 50.0896 73.7922 50.5064 71.6361 51.0622C69.48 51.6179 67.2544 52.3127 65.0984 51.7569C62.9423 51.2011 60.4385 48.6306 61.2731 46.6159C59.743 47.7275 60.0908 50.2285 61.4122 51.5485C62.7337 52.8684 64.6115 53.4242 66.3503 54.1189C68.089 54.8137 69.8973 55.7168 70.6624 57.4536C71.7056 59.9546 69.7582 62.9419 67.1849 63.7756C64.6115 64.6093 61.76 63.8451 59.3953 62.664C56.961 61.483 54.7354 59.8157 52.2316 58.8431C47.85 57.0368 42.7033 57.3147 38.5303 59.6073C34.3572 61.8304 31.297 65.9987 30.3233 70.5839C29.2801 75.7248 30.6711 81.6994 27.4718 85.9372C25.8026 88.1604 23.0901 89.4109 20.3777 90.314C17.6652 91.1477 14.8832 91.7035 12.3099 92.8845C9.73651 94.135 7.44136 96.2191 6.81541 98.9286C6.18946 101.707 7.65001 104.834 10.432 105.181C8.76281 104.139 8.34551 101.638 9.31921 99.9012C10.2929 98.1644 12.2403 97.1918 14.2573 96.9834C16.2047 96.7749 18.2216 97.2612 20.0995 97.817C21.9773 98.3728 23.9247 98.998 25.8721 99.2065C31.5057 99.7622 37.2088 95.9413 38.9476 90.5919C39.9213 87.6046 39.7126 84.3394 40.4081 81.2826C41.0341 78.7121 42.3555 76.2806 44.5116 74.7522C46.6676 73.2238 49.7278 72.9459 51.8839 74.3354C54.1095 75.7943 54.9441 79.0595 53.3444 81.2131C51.8839 83.1584 49.0323 83.5057 47.0849 84.9646C44.3725 86.9793 43.8161 91.2171 45.9026 93.8571C47.7109 96.0802 50.5624 96.3581 52.9271 95.0381C52.0925 95.1771 51.1884 94.8297 50.7015 94.135C49.9365 93.0234 50.1451 91.4256 50.7711 90.2445C52.1621 87.4656 55.9873 85.8678 58.5607 87.6741C60.0908 88.7161 60.7863 90.7308 60.5081 92.6066C60.2994 94.4129 59.2562 96.0802 57.9347 97.4002C55.6396 99.6233 52.5098 100.874 49.3801 101.777C46.2503 102.68 43.051 103.305 40.1299 104.695C37.2088 106.015 34.4268 108.238 33.314 111.225C32.2012 114.212 32.5489 117.547 35.4005 119.145C35.1919 116.505 36.3742 113.796 38.5303 112.267C40.6168 110.669 43.6074 110.322 46.0417 111.295C48.0586 112.128 49.6583 113.726 51.6057 114.699C54.7354 116.297 58.6998 116.158 61.6904 114.282C63.7769 112.962 65.3766 110.947 66.8371 108.933C68.3672 106.918 69.8973 104.903 71.9838 103.583C74.0704 102.263 76.9219 101.777 79.078 103.027C80.6081 103.931 81.5818 105.598 81.9295 107.335C82.2773 109.072 82.1382 110.878 81.7904 112.615C81.3036 115.255 79.9821 118.172 77.3392 118.659C75.8787 118.937 74.4181 118.311 72.9576 118.589C70.3842 119.006 68.7845 122.41 70.1755 124.633C70.4537 122.896 72.6098 121.785 74.2094 122.48C77.061 123.73 75.6005 128.593 74.0008 130.33C72.262 132.275 69.1323 132.692 66.8371 131.442C64.542 130.191 63.2205 127.482 63.4292 124.842C61.134 127.204 61.0645 131.164 62.6641 134.012C64.2638 136.86 67.2544 138.806 70.3842 139.778C72.6793 140.473 75.1136 140.82 77.061 142.14C79.078 143.46 80.469 145.892 80.2603 148.254C80.0517 150.685 77.9652 152.839 75.5309 152.909C73.0966 152.978 70.871 150.477 71.4274 148.115C69.5496 149.713 69.9669 152.978 71.6361 154.784C73.3053 156.591 75.8787 157.355 78.3129 157.911C80.7472 158.466 83.3205 158.883 85.3375 160.273C87.7717 161.87 89.1627 164.649 89.8582 167.498C90.5537 170.346 95.9786 175.279 97.0219 174.306C93.9617 167.706 98.8302 164.858 102.029 161.454C103.768 159.578 105.994 158.188 108.011 156.73C110.028 155.201 112.045 153.464 113.088 151.102C114.201 148.81 114.201 145.822 112.532 143.877L112.462 143.808C118.93 143.877 125.12 147.49 122.477 152.978C122.199 153.603 122.06 154.229 122.129 154.923C122.477 157.772 125.885 154.229 125.329 157.702C127.763 157.355 125.607 151.033 129.015 154.854C132.562 158.814 136.179 148.115 139.239 155.271C139.447 155.201 139.587 155.062 139.726 154.993L140.073 154.645C141.047 153.464 141.117 151.102 140.63 149.643C139.795 147.351 136.874 146.378 135.831 144.155C134.788 141.932 135.9 139.292 137.5 137.416C138.196 136.583 139.03 135.818 140.143 135.54C141.186 135.263 142.508 135.749 142.855 136.721C143.203 137.764 140.838 140.265 140.073 139.709C141.743 142.21 143.76 138.458 144.803 137.625C145.846 136.791 146.82 135.818 148.141 135.679C150.436 135.54 152.175 137.833 154.331 138.18C159.826 139.014 161.495 134.568 162.26 133.317C165.181 125.884 160.521 121.507 157.878 120.743ZM96.4655 136.93C94.1703 139.709 93.0575 143.252 92.7098 146.864C92.4316 150.477 92.8489 154.02 93.2662 157.633C90.6928 153.603 89.5105 148.462 90.206 143.738C90.4842 141.723 91.1101 139.639 90.5537 137.694C90.0669 136.096 88.8845 134.846 87.7022 133.734C86.5198 132.623 85.2679 131.442 84.5029 129.983C83.8074 128.524 83.3901 126.579 84.5724 125.398C84.9897 126.717 85.8939 127.968 87.2153 128.315C88.5368 128.732 90.206 128.037 90.5537 126.717C90.971 125.328 89.9278 123.869 88.7454 122.896C87.6326 121.924 86.2416 121.021 85.8243 119.631C84.8506 116.297 89.6496 113.657 89.4409 110.183C89.3714 108.446 88.0499 107.126 87.0067 105.806C85.9634 104.486 84.9897 102.75 85.5461 101.152C85.0593 102.472 86.798 103.861 88.1195 103.375C89.4409 102.888 90.0669 101.221 89.7191 99.8317C89.4409 98.4423 88.3977 97.3307 87.3544 96.4276C84.9202 94.3434 81.5122 92.815 78.5911 94.135C75.67 95.455 74.3485 99.2065 71.2883 100.249C68.9932 101.013 66.1416 99.6928 65.2375 97.4002C67.7413 97.6086 70.9406 97.4697 71.9838 95.1771C73.0966 92.6761 70.8015 90.1056 69.8973 87.5351C69.2714 85.7288 69.3409 83.7141 68.9236 81.8384C68.4368 79.9626 67.1153 78.0174 65.1679 77.9479C63.8465 77.8785 62.7337 78.6427 61.5513 79.1984C60.369 79.7542 58.8389 79.8932 57.9347 78.99C60.2994 77.5311 59.9517 73.7796 57.9347 71.8344C55.9873 69.8892 53.0662 69.3334 50.3538 68.8471C52.9271 67.0408 56.4046 67.1797 59.3257 68.2913C62.2468 69.4029 64.6811 71.4175 67.1153 73.3628C68.6454 74.6133 70.3842 75.8638 72.4011 75.8638C75.3918 75.9332 77.7565 73.0154 78.2434 70.0281C78.6607 67.0408 77.687 64.0535 76.6437 61.2746C80.1908 62.1777 82.4164 65.9987 82.5555 69.6113C82.625 71.5565 82.2077 73.5017 81.86 75.3775C81.5122 77.3227 81.1645 79.2679 81.3731 81.1437C81.5818 83.0889 82.4164 85.0341 83.9465 86.2151C85.4766 87.3962 87.8413 87.6046 89.3714 86.3541C90.9015 85.1036 90.971 82.3942 89.3714 81.3521C90.206 79.8237 92.6402 80.1711 93.6835 81.491C94.7267 82.811 94.9354 84.6173 95.2831 86.2846C95.6309 87.952 96.3264 89.7582 97.8565 90.4529C99.943 91.3561 102.516 89.4109 102.795 87.1183C103.073 84.8257 101.682 82.6721 99.8734 81.2131C98.0651 79.7542 95.9091 78.8511 93.9617 77.6701C92.0143 76.489 90.0669 74.8912 89.3714 72.7375C88.6759 70.5839 89.5105 67.7355 91.7361 66.9713C91.0406 70.7923 94.1703 74.8217 97.9956 75.2385C100.221 75.4469 102.516 74.6133 104.742 74.9606C107.385 75.3775 109.61 77.7395 109.958 80.4489C110.167 82.1163 109.68 83.7141 109.68 85.3815C109.68 87.0488 110.515 88.9246 112.114 89.2719C110.654 86.8404 112.601 83.2278 115.383 83.0194C117.261 82.8805 119.069 84.0615 120.947 83.8531C122.547 83.7141 123.938 82.6721 125.12 81.63C126.302 80.5879 127.554 79.4069 129.084 78.99C130.615 78.5732 132.91 79.3374 133.466 80.8658C132.423 80.1016 130.754 81.1437 130.823 82.4636C130.893 83.7836 132.423 84.6868 133.675 84.3394C134.927 84.0615 135.831 82.8805 136.109 81.5605C136.248 84.2699 134.996 86.9793 132.91 88.7161C130.823 90.3835 127.833 91.0087 125.259 90.2445C123.66 89.7582 121.99 88.8551 120.391 89.2024C118.374 89.6193 117.261 91.7729 116.705 93.7876C115.94 96.5665 115.731 99.4149 114.896 102.194C114.062 104.903 112.323 107.613 109.68 108.655C108.08 109.28 106.202 109.28 104.533 109.766C100.708 110.947 98.1347 115.255 98.9693 119.214C99.2475 120.534 99.8734 121.854 100.986 122.619C102.099 123.452 103.629 123.661 104.811 122.966C106.133 122.202 106.62 120.534 106.411 119.076C106.133 117.617 105.229 116.297 104.186 115.255C105.855 114.629 107.802 115.81 108.498 117.408C109.193 119.006 108.915 120.951 108.428 122.619C107.524 125.606 105.785 128.315 103.56 130.469C101.473 132.831 98.552 134.429 96.4655 136.93ZM133.257 128.871C132.91 130.33 131.38 130.955 129.989 131.233C128.737 131.511 127.346 131.65 126.302 132.484C125.329 133.317 125.051 135.193 126.233 135.818C127.068 134.568 129.154 134.637 130.128 135.749C131.101 136.86 130.962 138.667 130.058 139.917C129.154 141.098 127.693 141.793 126.233 142.001C124.772 142.21 123.242 141.932 121.782 141.723C123.034 134.846 114.34 142.627 114.549 137.069C111.767 137.208 100.917 140.82 104.116 146.309C105.437 145.267 107.037 144.572 108.776 144.155C110.515 146.031 108.984 149.365 106.759 150.06C105.437 150.477 103.977 150.269 102.795 149.574C99.8734 147.907 98.9693 143.808 100.013 140.612C101.056 137.416 103.699 134.915 106.411 132.901C109.124 130.886 112.114 129.218 114.479 126.787C116.844 124.425 118.652 121.09 118.235 117.756C118.026 115.81 117.052 114.074 116.426 112.267C115.8 110.461 115.383 108.377 116.218 106.64C117.261 104.486 120.182 103.583 122.269 104.695C124.355 105.806 125.12 108.794 123.868 110.878C125.051 110.808 126.163 110.322 127.068 109.558C127.415 110.114 127.693 110.739 127.763 111.434C127.902 112.892 127.068 114.282 127.137 115.741C127.346 117.895 130.128 119.284 132.006 118.172C131.727 119.423 130.267 120.048 129.015 120.048C127.763 120.118 126.442 119.701 125.19 119.909C123.103 120.187 121.364 121.924 121.017 123.939C120.738 125.675 121.434 127.412 121.295 129.149C121.017 132.136 117.956 134.498 115.035 134.082C115.592 135.749 117.817 136.374 119.487 135.818C121.156 135.263 122.338 133.734 123.242 132.206C124.146 130.677 124.772 129.01 125.885 127.621C127.137 126.023 129.224 124.772 131.31 125.536C132.701 126.092 133.605 127.551 133.257 128.871Z" fill="#CEC1A3"/>
</g>
<defs>
<clipPath id="clip0_1706_14666">
<rect width="320" height="208" fill="white"/>
</clipPath>
</defs>
</svg>
