<svg width="252" height="484" viewBox="0 0 252 484" fill="none" xmlns="http://www.w3.org/2000/svg">
<path opacity="0.36" d="M224.657 299.484C215.498 299.484 205.8 291.397 207.955 282.502C203.645 282.232 200.547 286.41 198.93 290.454C197.314 294.497 196.506 298.945 193.273 301.775C188.558 306.088 180.746 304.606 175.358 301.236C169.835 297.867 165.391 292.88 159.733 290.05C151.651 286.141 140.067 285.467 136.969 276.976C134.141 269.158 141.28 261.341 147.745 256.085C140.337 252.58 130.504 256.085 126.867 263.363C122.153 272.932 127.81 284.793 124.038 294.767C120.402 304.741 108.683 309.188 98.0417 309.862C93.3273 310.132 88.3435 309.862 84.4372 307.302C80.531 304.741 77.9718 299.484 79.9922 295.171C82.0127 290.993 89.2863 290.184 91.1721 294.363C88.8823 289.106 82.5515 287.354 76.8942 286.68C71.2369 286.006 65.0408 285.737 60.8652 281.963C52.3792 274.28 57.4977 256.893 47.3954 251.232C43.0851 248.806 37.8319 249.885 32.8481 250.289C27.999 250.693 22.0723 249.885 19.7824 245.437C17.6273 241.393 19.9171 236.002 23.9581 233.846C27.999 231.689 32.9828 232.498 37.0237 234.654C36.889 229.128 31.5011 225.489 26.3826 223.602C21.2641 221.85 15.6068 222.12 10.0842 222.254C4.56162 222.389 -1.09569 222.12 -5.9448 219.559C-11.8715 216.324 -15.3736 209.989 -19.2799 204.463C-28.574 191.659 -43.5254 182.359 -59.0156 178.855C-49.5868 186.268 -40.158 193.681 -32.6149 202.846C-24.9372 212.011 -19.1451 223.063 -18.2023 235.059C-17.3941 245.841 -20.4921 256.489 -20.7615 267.271C-21.0309 277.65 -18.6064 288.028 -13.8919 297.193C-11.198 302.449 -7.42645 307.436 -1.90385 309.728C3.48405 311.884 10.8924 310.132 13.1822 304.741C8.19844 304.741 3.07993 303.797 -0.960995 300.967C-5.00192 298.136 -7.56118 292.88 -6.3489 288.163C-5.13662 283.85 -0.960972 280.75 3.48405 280.076C7.92907 279.402 12.5088 281.019 16.2803 283.445C27.3255 290.723 31.5011 306.897 25.305 318.623C22.6111 323.745 18.3008 327.923 15.8762 333.314C12.1047 342.075 14.3945 352.319 18.8396 360.81C23.1499 369.301 29.4807 376.579 34.1951 384.936C37.5625 390.866 39.9871 398.549 36.2155 404.344C33.1175 409.061 27.1908 410.544 22.207 413.24C14.3945 417.553 8.73723 425.909 7.79434 434.805C6.71677 443.7 10.2189 453.135 16.9538 459.2C14.5292 455.696 13.8558 450.709 16.1456 447.07C18.4355 443.431 24.0928 442.083 27.3255 444.913C30.5582 447.744 29.0766 454.348 24.9009 454.887C29.7501 457.178 37.0237 453.674 39.583 449.092C42.1422 444.509 42.4116 438.848 42.8157 433.592C43.2198 428.335 44.028 422.674 47.5301 418.631C51.571 413.914 58.5753 412.296 62.751 407.579C68.8124 400.57 64.9061 387.496 55.8814 385.205C60.5958 382.375 66.7919 384.936 70.6981 388.709C74.6043 392.618 77.2983 397.605 81.6086 401.109C88.6129 406.77 99.3887 407.175 106.662 401.918C112.724 397.605 116.091 390.192 122.018 385.475C131.986 377.388 148.688 379.679 156.096 390.327C159.464 383.453 155.019 374.692 148.149 371.323C141.28 367.818 133.198 368.627 125.789 370.379C118.381 372.266 111.242 375.097 103.564 375.905C96.0212 376.714 87.5353 374.827 82.8209 368.762C78.1065 362.697 79.4534 352.184 86.4577 349.353C91.7109 347.332 97.6376 349.892 102.352 353.127C107.066 356.362 111.646 360.136 117.303 360.675C122.961 361.214 129.426 356.362 127.81 350.836C121.479 351.914 115.418 345.31 116.091 338.84C116.765 332.371 122.691 327.384 129.157 326.44C135.488 325.497 142.088 328.193 147.072 332.236C152.055 336.28 155.962 341.671 159.464 346.927C163.101 352.319 166.737 357.71 171.452 362.158C180.342 370.514 194.485 374.153 204.857 368.088C195.832 363.775 186.538 359.192 180.611 351.105C174.685 343.153 173.472 330.619 180.611 323.745C185.326 319.162 192.465 318.084 198.93 317.41C209.167 316.197 219.674 315.254 229.237 311.21C238.666 307.032 247.287 299.08 249.038 288.971C241.899 294.093 233.817 299.484 224.657 299.484ZM94.2702 343.019C88.2088 335.74 76.086 334.662 68.947 340.862C61.8081 347.062 61.1346 359.327 67.4654 366.336C62.2122 366.471 59.5182 360.271 58.0366 355.284C56.5549 350.297 53.4568 344.097 48.2036 344.636C44.8362 344.906 42.4116 348.41 41.8728 351.779C41.4688 355.149 42.4116 358.518 43.4892 361.753C36.6196 360.54 32.0399 353.397 31.7705 346.388C31.3664 339.514 34.3298 332.775 37.2931 326.575C40.3911 320.375 43.7586 314.041 44.5668 307.167C45.375 300.293 42.9504 292.476 36.889 289.106C43.3545 289.106 48.2036 294.902 50.8976 300.697C53.5915 306.493 55.0732 313.097 59.5182 317.814C64.6367 323.341 72.3145 325.093 79.3188 327.923C86.323 330.619 93.5967 335.606 94.2702 343.019ZM134.949 311.075C133.063 316.736 127.81 321.184 121.883 321.858C115.956 322.667 109.76 319.701 106.528 314.715C112.454 316.197 119.055 314.715 123.769 310.806C128.483 306.897 131.312 300.697 130.908 294.632C135.218 298.676 136.835 305.415 134.949 311.075Z" fill="#CEC1A3"/>
<path opacity="0.36" d="M92.3828 208.507C87.2643 204.598 84.705 198.398 81.0682 193.007C77.4313 187.751 71.6394 182.764 65.3086 183.842C71.9088 186.133 75.5456 193.411 75.815 200.42C76.0844 207.429 73.7945 214.168 71.7741 220.772C69.7536 227.376 68.0026 234.52 69.4842 241.259C70.9659 247.998 76.6232 254.467 83.4928 254.467C81.8764 251.367 80.3947 248.267 80.26 244.898C80.1253 241.528 82.0111 237.754 85.3785 236.811C90.497 235.463 94.5379 240.989 96.6931 245.707C98.983 250.424 102.62 256.085 107.873 255.141C100.465 249.346 99.1177 237.081 105.179 229.802C111.24 222.524 123.363 221.581 130.502 227.781C128.616 220.502 120.535 216.863 113.261 215.246C106.257 213.629 98.3095 213.089 92.3828 208.507Z" fill="#CEC1A3"/>
<path opacity="0.36" d="M97.3664 430.896C91.305 431.84 84.8396 429.818 80.3945 425.64C80.6639 431.57 84.7049 437.231 90.0928 439.522C95.6154 441.813 102.35 440.735 106.795 436.692C111.24 432.783 113.126 426.179 111.51 420.383C108.95 425.774 103.428 429.818 97.3664 430.896Z" fill="#CEC1A3"/>
<path opacity="0.36" d="M160.407 202.576C151.652 205.542 141.819 200.824 135.218 194.355C128.618 187.885 123.904 179.529 117.169 173.059C110.569 166.59 100.871 161.738 91.9805 164.703C99.3888 163.759 106.663 168.072 111.781 173.598C116.9 179.125 120.267 185.998 124.308 192.333C128.349 198.668 133.333 204.733 140.337 207.563C147.206 210.259 156.366 208.911 160.407 202.576Z" fill="#CEC1A3"/>
<path opacity="0.36" d="M181.689 260.128C187.212 261.476 193.542 259.858 197.718 255.95C200.008 253.793 201.759 250.963 204.049 248.672C206.339 246.515 211.457 243.82 214.555 244.763C209.975 241.259 204.588 237.485 198.796 238.563C194.889 239.237 191.657 242.067 188.828 244.763C185.999 247.459 183.036 250.424 179.13 251.637C175.358 252.85 170.374 251.502 169.027 247.863C170.913 253.389 176.166 258.78 181.689 260.128Z" fill="#CEC1A3"/>
<path opacity="0.36" d="M43.8931 206.485C40.2563 205.137 37.8317 201.768 36.7541 197.994C35.6765 194.355 35.9459 190.311 36.35 186.537C36.7541 182.764 37.4276 178.855 37.1582 175.081C36.35 164.164 27.3253 154.459 16.4148 152.842C10.3534 152.033 4.29202 153.381 -1.90407 152.977C-7.02258 152.707 -12.1411 150.955 -15.6432 147.316C-19.1454 143.677 -20.8964 138.016 -18.876 133.299C-16.8555 128.581 -10.7941 125.886 -6.21441 128.177C-2.03879 130.334 -0.557129 135.59 2.94501 138.96C7.65942 143.407 16.0107 143.138 20.321 138.286C23.9579 134.107 23.6885 128.581 20.321 124.403C20.8598 125.886 20.4557 127.773 19.3781 128.986C17.4924 130.873 14.3943 130.873 11.9698 130.199C8.60232 129.255 5.77367 126.56 4.56139 123.325C-2.03879 114.969 -18.0678 107.69 -25.6108 122.921C-27.9007 127.773 -28.8436 133.029 -28.8436 138.286C-33.1539 133.973 -34.0968 127.234 -32.7498 121.303C-31.5375 115.373 -28.4395 109.982 -25.6108 104.725C-23.7251 101.356 -21.8393 97.5817 -22.5128 93.8079C-23.4557 88.0123 -29.7865 84.5079 -35.5785 84.6427C-41.3705 84.7775 -46.7584 87.7427 -51.8769 90.5731C-51.3381 83.5645 -44.7379 78.0384 -37.8683 76.5558C-34.2315 75.7472 -30.3253 75.8819 -26.5537 76.0167C-22.7822 76.0167 -19.0107 76.0167 -15.3738 75.0732C-11.737 73.995 -8.36958 71.8385 -6.61851 68.469C-4.86744 65.0994 -5.27151 60.5169 -8.10017 58.0908C-10.9288 55.6647 -16.182 56.2039 -17.6637 59.7082C-20.7617 58.6299 -21.0311 53.9126 -18.7413 51.3517C-16.5861 48.7909 -13.2187 47.9822 -10.1206 46.7692C-7.02258 45.5561 -3.78986 43.6692 -2.98167 40.4344C-1.9041 36.1214 -6.4838 31.9432 -10.9288 32.2128C-15.3738 32.4823 -19.1454 35.8519 -21.3005 39.7605C-23.4557 43.6692 -24.5333 48.117 -26.1497 52.1604C-27.766 56.3386 -30.1906 60.5169 -34.0968 62.5386C-38.003 64.6951 -43.795 63.8864 -45.8155 59.9777C-38.2724 59.9777 -32.3457 52.8343 -32.0763 45.2866C-31.8069 30.5954 -42.3134 24.9346 -42.3134 24.9346C-43.2562 29.1128 -43.9297 33.291 -45.2767 37.3345C-47.0278 42.7257 -50.1258 48.2518 -55.379 50.543C-58.2077 51.8909 -62.1139 52.0256 -64.2691 49.7344C-66.0201 47.9822 -65.616 44.4779 -63.865 43.1301C-67.6365 45.017 -70.061 49.4648 -69.3875 53.643C-68.1753 61.1908 -58.7465 66.3125 -59.4199 73.8602C-60.2281 81.1384 -69.5223 84.3732 -71.8121 91.247C-73.1591 95.2905 -71.5427 99.7383 -69.7916 103.647C-68.0406 107.556 -66.0201 111.599 -66.2895 115.912C-66.5589 120.225 -70.7345 125.886 -74.9102 124.942C-72.2162 127.368 -67.6365 126.021 -65.4813 123.055C-63.3262 120.09 -62.9221 116.316 -62.2486 112.812C-61.5751 109.308 -60.3628 105.399 -57.2648 103.512C-52.8197 100.682 -46.489 103.377 -44.0644 108.095C-41.6399 112.677 -42.1787 118.338 -43.6603 123.325C-45.142 128.312 -47.5666 133.029 -48.6441 138.151C-50.6646 147.047 -48.3747 156.886 -42.8521 164.029C-37.1948 171.307 -28.3048 175.755 -19.1454 176.025C-8.90837 176.294 2.00214 171.846 11.1616 176.429C16.0107 178.99 19.2434 183.707 21.8027 188.559C24.2272 193.411 26.2477 198.668 29.3457 203.116C32.4438 207.563 37.2929 211.337 42.6808 211.607C48.2034 211.876 53.726 208.102 53.4566 202.711C52.1096 206.35 47.3952 207.833 43.8931 206.485Z" fill="#CEC1A3"/>
</svg>
