<svg width="16" height="16" viewBox="0 0 16 16" fill="none" xmlns="http://www.w3.org/2000/svg">
<path fill-rule="evenodd" clip-rule="evenodd" d="M2.57888 3.08086C2.42914 2.95753 2.20658 2.97752 2.0818 3.12553C1.95701 3.27353 1.97724 3.49349 2.12699 3.61683L7.44867 8L2.12699 12.3832C1.97724 12.5065 1.95701 12.7265 2.0818 12.8745C2.20658 13.0225 2.42914 13.0425 2.57888 12.9191L7.99998 8.45408L13.4211 12.9191C13.5708 13.0425 13.7934 13.0225 13.9182 12.8745C14.043 12.7265 14.0227 12.5065 13.873 12.3832L8.5513 8L13.873 3.61683C14.0227 3.49349 14.043 3.27353 13.9182 3.12553C13.7934 2.97752 13.5708 2.95753 13.4211 3.08086L7.99998 7.54592L2.57888 3.08086Z" fill="#3A241F"/>
</svg>
