<?xml version="1.0" encoding="UTF-8"?>
<svg id="_Слой_1" data-name="Слой 1" xmlns="http://www.w3.org/2000/svg" xmlns:xlink="http://www.w3.org/1999/xlink"
    viewBox="0 0 444.03 65.11">
    <defs>
        <style>
            .cls-1 {
                fill: none;
            }

            .cls-2 {
                clip-path: url(#clippath);
            }

            .cls-3 {
                fill: white;
            }
        </style>
        <clipPath id="clippath">
            <rect class="cls-1" x="-38.23" y="-39.63" width="508.31" height="174.34" />
        </clipPath>
    </defs>
    <g class="cls-2">
        <g>
            <path class="cls-3"
                d="M89.48,29.61c.05,.7,0,1.41-.17,2.09-1.4,3.36-8.08,9.31-12.63,9.5-2.13,.1-4.12-.53-5.17-2-1-1.56-1.43-3.41-1.22-5.25,.53-7.62,6.61-17.27,10.29-23.47l-1.57-6.48c.05,.44,.14,.87,.26,1.3,.44,1.16,.71,2.38,.78,3.62-.03,.64-.27,1.25-.68,1.74-.78,.95-1.61,1.85-2.49,2.71-1.24,1.28-2.33,2.48-3.28,3.6-2.17,2.41-3.75,4.21-4.74,5.38s-2.24,2.82-3.72,4.93c-1.42,1.99-2.63,4.12-3.62,6.36-.88,1.88-1.35,3.93-1.39,6,.01,2.13,.37,4.24,1.07,6.25,.71,2.12,1.98,4.01,3.67,5.48,1.9,1.58,4.32,2.39,6.79,2.28,7.69,0,15-9.87,18.52-21.18l-.7-2.86Z" />
            <path class="cls-3"
                d="M110.14,53.12c-.61,0-1.08-.33-1.42-1.34-.47-1.55-15.23-38.22-19.68-48.87-.27-.61-1.28-1.89-1.75-1.89h-15.66l-.12,.73h.07c4,.41,6.61,2.7,8.09,6.34,0,0,2.28,5.87,4.16,10.85l6.3,15.84c2,4.76,4.33,10.39,5.24,12.67,.42,.89,.68,1.85,.75,2.83,0,.14-.07,.34-.07,.54-.42,1.18-1.41,2.07-2.63,2.36l.31,.47h16.41v-.54h0Z" />
            <path class="cls-3"
                d="M58.33,53.59h-13.21c-3.52,0-4.06-5.62-5.76-11-3.52-11.38-2.83-22.63-9.2-22.63v27.74c0,5.49,7.24,5.49,10.56,5.89H17.61c3.32-.4,10.56-.4,10.56-5.89V19.92c-6.37,0-5.68,11.31-9.2,22.63-1.7,5.42-2.24,11-5.76,11H0v-.4H.27c3.5,.04,6.91-7.78,6.91-7.78L15.77,27.71c3-7.38,5.21-7.79,5.69-7.79h.06C4.72,16.6,1.06,11.04,1.06,6.98c.07-1.95,.77-3.83,2-5.35,.47-.56,1.17-.88,1.9-.89H15.26s-3.41,3.53-3.41,7.63c-.02,.76,.1,1.52,.34,2.24,2.92,8.26,10.44,8.74,14.84,8.74h1.14V6.78c0-5.49-7.24-5.63-10.56-6h23.16c-3.32,.41-10.56,.55-10.56,6v12.53h1.14c4.4,0,11.93-.48,14.84-8.74,.22-.71,.32-1.46,.29-2.2,0-4.06-3.39-7.59-3.39-7.59h10.3c.73,0,1.43,.33,1.9,.89,1.23,1.52,1.93,3.4,2,5.35,0,4.06-3.66,9.62-20.46,12.94h.06c.48,0,2.71,.41,5.69,7.79l8.57,17.62s3.39,7.79,6.85,7.79h.27l.06,.43Z" />
            <path class="cls-3"
                d="M154.77,10.3C153.22,3.86,148.47,0,142.77,0c-1.43,0-2.85,.23-4.2,.68-4.81,1.49-7.52,5.28-9.35,9.75-.73,1.79-1.37,3.63-1.9,5.49-.07,0-.14-.01-.2-.06V1.08h-14.8c3.59,1.09,3.79,1.43,3.79,5.29,0,9.76,.21,29.34,.21,29.34v14.5c-.14,2.23-.75,2.44-3.87,3.45h18c-3.12-1-3.73-1.22-3.87-3.45v-12.54c2.72,.07,5,.41,7.19,.41,.73,0,1.45-.06,2.17-.14,11.31-1.49,19.37-11.52,19.37-22.49,0-1.73-.21-3.46-.61-5.15m-13.45,19.85c-1.05,2.13-2.56,4-4.4,5.49-1.16,.92-2.6,1.42-4.08,1.42-1.82-.04-3.56-.75-4.88-2-.48-.52-.77-1.19-.81-1.9v-6.74c0-.88-.07-1.83-.07-2.84-.15-3.91,.59-7.8,2.17-11.38,.82-1.84,2.03-3.49,3.53-4.83,1.04-.96,2.39-1.52,3.8-1.56,1.92,.04,3.69,1.06,4.67,2.71,1.09,1.79,1.83,3.78,2.17,5.85,.32,1.7,.49,3.42,.48,5.15,0,3.7-.88,7.35-2.58,10.64" />
            <path class="cls-3"
                d="M160.67,30.92c8.19-3.16,17.4,3.33,25.83-1.67-3.06,3.39-8.82,8.19-13.41,8.36-5.71,.2-7.82-5.82-12.42-6.69" />
            <path class="cls-3"
                d="M239.35,53.64h-19.66c3.4-1.11,4.07-1.33,4.21-3.71l-.32-44.56c-.01-1.39-1.14-2.51-2.53-2.5h-14.57c-1.39,0-2.51,1.11-2.53,2.5l-.29,44.59c.14,2.38,.81,2.6,4.21,3.71h-19.66c3.4-1.11,4.07-1.33,4.21-3.71V5.21c-.05-3.09-.5-3.24-4.23-4.45h51.14c-3.73,1.21-4.18,1.36-4.23,4.45V49.93c.14,2.38,.81,2.6,4.21,3.71" />
            <path class="cls-3"
                d="M389.93,53.66h0v11.45s-2.71-10.69-10.69-11.45h-39.9c3.69-1.2,4.13-1.35,4.19-4.41l-.05-44.8c-.13-2.36-.79-2.58-4.16-3.67h19.45c-3.37,1.09-4,1.31-4.16,3.67l.31,44.77c.02,1.37,1.13,2.47,2.5,2.47h14.42c1.37,0,2.49-1.11,2.5-2.48l.28-44.76c-.13-2.36-.8-2.58-4.16-3.67h19.45c-3.37,1.09-4,1.31-4.16,3.67V49.25c0,3.06,.5,3.21,4.19,4.41" />
            <path class="cls-3"
                d="M286.33,.74h-41.21V13.74c.39-3.27,.42-10.86,5.86-11h10.42c.8,.6,1.28,1.54,1.28,2.54V47.5c0,4.2-.41,4.81-4.61,6.16h16v-.07h4.95c-.72-.28-1.47-.49-2.24-.6-1.42-.41-2.5-1.16-2.71-2.58v-2.44c-.06-3.46-.06-41.13-.06-41.13v-2.23c-.03-.67,.17-1.33,.55-1.88h11.55c5.44,.15,5.48,7.74,5.86,11V.73h-5.64Z" />
            <path class="cls-3"
                d="M333.05,2.42V25.76h0v27.61h-13c3.27-.39,10.85-.43,11-5.87V16.97l-33.63,38.08v-2.11h0V19.09h0V.76h13c-3.28,.39-10.86,.42-11,5.86v31.56L333.06,.76v1.67h0Z" />
            <path class="cls-3"
                d="M423.37,29.61c.05,.7,0,1.41-.17,2.09-1.4,3.36-8.08,9.31-12.63,9.5-2.13,.1-4.12-.53-5.17-2-1-1.56-1.43-3.41-1.22-5.25,.53-7.62,6.61-17.27,10.29-23.47l-1.57-6.48c.05,.44,.14,.87,.26,1.3,.44,1.16,.71,2.38,.78,3.62-.03,.64-.27,1.25-.68,1.74-.78,.95-1.61,1.85-2.49,2.71-1.24,1.28-2.33,2.48-3.28,3.6-2.17,2.4-3.72,4.21-4.72,5.4s-2.24,2.82-3.72,4.93c-1.42,1.99-2.63,4.12-3.62,6.36-.88,1.88-1.35,3.93-1.39,6,.01,2.13,.37,4.24,1.07,6.25,.71,2.11,1.97,4,3.66,5.46,1.9,1.58,4.32,2.39,6.79,2.28,7.69,0,15-9.87,18.52-21.18l-.71-2.86Z" />
            <path class="cls-3"
                d="M444.03,53.12c-.61,0-1.08-.33-1.42-1.34-.47-1.55-15.23-38.22-19.68-48.87-.27-.61-1.28-1.89-1.75-1.89h-15.66l-.12,.73h.07c4,.41,6.61,2.7,8.09,6.34,0,0,2.28,5.87,4.16,10.85l6.3,15.84c2,4.76,4.33,10.39,5.24,12.67,.42,.89,.68,1.85,.75,2.83,0,.14-.07,.34-.07,.54-.42,1.18-1.41,2.07-2.63,2.36l.31,.47h16.41v-.54h0Z" />
        </g>
    </g>
</svg>