<?xml version="1.0" encoding="UTF-8"?>
<svg id="Layer_1" data-name="Layer 1" xmlns="http://www.w3.org/2000/svg" xmlns:xlink="http://www.w3.org/1999/xlink" viewBox="0 0 452 448">
  <defs>
    <style>
      .cls-1 {
        fill: none;
      }

      .cls-2 {
        clip-path: url(#clippath);
      }

      .cls-3 {
        fill: #fff;
        isolation: isolate;
        opacity: .36;
      }
    </style>
    <clipPath id="clippath">
      <rect class="cls-1" width="689" height="448"/>
    </clipPath>
  </defs>
  <g class="cls-2">
    <g>
      <path class="cls-3" d="M150.05,79.75c-6.29-1.5-11.68-5.99-14.23-11.82-2.1,5.84-.45,12.87,3.89,17.36,4.34,4.49,11.38,5.99,17.37,4.04,5.84-2.09,10.33-7.63,11.08-13.92-4.94,4.04-11.83,5.69-18.12,4.34Z"/>
      <path class="cls-3" d="M46.12,266.8c4.19-4.19,6.14-10.77,4.94-16.61-.75-3.29-2.4-6.29-2.99-9.58-.75-3.29-.3-9.28,2.1-11.52-5.69,2.24-11.83,5.09-14.08,10.77-1.5,3.89-.75,8.23,.15,12.27,.9,4.04,1.95,8.23,1.05,12.42-.9,4.04-4.79,7.78-8.84,7.03,5.84,1.35,13.48-.45,17.67-4.79Z"/>
      <path class="cls-3" d="M339.93,260.06c-2.85-.9-5.99-1.2-8.69,0-2.7,1.2-4.64,4.49-3.44,7.18,1.8-1.8,3.89-3.29,6.29-3.74,2.4-.45,5.24,.45,6.44,2.54,1.2,1.95,.75,4.49-.45,6.28-1.35,1.8-3.44,2.99-5.69,3.44-6.44,1.5-13.63-2.69-15.72-8.98-.9-2.69-.9-5.69-1.95-8.38-1.8-4.34-6.29-7.03-10.93-8.38-5.39-1.65-11.08-1.65-16.47-3.59-1.35-.45-2.55-1.2-3.59-2.25-3.44-3.74-1.05-7.33,0-11.07,1.2-4.34,.15-9.13-2.7-12.72-2.85-3.44-7.49-5.39-11.98-5.09,2.1,.3,4.19,1.8,4.64,3.89,.15,.6,.15,1.2,0,1.94-2.25-3.14-6.14-5.24-10.03-5.24,2.25-5.09,6.74-9.28,12.13-10.77,5.39-1.5,11.38-.45,16.02,2.69,2.85,1.95,5.09,4.79,7.64,6.88,2.7,2.24,5.99,4.04,9.43,3.44,2.85-.45,5.09-2.24,7.34-3.89,2.25-1.65,4.94-3.29,7.79-2.99,2.85,.3,5.39,3.29,4.19,5.84,1.5-2.69,1.35-6.14-.3-8.68-1.65-2.54-4.79-4.04-7.79-3.89-4.34,.3-8.39,3.89-12.58,2.69-4.04-1.35-5.24-7.03-2.85-10.62,2.4-3.44,7.04-4.94,11.23-4.64,9.43,.6,5.99-36.21-11.98-31.57-5.39,1.35-12.43,3.89-16.92,.75,4.79-2.24,8.09-7.18,8.39-12.42-1.95,4.49-7.49,6.88-12.13,5.39-3.14-1.05-5.69-3.59-8.98-4.49-2.99-.75-6.14,.3-8.99,1.65-3.59,1.79-7.04,4.34-9.73,7.33,0-1.05-.15-2.24-.15-3.29-.15-3.44-.15-7.18,1.65-10.03,2.25-3.44,6.59-4.94,8.84-8.38,3.29-5.09-.3-13.02-6.44-13.77,2.85-2.25,7.04-1.2,9.88,1.05,2.85,2.1,5.09,5.09,8.09,7.03,4.94,2.99,11.98,2.39,16.17-1.65,3.59-3.29,5.09-8.38,8.39-11.97,.9-.9,1.8-1.65,2.85-2.24l-5.84-5.99c-3.14,1.5-6.29,2.84-9.73,3.59-5.69,1.35-12.58,.45-15.72-5.09-1.95-3.29-1.35-7.63,1.8-9.88,3.29-2.54,7.79-1.2,11.38,.6,1.05,.6,2.25,1.2,3.44,1.65-28.15-26.34-29.95,8.38-29.95,8.38-9.43,0-12.43-4.64-12.43-8.98s7.79-24.99-7.49-43.24c-15.27-18.4-28.45-8.23-28.45-8.23,.75-16.01-9.13-27.23-9.13-27.23-3.89-2.54-5.39-4.19-12.88-2.69-7.64,1.35-14.83,14.51-14.83,14.51-3.44,10.32-3.89,22.15-22.01,22,17.97,15.71,32.2-18.26,29.65,10.03,14.08-.6,16.77-16.46,4.34-30.08,10.48,1.95,12.58,12.57,13.33,19.6,.75,6.73,3.14,13.17,7.04,18.7,2.25,3.14,5.09,5.99,8.69,7.03,3.74,.9,8.24-.75,9.28-4.49-3.14,.45-6.59,.3-9.43-1.2-2.84-1.5-4.94-4.64-4.49-7.78,.45-2.84,2.85-5.24,5.69-6.13,2.84-.75,5.84-.15,8.54,1.05,7.79,3.74,11.83,13.77,8.83,21.85-1.35,3.59-3.74,6.58-4.79,10.18-1.65,5.99,.75,12.27,4.19,17.36,4.04,5.83,9.73,10.47,13.63,16.46,1.2,1.95,2.1,4.04,2.1,6.28,.15,5.99-5.09,7.78-8.99,10.62-3.44,2.54-5.84,6.43-6.89,10.62-4.34-1.94-8.84-3.44-13.18-5.54-5.69-2.84-10.93-7.33-12.58-13.47-.9-3.44-.3-7.63,2.55-9.58,2.25-1.65,5.99-.6,7.19,1.65-1.35-4.49-5.69-7.93-10.48-8.08-8.54-.15-15.87,9.43-24.11,7.03-7.79-2.09-9.58-13.02-16.77-16.76-4.19-2.24-9.43-1.35-14.08-.15-4.64,1.2-9.43,2.69-14.08,1.5-4.64-1.2-10.03-6.73-8.24-11.07-3.29,2.39-2.55,7.78,.3,10.62s6.89,4.04,10.63,5.54c3.74,1.5,7.64,3.44,9.29,7.18,2.25,5.39-1.95,11.82-7.49,13.62-5.54,1.79-11.68,.15-16.77-2.39-5.24-2.54-10.03-6.13-15.42-8.23-9.43-3.89-20.52-3.29-29.5,1.65-8.99,4.79-15.57,13.77-17.67,23.64-2.25,11.07,.75,23.94-6.14,33.07-3.59,4.79-9.43,7.48-15.27,9.43-5.84,1.8-11.83,2.99-17.37,5.54-5.54,2.69-10.48,7.18-11.83,13.02-1.35,5.99,1.8,12.72,7.79,13.47-3.59-2.25-4.49-7.63-2.4-11.37s6.29-5.84,10.63-6.29c4.19-.45,8.54,.6,12.58,1.8,4.04,1.2,8.24,2.54,12.43,2.99,12.13,1.2,24.41-7.03,28.15-18.55,2.1-6.43,1.65-13.47,3.14-20.05,1.35-5.54,4.19-10.77,8.84-14.07,4.64-3.29,11.23-3.89,15.87-.9,4.79,3.14,6.59,10.18,3.15,14.81-3.15,4.19-9.28,4.94-13.48,8.08-5.84,4.34-7.04,13.47-2.55,19.15,3.89,4.79,10.03,5.39,15.13,2.54-1.8,.3-3.74-.45-4.79-1.95-1.65-2.39-1.2-5.83,.15-8.38,3-5.99,11.23-9.43,16.77-5.54,3.29,2.24,4.79,6.58,4.19,10.62-.45,3.89-2.7,7.48-5.54,10.32-4.94,4.79-11.68,7.48-18.42,9.43-6.74,1.94-13.63,3.29-19.92,6.28-6.29,2.84-12.28,7.63-14.68,14.07-2.4,6.43-1.65,13.62,4.49,17.06-.45-5.69,2.1-11.52,6.74-14.81,4.49-3.44,10.93-4.19,16.17-2.1,4.34,1.8,7.79,5.24,11.98,7.33,6.74,3.44,15.28,3.14,21.71-.9,4.49-2.84,7.94-7.18,11.08-11.52,3.29-4.34,6.59-8.68,11.08-11.52,4.49-2.84,10.63-3.89,15.27-1.2,3.29,1.95,5.39,5.54,6.14,9.28,.75,3.74,.45,7.63-.3,11.37-1.05,5.69-3.89,11.97-9.58,13.02-3.14,.6-6.29-.75-9.43-.15-5.54,.9-8.99,8.23-5.99,13.02,.6-3.74,5.24-6.14,8.68-4.64,6.14,2.69,3,13.17-.45,16.91-3.74,4.19-10.48,5.09-15.42,2.39-4.94-2.69-7.79-8.53-7.34-14.21-4.94,5.09-5.09,13.62-1.65,19.75,3.44,6.14,9.88,10.33,16.62,12.42,4.94,1.5,10.18,2.24,14.38,5.09,4.34,2.84,7.34,8.08,6.89,13.17-.45,5.24-4.94,9.88-10.18,10.02-5.24,.15-10.03-5.24-8.83-10.32-4.04,3.44-3.15,10.47,.45,14.36,3.59,3.89,9.14,5.54,14.38,6.73,5.24,1.2,10.78,2.1,15.12,5.09,5.24,3.44,8.24,9.43,9.73,15.56,1.5,6.13,13.18,16.76,15.42,14.66-6.59-14.21,3.89-20.35,10.78-27.68,3.74-4.04,8.54-7.03,12.88-10.17,4.34-3.29,8.68-7.03,10.93-12.12,2.4-4.94,2.4-11.37-1.2-15.56l-.15-.15c13.93,.15,27.25,7.93,21.56,19.75-.6,1.35-.9,2.69-.75,4.19,.75,6.14,8.09-1.5,6.89,5.98,5.24-.75,.6-14.36,7.94-6.13,7.64,8.53,15.42-14.51,22.01,.9,.45-.15,.75-.45,1.05-.6l.75-.75c2.1-2.54,2.25-7.63,1.2-10.77-1.8-4.94-8.09-7.03-10.33-11.82-2.25-4.79,.15-10.48,3.59-14.52,1.5-1.79,3.29-3.44,5.69-4.04,2.25-.6,5.09,.45,5.84,2.54,.75,2.24-4.34,7.63-5.99,6.43,3.59,5.39,7.94-2.69,10.18-4.49,2.25-1.79,4.34-3.89,7.19-4.19,4.94-.3,8.69,4.64,13.33,5.39,11.83,1.8,15.42-7.78,17.07-10.47,6.29-16.01-3.74-25.44-9.43-27.08Zm-132.23,34.86c-4.94,5.99-7.34,13.62-8.09,21.4-.6,7.78,.3,15.41,1.2,23.19-5.54-8.68-8.09-19.75-6.59-29.93,.6-4.34,1.95-8.83,.75-13.02-1.05-3.44-3.59-6.13-6.14-8.53-2.55-2.39-5.24-4.94-6.89-8.08-1.5-3.14-2.4-7.33,.15-9.88,.9,2.84,2.85,5.54,5.69,6.28,2.85,.9,6.44-.6,7.19-3.44,.9-2.99-1.35-6.13-3.89-8.23-2.4-2.1-5.39-4.04-6.29-7.03-2.1-7.18,8.24-12.87,7.79-20.35-.15-3.74-2.99-6.58-5.24-9.43s-4.34-6.58-3.15-10.02c-1.05,2.84,2.7,5.84,5.54,4.79,2.85-1.05,4.19-4.64,3.44-7.63-.6-2.99-2.85-5.39-5.09-7.33-5.24-4.49-12.58-7.78-18.87-4.94-6.29,2.84-9.13,10.92-15.72,13.17-4.94,1.65-11.08-1.2-13.03-6.13,5.39,.45,12.28,.15,14.53-4.79,2.4-5.39-2.55-10.92-4.49-16.46-1.35-3.89-1.2-8.23-2.1-12.27-1.05-4.04-3.89-8.23-8.09-8.38-2.85-.15-5.24,1.5-7.79,2.69-2.55,1.2-5.84,1.5-7.79-.45,5.09-3.14,4.34-11.22,0-15.41-4.19-4.19-10.48-5.39-16.32-6.43,5.54-3.89,13.03-3.59,19.32-1.2,6.29,2.39,11.53,6.73,16.77,10.92,3.29,2.69,7.04,5.39,11.38,5.39,6.44,.15,11.53-6.13,12.58-12.57,.9-6.43-1.2-12.87-3.45-18.85,7.64,1.95,12.43,10.18,12.73,17.96,.15,4.19-.75,8.38-1.5,12.42-.75,4.19-1.5,8.38-1.05,12.42,.45,4.19,2.25,8.38,5.54,10.92,3.3,2.54,8.39,2.99,11.68,.3,3.29-2.69,3.44-8.53,0-10.77,1.8-3.29,7.04-2.54,9.28,.3s2.7,6.73,3.44,10.32c.75,3.59,2.25,7.48,5.54,8.98,4.49,1.94,10.03-2.25,10.63-7.18,.6-4.94-2.4-9.58-6.29-12.72-3.89-3.14-8.54-5.09-12.73-7.63-4.19-2.54-8.39-5.99-9.88-10.62-1.5-4.64,.3-10.77,5.09-12.42-1.5,8.23,5.24,16.91,13.48,17.81,4.79,.45,9.73-1.35,14.53-.6,5.69,.9,10.48,5.99,11.23,11.82,.45,3.59-.6,7.03-.6,10.62s1.8,7.63,5.24,8.38c-3.14-5.24,1.05-13.02,7.04-13.47,4.04-.3,7.94,2.24,11.98,1.8,3.44-.3,6.44-2.54,8.99-4.79,2.55-2.24,5.24-4.79,8.54-5.69,3.29-.9,8.24,.75,9.43,4.04-2.25-1.65-5.84,.6-5.69,3.44,.15,2.84,3.44,4.79,6.14,4.04,2.7-.6,4.64-3.14,5.24-5.99,.3,5.83-2.4,11.67-6.89,15.41-4.49,3.59-10.93,4.94-16.47,3.29-3.44-1.05-7.04-2.99-10.48-2.24-4.34,.9-6.74,5.54-7.94,9.88-1.65,5.99-2.1,12.12-3.89,18.11-1.8,5.84-5.54,11.67-11.23,13.91-3.44,1.35-7.49,1.35-11.08,2.4-8.24,2.54-13.78,11.82-11.98,20.35,.6,2.84,1.95,5.69,4.34,7.33,2.4,1.8,5.69,2.24,8.24,.75,2.85-1.65,3.89-5.24,3.44-8.38-.6-3.14-2.54-5.99-4.79-8.23,3.59-1.35,7.79,1.2,9.28,4.64,1.5,3.44,.9,7.63-.15,11.22-1.95,6.43-5.69,12.27-10.48,16.91-4.49,5.09-10.78,8.53-15.28,13.92Zm79.22-17.36c-.75,3.14-4.04,4.49-7.04,5.09-2.7,.6-5.69,.9-7.94,2.69-2.1,1.8-2.7,5.84-.15,7.18,1.8-2.69,6.29-2.54,8.39-.15,2.1,2.39,1.8,6.29-.15,8.98-1.95,2.54-5.09,4.04-8.24,4.49s-6.44-.15-9.58-.6c2.7-14.81-16.02,1.95-15.57-10.03-5.99,.3-29.35,8.08-22.46,19.9,2.85-2.24,6.29-3.74,10.03-4.64,3.74,4.04,.45,11.22-4.34,12.72-2.85,.9-5.99,.45-8.54-1.05-6.29-3.59-8.24-12.42-5.99-19.3,2.25-6.88,7.94-12.27,13.78-16.61,5.84-4.34,12.28-7.93,17.37-13.17,5.09-5.09,8.99-12.27,8.09-19.45-.45-4.19-2.55-7.93-3.89-11.82-1.35-3.89-2.25-8.38-.45-12.12,2.25-4.64,8.54-6.58,13.03-4.19,4.49,2.39,6.14,8.83,3.45,13.32,2.55-.15,4.94-1.2,6.89-2.84,.75,1.2,1.35,2.54,1.5,4.04,.3,3.14-1.5,6.13-1.35,9.28,.45,4.64,6.44,7.63,10.48,5.24-.6,2.69-3.74,4.04-6.44,4.04-2.69,.15-5.54-.75-8.24-.3-4.49,.6-8.24,4.34-8.98,8.68-.6,3.74,.9,7.48,.6,11.22-.6,6.43-7.19,11.52-13.48,10.62,1.2,3.59,5.99,4.94,9.58,3.74,3.59-1.2,6.14-4.49,8.09-7.78s3.29-6.88,5.69-9.88c2.7-3.44,7.19-6.14,11.68-4.49,2.99,1.2,4.94,4.34,4.19,7.18Z"/>
      <path class="cls-3" d="M253.83,389.19c5.99,6.73,16.02,8.68,24.86,7.33,8.98-1.35,17.22-5.54,25.31-9.28,5.09-2.39,10.93-4.94,16.47-3.74,8.39,1.8,13.33,11.67,12.58,20.2-.75,8.68-5.54,16.31-10.18,23.64,10.48-.3,19.32-9.43,22.01-19.75,1.5-5.39,1.65-11.07,1.95-16.76,.15-5.54,.6-11.22,2.4-16.61,1.8-5.39,5.54-10.32,10.63-12.57,5.24-2.24,11.98-1.35,15.42,3.14,3.45,4.49,1.95,12.12-3.14,14.22,1.35,4.79,8.39,5.39,12.28,2.39,3.89-2.99,5.54-7.93,7.64-12.42,2.1-4.49,5.24-9.13,10.03-10.02,6.44-1.05,12.28,5.99,11.53,12.72-.75,6.58-6.14,11.97-12.13,14.81-5.99,2.99-12.58,4.04-19.02,6.13-6.29,2.1-12.73,5.24-16.17,10.92-3.59,5.69-2.85,14.21,2.85,17.66,.6-11.22,11.98-20.65,23.06-19.15,6.59,.75,12.43,4.79,18.87,5.09,7.79,.6,15.57-4.64,18.27-12.12,1.65-4.64,1.35-9.43,2.4-14.21,1.2-4.64,4.64-9.28,9.43-9.43-5.69,5.84-2.55,17.36,5.09,19.75,5.24,1.65,11.23-.45,16.32,1.2,4.49,1.35,7.64,5.24,10.33,8.98,2.7,3.74,5.54,7.78,9.43,10.02,4.04,2.24,10.93,1.5,13.48-2.39-3.29,1.5-7.49-2.69-6.44-6.29,1.05-3.59,5.84-5.24,9.28-3.59,3.29,1.65,5.09,5.69,4.94,9.28,2.25-7.63,.45-16.16-4.34-22.29s-12.73-9.73-20.52-9.43c-4.94,.3-10.03,1.95-14.53-.15-5.39-2.54-7.19-9.43-7.34-15.26-.3-8.38,1.05-16.61,.3-24.84-.6-8.38-3.59-16.91-10.48-21.7-4.34-2.84-9.43-4.04-13.78-6.58-10.03-5.84-14.23-19.75-9.43-30.23,1.65-3.59,4.34-6.88,7.94-8.38,3.59-1.5,8.09-1.2,10.93,1.5,2.99,2.99,3.59,7.93,1.95,11.97-1.65,3.89-5.09,7.03-8.68,9.28,4.19,2.99,10.48,.9,13.48-3.29,2.99-4.19,3.59-9.58,3.15-14.81-.75-8.98-3.59-17.81-8.69-25.29-5.09-7.93-12.28-14.37-16.62-22.74-4.79-9.28-5.54-20.2-4.04-30.52,1.35-10.18,4.94-20.05,8.54-29.93-9.88,9.73-16.77,23.49-17.67,37.11-.3,5.84,0,12.12-2.99,17.36-2.4,4.19-6.44,6.88-10.63,9.28-4.19,2.39-8.54,4.79-11.53,8.53s-5.24,8.98-2.85,13.02c1.95-3.44,5.39-6.29,9.28-6.58,4.04-.3,8.09,2.69,8.39,6.73,.3,4.34-3.74,7.63-7.49,9.58-3.89,1.95-8.24,3.59-10.33,7.33-4.94,8.83,6.89,19.3,4.04,28.88-1.35,4.64-5.84,7.78-9.73,10.77-3.89,2.99-7.79,7.33-7.04,12.27-.45-3.89,5.24-6.73,8.69-4.49,3.44,2.24,4.04,7.33,2.25,11.07-1.65,3.74-5.24,6.14-8.99,8.08-8.24,4.34-18.87,6.43-26.21,.75-7.34-5.69-8.69-17.06-16.47-22-5.99-3.74-14.98-1.8-18.87,4.19,7.19,.9,16.02,3.44,17.52,10.48,1.65,7.78-6.74,13.47-10.93,20.05-2.85,4.64-3.89,10.47-6.44,15.41-2.4,4.94-7.49,9.58-13.03,8.68-3.74-.6-6.29-3.59-9.43-5.83-2.99-2.24-7.34-3.89-10.33-1.8,5.69,5.54,2.25,16.01-4.64,20.2-6.14,5.24-14.53,4.94-22.16,4.49Zm143.61-49.08c3.89-5.24,8.84-10.17,10.03-16.61,1.2-5.54-.75-11.07-1.5-16.61-.6-5.54,.3-11.97,5.09-14.96-2.99,5.24-1.2,12.12,2.54,16.91,3.74,4.79,9.14,7.93,14.23,11.07,5.09,3.29,10.33,6.88,13.18,12.12,2.99,5.39,2.85,12.72-1.65,16.76-.75-2.84-1.5-5.84-3.44-8.08-1.95-2.24-5.39-3.74-7.94-2.39-4.19,1.95-3.59,8.08-2.4,12.42,1.2,4.34,2.1,10.17-1.95,12.57,1.5-8.08-4.64-16.91-12.73-18.11-8.09-1.35-16.62,5.09-17.82,13.17-2.7-5.98,.45-13.02,4.34-18.26Zm-53.46-.9c2.55,4.64,7.49,7.93,12.73,8.68,5.24,.75,10.93-1.2,14.53-4.94-.15,5.24-3.29,10.17-8.09,12.27-4.64,2.24-10.63,1.35-14.68-1.95-4.04-3.44-5.84-9.13-4.49-14.07Z"/>
      <path class="cls-3" d="M337.84,224.15c-4.49,4.64-8.68,11.22-6.59,17.36,2.25-7.93,11.53-13.02,19.32-10.62,7.94,2.39,12.88,11.97,10.18,19.75,4.34-1.8,4.19-7.63,3.59-12.27-.75-4.49-.45-10.48,3.89-11.82,2.85-.9,6.14,.9,7.64,3.44,1.5,2.54,1.95,5.54,2.25,8.53,4.94-3.29,5.99-10.77,3.89-16.31-2.1-5.54-6.89-10.02-11.53-13.77-4.64-3.89-9.58-7.63-12.73-12.87-3.14-5.24-4.04-12.27-.3-17.06-5.09,2.24-6.89,8.68-7.04,14.22,0,5.69,1.05,11.37-.75,16.76-1.95,5.84-7.49,10.03-11.83,14.66Z"/>
      <path class="cls-3" d="M330.2,102.5c-4.94,1.8-8.54,6.58-9.14,11.67-.6,5.24,2.1,10.47,6.59,13.17,4.34,2.69,10.48,2.54,14.83-.3-5.24-1.05-10.03-4.49-12.43-9.28s-2.4-10.77,.15-15.26Z"/>
      <path class="cls-3" d="M343.08,172.23c-1.2-6.43-5.39-11.82-10.18-16.31-4.64-4.64-9.88-8.68-13.78-14.07-3.74-5.39-6.14-12.27-4.04-18.41-4.04,7.03-1.65,16.16,2.7,22.89,4.34,6.88,10.63,12.42,14.98,19.15,4.34,6.73,6.59,16.01,2.55,22.89,6.14-2.24,8.83-9.88,7.79-16.16Z"/>
      <path class="cls-3" d="M263.11,352.68c.75,3.29-2.25,6.73-5.54,7.63-3.44,1.05-7.04,.3-10.33-.3-3.29-.6-7.04-1.05-10.18,.3-4.79,1.95-6.89,7.33-8.53,12.12,1.8-2.24,6.89-2.69,9.58-2.24,2.69,.6,5.39,1.8,8.09,2.24,4.94,.9,10.33-1.05,13.63-4.64,3.3-3.74,4.49-10.17,3.3-15.11Z"/>
      <path class="cls-3" d="M389.95,200.66c3.89,2.54,9.13,0,11.38-4.34,2.1-4.19,1.35-9.43-.6-13.77-2.1-4.19-5.09-8.08-7.79-11.97-2.55-4.04-4.79-8.53-4.64-13.32,.45-8.98,8.54-15.26,12.73-23.04,3.74-7.03,4.19-15.71,1.2-23.04s-9.43-13.17-17.07-15.56c-4.34-1.35-8.98-1.65-13.33-2.69-4.34-1.05-8.98-2.99-11.38-6.88-2.55-3.89-1.8-9.88,2.25-11.97,2.7-1.5,6.29-.75,9.13,.3s5.99,2.39,9.14,1.95c3.14-.3,6.14-3.29,5.54-6.28-1.05,3.59-7.19,4.34-10.63,2.69-3.44-1.65-5.54-4.94-7.79-7.93-2.25-2.99-4.94-6.13-8.54-6.88-6.14-1.2-12.73,4.34-18.57,1.95-5.99-2.69-5.84-12.12-10.93-16.31-2.85-2.24-7.34-2.39-10.33-.3,1.8-.75,4.64,.45,5.24,2.54,.75,2.69-1.05,5.54-3.29,7.03-4.04,2.99-9.58,2.99-14.38,1.95-3.59-.75-7.04-1.95-10.63-3.14,0,0-.3,10.32,10.93,16.46,5.84,2.99,13.78,1.65,17.07-4.04,2.1,3.14,.15,7.93-3.14,10.03-3.15,2.09-7.49,2.09-11.23,1.5-3.74-.45-7.64-1.65-11.53-1.65s-8.09,1.35-10.18,4.64c-2.1,3.29-.9,8.53,2.85,9.58,2.85,.75,5.69-.9,7.94-2.69,2.25-1.8,4.34-4.04,7.19-4.49,2.99-.6,6.44,1.65,5.84,4.49-3.29-.45-5.99,3.29-5.39,6.58,.6,3.14,3.89,5.54,7.19,5.54,3.3,.15,6.44-1.5,8.84-3.74,2.25-2.39,3.89-5.24,5.54-8.08,1.5-2.84,3.14-5.99,5.24-8.38,4.04-4.49,11.08-7.18,16.62-4.49-4.34,2.69-8.98,5.39-11.53,9.73-2.55,4.34-2.7,10.62,1.35,13.77,2.55,2.09,6.29,2.39,9.58,2.39,5.24,.15,10.63,.15,15.57,1.8,5.09,1.5,9.73,5.09,11.23,10.32-4.04-2.24-8.39-3.89-13.03-4.19-14.82-.9-16.17,14.36-12.73,23.04,1.95,2.24,2.7,5.69,1.95,8.53-.6,2.09-1.95,4.49-4.19,5.09-1.35,.3-2.99-.15-3.89-1.2,1.65,4.34,5.84,6.88,10.48,5.99,5.54-1.2,9.28-7.33,8.09-12.87-1.05-4.04-4.34-7.48-4.19-11.52,.3-4.49,4.94-7.93,9.28-7.33,4.49,.45,7.94,4.34,9.28,8.53,1.2,4.19,.3,8.83-1.65,12.87-2.4,4.79-5.99,8.83-8.09,13.77-3.45,8.98,0,19.9,7.94,25.29,2.7,1.79,5.99,2.99,8.99,4.34s6.14,2.84,8.54,5.24c2.4,2.39,3.89,5.69,3.29,9.13-.3,2.69-3.45,5.54-6.74,5.09Z"/>
      <path class="cls-3" d="M276.59,63c1.95-5.39,1.05-11.82-2.25-16.46-1.95-2.54-4.64-4.49-6.44-7.18-1.95-2.54-3.89-7.93-2.7-10.92-4.04,4.19-8.39,9.13-8.09,14.96,.3,4.04,2.7,7.48,5.09,10.62,2.4,3.14,4.94,6.43,5.84,10.47,.9,3.89-1.05,8.68-4.94,9.73,5.54-1.2,11.53-5.69,13.48-11.22Z"/>
      <path class="cls-3" d="M416.31,88.43c-4.49,1.95-10.33-.3-12.28-4.94-.75,3.74,2.1,7.33,5.09,9.73,3,2.39,6.59,4.49,8.39,7.93,1.5,2.99,1.2,6.43,1.65,9.73s1.95,6.88,5.24,7.93c-2.55-2.54-2.55-6.88-1.05-10.17,1.5-3.29,4.04-5.99,6.59-8.53,2.4-2.69,4.94-5.54,5.69-8.98,.9-3.44-.3-7.78-3.45-9.43,0,1.8,0,3.59-.75,5.24-.75,1.65-2.4,2.84-4.19,2.54-2.7-.6-3.3-4.04-3.3-6.73s-.45-6.14-2.99-6.88c2.1,4.64-.15,10.62-4.64,12.57Z"/>
      <path class="cls-3" d="M360,295.67c3.89,2.84,9.43,3.14,13.63,.9,4.19-2.24,6.89-7.03,6.74-11.82-.3-4.79-3.44-9.28-7.79-11.22,1.95,4.49,1.8,9.88-.6,14.22-2.7,4.19-7.19,7.33-11.98,7.93Z"/>
      <path class="cls-3" d="M463.33,194.82c-4.04-1.8-8.99-1.35-12.58,.9-2.1,1.35-3.74,3.29-5.84,4.64-2.1,1.35-6.29,2.69-8.39,1.5,3,3.29,6.59,6.73,10.93,6.73,3,0,5.84-1.65,8.39-3.29,2.55-1.65,5.09-3.59,8.24-3.89,2.99-.45,6.59,1.2,7.19,4.19-.75-4.34-3.89-8.98-7.94-10.77Z"/>
      <path class="cls-3" d="M352.51,320.51c1.8,.75,3.74,1.05,5.39,2.1,1.8,1.05,2.99,3.14,3.15,5.24,1.8-2.24,.6-5.69-1.35-7.78-2.1-1.95-4.79-2.99-7.34-4.49-2.4-1.5-4.79-3.74-4.94-6.58-1.35,4.19,.9,9.58,5.09,11.52Z"/>
      <path class="cls-3" d="M406.87,152.03c.6-4.49,4.04-8.08,7.79-10.32,3.89-2.24,8.24-3.44,12.28-5.09,4.19-1.65,8.24-4.04,10.63-7.78,4.49-7.03,1.5-16.31,2.55-24.54,.9-7.33,5.24-14.36,11.53-18.4,6.29-4.04,14.38-5.09,21.42-2.84,4.04,1.35,7.79,3.59,11.68,5.09,4.04,1.65,8.54,2.39,12.43,.75,3.89-1.65,6.59-6.58,4.64-10.47-1.35-2.69-4.34-3.89-7.19-4.79-2.85-.75-5.84-1.5-8.09-3.44-2.25-1.95-3.14-5.84-.9-7.78-1.05,3.29,3.29,7.03,6.74,7.63,3.45,.6,6.89-.9,10.18-1.95,3.29-1.2,7.04-2.09,10.33-.75,5.39,2.24,7.49,10.17,13.33,11.22,6.14,1.2,10.93-6.13,17.22-6.58,3.44-.3,6.89,2.09,8.09,5.24-1.05-1.5-3.74-2.09-5.39-.75-1.95,1.65-2.25,4.64-1.35,7.18,1.5,4.34,5.69,7.33,10.03,9.13,2.7,1.2,5.69,1.95,8.54,2.84l-.3,7.78c-1.5-1.05-3.14-1.8-4.94-1.95-3.59-.3-7.04,1.35-10.63,1.35-6.14-.15-11.53-6.14-10.93-12.27-3.3,1.5-4.34,5.99-3,9.43,1.5,3.29,4.64,5.54,7.94,7.18,3.29,1.65,6.74,2.69,9.73,4.79,2.99,2.09,5.54,5.39,5.39,8.98-.15,3.59-3.89,7.03-7.34,5.99-2.54-.9-3.89-3.59-4.64-6.29-.75-2.54-1.2-5.39-3.15-7.33-1.95-1.94-5.84-2.1-6.89,.3,2.7,1.5,2.84,5.84,.6,7.93-2.25,2.1-5.99,2.1-8.54,.45-2.55-1.65-4.19-4.64-4.79-7.63-.6-2.99-.3-6.14,0-9.13,.3-2.99,.75-6.14,.3-9.13-.75-5.69-4.64-11.52-10.33-12.42,1.95,4.34,3.89,8.83,3.59,13.62-.3,4.79-3.59,9.73-8.39,10.03-3.14,.15-5.99-1.65-8.69-3.29-4.04-2.69-8.24-5.69-13.03-7.03-4.79-1.35-10.33-1.2-14.08,1.95,4.34,.45,8.98,.9,12.28,3.74,3.29,2.84,4.34,8.68,.9,11.37,1.5,1.35,3.89,.9,5.69-.15,1.8-1.05,3.44-2.39,5.54-2.39,2.99-.15,5.39,2.84,6.44,5.69,.9,2.84,1.05,6.13,2.25,8.83,1.8,3.89,5.69,7.63,4.34,11.67-1.35,3.74-6.29,4.34-10.33,4.34,1.65,3.59,6.29,5.24,9.88,3.74,4.64-2.1,6.29-8.08,10.63-10.62,4.34-2.54,10.03-.6,14.08,2.54,1.8,1.35,3.44,2.99,4.19,5.09,.6,2.09-.15,4.79-2.1,5.69-2.1,.9-4.94-1.05-4.34-3.14-.75,2.54,1.05,5.24,2.85,7.18,1.8,1.95,4.04,3.89,4.34,6.58,.75,5.09-5.69,9.58-4.79,14.36,0,0,0,5.69,5.39,8.23,0,0-19.17,.6-14.53-10.18,.45-1.2,1.05-2.1,1.5-2.84,.6-1.5,1.05-3.29,1.2-4.94,.3-2.84,.3-5.69-.45-8.38-.75-2.69-2.55-5.24-5.09-6.43-3.59-1.79-7.94-.6-11.08,1.8-3.14,2.39-5.39,5.84-7.49,9.13-2.1,3.29-4.34,6.73-7.49,9.13-4.49,3.29-10.78,4.04-15.87,1.95-3.14-1.35-5.84-3.59-9.13-4.64-4.04-1.2-8.54-.3-11.68,2.54-3.14,2.69-4.64,7.18-4.04,11.22-4.64-2.1-5.69-7.33-4.34-12.27,1.35-4.94,5.39-8.68,9.88-11.22,4.49-2.54,9.43-3.89,14.23-5.69,4.79-1.8,9.58-4.19,12.88-8.08,1.95-2.24,3.29-4.94,3.45-7.93,.15-2.99-1.2-5.99-3.74-7.48-4.19-2.54-10.03,.6-11.98,5.09-.75,1.94-.9,4.49,.45,6.13,.9,1.05,2.4,1.5,3.59,1.2-3.59,2.39-8.24,2.24-11.23-1.05-3.59-3.89-3.29-10.62,.75-14.21,2.85-2.54,7.34-3.44,9.43-6.73,2.25-3.44,.45-8.68-3.3-10.62-3.59-1.94-8.39-1.05-11.68,1.65-3.14,2.69-4.94,6.73-5.54,10.77-.75,4.94,0,10.03-1.2,14.81-2.1,8.68-10.63,15.41-19.47,15.26-3.15,0-6.14-.9-9.29-1.5-2.99-.6-6.29-1.05-9.28-.6-3.15,.6-6.14,2.39-7.34,5.24-1.35,2.84-.45,6.73,2.4,8.08-4.19,.45-6.74-4.34-6.14-8.83Z"/>
    </g>
  </g>
</svg>