<svg width="259" height="603" viewBox="0 0 259 603" fill="none" xmlns="http://www.w3.org/2000/svg">
<path opacity="0.36" d="M224.931 373.118C213.519 373.118 201.436 363.043 204.121 351.96C198.75 351.624 194.891 356.83 192.877 361.867C190.863 366.905 189.856 372.446 185.828 375.972C179.955 381.346 170.221 379.499 163.508 375.301C156.627 371.103 151.089 364.89 144.041 361.363C133.972 356.494 119.539 355.654 115.679 345.075C112.155 335.336 121.049 325.597 129.105 319.048C119.875 314.682 107.624 319.048 103.093 328.115C97.2189 340.038 104.267 354.815 99.5684 367.241C95.0372 379.667 80.4368 385.208 67.179 386.048C61.3053 386.383 55.0959 386.048 50.2291 382.857C45.3623 379.667 42.1737 373.118 44.691 367.744C47.2084 362.539 56.2707 361.531 58.6201 366.737C55.7672 360.188 47.8796 358.005 40.8311 357.165C33.7827 356.326 26.0629 355.99 20.8605 351.288C10.2878 341.717 16.665 320.055 4.0784 313.003C-1.29186 309.98 -7.83687 311.323 -14.0462 311.827C-20.0878 312.331 -27.4719 311.323 -30.3249 305.782C-33.01 300.744 -30.157 294.028 -25.1224 291.341C-20.0878 288.654 -13.8784 289.662 -8.84379 292.348C-9.01161 285.464 -15.7244 280.93 -22.1016 278.579C-28.4788 276.396 -35.5273 276.732 -42.4079 276.9C-49.2886 277.068 -56.3371 276.732 -62.3786 273.541C-69.7627 269.511 -74.1261 261.619 -78.9929 254.734C-90.5725 238.782 -109.201 227.196 -128.5 222.83C-116.753 232.065 -105.005 241.301 -95.6071 252.719C-86.0413 264.138 -78.8251 277.907 -77.6503 292.852C-76.6434 306.286 -80.5033 319.551 -80.8389 332.985C-81.1745 345.915 -78.1538 358.845 -72.28 370.263C-68.9236 376.812 -64.2246 383.025 -57.344 385.88C-50.6312 388.566 -41.401 386.383 -38.5481 379.667C-44.7574 379.667 -51.1346 378.491 -56.1693 374.965C-61.2039 371.439 -64.3925 364.89 -62.8821 359.013C-61.3717 353.639 -56.1693 349.777 -50.6312 348.937C-45.0931 348.098 -39.3872 350.113 -34.6882 353.135C-20.9269 362.203 -15.7244 382.353 -23.4442 396.962C-26.8006 403.343 -32.1709 408.549 -35.1917 415.266C-39.8906 426.18 -37.0377 438.942 -31.4996 449.521C-26.1293 460.1 -18.2418 469.168 -12.368 479.579C-8.17251 486.967 -5.15173 496.539 -9.85072 503.759C-13.7106 509.637 -21.0947 511.484 -27.3041 514.842C-37.0377 520.216 -44.0862 530.627 -45.2609 541.709C-46.6035 552.792 -42.2401 564.546 -33.8491 572.103C-36.8699 567.737 -37.709 561.524 -34.856 556.99C-32.0031 552.456 -24.9546 550.777 -20.9269 554.303C-16.8992 557.83 -18.7452 566.058 -23.9477 566.729C-17.9061 569.584 -8.84379 565.218 -5.6552 559.509C-2.46661 553.8 -2.13097 546.747 -1.6275 540.198C-1.12404 533.649 -0.117126 526.596 4.24622 521.559C9.28084 515.682 18.0075 513.667 23.21 507.789C30.7619 499.058 25.8951 482.769 14.6511 479.915C20.5249 476.388 28.2446 479.579 33.1114 484.281C37.9782 489.15 41.3346 495.363 46.7049 499.729C55.4316 506.782 68.8572 507.286 77.9196 500.737C85.4715 495.363 89.667 486.128 97.0511 480.251C109.47 470.175 130.28 473.03 139.51 486.296C143.705 477.732 138.167 466.817 129.608 462.619C121.049 458.253 110.98 459.261 101.75 461.444C92.5199 463.794 83.6254 467.321 74.0597 468.328C64.6617 469.336 54.089 466.985 48.2153 459.429C42.3415 451.872 44.0197 438.774 52.7464 435.248C59.2914 432.729 66.6755 435.92 72.5493 439.95C78.423 443.98 84.1289 448.682 91.1774 449.353C98.2258 450.025 106.281 443.98 104.267 437.095C96.3798 438.439 88.8279 430.211 89.667 422.15C90.5061 414.09 97.8902 407.877 105.946 406.702C113.833 405.526 122.056 408.885 128.266 413.922C134.475 418.96 139.342 425.677 143.705 432.226C148.236 438.942 152.768 445.659 158.641 451.201C169.717 461.612 187.339 466.145 200.261 458.589C189.017 453.216 177.437 447.506 170.053 437.431C162.669 427.524 161.159 411.907 170.053 403.343C175.927 397.634 184.821 396.291 192.877 395.451C205.631 393.94 218.721 392.764 230.636 387.727C242.384 382.521 253.124 372.614 255.306 360.02C246.412 366.401 236.342 373.118 224.931 373.118ZM62.48 427.356C54.9281 418.288 39.8242 416.945 30.9297 424.669C22.0352 432.393 21.1961 447.674 29.0837 456.406C22.5387 456.574 19.1823 448.85 17.3362 442.637C15.4902 436.424 11.6303 428.699 5.08533 429.371C0.889801 429.707 -2.13097 434.073 -2.80225 438.271C-3.30571 442.469 -2.13097 446.667 -0.788399 450.697C-9.34726 449.185 -15.0532 440.286 -15.3888 431.554C-15.8923 422.99 -12.2002 414.594 -8.50816 406.87C-4.64828 399.145 -0.452759 391.253 0.554169 382.689C1.5611 374.125 -1.45968 364.386 -9.01161 360.188C-0.956215 360.188 5.08533 367.409 8.44174 374.629C11.7982 381.85 13.6442 390.078 19.1823 395.955C25.5594 402.84 35.1252 405.023 43.8519 408.549C52.5786 411.907 61.6409 418.12 62.48 427.356ZM113.162 387.559C110.812 394.612 104.267 400.153 96.8833 400.992C89.4992 402 81.7794 398.306 77.7517 392.093C85.1358 393.94 93.359 392.093 99.2328 387.223C105.107 382.353 108.631 374.629 108.127 367.073C113.498 372.11 115.511 380.506 113.162 387.559Z" fill="#CEC1A3"/>
<path opacity="0.36" d="M60.1343 259.772C53.7571 254.902 50.5685 247.178 46.0374 240.461C41.5062 233.912 34.2899 227.699 26.4023 229.043C34.6256 231.897 39.1567 240.965 39.4924 249.697C39.828 258.429 36.975 266.825 34.4577 275.053C31.9404 283.281 29.7588 292.18 31.6048 300.576C33.4508 308.972 40.4993 317.033 49.0581 317.033C47.0443 313.17 45.1983 309.308 45.0304 305.11C44.8626 300.912 47.2121 296.21 51.4076 295.035C57.7848 293.356 62.8194 300.241 65.5046 306.118C68.3575 311.995 72.8887 319.048 79.4337 317.872C70.2036 310.652 68.5254 295.371 76.0773 286.303C83.6292 277.236 98.7331 276.06 107.628 283.784C105.278 274.717 95.2089 270.183 86.1465 268.168C77.4199 266.153 67.5184 265.481 60.1343 259.772Z" fill="#CEC1A3"/>
<path opacity="0.36" d="M66.3407 536.84C58.7888 538.015 50.7334 535.496 45.1953 530.291C45.531 537.679 50.5656 544.732 57.2784 547.586C64.1591 550.441 72.5501 549.098 78.0882 544.06C83.6263 539.19 85.9758 530.962 83.9619 523.742C80.7733 530.459 73.8927 535.496 66.3407 536.84Z" fill="#CEC1A3"/>
<path opacity="0.36" d="M144.882 252.383C133.974 256.078 121.723 250.2 113.499 242.14C105.276 234.08 99.4024 223.669 91.0114 215.609C82.7882 207.549 70.7051 201.504 59.6289 205.198C68.859 204.023 77.9214 209.396 84.2986 216.281C90.6757 223.165 94.8713 231.729 99.9059 239.622C104.941 247.514 111.15 255.07 119.877 258.596C128.435 261.955 139.847 260.276 144.882 252.383Z" fill="#CEC1A3"/>
<path opacity="0.36" d="M171.396 324.085C178.277 325.764 186.164 323.749 191.367 318.88C194.22 316.193 196.402 312.667 199.254 309.812C202.107 307.125 208.485 303.767 212.345 304.942C206.639 300.576 199.926 295.875 192.709 297.218C187.843 298.058 183.815 301.584 180.291 304.942C176.767 308.301 173.074 311.995 168.208 313.506C163.509 315.018 157.299 313.338 155.621 308.804C157.971 315.689 164.516 322.406 171.396 324.085Z" fill="#CEC1A3"/>
<path opacity="0.36" d="M-0.282867 257.253C-4.81403 255.574 -7.83481 251.376 -9.17737 246.674C-10.5199 242.14 -10.1843 237.103 -9.68082 232.401C-9.17737 227.699 -8.33826 222.83 -8.6739 218.128C-9.68083 204.526 -20.9248 192.436 -34.5183 190.421C-42.0702 189.414 -49.6222 191.093 -57.3419 190.589C-63.7191 190.253 -70.0963 188.07 -74.4596 183.536C-78.823 179.003 -81.0046 171.95 -78.4873 166.073C-75.97 160.196 -68.4181 156.837 -62.7122 159.692C-57.5097 162.378 -55.6637 168.927 -51.3004 173.125C-45.4266 178.667 -35.0218 178.331 -29.6515 172.286C-25.1203 167.08 -25.456 160.196 -29.6515 154.99C-28.9802 156.837 -29.4837 159.188 -30.8262 160.699C-33.1757 163.05 -37.0356 163.05 -40.0564 162.211C-44.2519 161.035 -47.7761 157.677 -49.2865 153.647C-57.5097 143.236 -77.4804 134.168 -86.8784 153.143C-89.7313 159.188 -90.9061 165.737 -90.9061 172.286C-96.2763 166.912 -97.4511 158.516 -95.7729 151.128C-94.2625 143.739 -90.4026 137.023 -86.8784 130.474C-84.5289 126.276 -82.1794 121.574 -83.0185 116.872C-84.1932 109.652 -92.0808 105.286 -99.2971 105.454C-106.513 105.622 -113.226 109.316 -119.603 112.842C-118.932 104.11 -110.709 97.2256 -102.15 95.3785C-97.6189 94.3709 -92.7521 94.5389 -88.0531 94.7068C-83.3541 94.7068 -78.6552 94.7068 -74.124 93.5314C-69.5928 92.188 -65.3973 89.5013 -63.2156 85.3033C-61.034 81.1053 -61.5374 75.396 -65.0617 72.3735C-68.5859 69.3509 -75.1309 70.0226 -76.977 74.3885C-80.8368 73.0451 -81.1725 67.1679 -78.3195 63.9775C-75.6344 60.787 -71.4389 59.7795 -67.579 58.2682C-63.7191 56.7569 -59.6914 54.406 -58.6845 50.376C-57.3419 45.0025 -63.0478 39.797 -68.5859 40.1329C-74.124 40.4687 -78.823 44.6667 -81.5081 49.5364C-84.1932 54.406 -85.5358 59.9474 -87.5497 64.985C-89.5635 70.1905 -92.5843 75.396 -97.4511 77.9148C-102.318 80.6015 -109.534 79.594 -112.051 74.7243C-102.654 74.7243 -95.2694 65.8246 -94.9338 56.4211C-94.5981 38.1178 -107.688 31.0652 -107.688 31.0652C-108.863 36.2707 -109.702 41.4762 -111.38 46.5138C-113.562 53.2306 -117.422 60.1153 -123.967 62.9699C-127.491 64.6491 -132.358 64.8171 -135.043 61.9624C-137.225 59.7795 -136.721 55.4136 -134.539 53.7344C-139.238 56.0852 -142.259 61.6266 -141.42 66.8321C-139.91 76.2356 -128.162 82.6166 -129.001 92.0201C-130.008 101.088 -141.588 105.118 -144.441 113.682C-146.119 118.719 -144.105 124.261 -141.924 129.13C-139.742 134 -137.225 139.038 -137.56 144.411C-137.896 149.784 -143.098 156.837 -148.301 155.662C-144.944 158.684 -139.238 157.005 -136.553 153.311C-133.868 149.617 -133.365 144.915 -132.526 140.549C-131.687 136.183 -130.176 131.313 -126.316 128.962C-120.778 125.436 -112.891 128.795 -109.87 134.672C-106.849 140.381 -107.52 147.434 -109.366 153.647C-111.212 159.86 -114.233 165.737 -115.576 172.118C-118.093 183.201 -115.24 195.459 -108.359 204.358C-101.311 213.426 -90.2348 218.967 -78.823 219.303C-66.0686 219.639 -52.4751 214.098 -41.0633 219.807C-35.0218 222.998 -30.9941 228.875 -27.8055 234.92C-24.7847 240.965 -22.2674 247.514 -18.4075 253.055C-14.5476 258.597 -8.50609 263.298 -1.79326 263.634C5.0874 263.97 11.968 259.268 11.6324 252.551C9.95421 257.085 4.08047 258.932 -0.282867 257.253Z" fill="#CEC1A3"/>
</svg>
