<svg width="105" height="173" viewBox="0 0 105 173" fill="none" xmlns="http://www.w3.org/2000/svg">
<path opacity="0.36" d="M65.6272 30.5852C62.5851 29.8622 59.9776 27.693 58.7463 24.873C57.7323 27.693 58.529 31.0914 60.6295 33.2606C62.73 35.4297 66.1342 36.1528 69.0315 35.2128C71.8563 34.2005 74.0292 31.5252 74.3913 28.4884C72.0011 30.4406 68.6693 31.236 65.6272 30.5852Z" fill="#CEC1A3"/>
<path opacity="0.36" d="M15.3593 120.968C17.3874 118.944 18.329 115.762 17.7495 112.942C17.3874 111.351 16.5906 109.905 16.3009 108.315C15.9387 106.724 16.156 103.832 17.3149 102.747C14.5626 103.832 11.5929 105.205 10.5065 107.953C9.78215 109.833 10.1443 111.93 10.5789 113.882C11.0135 115.834 11.5205 117.859 11.0859 119.884C10.6513 121.836 8.76813 123.644 6.8125 123.282C9.63729 123.933 13.3312 123.065 15.3593 120.968Z" fill="#CEC1A3"/>
<path opacity="0.36" d="M157.469 117.122C156.092 116.688 154.571 116.543 153.268 117.122C151.964 117.7 151.022 119.291 151.602 120.593C152.471 119.725 153.485 119.002 154.644 118.785C155.803 118.568 157.179 119.002 157.758 120.014C158.338 120.954 158.121 122.183 157.541 123.051C156.889 123.919 155.875 124.497 154.789 124.714C151.674 125.437 148.198 123.412 147.184 120.376C146.749 119.074 146.749 117.628 146.242 116.326C145.373 114.23 143.2 112.928 140.954 112.277C138.347 111.482 135.595 111.482 132.987 110.542C132.335 110.325 131.756 109.964 131.249 109.457C129.583 107.65 130.742 105.914 131.249 104.107C131.828 102.01 131.321 99.6961 129.945 97.9607C128.569 96.2977 126.324 95.3577 124.151 95.5023C125.165 95.6469 126.179 96.37 126.396 97.3823C126.468 97.6715 126.468 97.9607 126.396 98.3223C125.309 96.8038 123.426 95.7915 121.543 95.7915C122.63 93.3331 124.802 91.3086 127.41 90.5855C130.017 89.8624 132.915 90.3686 135.16 91.887C136.536 92.827 137.623 94.2008 138.854 95.2131C140.158 96.2977 141.751 97.1654 143.417 96.8761C144.793 96.6592 145.88 95.7915 146.966 94.9962C148.053 94.2008 149.356 93.4054 150.733 93.5501C152.109 93.6947 153.34 95.1408 152.761 96.37C153.485 95.0685 153.413 93.4054 152.616 92.1762C151.819 90.947 150.298 90.224 148.849 90.2963C146.749 90.4409 144.793 92.1762 142.765 91.5978C140.81 90.947 140.23 88.1994 141.389 86.464C142.548 84.801 144.793 84.078 146.821 84.2226C151.384 84.5118 149.719 66.7245 141.027 68.966C138.419 69.6167 135.015 70.8459 132.842 69.3275C135.16 68.2429 136.754 65.8568 136.898 63.3261C135.957 65.4953 133.277 66.6522 131.031 65.9291C129.51 65.423 128.279 64.1938 126.686 63.7599C125.237 63.3984 123.716 63.9045 122.34 64.5553C120.601 65.423 118.936 66.6522 117.632 68.0983C117.632 67.5922 117.559 67.0137 117.559 66.5076C117.487 64.8445 117.487 63.0369 118.356 61.663C119.443 60 121.543 59.2769 122.63 57.6139C124.223 55.1555 122.485 51.3233 119.515 50.9617C120.891 49.8772 122.919 50.3833 124.295 51.4679C125.672 52.4802 126.758 53.9263 128.207 54.8663C130.597 56.3124 134.001 56.0232 136.029 54.0709C137.768 52.4802 138.492 50.0218 140.085 48.2864C140.52 47.8526 140.954 47.491 141.461 47.2018L138.637 44.3096C137.116 45.0326 135.595 45.6834 133.929 46.0449C131.176 46.6957 127.845 46.2618 126.324 43.5865C125.382 41.9958 125.672 39.8989 127.193 38.8143C128.786 37.5851 130.959 38.2359 132.697 39.1035C133.204 39.3928 133.784 39.682 134.363 39.8989C120.746 27.173 119.877 43.948 119.877 43.948C115.314 43.948 113.865 41.7066 113.865 39.6097C113.865 37.5128 117.632 27.5346 110.244 18.7132C102.856 9.81955 96.4821 14.7364 96.4821 14.7364C96.8443 6.99961 92.0639 1.57665 92.0639 1.57665C90.1807 0.347448 89.4564 -0.44792 85.8348 0.275141C82.1409 0.925896 78.6642 7.28884 78.6642 7.28884C76.9983 12.278 76.781 17.9901 68.0169 17.9178C76.7086 25.51 83.5895 9.09649 82.3582 22.7623C89.1666 22.4731 90.4704 14.8087 84.4586 8.22882C89.5288 9.1688 90.5428 14.3025 90.905 17.7009C91.2671 20.9547 92.426 24.0639 94.3092 26.7392C95.3957 28.2576 96.7718 29.6314 98.5102 30.1376C100.321 30.5714 102.494 29.776 103.001 27.9684C101.48 28.1853 99.8139 28.113 98.4377 27.3899C97.0616 26.6669 96.0475 25.1485 96.2648 23.63C96.4821 22.2562 97.641 21.0993 99.0172 20.6655C100.393 20.3039 101.842 20.5932 103.146 21.1716C106.912 22.9793 108.868 27.8238 107.419 31.7283C106.767 33.4637 105.608 34.9098 105.101 36.6451C104.305 39.5374 105.464 42.5742 107.129 45.0326C109.085 47.8526 111.837 50.0941 113.721 52.9863C114.3 53.9263 114.735 54.9386 114.735 56.0232C114.807 58.9154 112.272 59.7831 110.389 61.1569C108.723 62.3861 107.564 64.2661 107.057 66.2906C104.956 65.3507 102.784 64.6276 100.683 63.6153C97.9307 62.2415 95.3957 60.0723 94.5989 57.1078C94.1643 55.4447 94.4541 53.4202 95.8302 52.4802C96.9167 51.6848 98.7275 52.1909 99.3069 53.2755C98.655 51.1064 96.5545 49.4433 94.2368 49.371C90.1082 49.2987 86.5591 53.9263 82.5754 52.7694C78.8091 51.7571 77.9399 46.4788 74.4632 44.6711C72.4352 43.5865 69.9001 44.0204 67.6548 44.5988C65.4094 45.1772 63.0916 45.9003 60.8463 45.3219C58.6009 44.7434 55.9934 42.0681 56.8626 39.9712C55.2691 41.1281 55.6313 43.7311 57.0075 45.1049C58.3836 46.4788 60.3393 47.0572 62.15 47.7803C63.9608 48.5033 65.844 49.4433 66.6407 51.251C67.7272 53.854 65.6991 56.9632 63.0192 57.8308C60.3393 58.6985 57.3696 57.9031 54.907 56.6739C52.3719 55.4447 50.0541 53.7094 47.4466 52.6971C42.8835 50.8171 37.5236 51.1064 33.1778 53.4925C28.832 55.8063 25.645 60.1446 24.631 64.9168C23.5445 70.2675 24.9932 76.4858 21.6614 80.8965C19.923 83.2103 17.0982 84.5118 14.2734 85.4518C11.4486 86.3194 8.55142 86.8979 5.87149 88.1271C3.19156 89.4286 0.801353 91.5978 0.149478 94.4177C-0.502397 97.31 1.01864 100.564 3.91587 100.925C2.17753 99.8407 1.74295 97.2377 2.75698 95.43C3.77101 93.6224 5.79906 92.6101 7.89955 92.3932C9.9276 92.1762 12.0281 92.6824 13.9837 93.2608C15.9393 93.8393 17.9674 94.49 19.9955 94.707C25.8623 95.2854 31.8016 91.3086 33.6124 85.741C34.6264 82.6318 34.4091 79.2334 35.1334 76.052C35.7853 73.3766 37.1615 70.8459 39.4068 69.2552C41.6522 67.6645 44.8391 67.3752 47.0845 68.8214C49.4023 70.3398 50.2714 73.7382 48.6055 75.9797C47.0845 78.0042 44.1148 78.3658 42.0868 79.8842C39.262 81.9811 38.6825 86.3918 40.8555 89.1394C42.7386 91.4532 45.7083 91.7424 48.1709 90.3686C47.3018 90.5132 46.3602 90.1517 45.8532 89.4286C45.0564 88.2717 45.2737 86.6087 45.9256 85.3795C47.3742 82.4872 51.3579 80.8242 54.0378 82.7041C55.6313 83.7887 56.3556 85.8856 56.0659 87.8379C55.8486 89.7178 54.7621 91.4532 53.3859 92.827C50.9957 95.1408 47.7364 96.4423 44.477 97.3823C41.2176 98.3223 37.8858 98.973 34.8437 100.419C31.8016 101.793 28.9044 104.107 27.7455 107.216C26.5866 110.325 26.9488 113.796 29.9184 115.459C29.7011 112.711 30.9325 109.891 33.1778 108.301C35.3507 106.637 38.4652 106.276 41.0003 107.288C43.1008 108.156 44.7667 109.819 46.7948 110.831C50.0541 112.494 54.1827 112.35 57.2972 110.397C59.4701 109.024 61.136 106.927 62.657 104.83C64.2505 102.733 65.844 100.636 68.0169 99.2622C70.1898 97.8884 73.1595 97.3823 75.4048 98.6838C76.9983 99.6238 78.0123 101.359 78.3745 103.167C78.7366 104.974 78.5918 106.854 78.2296 108.662C77.7226 111.41 76.3464 114.447 73.5941 114.953C72.073 115.242 70.552 114.591 69.0309 114.88C66.351 115.314 64.6851 118.857 66.1337 121.171C66.4234 119.363 68.6688 118.206 70.3347 118.93C73.3043 120.231 71.7833 125.292 70.1174 127.1C68.3066 129.125 65.0473 129.559 62.657 128.257C60.2668 126.955 58.8907 124.136 59.1079 121.388C56.7177 123.846 56.6453 127.968 58.3112 130.932C59.9771 133.897 63.0916 135.921 66.351 136.934C68.7412 137.657 71.2763 138.018 73.3043 139.392C75.4048 140.766 76.8534 143.297 76.6361 145.755C76.4189 148.286 74.2459 150.527 71.7109 150.6C69.1758 150.672 66.858 148.069 67.4375 145.61C65.4818 147.274 65.9164 150.672 67.6548 152.552C69.3931 154.432 72.073 155.227 74.6081 155.806C77.1432 156.384 79.8231 156.818 81.9236 158.264C84.4586 159.927 85.9073 162.819 86.6316 165.784C87.3559 168.748 93.0055 173.882 94.0919 172.87C90.905 166.001 95.9751 163.036 99.3069 159.493C101.118 157.541 103.435 156.095 105.536 154.576C107.636 152.986 109.737 151.178 110.823 148.72C111.982 146.334 111.982 143.224 110.244 141.2L110.171 141.127C116.908 141.2 123.354 144.96 120.601 150.672C120.312 151.323 120.167 151.973 120.239 152.696C120.601 155.661 124.151 151.973 123.571 155.589C126.106 155.227 123.861 148.647 127.41 152.624C131.104 156.746 134.87 145.61 138.057 153.058C138.275 152.986 138.419 152.841 138.564 152.769L138.926 152.407C139.94 151.178 140.013 148.72 139.506 147.201C138.637 144.815 135.595 143.803 134.508 141.489C133.422 139.175 134.581 136.428 136.246 134.475C136.971 133.608 137.84 132.812 138.999 132.523C140.085 132.234 141.461 132.74 141.824 133.752C142.186 134.837 139.723 137.44 138.926 136.861C140.665 139.464 142.765 135.56 143.852 134.692C144.938 133.825 145.952 132.812 147.328 132.668C149.719 132.523 151.529 134.909 153.775 135.271C159.497 136.138 161.235 131.511 162.032 130.209C165.074 122.473 160.221 117.917 157.469 117.122ZM93.5125 133.969C91.1223 136.861 89.9634 140.549 89.6012 144.309C89.3115 148.069 89.7461 151.756 90.1807 155.516C87.5007 151.323 86.2694 145.972 86.9937 141.055C87.2834 138.958 87.9353 136.789 87.3559 134.765C86.8489 133.102 85.6175 131.8 84.3862 130.643C83.1549 129.486 81.8511 128.257 81.0544 126.739C80.3301 125.22 79.8955 123.196 81.1268 121.966C81.5614 123.34 82.503 124.642 83.8792 125.003C85.2554 125.437 86.9937 124.714 87.3559 123.34C87.7904 121.894 86.704 120.376 85.4727 119.363C84.3138 118.351 82.8652 117.411 82.4306 115.965C81.4166 112.494 86.4143 109.747 86.197 106.131C86.1246 104.324 84.7484 102.95 83.6619 101.576C82.5754 100.202 81.5614 98.3946 82.1409 96.7315C81.6339 98.1053 83.4446 99.5515 84.8208 99.0453C86.197 98.5392 86.8489 96.8038 86.4867 95.3577C86.197 93.9116 85.1105 92.7547 84.0241 91.8147C81.489 89.6455 77.9399 88.0548 74.8978 89.4286C71.8557 90.8024 70.4795 94.707 67.2926 95.7915C64.9024 96.5869 61.9327 95.2131 60.9911 92.827C63.5986 93.0439 66.9305 92.8993 68.0169 90.5132C69.1758 87.9102 66.7856 85.2348 65.844 82.5595C65.1921 80.6796 65.2645 78.5827 64.83 76.6304C64.3229 74.6782 62.9468 72.6536 60.9187 72.5813C59.5425 72.509 58.3836 73.3043 57.1523 73.8828C55.921 74.4612 54.3275 74.6058 53.3859 73.6659C55.8486 72.1474 55.4864 68.2429 53.3859 66.2183C51.3579 64.1938 48.3158 63.6153 45.491 63.1092C48.1709 61.2292 51.7925 61.3738 54.8345 62.5307C57.8766 63.6876 60.4117 65.7845 62.9468 67.8091C64.5402 69.1106 66.351 70.4121 68.4515 70.4121C71.566 70.4844 74.0286 67.4475 74.5357 64.3384C74.9702 61.2292 73.9562 58.12 72.8698 55.2278C76.5637 56.1678 78.8815 60.1446 79.0264 63.9045C79.0988 65.9291 78.6642 67.9537 78.302 69.9059C77.9399 71.9305 77.5777 73.9551 77.795 75.9074C78.0123 77.9319 78.8815 79.9565 80.475 81.1857C82.0684 82.4149 84.5311 82.6318 86.1245 81.3303C87.718 80.0288 87.7905 77.2089 86.1245 76.1243C86.9937 74.5335 89.5288 74.8951 90.6152 76.2689C91.7017 77.6427 91.919 79.5227 92.2811 81.258C92.6433 82.9934 93.3676 84.8733 94.9611 85.5964C97.134 86.5364 99.8139 84.5118 100.104 82.1257C100.393 79.7396 98.9448 77.4981 97.0616 75.9797C95.1784 74.4612 92.933 73.5213 90.905 72.2921C88.8769 71.0628 86.8489 69.3998 86.1245 67.1583C85.4002 64.9168 86.2694 61.9523 88.5872 61.1569C87.8629 65.1337 91.1223 69.3275 95.1059 69.7613C97.4237 69.9783 99.8139 69.1106 102.132 69.4721C104.884 69.906 107.202 72.3644 107.564 75.1843C107.781 76.9196 107.274 78.5827 107.274 80.318C107.274 82.0534 108.143 84.0056 109.809 84.3672C108.288 81.8365 110.316 78.0765 113.214 77.8596C115.169 77.715 117.052 78.9442 119.008 78.7273C120.674 78.5827 122.123 77.4981 123.354 76.4135C124.585 75.3289 125.889 74.0997 127.482 73.6659C129.076 73.232 131.466 74.0274 132.046 75.6181C130.959 74.8228 129.221 75.9074 129.293 77.2812C129.366 78.655 130.959 79.595 132.263 79.2334C133.567 78.9442 134.508 77.715 134.798 76.3412C134.943 79.1611 133.639 81.9811 131.466 83.7887C129.293 85.5241 126.179 86.1748 123.499 85.3795C121.833 84.8733 120.094 83.9333 118.429 84.2949C116.328 84.7287 115.169 86.9702 114.59 89.0671C113.793 91.9593 113.576 94.9239 112.707 97.8161C111.837 100.636 110.027 103.456 107.274 104.541C105.608 105.191 103.653 105.191 101.914 105.697C97.9307 106.927 95.2508 111.41 96.12 115.531C96.4097 116.905 97.0616 118.279 98.2204 119.074C99.3793 119.942 100.973 120.159 102.204 119.436C103.58 118.64 104.087 116.905 103.87 115.387C103.58 113.868 102.639 112.494 101.552 111.41C103.291 110.759 105.319 111.988 106.043 113.651C106.767 115.314 106.478 117.339 105.971 119.074C105.029 122.183 103.218 125.003 100.9 127.245C98.7275 129.703 95.6854 131.366 93.5125 133.969ZM131.828 125.582C131.466 127.1 129.873 127.751 128.424 128.04C127.12 128.329 125.672 128.474 124.585 129.342C123.571 130.209 123.281 132.162 124.513 132.812C125.382 131.511 127.555 131.583 128.569 132.74C129.583 133.897 129.438 135.777 128.496 137.078C127.555 138.308 126.034 139.031 124.513 139.248C122.992 139.464 121.398 139.175 119.877 138.958C121.181 131.8 112.127 139.898 112.344 134.114C109.447 134.258 98.148 138.018 101.48 143.731C102.856 142.646 104.522 141.923 106.333 141.489C108.143 143.441 106.55 146.912 104.232 147.635C102.856 148.069 101.335 147.852 100.104 147.129C97.0616 145.394 96.12 141.127 97.2064 137.801C98.2929 134.475 101.045 131.872 103.87 129.775C106.695 127.679 109.809 125.943 112.272 123.412C114.735 120.954 116.618 117.483 116.183 114.013C115.966 111.988 114.952 110.18 114.3 108.301C113.648 106.421 113.214 104.251 114.083 102.444C115.169 100.202 118.211 99.2622 120.384 100.419C122.557 101.576 123.354 104.685 122.05 106.854C123.281 106.782 124.44 106.276 125.382 105.481C125.744 106.059 126.034 106.71 126.106 107.433C126.251 108.951 125.382 110.397 125.454 111.916C125.672 114.157 128.569 115.603 130.524 114.447C130.235 115.748 128.714 116.399 127.41 116.399C126.106 116.471 124.73 116.037 123.426 116.254C121.253 116.543 119.443 118.351 119.08 120.448C118.791 122.256 119.515 124.063 119.37 125.871C119.08 128.98 115.894 131.438 112.851 131.005C113.431 132.74 115.749 133.391 117.487 132.812C119.225 132.234 120.457 130.643 121.398 129.052C122.34 127.462 122.992 125.726 124.151 124.28C125.454 122.617 127.627 121.316 129.8 122.111C131.249 122.689 132.19 124.208 131.828 125.582Z" fill="#CEC1A3"/>
</svg>
