<svg width="40" height="40" viewBox="0 0 40 40" fill="none" xmlns="http://www.w3.org/2000/svg">
	<g clip-path="url(#clip0_52569_442193)">
		<path d="M20 40C31.0457 40 40 31.0457 40 20C40 8.95431 31.0457 0 20 0C8.95431 0 0 8.95431 0 20C0 31.0457 8.95431 40 20 40Z" fill="#FFDD2D"/>
		<rect x="4" y="14" width="32" height="12.6984" rx="6.34921" fill="black"/>
		<g clip-path="url(#clip1_52569_442193)">
			<path d="M11.2746 16.2009C10.7373 16.2009 10.0698 16.533 9.82106 16.7666L9.91884 16.9888C9.91884 16.9888 9.16137 16.9989 8.77096 17.2502C8.38054 17.5015 8.20251 17.6724 8.01025 18.0783C7.81772 18.0874 7.09582 18.3939 6.67776 18.7019C6.67776 18.7019 6.32636 20.0322 6.9919 20.6062L6.57178 21.183C6.67776 21.5462 7.13532 21.9152 7.59006 21.9592C7.79467 22.2072 7.39779 22.6998 7.39779 22.6998C7.5658 23.233 8.69683 23.8192 9.37232 23.8192L9.27934 24.1331C9.27934 24.1331 10.0317 24.681 11.2459 24.6298C12.2723 24.6631 13.1071 24.418 13.3189 24.1331L13.2117 23.8192C14.1492 23.6794 14.8572 23.3738 15.2512 22.725C15.2512 22.725 14.9578 22.1082 15.0602 21.9535C15.515 21.9095 15.9402 21.4616 16.0533 21.266L15.6408 20.6167C15.9697 20.2473 16.1539 19.2724 15.9121 18.7019C15.494 18.3939 14.7792 18.1434 14.5866 18.1342C14.5103 17.6835 14.0198 17.3312 14.0198 17.3312C13.5554 16.9273 12.7107 16.9888 12.7107 16.9888L12.7794 16.7666C12.5641 16.5265 11.8841 16.2009 11.2746 16.2009Z" fill="white"/>
			<path d="M10.0218 17.4624C9.48425 17.3254 9.07901 17.5128 8.72839 17.7706C8.37706 18.029 8.23841 18.3638 8.26924 18.4837C7.98194 18.3661 7.35114 18.7309 7.05087 18.9059C7.05087 18.9059 6.81851 20.0425 7.41251 20.4822C7.38163 20.791 7.16384 21.1616 7.05087 21.231C7.24668 21.5398 7.66159 21.6243 7.83731 21.5459C8.13103 21.9526 7.98911 22.5036 7.82593 22.6793C8.28243 23.0915 9.3716 23.2643 9.69063 23.2902C9.69063 23.2902 9.4098 22.632 9.28441 22.0896C8.93788 20.5907 9.1244 18.7204 9.1244 18.7204C9.1244 18.7204 8.31493 19.6627 8.76614 21.9344C8.84233 22.318 8.95 22.7235 8.95 22.7235C8.87492 22.6862 8.69171 22.7088 8.35484 22.5384C8.49915 22.383 8.43709 21.4612 8.01193 21.0089C8.01193 21.0089 7.80963 21.1023 7.66113 21.0404C7.76104 20.9791 7.8858 20.5874 7.8858 20.2876C7.40505 20.0003 7.45605 19.4808 7.47983 19.2077C7.71573 19.0545 8.13882 18.7941 8.67115 19.0214C8.65716 18.8925 8.69358 18.5493 8.83964 18.309C8.83964 18.309 9.01744 17.9996 9.41904 17.9026C9.82063 17.8055 10.0218 17.4624 10.0218 17.4624Z" fill="#333333"/>
			<path d="M12.6032 17.4624C13.1407 17.3254 13.546 17.5128 13.8966 17.7706C14.2479 18.029 14.3866 18.3638 14.3558 18.4837C14.6431 18.3661 15.2739 18.7309 15.5741 18.9059C15.5741 18.9059 15.8065 20.0425 15.2125 20.4822C15.2434 20.791 15.4612 21.1616 15.5741 21.231C15.3783 21.5398 14.9634 21.6243 14.7877 21.5459C14.494 21.9526 14.6359 22.5036 14.7991 22.6793C14.3426 23.0915 13.2534 23.2643 12.9344 23.2902C12.9344 23.2902 13.2152 22.632 13.3406 22.0896C13.6871 20.5907 13.5006 18.7204 13.5006 18.7204C13.5006 18.7204 14.3101 19.6627 13.8589 21.9344C13.7827 22.318 13.675 22.7235 13.675 22.7235C13.7501 22.6862 13.9333 22.7088 14.2702 22.5384C14.1259 22.383 14.1879 21.4612 14.6131 21.0089C14.6131 21.0089 14.8154 21.1023 14.9639 21.0404C14.864 20.9791 14.7392 20.5874 14.7392 20.2876C15.22 20.0003 15.169 19.4808 15.1452 19.2077C14.9093 19.0545 14.4862 18.7941 13.9539 19.0214C13.9678 18.8925 13.9314 18.5493 13.7854 18.309C13.7854 18.309 13.6076 17.9996 13.206 17.9026C12.8044 17.8055 12.6032 17.4624 12.6032 17.4624Z" fill="#333333"/>
			<path fill-rule="evenodd" clip-rule="evenodd" d="M11.3565 18.3385C10.9695 18.3371 10.4584 18.4401 10.4584 18.4401L10.3048 16.9114L11.3381 16.5991L12.3205 16.9114L12.2364 18.4401C12.2364 18.4401 11.7372 18.3398 11.3565 18.3385ZM11.3565 17.9027C11.1419 17.8971 10.8657 17.9358 10.8657 17.9358L10.8026 17.2115L11.3381 17.0663L11.8696 17.2115V17.9358C11.8696 17.9358 11.5756 17.9085 11.3565 17.9027Z" fill="#333333"/>
			<path fill-rule="evenodd" clip-rule="evenodd" d="M11.3077 24.1474C12.2021 24.1369 12.7746 23.8705 12.7746 23.8705L12.425 22.772C12.425 22.772 11.6745 22.9895 11.313 22.9898C10.9515 22.9895 10.213 22.772 10.213 22.772L9.85144 23.8705C9.85144 23.8705 10.4133 24.1369 11.3077 24.1474ZM11.313 23.7808C11.8223 23.7787 12.1369 23.6742 12.3076 23.605L12.2142 23.2285C12.0034 23.2977 11.6377 23.3742 11.313 23.3769C10.9883 23.3742 10.6204 23.3172 10.4096 23.2479L10.3282 23.605C10.499 23.6742 10.8038 23.7787 11.313 23.7808Z" fill="#333333"/>
			<path fill-rule="evenodd" clip-rule="evenodd" d="M13.1231 18.9214H9.5022C9.53027 18.9605 9.64439 19.1505 9.68521 19.2601C9.72615 19.3701 9.7563 19.481 9.75768 19.5494C9.75877 19.6035 9.76536 19.7716 9.77398 19.9913L9.77406 19.9934C9.79115 20.4291 9.81626 21.0695 9.82333 21.4478C9.82645 21.6146 9.86352 21.8359 9.9974 22.0168C10.1337 22.201 10.3639 22.3347 10.734 22.3347H10.9944C11.02 22.3347 11.0377 22.3414 11.0518 22.351C11.0667 22.3612 11.0805 22.3771 11.0944 22.3997C11.1084 22.4226 11.123 22.4546 11.1365 22.485C11.1489 22.5127 11.1627 22.5436 11.179 22.5717C11.1845 22.5791 11.2069 22.6091 11.2279 22.6224C11.2502 22.6367 11.2781 22.6451 11.3127 22.6451C11.3479 22.6451 11.3762 22.6364 11.3987 22.6225C11.4198 22.6095 11.441 22.5791 11.447 22.5717C11.4638 22.5427 11.4807 22.5107 11.4931 22.4824C11.5063 22.4519 11.5195 22.422 11.5331 22.3991C11.5466 22.3765 11.56 22.3609 11.5745 22.3508C11.588 22.3413 11.6053 22.3347 11.631 22.3347H11.8913C12.2614 22.3347 12.4916 22.201 12.6279 22.0168C12.7618 21.8359 12.7989 21.6146 12.802 21.4478C12.8091 21.0695 12.8342 20.4291 12.8513 19.9935L12.8513 19.9915C12.86 19.7717 12.8666 19.6036 12.8676 19.5494C12.869 19.481 12.8992 19.3701 12.9401 19.2601C12.9809 19.1505 13.0951 18.9605 13.1231 18.9214ZM10.1914 19.4341C10.187 19.4108 10.1824 19.3882 10.1775 19.3676H12.458C12.4516 19.3903 12.4471 19.4131 12.4438 19.4345C12.4357 19.4874 12.4342 19.5726 12.4342 19.5726C12.4165 20.0182 12.3809 20.9462 12.3809 21.4078C12.3809 21.5983 12.3194 21.7214 12.2382 21.7964C12.156 21.8723 12.0476 21.9046 11.9444 21.9013C11.9307 21.9009 11.9032 21.9004 11.8738 21.8999C11.8346 21.8993 11.792 21.8986 11.7749 21.8978C11.6712 21.893 11.5704 21.8977 11.4827 21.9218C11.4191 21.9393 11.3607 21.9675 11.3135 22.0109C11.2029 21.9018 11.0246 21.8536 10.8421 21.862C10.825 21.8628 10.7782 21.8635 10.7347 21.8641C10.7011 21.8646 10.6695 21.865 10.6553 21.8655C10.4613 21.8716 10.2651 21.7111 10.2651 21.4078C10.2651 20.9036 10.2323 20.0572 10.2155 19.6228C10.2155 19.6228 10.2034 19.499 10.1914 19.4341Z" fill="#333333"/>
			<path d="M10.1726 19.3674C10.1775 19.388 10.1821 19.4107 10.1864 19.4339C10.1985 19.4988 10.2106 19.6226 10.2106 19.6226C10.2274 20.057 10.2602 20.9034 10.2602 21.4076C10.2602 21.7109 10.4564 21.8715 10.6504 21.8653C10.6646 21.8649 10.6962 21.8644 10.7297 21.8639C10.7732 21.8633 10.8201 21.8626 10.8372 21.8618C11.0197 21.8535 11.198 21.9016 11.3086 22.0107C11.3558 21.9673 11.4142 21.9391 11.4778 21.9216C11.5655 21.8975 11.6663 21.8928 11.77 21.8976C11.7871 21.8984 11.8296 21.8991 11.8689 21.8997C11.8983 21.9002 11.9258 21.9007 11.9395 21.9011C12.0427 21.9044 12.1511 21.8721 12.2333 21.7962C12.3145 21.7212 12.376 21.5981 12.376 21.4076C12.376 20.946 12.4116 20.018 12.4293 19.5724C12.4293 19.5724 12.4308 19.4873 12.4389 19.4343C12.4422 19.4129 12.4467 19.3901 12.4531 19.3674H10.1726Z" fill="#FFDD2D"/>
		</g>
		<path d="M20.7341 18.2336H18.0852V22.4648H19.3741V21.327H20.7341C21.0541 21.327 21.3652 21.3181 21.6674 21.2203C22.2541 21.0336 22.6897 20.5092 22.6897 19.7981C22.6897 19.087 22.263 18.5714 21.6852 18.367C21.3652 18.2514 21.063 18.2336 20.7341 18.2336ZM19.3741 20.3314V19.2559H20.5474C20.7963 19.2559 20.9385 19.2825 21.0541 19.327C21.2585 19.407 21.3563 19.5936 21.3563 19.7892C21.3563 20.0025 21.2408 20.207 21.0185 20.2781C20.9119 20.3136 20.7874 20.3314 20.5474 20.3314H19.3741Z" fill="white"/>
		<path d="M24.5372 20.9181L25.1506 19.2114H25.2483L25.8617 20.9181H24.5372ZM24.2172 21.8514H26.1728L26.4217 22.4648H27.8706L26.1372 18.2336H24.2528L22.5194 22.4648H23.9772L24.2172 21.8514Z" fill="white"/>
		<path d="M31.0078 18.2336L29.959 20.1625H29.9145L28.8567 18.2336H27.3545L29.2656 21.3448V22.4648H30.599V21.2381L32.4123 18.2336H31.0078Z" fill="white"/>
	</g>
	<defs>
		<clipPath id="clip0_52569_442193">
			<rect width="40" height="40" fill="white"/>
		</clipPath>
		<clipPath id="clip1_52569_442193">
			<rect width="9.48148" height="9.48148" fill="white" transform="translate(6.57178 15.6084)"/>
		</clipPath>
	</defs>
</svg>
