<svg width="40" height="40" fill="none" xmlns="http://www.w3.org/2000/svg"><path d="M40 20.004C40 31.054 31.052 40 20.006 40 8.96 40 0 31.053 0 20.004S8.959 0 20.006 0C31.052 0 40 8.955 40 20.004z" fill="#8B3FFD"/><path fill-rule="evenodd" clip-rule="evenodd" d="M14.117 19.994A10 10 0 0 1 24.137 10c5.517 0 10.083 4.502 10.02 10.02 0 5.517-4.503 10.02-10.02 10.02a10 10 0 0 1-10.02-9.994v7.457h-3.551L6 12.917h8.117v7.077zm6.278.026c0 2.029 1.713 3.741 3.742 3.741 2.093 0 3.741-1.712 3.741-3.741 0-2.03-1.712-3.742-3.741-3.742-2.03 0-3.742 1.712-3.742 3.742z" fill="#fff"/></svg>