<svg id="Слой_1" data-name="Слой 1" xmlns="http://www.w3.org/2000/svg" viewBox="0 0 313 316">
    <defs>
        <style>
            .cls-1 {
                fill: #3a241f;
            }
        </style>
    </defs>
    <path class="cls-1"
        d="M216.6,45.1c-.5,1.3-1.1,2.7-1.6,4l-.5,1.4-.3.7a5.74,5.74,0,0,1-1.9,2.2,8,8,0,0,1-4.9,1.6,15.71,15.71,0,0,1-5.7-1.2L183,46.4c1.6.1,3.4-.5,3.9-1.7l1.9-4.9,3.9-9.8,2.1-5.4c.9-2.5,4.4-11.7,2.1-13.6l9.9,3.9-.5,1.2-3.8,9.6.3-.5a11,11,0,0,1,2.1-2.2c.1-.1.3-.2.4-.3a12.43,12.43,0,0,1,5.2-2.1,11.64,11.64,0,0,1,6.1.6,8.37,8.37,0,0,1,2.4,1.4,5.27,5.27,0,0,1,1.9,4.8,2.93,2.93,0,0,1-.3,1,6.82,6.82,0,0,1-4.7,3.7,20.28,20.28,0,0,1-6.5.2l-2.5-.3c2.7,1.1,5.4,2.2,5.7,2.3a8.69,8.69,0,0,1,3.5,2.5,7,7,0,0,1,1,6.7ZM210,39.4a5.42,5.42,0,0,0-1-4.4,12.18,12.18,0,0,0-4.2-2.9,28.11,28.11,0,0,0-3.3-1.3l-.8-.3c-1.9,4.9-4.9,12.6-5.7,14.8a3.07,3.07,0,0,0,.1,2.8,9,9,0,0,0,.9,1,8.17,8.17,0,0,0,2,1.2,7.34,7.34,0,0,0,2,.5c2.1.3,4.7-.2,6.1-1.9a4.81,4.81,0,0,0,.8-1.6l.4-1.1a24.43,24.43,0,0,1,1-2.4l.6-1.4.3-.8.3-.6A9.83,9.83,0,0,0,210,39.4Zm-8.9-9.9,2.9,1.1a20.48,20.48,0,0,0,2.4.5c.2,0,.3.1.4.1a5.42,5.42,0,0,0,5-2.2c.2-.4.5-.8.7-1.2a4.14,4.14,0,0,0,.1-2.7,3.52,3.52,0,0,0-2.1-2.2.75.75,0,0,0-.5-.1,2.46,2.46,0,0,0-1.2-.1,6,6,0,0,0-2.3.6,8.68,8.68,0,0,0-3.1,2,4.62,4.62,0,0,0-.7.7l-.4.4Z" />
    <path class="cls-1"
        d="M257.5,86.8l-.6.5a8,8,0,0,1-2.1,1.5,7.75,7.75,0,0,1-6.8-.3,14.32,14.32,0,0,1-4.5-3.6L230,69.9c1.4.8,3.3,1.1,4.3.2l18.5-16.6,4.3-3.9c2-1.8,2-2.1.8-4.7l7.1,7.9,11.5,12.8-6,5.4s4.7-5.1,2.5-7.5l-8.9-9.9c-6.6,5.9-10.4,9.4-13.1,11.9.6.6,7.9,8.9,8.3,9.4a7.12,7.12,0,0,1,2,3.7,6.69,6.69,0,0,1-1.9,6.3Zm-3.2-8a4.18,4.18,0,0,0,1.1-1.8c1.1-2.9-.4-5.4-2.2-7.4l-2.3-2.5-.7-.8c-3.9,3.5-7.1,6.6-8.9,8.2a3.55,3.55,0,0,0-1.2,2.6,2.84,2.84,0,0,0,.4,1.3,8.58,8.58,0,0,0,1.3,2c2.1,2.3,5.4,3.6,8.3,2.1C250.7,82,253.8,79.3,254.3,78.8Z" />
    <path class="cls-1"
        d="M272.8,161.7l23.6-.5-.3-14.1-23.6.5c-1.6.1-1.8.6-2.5,3l-.1-6.4-.2-7.3c.8,2.4,1,2.9,2.7,2.9l31.8-.6c2.2-.1,2.2-.4,3.1-3l.3,13.7c-.9-2.6-1-2.9-3.2-2.9l-6.8.1.3,14.2,6.8-.1c2.2,0,2.2-.4,3.1-3l.3,13.7c-.9-2.6-1-2.9-3.2-2.9l-31.8.7c-1.6.1-1.8.6-2.5,3l-.3-13.7C270.9,161.2,271.1,161.6,272.8,161.7Z" />
    <path class="cls-1"
        d="M300.3,200l-10.5-3.2-3.6,11.8-7.6-2.3s7.2,1.5,8.1-1.5l2.5-8.1-.4-.1-1.3-.4-17.8-5.4-.3-.1-2.5-.8-2.5,8.1c-.9,3.1,5.4,5.6,5.4,5.6l-7.7-2.3,3.6-11.8v-.1l3-10c-.3,2.6,1.3,3.3,3.4,4l28.1,8.5c2.5.8,2.9.6,4.4-1.6l-3.1,10.1-3.6,11.8-7.7-2.3s6.7,1.4,7.6-1.7Z" />
    <path class="cls-1"
        d="M220.2,253.9l-.2-.2,6.8-6.1c.8-.7,1.7-1.1,2.4-.3.9.7,1.7,1.3,2.6,1.9a37.47,37.47,0,0,0,7.3,4.2,5.64,5.64,0,0,0,1.2.4c1,.3,2.1.7,3,.9,1.4.3,6.5.7,8.1.8a14.32,14.32,0,0,0,2.8-.2l1-.9-.9-1-12.5-13.8c-1.9-2.1-2.8-2.2-5.1-.5a3.88,3.88,0,0,1-1.1.6l11.2-10.2c-1.7,2-.6,3.5.9,5.1l19.6,21.7c1.7,1.9,2.1,2,4.6.9l-7.8,7-8.6-9.5a21,21,0,0,1-1.7,1.4,12.28,12.28,0,0,0-3.5,4.9,7.6,7.6,0,0,0,1.4,7.3,4.43,4.43,0,0,0,1.5,1.2,15,15,0,0,0,3.6,1.1l-2.7,2.4-2.8,2.5c-.3.3-.9.2-1.4.1a5.18,5.18,0,0,1-3-1.6,5.9,5.9,0,0,1-1.4-4c0-3.5,1.7-6.3,3.6-9.1.7-1,1.5-2,2.2-3l-.1.1a6.38,6.38,0,0,1-1.4.8,17,17,0,0,1-2.2.4,27.75,27.75,0,0,1-7.6.4,18.31,18.31,0,0,1-6.9-1.6c-3-1.3-5.4-3.8-8.5-4.6a10.86,10.86,0,0,0-2.5-.4A5.57,5.57,0,0,0,220.2,253.9Z" />
    <path class="cls-1"
        d="M139.5,272.2v-.3l9.1-.1c1.1,0,2,.3,2,1.3.2,1.1.4,2.1.7,3.2a36.85,36.85,0,0,0,2.7,7.9,10.91,10.91,0,0,0,.6,1.1,24.63,24.63,0,0,0,1.7,2.7c.9,1.2,4.4,4.8,5.5,6a11.16,11.16,0,0,0,2.3,1.7h1.4v-1.3l-.3-18.6c0-2.8-.7-3.5-3.5-3.8a3.45,3.45,0,0,1-1.3-.3l15.2-.2c-2.6.4-2.7,2.3-2.7,4.4l.5,29.2c0,2.6.3,2.9,2.8,3.7l-10.5.2-.2-12.8h-2.2a10.63,10.63,0,0,0-5.8,1.4,7.42,7.42,0,0,0-3.7,6.4,6.28,6.28,0,0,0,.3,1.9,15.5,15.5,0,0,0,2,3.2l-3.6.1-3.8.1c-.4,0-.8-.5-1.1-.8a5.1,5.1,0,0,1-1.2-3.2,6,6,0,0,1,1.6-4c2.3-2.6,5.5-3.6,8.7-4.5,1.2-.3,2.4-.5,3.6-.8h-.1a4.71,4.71,0,0,1-1.6-.4,11.78,11.78,0,0,1-1.9-1.1,30.36,30.36,0,0,1-6-4.7,23.33,23.33,0,0,1-4.2-5.7c-1.4-3-1.5-6.4-3.4-9.1a10,10,0,0,0-1.6-2A2.48,2.48,0,0,0,139.5,272.2Z" />
    <path class="cls-1"
        d="M78,259c.7-1.2,1.5-2.5,2.3-3.7l.8-1.3.4-.6a6.25,6.25,0,0,1,2.2-1.8,9,9,0,0,1,5.1-.8,15.79,15.79,0,0,1,5.4,2.2c.9.6,16.7,10.2,17.2,10.5-1.6-.4-3.4-.1-4.2,1l-2.7,4.5L99,278l-3,5c-1.4,2.3-6.4,10.8-4.4,13l-9.1-5.5.6-1.1,5.4-8.9-.4.4a10.77,10.77,0,0,1-2.4,1.8c-.2.1-.3.2-.5.3a13,13,0,0,1-5.5,1.2,11.14,11.14,0,0,1-5.9-1.6,12.39,12.39,0,0,1-2.2-1.8,5.09,5.09,0,0,1-1-5,10.37,10.37,0,0,1,.4-1,6.72,6.72,0,0,1,5.3-2.8,15.63,15.63,0,0,1,6.4,1,21.72,21.72,0,0,1,2.4.7c-2.5-1.5-5-3.1-5.3-3.3a8.11,8.11,0,0,1-3-3.1,7.14,7.14,0,0,1,.2-6.8Zm12.7,18-2.6-1.6c-.7-.3-1.5-.6-2.3-.9-.1,0-.3-.1-.4-.1a5.42,5.42,0,0,0-5.3,1.3c-.3.3-.6.7-.9,1a3.44,3.44,0,0,0-.5,2.6,3.78,3.78,0,0,0,1.7,2.6c.1.1.3.1.4.2a2.66,2.66,0,0,0,1.2.3,6.52,6.52,0,0,0,2.4-.2,8.47,8.47,0,0,0,3.4-1.4c.3-.2.5-.3.8-.5.1-.1.3-.2.4-.3Zm-7.2-11.3a5.45,5.45,0,0,0,.2,4.5,10.35,10.35,0,0,0,3.7,3.5c.2.2,2,1.3,3,1.9l.7.5c2.7-4.5,7-11.6,8.2-13.6a3.12,3.12,0,0,0,.4-2.8,7.46,7.46,0,0,0-.7-1.2,6.55,6.55,0,0,0-1.8-1.5,11.08,11.08,0,0,0-1.9-.9,6.46,6.46,0,0,0-6.3.9,4.86,4.86,0,0,0-1.1,1.4l-.6,1c-.4.7-.9,1.5-1.4,2.2l-.8,1.3-.4.7c-.1.2-.3.3-.4.5C84,264.7,83.7,265.2,83.5,265.7Z" />
    <path class="cls-1"
        d="M30.7,202.9c8.8-4.6,20.4-2.4,25.9,8.3.2.4.4.9.6,1.3a20.33,20.33,0,0,1,1.9,11.4,16.7,16.7,0,0,1-9,12.4,21.25,21.25,0,0,1-6.3,2.1,18.57,18.57,0,0,1-14.1-3,22.55,22.55,0,0,1-8.4-8.7,17,17,0,0,1-1.6-12.4,2.26,2.26,0,0,1,1.2-1.6c.3-.1.5-.3.8-.3,3.6-.8,7.1-1.8,10.9-2.4a5.24,5.24,0,0,0-1,1.1,22.52,22.52,0,0,0-6.2,9.8c-1.1,3.7-.9,7,.7,9.9a15,15,0,0,0,3.7,4.4,10.5,10.5,0,0,0,9.5-.6,29.49,29.49,0,0,0,4.3-2.9,16.36,16.36,0,0,0,4.5-20.5,17.78,17.78,0,0,0-2.6-3.7A13.65,13.65,0,0,0,29,204.8a7.46,7.46,0,0,0-1.2.7,16.44,16.44,0,0,1-2.2,1.4A17.7,17.7,0,0,1,30.7,202.9Z" />
    <path class="cls-1"
        d="M41.5,152.1h.3l.9,9.1c.1,1.1-.1,2-1.1,2.1l-3.1.9a35.37,35.37,0,0,0-7.7,3.4c-.4.2-.7.5-1.1.7-.8.6-1.8,1.2-2.6,1.9-1.1,1-4.4,4.8-5.5,6a11.26,11.26,0,0,0-1.5,2.4l.1,1.4,1.3-.1L40,178.1c2.8-.3,3.4-1,3.5-3.8a3.18,3.18,0,0,1,.2-1.3l1.5,15.1c-.6-2.5-2.5-2.6-4.6-2.3l-29.1,2.8c-2.6.3-2.9.5-3.5,3.1L7,181.3l12.8-1.2c-.1-.8-.1-1.5-.2-2.2a10.5,10.5,0,0,0-1.9-5.7A7.44,7.44,0,0,0,11,169a6.69,6.69,0,0,0-1.9.5A16.58,16.58,0,0,0,6,171.8L5.7,168l-.4-3.8A2.13,2.13,0,0,1,6,163a5,5,0,0,1,3.1-1.5,6.34,6.34,0,0,1,4.1,1.2c2.8,2.1,4.1,5.1,5.1,8.3.4,1.2.7,2.3,1.1,3.6v-.1a8.75,8.75,0,0,1,.2-1.6,7.5,7.5,0,0,1,1-2,30.08,30.08,0,0,1,4.2-6.3,20,20,0,0,1,5.4-4.6c2.8-1.7,6.2-2.1,8.8-4.1a10.71,10.71,0,0,0,1.9-1.8A2.52,2.52,0,0,0,41.5,152.1Z" />
    <path class="cls-1"
        d="M53.5,78.6a4.05,4.05,0,0,1,.9.5l.8.6c2.2,1.5,4.5,3,6.7,4.6A4.57,4.57,0,0,1,63.3,86a6.72,6.72,0,0,1,.4,2.4c0,3-1.5,5.9-3,8.4-.8,1.4-1.7,2.7-2.5,4.1L57,102.8,54.9,106l-.4-.3L50,102.8l1.7.7a4.37,4.37,0,0,0,5-1.3l.7-.9c.9-1.4,1.7-2.7,1.9-3A12,12,0,0,0,60.6,95a2.47,2.47,0,0,0-.8-2.3c-.6-.6-1.2-1.2-1.9-1.8A20.91,20.91,0,0,0,55,88.6c-.7-.4-1.4-.9-2.2-1.4A38.39,38.39,0,0,0,48.9,85a6.12,6.12,0,0,0-6.7.9l-.1.1A20.16,20.16,0,0,0,38,90.6l-1.9,2.9-.3-.2.6-.8,1.4-2.1a19.1,19.1,0,0,0,1.6-2.7,26.37,26.37,0,0,0,1-3,8.13,8.13,0,0,0,.2-3.1,6.6,6.6,0,0,0-1.2-2.7A8.64,8.64,0,0,0,38,77.6a5.93,5.93,0,0,0-2.8-1,7.48,7.48,0,0,0-6.7,2.8,5.07,5.07,0,0,0-.7,1.5,3.81,3.81,0,0,0,.1,1.5c.5,1.4,1.7,1.9,2.7,3a2.72,2.72,0,0,1,.8,1.7,2.54,2.54,0,0,1-.2,1.2c-.1.1-.5,1-.7,1.4l-.1.1-6.7-4.5c.1-.2,1.8-3,3.6-5.6.9-1.3,1.7-2.6,2.4-3.5a15.71,15.71,0,0,1,7-5.7,6.16,6.16,0,0,1,5.5.5,6,6,0,0,1,2.5,5.7,14,14,0,0,1-.8,3.4c-.5,1.3-1,2.5-1.6,3.7h0c.8-.9,1.8-1.9,2.8-2.9a14.63,14.63,0,0,1,2.8-2.1,6.7,6.7,0,0,1,1.8-.7A6.32,6.32,0,0,1,53.5,78.6Z" />
    <path class="cls-1"
        d="M98.5,58.4l.2.3-7.1,5.7c-.9.7-1.7,1-2.4.2s-1.6-1.4-2.5-2.1a36.8,36.8,0,0,0-7-4.6,6.12,6.12,0,0,0-1.2-.5c-1-.3-2-.8-3-1.1-1.4-.4-6.5-1.1-8-1.3a10.38,10.38,0,0,0-2.8.1l-1,.9.8,1L76.1,71.5c1.8,2.2,2.7,2.3,5.1.8a6.66,6.66,0,0,1,1.2-.6L70.6,81.2c1.8-1.9.8-3.5-.6-5.1L51.7,53.3c-1.6-2-2-2.1-4.5-1.2l8.2-6.6,8,10a20.28,20.28,0,0,1,1.8-1.3A11.66,11.66,0,0,0,69,49.5a7.49,7.49,0,0,0-1-7.4,8.64,8.64,0,0,0-1.4-1.3A14,14,0,0,0,63,39.5l2.8-2.3,3-2.4c.3-.2.9-.1,1.4-.1a5.16,5.16,0,0,1,2.9,1.8,5.73,5.73,0,0,1,1.2,4.1c-.4,3.6-2.3,6.4-4.3,9-.8,1-1.6,1.9-2.4,2.9l.1-.1a4.13,4.13,0,0,1,1.5-.7,16.6,16.6,0,0,1,2.2-.3,32.2,32.2,0,0,1,7.6,0,19.81,19.81,0,0,1,6.8,2c2.9,1.4,5.1,4.1,8.3,5.1a10.15,10.15,0,0,0,2.5.6A2.49,2.49,0,0,0,98.5,58.4Z" />
    <path class="cls-1"
        d="M102.3,18.3l3.8,10.2,11.5-4.3,2.8,7.5s-3.1-6.6-6.2-5.5l-7.9,3,.2.4.5,1.3,6.5,17.4.1.3.9,2.4,7.9-3c3-1.1,1.2-7.7,1.2-7.7l2.8,7.5L115,52.2h-.1l-9.8,3.7c2.3-1.3,1.8-3.1,1.1-5.1L96,23.4c-.9-2.4-1.3-2.7-3.9-2.5l9.8-3.7,11.5-4.3,2.8,7.5s-3-6.1-6-5Z" />
    <path class="cls-1"
        d="M166.8,24.1h-.2a10.29,10.29,0,0,1-10-10.3,10.36,10.36,0,0,1-10,10.3h.2a10.29,10.29,0,0,1,10,10.3,10.36,10.36,0,0,1,10-10.3Z" />
    <path class="cls-1"
        d="M269.6,128.7c1-.7,23.3-20,29.7-25.7a2.85,2.85,0,0,0,.9-1.7l-3.8-11.1-.5.1h0a6.89,6.89,0,0,1-2.5,7.2,6.12,6.12,0,0,1-.6.5,2,2,0,0,1-1.3-.1,18.89,18.89,0,0,1-2.5-1.1c-1.2-.6-2.3-1-3.3-1.4l-4.9-2c-1.1-.4-2.5-.9-4.4-1.4a24.51,24.51,0,0,0-5.4-1,10.38,10.38,0,0,0-4.6.5,14.4,14.4,0,0,0-4.2,2.3,9.55,9.55,0,0,0-3,3.9,7.45,7.45,0,0,0,0,5.3c1.8,5.2,9.9,8,18.4,8l-.6.5c-2.9,2.6-6.3,5.6-7.7,6.8a5.67,5.67,0,0,1-1.8,1.2.6.6,0,0,0-.4.1,2.77,2.77,0,0,1-2.3-1.3l-.3.3,4,11.6.4-.1C268.8,129.6,268.9,129.2,269.6,128.7Zm-.3-25.2a4.21,4.21,0,0,1,.2-4.1,6.14,6.14,0,0,1,3.4-2.1c5.5-1.5,13.8.5,19.1,1.6h.1c-1.3,1.1-3.4,2.8-5.3,4.4l-8.1,6.9C275.8,109.7,270.4,106.5,269.3,103.5Z" />
    <path class="cls-1"
        d="M185.4,270.5c.7.9,20.4,21.8,26.2,27.8.3.3,1.4.9,1.7.8l10.6-4.1-.1-.5h0a6.77,6.77,0,0,1-7.1-2.1l-.5-.5a2.85,2.85,0,0,1,0-1.3,26,26,0,0,1,1-2.5c.5-1.2.9-2.3,1.3-3.3.8-2.2,1.4-3.8,1.8-4.9a34.89,34.89,0,0,0,1.2-4.3,30.79,30.79,0,0,0,.8-5.3,10.93,10.93,0,0,0-.6-4.4,14.13,14.13,0,0,0-2.4-3.9,8.88,8.88,0,0,0-3.9-2.7,6.71,6.71,0,0,0-5.2.3c-5,2-7.3,10-7,18.2l-.5-.6c-2.6-2.7-5.7-5.9-6.9-7.2a10.92,10.92,0,0,1-1.3-1.7.76.76,0,0,0-.1-.4,2.68,2.68,0,0,1,1.2-2.3l-.3-.2-11.1,4.3.1.4C184.5,269.8,184.9,269.9,185.4,270.5Zm24.5-1.3a4.33,4.33,0,0,1,4,0,5.51,5.51,0,0,1,2.2,3.2c1.7,5.3.1,13.4-.7,18.6v.1c-1.1-1.2-2.9-3.2-4.5-4.9l-7.1-7.5C204.2,275.8,207,270.4,209.9,269.2Z" />
    <path class="cls-1"
        d="M49.8,113.2c-1.2,0-29.7,2.7-38.1,3.6-.5.1-1.6.5-1.7.8L6.8,128.5l.5.2h0a6.75,6.75,0,0,1,6.1-4.3,3.2,3.2,0,0,0,.7-.1,2,2,0,0,1,1,.8,17.61,17.61,0,0,1,1.4,2.3q.9,1.65,1.8,3c1.2,2,2.2,3.5,2.8,4.4s1.5,2.1,2.7,3.6a22.18,22.18,0,0,0,3.7,3.8,11.58,11.58,0,0,0,3.9,2.2,14.15,14.15,0,0,0,4.6.5,10.72,10.72,0,0,0,4.6-1.4,7,7,0,0,0,3-4.3c1.5-5.1-3.4-11.9-10.1-16.7l.8-.1c3.7-.4,8.1-.9,9.9-1a5,5,0,0,1,2.1.1c.1,0,.2.1.4.2a2.84,2.84,0,0,1,1.1,2.3H48l3.4-11.4-.4-.1C50.9,112.9,50.5,113.2,49.8,113.2Zm-14,20.1a4.21,4.21,0,0,1-2.5,3.2,5.79,5.79,0,0,1-3.9-.2c-5.2-1.9-10.7-8.2-14.2-12h-.1c1.7-.1,4.3-.3,6.6-.5l10.3-.9C34.1,124.8,36.6,130.3,35.8,133.3Z" />
</svg>