<svg width="78" height="229" viewBox="0 0 78 229" fill="none" xmlns="http://www.w3.org/2000/svg">
<g clip-path="url(#clip0_1710_14651)">
<path opacity="0.36" d="M75.787 40.6084C72.6103 39.8465 69.8874 37.5608 68.6016 34.5895C67.5427 37.5608 68.3747 41.1417 70.5682 43.4273C72.7616 45.713 76.3165 46.4749 79.3419 45.4844C82.2917 44.4178 84.5608 41.5988 84.939 38.3989C82.443 40.456 78.9637 41.294 75.787 40.6084Z" fill="white"/>
<path opacity="0.36" d="M23.2961 135.844C25.4139 133.71 26.3972 130.358 25.7921 127.387C25.4139 125.711 24.5819 124.187 24.2794 122.511C23.9012 120.835 24.1281 117.787 25.3383 116.644C22.4641 117.787 19.3631 119.235 18.2285 122.13C17.4722 124.111 17.8503 126.32 18.3042 128.377C18.758 130.434 19.2874 132.568 18.8336 134.701C18.3798 136.758 16.4133 138.663 14.3711 138.282C17.3209 138.967 21.1783 138.053 23.2961 135.844Z" fill="white"/>
<path opacity="0.36" d="M171.695 132.415C170.258 131.958 168.669 131.806 167.308 132.415C165.946 133.025 164.963 134.701 165.568 136.072C166.476 135.158 167.535 134.396 168.745 134.168C169.955 133.939 171.392 134.396 171.997 135.463C172.602 136.453 172.375 137.748 171.77 138.663C171.09 139.577 170.031 140.186 168.896 140.415C165.644 141.177 162.013 139.044 160.954 135.844C160.501 134.472 160.501 132.949 159.971 131.577C159.064 129.368 156.794 127.996 154.45 127.311C151.727 126.473 148.853 126.473 146.13 125.482C145.449 125.254 144.844 124.873 144.315 124.339C142.575 122.435 143.785 120.606 144.315 118.701C144.92 116.492 144.39 114.054 142.953 112.225C141.516 110.473 139.171 109.483 136.902 109.635C137.961 109.787 139.02 110.549 139.247 111.616C139.323 111.921 139.323 112.225 139.247 112.606C138.112 111.006 136.146 109.94 134.179 109.94C135.314 107.349 137.583 105.216 140.306 104.454C143.029 103.692 146.054 104.226 148.399 105.825C149.836 106.816 150.971 108.264 152.256 109.33C153.618 110.473 155.282 111.387 157.021 111.082C158.458 110.854 159.593 109.94 160.728 109.102C161.862 108.264 163.224 107.425 164.661 107.578C166.098 107.73 167.383 109.254 166.778 110.549C167.535 109.178 167.459 107.425 166.627 106.13C165.795 104.835 164.207 104.073 162.694 104.149C160.501 104.302 158.458 106.13 156.341 105.521C154.298 104.835 153.693 101.94 154.904 100.111C156.114 98.359 158.458 97.5972 160.576 97.7495C165.341 98.0543 163.602 79.312 154.525 81.6738C151.803 82.3595 148.248 83.6547 145.979 82.0547C148.399 80.9119 150.063 78.3977 150.214 75.7311C149.231 78.0168 146.432 79.2358 144.088 78.4739C142.499 77.9406 141.214 76.6454 139.55 76.1882C138.037 75.8073 136.448 76.3406 135.011 77.0263C133.196 77.9406 131.457 79.2358 130.095 80.7595C130.095 80.2262 130.019 79.6167 130.019 79.0834C129.944 77.3311 129.944 75.4264 130.851 73.9788C131.986 72.2265 134.179 71.4646 135.314 69.7122C136.978 67.1218 135.163 63.0839 132.062 62.7029C133.499 61.5601 135.616 62.0934 137.054 63.2362C138.491 64.3029 139.625 65.8266 141.138 66.8171C143.634 68.3408 147.189 68.0361 149.307 65.979C151.122 64.3029 151.878 61.7125 153.542 59.8839C153.996 59.4268 154.45 59.0459 154.979 58.7411L152.029 55.6936C150.441 56.4555 148.853 57.1412 147.113 57.5221C144.239 58.2078 140.76 57.7507 139.171 54.9317C138.188 53.2556 138.491 51.0461 140.079 49.9033C141.743 48.6081 144.012 49.2938 145.827 50.208C146.357 50.5128 146.962 50.8175 147.567 51.0461C133.347 37.637 132.44 55.3126 132.44 55.3126C127.675 55.3126 126.162 52.9508 126.162 50.7414C126.162 48.5319 130.095 38.0179 122.38 28.7229C114.665 19.3518 108.009 24.5326 108.009 24.5326C108.388 16.3804 103.396 10.6663 103.396 10.6663C101.429 9.37111 100.673 8.53304 96.891 9.29492C93.0336 9.98061 89.403 16.6852 89.403 16.6852C87.6634 21.9422 87.4365 27.9611 78.2846 27.8849C87.3609 35.8846 94.5463 18.5899 93.2605 32.9895C100.37 32.6847 101.732 24.6088 95.4539 17.6756C100.748 18.6661 101.807 24.0754 102.185 27.6563C102.564 31.0848 103.774 34.3609 105.74 37.1798C106.875 38.7798 108.312 40.2274 110.127 40.7607C112.018 41.2178 114.287 40.3797 114.817 38.475C113.228 38.7036 111.489 38.6274 110.052 37.8655C108.615 37.1036 107.556 35.5037 107.783 33.9037C108.009 32.4562 109.22 31.2372 110.657 30.78C112.094 30.3991 113.606 30.7038 114.968 31.3133C118.901 33.218 120.943 38.3227 119.43 42.4368C118.75 44.2653 117.54 45.7891 117.01 47.6176C116.178 50.6652 117.388 53.8651 119.128 56.4555C121.17 59.4268 124.044 61.7887 126.011 64.8362C126.616 65.8266 127.07 66.8933 127.07 68.0361C127.145 71.0836 124.498 71.9979 122.531 73.4455C120.792 74.7407 119.582 76.7216 119.052 78.8548C116.859 77.8644 114.59 77.1025 112.396 76.0359C109.522 74.5883 106.875 72.3026 106.043 69.1789C105.589 67.4266 105.892 65.2933 107.329 64.3029C108.463 63.4648 110.354 63.9981 110.959 65.1409C110.278 62.8553 108.085 61.103 105.665 61.0268C101.353 60.9506 97.6473 65.8266 93.4874 64.6076C89.5543 63.541 88.6467 57.9792 85.0162 56.0745C82.8984 54.9317 80.2511 55.3888 77.9064 55.9983C75.5617 56.6078 73.1413 57.3697 70.7966 56.7602C68.4519 56.1507 65.729 53.3318 66.6367 51.1223C64.9727 52.3413 65.3509 55.0841 66.788 56.5317C68.225 57.9792 70.2672 58.5887 72.1581 59.3506C74.049 60.1125 76.0155 61.103 76.8475 63.0077C77.982 65.7504 75.8642 69.0265 73.0657 69.9408C70.2672 70.8551 67.1661 70.017 64.5945 68.7218C61.9473 67.4266 59.5269 65.5981 56.804 64.5314C52.039 62.5505 46.4419 62.8553 41.9038 65.3695C37.3657 67.8075 34.0377 72.3788 32.9788 77.4073C31.8442 83.0452 33.357 89.5974 29.8777 94.2449C28.0625 96.6829 25.1127 98.0543 22.1629 99.0447C19.2131 99.959 16.1877 100.568 13.3891 101.864C10.5906 103.235 8.09463 105.521 7.41391 108.492C6.73318 111.54 8.32153 114.968 11.347 115.349C9.53171 114.206 9.07789 111.463 10.1368 109.559C11.1957 107.654 13.3135 106.587 15.5069 106.359C17.6247 106.13 19.8182 106.664 21.8603 107.273C23.9025 107.883 26.0203 108.568 28.1381 108.797C34.2646 109.406 40.4667 105.216 42.3576 99.3495C43.4165 96.0734 43.1896 92.4925 43.946 89.1403C44.6267 86.3213 46.0638 83.6547 48.4085 81.9786C50.7532 80.3024 54.0812 79.9977 56.4259 81.5214C58.8462 83.1214 59.7538 86.7022 58.0142 89.0641C56.4259 91.1973 53.3248 91.5783 51.207 93.1782C48.2572 95.3877 47.6521 100.035 49.9212 102.93C51.8877 105.368 54.9888 105.673 57.5604 104.226C56.6528 104.378 55.6695 103.997 55.1401 103.235C54.3081 102.016 54.535 100.264 55.2157 98.9685C56.7284 95.921 60.8884 94.1687 63.6869 96.1496C65.3509 97.2924 66.1072 99.5019 65.8047 101.559C65.5778 103.54 64.4432 105.368 63.0062 106.816C60.5102 109.254 57.1066 110.625 53.703 111.616C50.2994 112.606 46.8201 113.292 43.6434 114.816C40.4667 116.263 37.4413 118.701 36.2311 121.977C35.021 125.254 35.3991 128.911 38.5002 130.663C38.2733 127.768 39.5591 124.796 41.9038 123.12C44.1729 121.368 47.4252 120.987 50.0725 122.054C52.2659 122.968 54.0055 124.72 56.1233 125.787C59.5269 127.539 63.8382 127.387 67.0905 125.33C69.3596 123.882 71.0992 121.673 72.6875 119.463C74.3515 117.254 76.0155 115.044 78.2846 113.597C80.5537 112.149 83.6547 111.616 85.9994 112.987C87.6634 113.978 88.7223 115.806 89.1005 117.711C89.4787 119.616 89.3274 121.596 88.9492 123.501C88.4198 126.396 86.9827 129.596 84.1085 130.13C82.5202 130.434 80.9318 129.749 79.3435 130.053C76.545 130.51 74.8053 134.244 76.3181 136.682C76.6206 134.777 78.9653 133.558 80.7049 134.32C83.806 135.691 82.2176 141.024 80.478 142.929C78.5871 145.062 75.1835 145.52 72.6875 144.148C70.1916 142.777 68.7545 139.805 68.9814 136.91C66.4854 139.501 66.4098 143.843 68.1494 146.967C69.889 150.091 73.1413 152.224 76.545 153.291C79.0409 154.053 81.6882 154.434 83.806 155.881C85.9994 157.329 87.5121 159.995 87.2852 162.586C87.0583 165.252 84.7893 167.614 82.142 167.69C79.4948 167.767 77.0744 165.024 77.6795 162.433C75.6373 164.186 76.0911 167.767 77.9064 169.747C79.7217 171.728 82.5202 172.566 85.1674 173.176C87.8147 173.785 90.6132 174.243 92.8066 175.766C95.4539 177.519 96.9666 180.566 97.723 183.69C98.4793 186.814 104.379 192.223 105.513 191.156C102.185 183.918 107.48 180.795 110.959 177.062C112.85 175.004 115.27 173.481 117.464 171.881C119.657 170.205 121.851 168.3 122.985 165.709C124.195 163.195 124.195 159.919 122.38 157.786L122.305 157.71C129.339 157.786 136.07 161.748 133.196 167.767C132.894 168.452 132.742 169.138 132.818 169.9C133.196 173.024 136.902 169.138 136.297 172.947C138.944 172.566 136.6 165.633 140.306 169.824C144.163 174.166 148.096 162.433 151.424 170.281C151.651 170.205 151.803 170.052 151.954 169.976L152.332 169.595C153.391 168.3 153.466 165.709 152.937 164.11C152.029 161.595 148.853 160.529 147.718 158.091C146.584 155.653 147.794 152.757 149.533 150.7C150.29 149.786 151.197 148.948 152.408 148.643C153.542 148.339 154.979 148.872 155.357 149.939C155.736 151.081 153.164 153.824 152.332 153.215C154.147 155.957 156.341 151.843 157.475 150.929C158.61 150.015 159.669 148.948 161.106 148.796C163.602 148.643 165.493 151.158 167.837 151.538C173.813 152.453 175.628 147.577 176.46 146.205C179.636 138.053 174.569 133.253 171.695 132.415ZM104.908 150.167C102.412 153.215 101.202 157.1 100.824 161.062C100.521 165.024 100.975 168.909 101.429 172.871C98.6306 168.452 97.3448 162.814 98.1011 157.634C98.4037 155.424 99.0844 153.138 98.4793 151.005C97.9499 149.253 96.6641 147.881 95.3783 146.662C94.0925 145.443 92.731 144.148 91.899 142.548C91.1427 140.948 90.6888 138.815 91.9746 137.52C92.4285 138.967 93.4117 140.339 94.8488 140.72C96.2859 141.177 98.1011 140.415 98.4793 138.967C98.9331 137.444 97.7986 135.844 96.5128 134.777C95.3026 133.71 93.7899 132.72 93.3361 131.196C92.2772 127.539 97.4961 124.644 97.2692 120.835C97.1935 118.93 95.7564 117.482 94.6219 116.035C93.4874 114.587 92.4285 112.682 93.0336 110.93C92.5041 112.378 94.395 113.901 95.8321 113.368C97.2691 112.835 97.9499 111.006 97.5717 109.483C97.2691 107.959 96.1346 106.74 95.0001 105.749C92.3528 103.464 88.6467 101.788 85.47 103.235C82.2933 104.683 80.8562 108.797 77.5282 109.94C75.0322 110.778 71.9312 109.33 70.9479 106.816C73.6708 107.045 77.15 106.892 78.2846 104.378C79.4948 101.635 76.9988 98.8162 76.0155 95.9972C75.3348 94.0163 75.4104 91.8068 74.9566 89.7498C74.4272 87.6927 72.9901 85.5594 70.8723 85.4832C69.4352 85.407 68.225 86.2451 66.9392 86.8546C65.6534 87.4641 63.9894 87.6165 63.0062 86.626C65.5778 85.0261 65.1996 80.9119 63.0062 78.7786C60.8884 76.6454 57.7117 76.0359 54.7619 75.5025C57.5604 73.5217 61.3422 73.674 64.5189 74.893C67.6956 76.1121 70.3428 78.3215 72.9901 80.4548C74.6541 81.8262 76.545 83.1976 78.7384 83.1976C81.9907 83.2738 84.5623 80.0739 85.0918 76.7978C85.5456 73.5217 84.4867 70.2456 83.3522 67.198C87.2096 68.1885 89.6299 72.3788 89.7812 76.3406C89.8568 78.4739 89.403 80.6072 89.0249 82.6643C88.6467 84.7975 88.2685 86.9308 88.4954 88.9879C88.7223 91.1212 89.6299 93.2544 91.2939 94.5496C92.9579 95.8448 95.5295 96.0734 97.1935 94.702C98.8575 93.3306 98.9331 90.3593 97.1935 89.2164C98.1011 87.5403 100.748 87.9212 101.883 89.3688C103.017 90.8164 103.244 92.7973 103.623 94.6258C104.001 96.4543 104.757 98.4352 106.421 99.1971C108.69 100.188 111.489 98.0543 111.791 95.5401C112.094 93.0259 110.581 90.664 108.615 89.0641C106.648 87.4641 104.303 86.4737 102.185 85.1785C100.068 83.8833 97.9499 82.1309 97.1935 79.7691C96.4372 77.4073 97.3448 74.2835 99.7651 73.4455C99.0088 77.6358 102.412 82.0547 106.572 82.5119C108.993 82.7404 111.489 81.8262 113.909 82.2071C116.783 82.6643 119.204 85.2547 119.582 88.226C119.809 90.0545 119.279 91.8068 119.279 93.6354C119.279 95.4639 120.187 97.521 121.926 97.9019C120.338 95.2353 122.456 91.2735 125.481 91.045C127.523 90.8926 129.49 92.1878 131.532 91.9592C133.272 91.8068 134.784 90.664 136.07 89.5212C137.356 88.3784 138.718 87.0832 140.382 86.626C142.046 86.1689 144.541 87.007 145.147 88.6831C144.012 87.8451 142.197 88.9879 142.272 90.4355C142.348 91.883 144.012 92.8735 145.373 92.4925C146.735 92.1878 147.718 90.8926 148.021 89.445C148.172 92.4164 146.811 95.3877 144.541 97.2924C142.272 99.1209 139.02 99.8066 136.222 98.9685C134.482 98.4352 132.667 97.4448 130.927 97.8257C128.734 98.2828 127.523 100.645 126.918 102.854C126.086 105.902 125.859 109.025 124.952 112.073C124.044 115.044 122.153 118.016 119.279 119.158C117.54 119.844 115.497 119.844 113.682 120.377C109.522 121.673 106.724 126.396 107.631 130.739C107.934 132.187 108.615 133.634 109.825 134.472C111.035 135.387 112.699 135.615 113.985 134.853C115.422 134.015 115.951 132.187 115.724 130.587C115.422 128.987 114.438 127.539 113.304 126.396C115.119 125.711 117.237 127.006 117.993 128.758C118.75 130.51 118.447 132.644 117.918 134.472C116.934 137.748 115.044 140.72 112.623 143.082C110.354 145.672 107.177 147.424 104.908 150.167ZM144.92 141.329C144.541 142.929 142.877 143.615 141.365 143.92C140.003 144.224 138.491 144.377 137.356 145.291C136.297 146.205 135.995 148.262 137.28 148.948C138.188 147.577 140.457 147.653 141.516 148.872C142.575 150.091 142.424 152.072 141.44 153.443C140.457 154.738 138.869 155.5 137.28 155.729C135.692 155.957 134.028 155.653 132.44 155.424C133.801 147.881 124.347 156.415 124.574 150.319C121.548 150.472 109.749 154.434 113.228 160.452C114.665 159.31 116.405 158.548 118.296 158.091C120.187 160.148 118.523 163.805 116.102 164.567C114.665 165.024 113.077 164.795 111.791 164.033C108.615 162.205 107.631 157.71 108.766 154.205C109.9 150.7 112.774 147.958 115.724 145.748C118.674 143.539 121.926 141.71 124.498 139.044C127.07 136.453 129.036 132.796 128.582 129.139C128.355 127.006 127.297 125.101 126.616 123.12C125.935 121.139 125.481 118.854 126.389 116.949C127.523 114.587 130.7 113.597 132.969 114.816C135.238 116.035 136.07 119.311 134.709 121.596C135.995 121.52 137.205 120.987 138.188 120.149C138.566 120.758 138.869 121.444 138.944 122.206C139.096 123.806 138.188 125.33 138.264 126.93C138.491 129.291 141.516 130.815 143.558 129.596C143.256 130.968 141.667 131.653 140.306 131.653C138.944 131.73 137.507 131.272 136.146 131.501C133.877 131.806 131.986 133.71 131.608 135.92C131.305 137.825 132.062 139.729 131.91 141.634C131.608 144.91 128.28 147.5 125.103 147.043C125.708 148.872 128.129 149.558 129.944 148.948C131.759 148.339 133.045 146.662 134.028 144.986C135.011 143.31 135.692 141.482 136.902 139.958C138.264 138.206 140.533 136.834 142.802 137.672C144.315 138.282 145.298 139.882 144.92 141.329Z" fill="white"/>
</g>
<defs>
<clipPath id="clip0_1710_14651">
<rect width="348" height="228.108" fill="white"/>
</clipPath>
</defs>
</svg>
