<svg width="116" height="201" viewBox="0 0 116 201" fill="none" xmlns="http://www.w3.org/2000/svg">
<path opacity="0.36" d="M104.711 127.076C100.47 127.076 95.9795 123.333 96.9774 119.215C94.9816 119.09 93.5471 121.024 92.7986 122.896C92.0502 124.767 91.6759 126.826 90.1791 128.136C87.9961 130.132 84.3786 129.446 81.8838 127.887C79.3266 126.327 77.2684 124.019 74.6488 122.709C70.9066 120.9 65.5428 120.588 64.1083 116.657C62.7985 113.039 66.1041 109.421 69.0979 106.988C65.6675 105.366 61.1145 106.988 59.4305 110.357C57.2475 114.786 59.8671 120.276 58.1207 124.892C56.4367 129.508 51.0105 131.567 46.0832 131.879C43.9003 132.004 41.5926 131.879 39.7838 130.694C37.9751 129.508 36.79 127.076 37.7256 125.079C38.6611 123.145 42.0291 122.771 42.9023 124.705C41.842 122.272 38.9106 121.461 36.2911 121.149C33.6715 120.837 30.8025 120.712 28.869 118.966C24.9397 115.41 27.3097 107.362 22.632 104.742C20.6361 103.619 18.2037 104.118 15.896 104.306C13.6506 104.493 10.9063 104.118 9.84604 102.06C8.84811 100.188 9.90841 97.6928 11.7795 96.6947C13.6506 95.6966 15.9583 96.0709 17.8294 97.069C17.7671 94.5113 15.2723 92.8269 12.9022 91.9536C10.5321 91.1426 7.91256 91.2673 5.35538 91.3297C2.79819 91.3921 0.178633 91.2673 -2.0667 90.082C-4.811 88.5848 -6.43263 85.6528 -8.24137 83.0951C-12.5449 77.1686 -19.468 72.8642 -26.6406 71.2422C-22.2747 74.6733 -17.9088 78.1044 -14.416 82.3465C-10.8609 86.5886 -8.179 91.704 -7.7424 97.2562C-7.36818 102.247 -8.8027 107.175 -8.92744 112.166C-9.05218 116.969 -7.92952 121.773 -5.74655 126.015C-4.49915 128.448 -2.75277 130.756 -0.195589 131.817C2.29922 132.815 5.7296 132.004 6.78989 129.509C4.48219 129.509 2.11211 129.072 0.241001 127.762C-1.63011 126.452 -2.81515 124.019 -2.25381 121.835C-1.69248 119.839 0.241003 118.404 2.29922 118.092C4.35745 117.78 6.47804 118.529 8.22441 119.652C13.3388 123.021 15.2723 130.507 12.4032 135.934C11.1558 138.305 9.15997 140.238 8.0373 142.734C6.29093 146.789 7.35123 151.53 9.40945 155.46C11.4053 159.39 14.3367 162.759 16.5197 166.627C18.0789 169.372 19.2016 172.928 17.4552 175.61C16.0207 177.793 13.2764 178.48 10.9687 179.727C7.35123 181.724 4.73167 185.591 4.29508 189.709C3.79611 193.826 5.41774 198.193 8.53626 201C7.4136 199.378 7.10175 197.07 8.16204 195.386C9.22234 193.701 11.8419 193.077 13.3388 194.387C14.8357 195.698 14.1496 198.754 12.2161 199.004C14.4614 200.064 17.8294 198.442 19.0145 196.321C20.1995 194.2 20.3243 191.58 20.5114 189.147C20.6985 186.714 21.0727 184.094 22.6943 182.223C24.5654 180.039 27.8087 179.291 29.7422 177.107C32.5489 173.863 30.7401 167.812 26.5613 166.752C28.7443 165.441 31.6133 166.627 33.422 168.373C35.2308 170.183 36.4782 172.491 38.474 174.113C41.7173 176.733 46.7069 176.92 50.0749 174.487C52.8816 172.491 54.4408 169.06 57.1851 166.876C61.8006 163.133 69.5345 164.194 72.9648 169.122C74.5241 165.941 72.4659 161.886 69.285 160.326C66.1041 158.704 62.3619 159.078 58.9315 159.889C55.5011 160.763 52.1955 162.073 48.6404 162.447C45.1477 162.821 41.2183 161.948 39.0354 159.141C36.8524 156.333 37.4761 151.468 40.7194 150.157C43.1518 149.222 45.8961 150.407 48.0791 151.904C50.262 153.401 52.3826 155.148 55.0022 155.398C57.6217 155.647 60.6155 153.401 59.8671 150.844C56.9357 151.343 54.129 148.286 54.4408 145.292C54.7527 142.297 57.497 139.989 60.4908 139.552C63.4222 139.116 66.4783 140.363 68.786 142.235C71.0937 144.106 72.9025 146.602 74.5241 149.035C76.2081 151.53 77.8921 154.025 80.0751 156.084C84.1915 159.952 90.7404 161.636 95.5429 158.829C91.3641 156.833 87.0605 154.711 84.3163 150.968C81.572 147.288 81.0106 141.486 84.3163 138.305C86.4992 136.184 89.8048 135.684 92.7986 135.373C97.5388 134.811 102.404 134.374 106.832 132.503C111.198 130.569 115.19 126.888 116 122.21C112.695 124.58 108.953 127.076 104.711 127.076ZM44.3368 147.225C41.5302 143.857 35.9169 143.358 32.6112 146.227C29.3056 149.097 28.9937 154.774 31.9251 158.018C29.4927 158.08 28.2453 155.211 27.5592 152.902C26.8731 150.594 25.4386 147.725 23.0062 147.974C21.4469 148.099 20.3243 149.721 20.0748 151.28C19.8877 152.84 20.3243 154.4 20.8232 155.897C17.6423 155.335 15.5217 152.029 15.397 148.785C15.2099 145.603 16.582 142.484 17.9542 139.615C19.3887 136.745 20.948 133.813 21.3222 130.631C21.6964 127.45 20.5737 123.832 17.7671 122.272C20.7609 122.272 23.0062 124.954 24.2536 127.637C25.501 130.319 26.1871 133.376 28.2453 135.56C30.6154 138.117 34.1705 138.928 37.4137 140.238C40.657 141.486 44.025 143.794 44.3368 147.225ZM63.1727 132.441C62.2995 135.061 59.8671 137.119 57.1228 137.431C54.3785 137.806 51.5094 136.433 50.0126 134.125C52.7569 134.811 55.813 134.125 57.996 132.316C60.1789 130.507 61.4887 127.637 61.3016 124.83C63.2974 126.701 64.0459 129.82 63.1727 132.441Z" fill="#CEC1A3"/>
<path opacity="0.36" d="M43.4642 84.9662C41.0941 83.1571 39.9091 80.2874 38.2251 77.7921C36.5411 75.3591 33.8591 73.0509 30.9277 73.55C33.9839 74.6105 35.6679 77.9792 35.7926 81.2232C35.9174 84.4671 34.8571 87.5863 33.9215 90.6431C32.986 93.6999 32.1751 97.0062 32.8612 100.125C33.5473 103.245 36.1668 106.239 39.3477 106.239C38.5993 104.804 37.9132 103.369 37.8508 101.81C37.7885 100.25 38.6617 98.5035 40.2209 98.0668C42.591 97.4429 44.4621 100.001 45.46 102.184C46.5203 104.368 48.2043 106.988 50.6368 106.551C47.2064 103.868 46.5827 98.1915 49.3894 94.8228C52.196 91.4541 57.8094 91.0174 61.115 93.8871C60.2418 90.5184 56.4996 88.834 53.1316 88.0854C49.8883 87.3368 46.2085 87.0873 43.4642 84.9662Z" fill="#CEC1A3"/>
<path opacity="0.36" d="M45.7708 187.899C42.9641 188.336 39.9703 187.4 37.9121 185.466C38.0369 188.211 39.908 190.831 42.4028 191.892C44.96 192.952 48.0785 192.453 50.1367 190.582C52.1949 188.772 53.0681 185.716 52.3197 183.033C51.1346 185.529 48.5774 187.4 45.7708 187.899Z" fill="#CEC1A3"/>
<path opacity="0.36" d="M74.9595 82.2217C70.9055 83.5942 66.3524 81.4107 63.2963 78.4163C60.2401 75.4219 58.0572 71.5541 54.9386 68.5597C51.8825 65.5653 47.3918 63.3195 43.2754 64.6919C46.7058 64.2552 50.0738 66.2515 52.4438 68.8092C54.8139 71.367 56.3732 74.5485 58.2443 77.4806C60.1154 80.4126 62.4231 83.2199 65.6664 84.5299C68.8472 85.7776 73.0884 85.1537 74.9595 82.2217Z" fill="#CEC1A3"/>
<path opacity="0.36" d="M84.8159 108.859C87.3731 109.483 90.3045 108.734 92.238 106.925C93.2983 105.927 94.1091 104.617 95.1694 103.557C96.2297 102.558 98.5998 101.311 100.034 101.747C97.9137 100.125 95.4189 98.3787 92.737 98.8778C90.9282 99.1897 89.4314 100.5 88.1216 101.747C86.8118 102.995 85.4396 104.368 83.6309 104.929C81.8845 105.49 79.5768 104.867 78.9531 103.182C79.8263 105.74 82.2588 108.235 84.8159 108.859Z" fill="#CEC1A3"/>
<path opacity="0.36" d="M21.0107 84.0307C19.3267 83.4069 18.204 81.8473 17.705 80.1006C17.2061 78.4162 17.3308 76.5447 17.5179 74.798C17.705 73.0512 18.0169 71.2421 17.8921 69.4954C17.5179 64.4423 13.3391 59.9507 8.28711 59.2021C5.48044 58.8278 2.67377 59.4516 -0.195263 59.2644C-2.56533 59.1397 -4.93541 58.3287 -6.55704 56.6443C-8.17867 54.96 -8.98948 52.3399 -8.05393 50.1564C-7.11837 47.973 -4.31171 46.7253 -2.19111 47.7859C-0.257633 48.784 0.42844 51.217 2.05007 52.7765C4.23303 54.8352 8.09999 54.7104 10.0958 52.4646C11.7798 50.5307 11.6551 47.973 10.0958 46.0391C10.3453 46.7253 10.1582 47.5987 9.65926 48.1602C8.78607 49.0335 7.35155 49.0335 6.22889 48.7216C4.66963 48.2849 3.35985 47.0373 2.79852 45.54C-0.257633 41.6723 -7.6797 38.3035 -11.1724 45.3529C-12.2327 47.5987 -12.6693 50.0317 -12.6693 52.4646C-14.6652 50.4683 -15.1018 47.3492 -14.4781 44.6043C-13.9167 41.8594 -12.4822 39.3641 -11.1724 36.9311C-10.2993 35.3715 -9.42607 33.6248 -9.73793 31.878C-10.1745 29.1955 -13.1059 27.5736 -15.7879 27.6359C-18.4698 27.6983 -20.9646 29.0708 -23.3347 30.3808C-23.0852 27.1369 -20.029 24.5791 -16.8482 23.8929C-15.1642 23.5186 -13.3554 23.581 -11.609 23.6434C-9.86267 23.6434 -8.1163 23.6434 -6.4323 23.2067C-4.7483 22.7076 -3.18904 21.7095 -2.37822 20.1499C-1.56741 18.5903 -1.75452 16.4693 -3.0643 15.3464C-4.37407 14.2235 -6.80652 14.473 -7.49259 16.095C-8.92711 15.5959 -9.05185 13.4125 -7.99156 12.2272C-6.99363 11.0419 -5.43437 10.6676 -3.99985 10.1061C-2.56533 9.54469 -1.06845 8.67132 -0.694225 7.17412C-0.195259 5.17784 -2.31586 3.24395 -4.37408 3.36872C-6.4323 3.49348 -8.17867 5.05307 -9.1766 6.8622C-10.1745 8.67132 -10.6735 10.73 -11.4219 12.6015C-12.1704 14.5354 -13.293 16.4693 -15.1018 17.405C-16.9105 18.4032 -19.5924 18.0289 -20.528 16.2197C-17.0353 16.2197 -14.291 12.9134 -14.1662 9.41993C-14.0415 2.62011 -18.9064 0 -18.9064 0C-19.343 1.93389 -19.6548 3.86778 -20.2785 5.73929C-21.0893 8.23464 -22.5239 10.7924 -24.9563 11.8529C-26.2661 12.4767 -28.0748 12.5391 -29.0727 11.4786C-29.8836 10.6676 -29.6964 9.04562 -28.8856 8.42179C-30.632 9.29516 -31.7547 11.3538 -31.4428 13.2877C-30.8815 16.7812 -26.5156 19.1518 -26.8274 22.6453C-27.2016 26.014 -31.5052 27.5112 -32.5655 30.6927C-33.1892 32.5642 -32.4407 34.6229 -31.6299 36.432C-30.8191 38.2412 -29.8836 40.1127 -30.0083 42.1089C-30.133 44.1052 -32.0665 46.7253 -34 46.2886C-32.7526 47.4116 -30.632 46.7877 -29.6341 45.4153C-28.6361 44.0428 -28.449 42.2961 -28.1372 40.6741C-27.8253 39.0521 -27.264 37.243 -25.8295 36.3697C-23.7713 35.0596 -20.8399 36.3073 -19.7172 38.4907C-18.5945 40.6117 -18.844 43.2318 -19.5301 45.54C-20.2161 47.8482 -21.3388 50.0317 -21.8378 52.4022C-22.7733 56.5196 -21.713 61.0736 -19.1559 64.3799C-16.5363 67.7486 -12.4199 69.8073 -8.17867 69.932C-3.43852 70.0568 1.61348 67.9981 5.85466 70.1192C8.09999 71.3045 9.59688 73.4879 10.7819 75.7337C11.9046 77.9795 12.8401 80.4125 14.2747 82.4711C15.7092 84.5298 17.9545 86.2766 20.4493 86.4013C23.0065 86.5261 25.5637 84.7793 25.439 82.284C24.8153 83.9684 22.6323 84.6546 21.0107 84.0307Z" fill="#CEC1A3"/>
</svg>
